G04 #@! TF.GenerationSoftware,KiCad,Pcbnew,5.1.5*
G04 #@! TF.CreationDate,2020-06-07T16:35:10+08:00*
G04 #@! TF.ProjectId,udisk,75646973-6b2e-46b6-9963-61645f706362,rev?*
G04 #@! TF.SameCoordinates,Original*
G04 #@! TF.FileFunction,Legend,Bot*
G04 #@! TF.FilePolarity,Positive*
%FSLAX46Y46*%
G04 Gerber Fmt 4.6, Leading zero omitted, Abs format (unit mm)*
G04 Created by KiCad (PCBNEW 5.1.5) date 2020-06-07 16:35:10*
%MOMM*%
%LPD*%
G04 APERTURE LIST*
%ADD10C,0.250000*%
%ADD11C,0.200000*%
%ADD12C,0.120000*%
%ADD13C,0.010000*%
%ADD14C,0.150000*%
%ADD15C,0.100000*%
%ADD16C,0.203200*%
G04 APERTURE END LIST*
D10*
X138569047Y-60752380D02*
X138569047Y-61466666D01*
X138616666Y-61609523D01*
X138711904Y-61704761D01*
X138854761Y-61752380D01*
X138950000Y-61752380D01*
X137616666Y-61752380D02*
X138092857Y-61752380D01*
X138092857Y-60752380D01*
X136711904Y-61657142D02*
X136759523Y-61704761D01*
X136902380Y-61752380D01*
X136997619Y-61752380D01*
X137140476Y-61704761D01*
X137235714Y-61609523D01*
X137283333Y-61514285D01*
X137330952Y-61323809D01*
X137330952Y-61180952D01*
X137283333Y-60990476D01*
X137235714Y-60895238D01*
X137140476Y-60800000D01*
X136997619Y-60752380D01*
X136902380Y-60752380D01*
X136759523Y-60800000D01*
X136711904Y-60847619D01*
X135997619Y-60752380D02*
X135997619Y-61466666D01*
X136045238Y-61609523D01*
X136140476Y-61704761D01*
X136283333Y-61752380D01*
X136378571Y-61752380D01*
X135045238Y-61752380D02*
X135521428Y-61752380D01*
X135521428Y-60752380D01*
X134140476Y-61657142D02*
X134188095Y-61704761D01*
X134330952Y-61752380D01*
X134426190Y-61752380D01*
X134569047Y-61704761D01*
X134664285Y-61609523D01*
X134711904Y-61514285D01*
X134759523Y-61323809D01*
X134759523Y-61180952D01*
X134711904Y-60990476D01*
X134664285Y-60895238D01*
X134569047Y-60800000D01*
X134426190Y-60752380D01*
X134330952Y-60752380D01*
X134188095Y-60800000D01*
X134140476Y-60847619D01*
X133426190Y-60752380D02*
X133426190Y-61466666D01*
X133473809Y-61609523D01*
X133569047Y-61704761D01*
X133711904Y-61752380D01*
X133807142Y-61752380D01*
X132473809Y-61752380D02*
X132950000Y-61752380D01*
X132950000Y-60752380D01*
X131569047Y-61657142D02*
X131616666Y-61704761D01*
X131759523Y-61752380D01*
X131854761Y-61752380D01*
X131997619Y-61704761D01*
X132092857Y-61609523D01*
X132140476Y-61514285D01*
X132188095Y-61323809D01*
X132188095Y-61180952D01*
X132140476Y-60990476D01*
X132092857Y-60895238D01*
X131997619Y-60800000D01*
X131854761Y-60752380D01*
X131759523Y-60752380D01*
X131616666Y-60800000D01*
X131569047Y-60847619D01*
X130854761Y-60752380D02*
X130854761Y-61466666D01*
X130902380Y-61609523D01*
X130997619Y-61704761D01*
X131140476Y-61752380D01*
X131235714Y-61752380D01*
X129902380Y-61752380D02*
X130378571Y-61752380D01*
X130378571Y-60752380D01*
X128997619Y-61657142D02*
X129045238Y-61704761D01*
X129188095Y-61752380D01*
X129283333Y-61752380D01*
X129426190Y-61704761D01*
X129521428Y-61609523D01*
X129569047Y-61514285D01*
X129616666Y-61323809D01*
X129616666Y-61180952D01*
X129569047Y-60990476D01*
X129521428Y-60895238D01*
X129426190Y-60800000D01*
X129283333Y-60752380D01*
X129188095Y-60752380D01*
X129045238Y-60800000D01*
X128997619Y-60847619D01*
D11*
X136159523Y-33123809D02*
X135092857Y-34723809D01*
X135092857Y-33123809D02*
X136159523Y-34723809D01*
X134635714Y-33123809D02*
X134254761Y-34723809D01*
X133950000Y-33580952D01*
X133645238Y-34723809D01*
X133264285Y-33123809D01*
X132807142Y-33123809D02*
X131740476Y-34723809D01*
X131740476Y-33123809D02*
X132807142Y-34723809D01*
D12*
X140095000Y-76850000D02*
X140095000Y-77400000D01*
X127805000Y-76850000D02*
X127805000Y-77400000D01*
X129550000Y-73680000D02*
X138350000Y-73680000D01*
D13*
G36*
X139024014Y-33118330D02*
G01*
X138937716Y-33151964D01*
X138835846Y-33204952D01*
X138757468Y-33259356D01*
X138740021Y-33276612D01*
X138703319Y-33310348D01*
X138663572Y-33304824D01*
X138597713Y-33255732D01*
X138588995Y-33248423D01*
X138420976Y-33146712D01*
X138245261Y-33113448D01*
X138069111Y-33148128D01*
X137899790Y-33250249D01*
X137845309Y-33300001D01*
X137771026Y-33379682D01*
X137731174Y-33447296D01*
X137715119Y-33530838D01*
X137712222Y-33650311D01*
X137721080Y-33799186D01*
X137752258Y-33930289D01*
X137812659Y-34053343D01*
X137909188Y-34178069D01*
X138048750Y-34314192D01*
X138238248Y-34471435D01*
X138364861Y-34569379D01*
X138480144Y-34656897D01*
X138575647Y-34729018D01*
X138636187Y-34774292D01*
X138647083Y-34782228D01*
X138686746Y-34771290D01*
X138769285Y-34723312D01*
X138882919Y-34645869D01*
X139015862Y-34546535D01*
X139025800Y-34538791D01*
X139241951Y-34363617D01*
X139404326Y-34215163D01*
X139519725Y-34083971D01*
X139594944Y-33960579D01*
X139636782Y-33835528D01*
X139652036Y-33699359D01*
X139652500Y-33666646D01*
X139621624Y-33468914D01*
X139531483Y-33307695D01*
X139385804Y-33187726D01*
X139224152Y-33122539D01*
X139118869Y-33104153D01*
X139024014Y-33118330D01*
G37*
X139024014Y-33118330D02*
X138937716Y-33151964D01*
X138835846Y-33204952D01*
X138757468Y-33259356D01*
X138740021Y-33276612D01*
X138703319Y-33310348D01*
X138663572Y-33304824D01*
X138597713Y-33255732D01*
X138588995Y-33248423D01*
X138420976Y-33146712D01*
X138245261Y-33113448D01*
X138069111Y-33148128D01*
X137899790Y-33250249D01*
X137845309Y-33300001D01*
X137771026Y-33379682D01*
X137731174Y-33447296D01*
X137715119Y-33530838D01*
X137712222Y-33650311D01*
X137721080Y-33799186D01*
X137752258Y-33930289D01*
X137812659Y-34053343D01*
X137909188Y-34178069D01*
X138048750Y-34314192D01*
X138238248Y-34471435D01*
X138364861Y-34569379D01*
X138480144Y-34656897D01*
X138575647Y-34729018D01*
X138636187Y-34774292D01*
X138647083Y-34782228D01*
X138686746Y-34771290D01*
X138769285Y-34723312D01*
X138882919Y-34645869D01*
X139015862Y-34546535D01*
X139025800Y-34538791D01*
X139241951Y-34363617D01*
X139404326Y-34215163D01*
X139519725Y-34083971D01*
X139594944Y-33960579D01*
X139636782Y-33835528D01*
X139652036Y-33699359D01*
X139652500Y-33666646D01*
X139621624Y-33468914D01*
X139531483Y-33307695D01*
X139385804Y-33187726D01*
X139224152Y-33122539D01*
X139118869Y-33104153D01*
X139024014Y-33118330D01*
G36*
X129524014Y-33118330D02*
G01*
X129437716Y-33151964D01*
X129335846Y-33204952D01*
X129257468Y-33259356D01*
X129240021Y-33276612D01*
X129203319Y-33310348D01*
X129163572Y-33304824D01*
X129097713Y-33255732D01*
X129088995Y-33248423D01*
X128920976Y-33146712D01*
X128745261Y-33113448D01*
X128569111Y-33148128D01*
X128399790Y-33250249D01*
X128345309Y-33300001D01*
X128271026Y-33379682D01*
X128231174Y-33447296D01*
X128215119Y-33530838D01*
X128212222Y-33650311D01*
X128221080Y-33799186D01*
X128252258Y-33930289D01*
X128312659Y-34053343D01*
X128409188Y-34178069D01*
X128548750Y-34314192D01*
X128738248Y-34471435D01*
X128864861Y-34569379D01*
X128980144Y-34656897D01*
X129075647Y-34729018D01*
X129136187Y-34774292D01*
X129147083Y-34782228D01*
X129186746Y-34771290D01*
X129269285Y-34723312D01*
X129382919Y-34645869D01*
X129515862Y-34546535D01*
X129525800Y-34538791D01*
X129741951Y-34363617D01*
X129904326Y-34215163D01*
X130019725Y-34083971D01*
X130094944Y-33960579D01*
X130136782Y-33835528D01*
X130152036Y-33699359D01*
X130152500Y-33666646D01*
X130121624Y-33468914D01*
X130031483Y-33307695D01*
X129885804Y-33187726D01*
X129724152Y-33122539D01*
X129618869Y-33104153D01*
X129524014Y-33118330D01*
G37*
X129524014Y-33118330D02*
X129437716Y-33151964D01*
X129335846Y-33204952D01*
X129257468Y-33259356D01*
X129240021Y-33276612D01*
X129203319Y-33310348D01*
X129163572Y-33304824D01*
X129097713Y-33255732D01*
X129088995Y-33248423D01*
X128920976Y-33146712D01*
X128745261Y-33113448D01*
X128569111Y-33148128D01*
X128399790Y-33250249D01*
X128345309Y-33300001D01*
X128271026Y-33379682D01*
X128231174Y-33447296D01*
X128215119Y-33530838D01*
X128212222Y-33650311D01*
X128221080Y-33799186D01*
X128252258Y-33930289D01*
X128312659Y-34053343D01*
X128409188Y-34178069D01*
X128548750Y-34314192D01*
X128738248Y-34471435D01*
X128864861Y-34569379D01*
X128980144Y-34656897D01*
X129075647Y-34729018D01*
X129136187Y-34774292D01*
X129147083Y-34782228D01*
X129186746Y-34771290D01*
X129269285Y-34723312D01*
X129382919Y-34645869D01*
X129515862Y-34546535D01*
X129525800Y-34538791D01*
X129741951Y-34363617D01*
X129904326Y-34215163D01*
X130019725Y-34083971D01*
X130094944Y-33960579D01*
X130136782Y-33835528D01*
X130152036Y-33699359D01*
X130152500Y-33666646D01*
X130121624Y-33468914D01*
X130031483Y-33307695D01*
X129885804Y-33187726D01*
X129724152Y-33122539D01*
X129618869Y-33104153D01*
X129524014Y-33118330D01*
D12*
X138508600Y-52069000D02*
X129408600Y-52069000D01*
X138508600Y-54929000D02*
X129408600Y-54929000D01*
X138508600Y-53559000D02*
X138508600Y-52069000D01*
X129408600Y-53559000D02*
X129408600Y-52069000D01*
D14*
X140700000Y-42450000D02*
X127200000Y-42450000D01*
X127200000Y-42450000D02*
X127200000Y-70450000D01*
X140700000Y-70450000D02*
X127200000Y-70450000D01*
X140700000Y-42450000D02*
X140700000Y-70450000D01*
D12*
X138508600Y-53559000D02*
X138508600Y-54929000D01*
X129408600Y-53559000D02*
X129408600Y-54929000D01*
D14*
X140700000Y-45850000D02*
X127200000Y-45850000D01*
D15*
X132582000Y-39444000D02*
G75*
G03X132582000Y-39444000I-254000J0D01*
G01*
D16*
X131930000Y-39010000D02*
X135970000Y-39010000D01*
X131930000Y-36590000D02*
X135970000Y-36590000D01*
X135970000Y-36590000D02*
X135970000Y-39010000D01*
X131930000Y-36590000D02*
X131930000Y-39010000D01*
M02*
