G04 #@! TF.GenerationSoftware,KiCad,Pcbnew,5.1.5*
G04 #@! TF.CreationDate,2020-06-01T07:17:40+08:00*
G04 #@! TF.ProjectId,udisk,75646973-6b2e-46b6-9963-61645f706362,rev?*
G04 #@! TF.SameCoordinates,Original*
G04 #@! TF.FileFunction,Soldermask,Top*
G04 #@! TF.FilePolarity,Negative*
%FSLAX46Y46*%
G04 Gerber Fmt 4.6, Leading zero omitted, Abs format (unit mm)*
G04 Created by KiCad (PCBNEW 5.1.5) date 2020-06-01 07:17:40*
%MOMM*%
%LPD*%
G04 APERTURE LIST*
%ADD10C,0.100000*%
G04 APERTURE END LIST*
D10*
G36*
X130656031Y-63364207D02*
G01*
X130854145Y-63424305D01*
X130854148Y-63424306D01*
X130920030Y-63459521D01*
X131036729Y-63521897D01*
X131196765Y-63653235D01*
X131328103Y-63813271D01*
X131328104Y-63813273D01*
X131425694Y-63995851D01*
X131425694Y-63995852D01*
X131425695Y-63995854D01*
X131485793Y-64193968D01*
X131485793Y-64193970D01*
X131501000Y-64348369D01*
X131501000Y-69451631D01*
X131500371Y-69458013D01*
X131485793Y-69606032D01*
X131425695Y-69804146D01*
X131425694Y-69804149D01*
X131377877Y-69893608D01*
X131328103Y-69986729D01*
X131196765Y-70146765D01*
X131036729Y-70278103D01*
X130950975Y-70323939D01*
X130854149Y-70375694D01*
X130854146Y-70375695D01*
X130656032Y-70435793D01*
X130450000Y-70456085D01*
X130243969Y-70435793D01*
X130045855Y-70375695D01*
X130045852Y-70375694D01*
X129949026Y-70323939D01*
X129863272Y-70278103D01*
X129703236Y-70146765D01*
X129571898Y-69986729D01*
X129522124Y-69893608D01*
X129474307Y-69804149D01*
X129474306Y-69804146D01*
X129414208Y-69606032D01*
X129399630Y-69458013D01*
X129399001Y-69451631D01*
X129399000Y-64348370D01*
X129414207Y-64193971D01*
X129414207Y-64193969D01*
X129474305Y-63995855D01*
X129474306Y-63995852D01*
X129509521Y-63929970D01*
X129571897Y-63813271D01*
X129703235Y-63653235D01*
X129863271Y-63521897D01*
X129949025Y-63476061D01*
X130045851Y-63424306D01*
X130045854Y-63424305D01*
X130243968Y-63364207D01*
X130450000Y-63343915D01*
X130656031Y-63364207D01*
G37*
G36*
X137656031Y-63364207D02*
G01*
X137854145Y-63424305D01*
X137854148Y-63424306D01*
X137920030Y-63459521D01*
X138036729Y-63521897D01*
X138196765Y-63653235D01*
X138328103Y-63813271D01*
X138328104Y-63813273D01*
X138425694Y-63995851D01*
X138425694Y-63995852D01*
X138425695Y-63995854D01*
X138485793Y-64193968D01*
X138485793Y-64193970D01*
X138501000Y-64348369D01*
X138501000Y-69451631D01*
X138500371Y-69458013D01*
X138485793Y-69606032D01*
X138425695Y-69804146D01*
X138425694Y-69804149D01*
X138377877Y-69893608D01*
X138328103Y-69986729D01*
X138196765Y-70146765D01*
X138036729Y-70278103D01*
X137950975Y-70323939D01*
X137854149Y-70375694D01*
X137854146Y-70375695D01*
X137656032Y-70435793D01*
X137450000Y-70456085D01*
X137243969Y-70435793D01*
X137045855Y-70375695D01*
X137045852Y-70375694D01*
X136949026Y-70323939D01*
X136863272Y-70278103D01*
X136703236Y-70146765D01*
X136571898Y-69986729D01*
X136522124Y-69893608D01*
X136474307Y-69804149D01*
X136474306Y-69804146D01*
X136414208Y-69606032D01*
X136399630Y-69458013D01*
X136399001Y-69451631D01*
X136399000Y-64348370D01*
X136414207Y-64193971D01*
X136414207Y-64193969D01*
X136474305Y-63995855D01*
X136474306Y-63995852D01*
X136509521Y-63929970D01*
X136571897Y-63813271D01*
X136703235Y-63653235D01*
X136863271Y-63521897D01*
X136949025Y-63476061D01*
X137045851Y-63424306D01*
X137045854Y-63424305D01*
X137243968Y-63364207D01*
X137450000Y-63343915D01*
X137656031Y-63364207D01*
G37*
G36*
X133107022Y-63860590D02*
G01*
X133207681Y-63891125D01*
X133258012Y-63906392D01*
X133397164Y-63980771D01*
X133519133Y-64080867D01*
X133619229Y-64202835D01*
X133693608Y-64341987D01*
X133708875Y-64392318D01*
X133739410Y-64492977D01*
X133751000Y-64610655D01*
X133751000Y-69189345D01*
X133739410Y-69307023D01*
X133708875Y-69407682D01*
X133693608Y-69458013D01*
X133619229Y-69597165D01*
X133519133Y-69719133D01*
X133397165Y-69819229D01*
X133258013Y-69893608D01*
X133207682Y-69908875D01*
X133107023Y-69939410D01*
X132950000Y-69954875D01*
X132792978Y-69939410D01*
X132692319Y-69908875D01*
X132641988Y-69893608D01*
X132502836Y-69819229D01*
X132380868Y-69719133D01*
X132280772Y-69597165D01*
X132206393Y-69458013D01*
X132191126Y-69407682D01*
X132160591Y-69307023D01*
X132149001Y-69189345D01*
X132149000Y-64610656D01*
X132160590Y-64492978D01*
X132204456Y-64348370D01*
X132206392Y-64341988D01*
X132280771Y-64202836D01*
X132288049Y-64193968D01*
X132380867Y-64080867D01*
X132502835Y-63980771D01*
X132641987Y-63906392D01*
X132692318Y-63891125D01*
X132792977Y-63860590D01*
X132950000Y-63845125D01*
X133107022Y-63860590D01*
G37*
G36*
X135107022Y-63860590D02*
G01*
X135207681Y-63891125D01*
X135258012Y-63906392D01*
X135397164Y-63980771D01*
X135519133Y-64080867D01*
X135619229Y-64202835D01*
X135693608Y-64341987D01*
X135708875Y-64392318D01*
X135739410Y-64492977D01*
X135751000Y-64610655D01*
X135751000Y-69189345D01*
X135739410Y-69307023D01*
X135708875Y-69407682D01*
X135693608Y-69458013D01*
X135619229Y-69597165D01*
X135519133Y-69719133D01*
X135397165Y-69819229D01*
X135258013Y-69893608D01*
X135207682Y-69908875D01*
X135107023Y-69939410D01*
X134950000Y-69954875D01*
X134792978Y-69939410D01*
X134692319Y-69908875D01*
X134641988Y-69893608D01*
X134502836Y-69819229D01*
X134380868Y-69719133D01*
X134280772Y-69597165D01*
X134206393Y-69458013D01*
X134191126Y-69407682D01*
X134160591Y-69307023D01*
X134149001Y-69189345D01*
X134149000Y-64610656D01*
X134160590Y-64492978D01*
X134204456Y-64348370D01*
X134206392Y-64341988D01*
X134280771Y-64202836D01*
X134288049Y-64193968D01*
X134380867Y-64080867D01*
X134502835Y-63980771D01*
X134641987Y-63906392D01*
X134692318Y-63891125D01*
X134792977Y-63860590D01*
X134950000Y-63845125D01*
X135107022Y-63860590D01*
G37*
G36*
X133701000Y-57451000D02*
G01*
X132799000Y-57451000D01*
X132799000Y-56349000D01*
X133701000Y-56349000D01*
X133701000Y-57451000D01*
G37*
G36*
X135101000Y-57451000D02*
G01*
X134199000Y-57451000D01*
X134199000Y-56349000D01*
X135101000Y-56349000D01*
X135101000Y-57451000D01*
G37*
G36*
X138279591Y-53578085D02*
G01*
X138313569Y-53588393D01*
X138344890Y-53605134D01*
X138372339Y-53627661D01*
X138394866Y-53655110D01*
X138411607Y-53686431D01*
X138421915Y-53720409D01*
X138426000Y-53761890D01*
X138426000Y-54438110D01*
X138421915Y-54479591D01*
X138411607Y-54513569D01*
X138394866Y-54544890D01*
X138372339Y-54572339D01*
X138344890Y-54594866D01*
X138313569Y-54611607D01*
X138279591Y-54621915D01*
X138238110Y-54626000D01*
X137636890Y-54626000D01*
X137595409Y-54621915D01*
X137561431Y-54611607D01*
X137530110Y-54594866D01*
X137502661Y-54572339D01*
X137480134Y-54544890D01*
X137463393Y-54513569D01*
X137453085Y-54479591D01*
X137449000Y-54438110D01*
X137449000Y-53761890D01*
X137453085Y-53720409D01*
X137463393Y-53686431D01*
X137480134Y-53655110D01*
X137502661Y-53627661D01*
X137530110Y-53605134D01*
X137561431Y-53588393D01*
X137595409Y-53578085D01*
X137636890Y-53574000D01*
X138238110Y-53574000D01*
X138279591Y-53578085D01*
G37*
G36*
X136704591Y-53578085D02*
G01*
X136738569Y-53588393D01*
X136769890Y-53605134D01*
X136797339Y-53627661D01*
X136819866Y-53655110D01*
X136836607Y-53686431D01*
X136846915Y-53720409D01*
X136851000Y-53761890D01*
X136851000Y-54438110D01*
X136846915Y-54479591D01*
X136836607Y-54513569D01*
X136819866Y-54544890D01*
X136797339Y-54572339D01*
X136769890Y-54594866D01*
X136738569Y-54611607D01*
X136704591Y-54621915D01*
X136663110Y-54626000D01*
X136061890Y-54626000D01*
X136020409Y-54621915D01*
X135986431Y-54611607D01*
X135955110Y-54594866D01*
X135927661Y-54572339D01*
X135905134Y-54544890D01*
X135888393Y-54513569D01*
X135878085Y-54479591D01*
X135874000Y-54438110D01*
X135874000Y-53761890D01*
X135878085Y-53720409D01*
X135888393Y-53686431D01*
X135905134Y-53655110D01*
X135927661Y-53627661D01*
X135955110Y-53605134D01*
X135986431Y-53588393D01*
X136020409Y-53578085D01*
X136061890Y-53574000D01*
X136663110Y-53574000D01*
X136704591Y-53578085D01*
G37*
G36*
X130521938Y-53431716D02*
G01*
X130542557Y-53437971D01*
X130561553Y-53448124D01*
X130578208Y-53461792D01*
X130591876Y-53478447D01*
X130602029Y-53497443D01*
X130608284Y-53518062D01*
X130611000Y-53545640D01*
X130611000Y-54054360D01*
X130608284Y-54081938D01*
X130602029Y-54102557D01*
X130591876Y-54121553D01*
X130578208Y-54138208D01*
X130561553Y-54151876D01*
X130542557Y-54162029D01*
X130521938Y-54168284D01*
X130494360Y-54171000D01*
X130035640Y-54171000D01*
X130008062Y-54168284D01*
X129987443Y-54162029D01*
X129968447Y-54151876D01*
X129951792Y-54138208D01*
X129938124Y-54121553D01*
X129927971Y-54102557D01*
X129921716Y-54081938D01*
X129919000Y-54054360D01*
X129919000Y-53545640D01*
X129921716Y-53518062D01*
X129927971Y-53497443D01*
X129938124Y-53478447D01*
X129951792Y-53461792D01*
X129968447Y-53448124D01*
X129987443Y-53437971D01*
X130008062Y-53431716D01*
X130035640Y-53429000D01*
X130494360Y-53429000D01*
X130521938Y-53431716D01*
G37*
G36*
X131491938Y-53431716D02*
G01*
X131512557Y-53437971D01*
X131531553Y-53448124D01*
X131548208Y-53461792D01*
X131561876Y-53478447D01*
X131572029Y-53497443D01*
X131578284Y-53518062D01*
X131581000Y-53545640D01*
X131581000Y-54054360D01*
X131578284Y-54081938D01*
X131572029Y-54102557D01*
X131561876Y-54121553D01*
X131548208Y-54138208D01*
X131531553Y-54151876D01*
X131512557Y-54162029D01*
X131491938Y-54168284D01*
X131464360Y-54171000D01*
X131005640Y-54171000D01*
X130978062Y-54168284D01*
X130957443Y-54162029D01*
X130938447Y-54151876D01*
X130921792Y-54138208D01*
X130908124Y-54121553D01*
X130897971Y-54102557D01*
X130891716Y-54081938D01*
X130889000Y-54054360D01*
X130889000Y-53545640D01*
X130891716Y-53518062D01*
X130897971Y-53497443D01*
X130908124Y-53478447D01*
X130921792Y-53461792D01*
X130938447Y-53448124D01*
X130957443Y-53437971D01*
X130978062Y-53431716D01*
X131005640Y-53429000D01*
X131464360Y-53429000D01*
X131491938Y-53431716D01*
G37*
G36*
X138476000Y-52981000D02*
G01*
X135824000Y-52981000D01*
X135824000Y-51819000D01*
X138476000Y-51819000D01*
X138476000Y-52981000D01*
G37*
G36*
X130251000Y-52701000D02*
G01*
X129249000Y-52701000D01*
X129249000Y-51799000D01*
X130251000Y-51799000D01*
X130251000Y-52701000D01*
G37*
G36*
X128631938Y-51541716D02*
G01*
X128652557Y-51547971D01*
X128671553Y-51558124D01*
X128688208Y-51571792D01*
X128701876Y-51588447D01*
X128712029Y-51607443D01*
X128718284Y-51628062D01*
X128721000Y-51655640D01*
X128721000Y-52114360D01*
X128718284Y-52141938D01*
X128712029Y-52162557D01*
X128701876Y-52181553D01*
X128688208Y-52198208D01*
X128671553Y-52211876D01*
X128652557Y-52222029D01*
X128631938Y-52228284D01*
X128604360Y-52231000D01*
X128095640Y-52231000D01*
X128068062Y-52228284D01*
X128047443Y-52222029D01*
X128028447Y-52211876D01*
X128011792Y-52198208D01*
X127998124Y-52181553D01*
X127987971Y-52162557D01*
X127981716Y-52141938D01*
X127979000Y-52114360D01*
X127979000Y-51655640D01*
X127981716Y-51628062D01*
X127987971Y-51607443D01*
X127998124Y-51588447D01*
X128011792Y-51571792D01*
X128028447Y-51558124D01*
X128047443Y-51547971D01*
X128068062Y-51541716D01*
X128095640Y-51539000D01*
X128604360Y-51539000D01*
X128631938Y-51541716D01*
G37*
G36*
X139931938Y-51441716D02*
G01*
X139952557Y-51447971D01*
X139971553Y-51458124D01*
X139988208Y-51471792D01*
X140001876Y-51488447D01*
X140012029Y-51507443D01*
X140018284Y-51528062D01*
X140021000Y-51555640D01*
X140021000Y-52014360D01*
X140018284Y-52041938D01*
X140012029Y-52062557D01*
X140001876Y-52081553D01*
X139988208Y-52098208D01*
X139971553Y-52111876D01*
X139952557Y-52122029D01*
X139931938Y-52128284D01*
X139904360Y-52131000D01*
X139395640Y-52131000D01*
X139368062Y-52128284D01*
X139347443Y-52122029D01*
X139328447Y-52111876D01*
X139311792Y-52098208D01*
X139298124Y-52081553D01*
X139287971Y-52062557D01*
X139281716Y-52041938D01*
X139279000Y-52014360D01*
X139279000Y-51555640D01*
X139281716Y-51528062D01*
X139287971Y-51507443D01*
X139298124Y-51488447D01*
X139311792Y-51471792D01*
X139328447Y-51458124D01*
X139347443Y-51447971D01*
X139368062Y-51441716D01*
X139395640Y-51439000D01*
X139904360Y-51439000D01*
X139931938Y-51441716D01*
G37*
G36*
X132251000Y-51751000D02*
G01*
X131249000Y-51751000D01*
X131249000Y-50849000D01*
X132251000Y-50849000D01*
X132251000Y-51751000D01*
G37*
G36*
X133721938Y-50831716D02*
G01*
X133742557Y-50837971D01*
X133761553Y-50848124D01*
X133778208Y-50861792D01*
X133791876Y-50878447D01*
X133802029Y-50897443D01*
X133808284Y-50918062D01*
X133811000Y-50945640D01*
X133811000Y-51454360D01*
X133808284Y-51481938D01*
X133802029Y-51502557D01*
X133791876Y-51521553D01*
X133778208Y-51538208D01*
X133761553Y-51551876D01*
X133742557Y-51562029D01*
X133721938Y-51568284D01*
X133694360Y-51571000D01*
X133235640Y-51571000D01*
X133208062Y-51568284D01*
X133187443Y-51562029D01*
X133168447Y-51551876D01*
X133151792Y-51538208D01*
X133138124Y-51521553D01*
X133127971Y-51502557D01*
X133121716Y-51481938D01*
X133119000Y-51454360D01*
X133119000Y-50945640D01*
X133121716Y-50918062D01*
X133127971Y-50897443D01*
X133138124Y-50878447D01*
X133151792Y-50861792D01*
X133168447Y-50848124D01*
X133187443Y-50837971D01*
X133208062Y-50831716D01*
X133235640Y-50829000D01*
X133694360Y-50829000D01*
X133721938Y-50831716D01*
G37*
G36*
X134691938Y-50831716D02*
G01*
X134712557Y-50837971D01*
X134731553Y-50848124D01*
X134748208Y-50861792D01*
X134761876Y-50878447D01*
X134772029Y-50897443D01*
X134778284Y-50918062D01*
X134781000Y-50945640D01*
X134781000Y-51454360D01*
X134778284Y-51481938D01*
X134772029Y-51502557D01*
X134761876Y-51521553D01*
X134748208Y-51538208D01*
X134731553Y-51551876D01*
X134712557Y-51562029D01*
X134691938Y-51568284D01*
X134664360Y-51571000D01*
X134205640Y-51571000D01*
X134178062Y-51568284D01*
X134157443Y-51562029D01*
X134138447Y-51551876D01*
X134121792Y-51538208D01*
X134108124Y-51521553D01*
X134097971Y-51502557D01*
X134091716Y-51481938D01*
X134089000Y-51454360D01*
X134089000Y-50945640D01*
X134091716Y-50918062D01*
X134097971Y-50897443D01*
X134108124Y-50878447D01*
X134121792Y-50861792D01*
X134138447Y-50848124D01*
X134157443Y-50837971D01*
X134178062Y-50831716D01*
X134205640Y-50829000D01*
X134664360Y-50829000D01*
X134691938Y-50831716D01*
G37*
G36*
X128631938Y-50571716D02*
G01*
X128652557Y-50577971D01*
X128671553Y-50588124D01*
X128688208Y-50601792D01*
X128701876Y-50618447D01*
X128712029Y-50637443D01*
X128718284Y-50658062D01*
X128721000Y-50685640D01*
X128721000Y-51144360D01*
X128718284Y-51171938D01*
X128712029Y-51192557D01*
X128701876Y-51211553D01*
X128688208Y-51228208D01*
X128671553Y-51241876D01*
X128652557Y-51252029D01*
X128631938Y-51258284D01*
X128604360Y-51261000D01*
X128095640Y-51261000D01*
X128068062Y-51258284D01*
X128047443Y-51252029D01*
X128028447Y-51241876D01*
X128011792Y-51228208D01*
X127998124Y-51211553D01*
X127987971Y-51192557D01*
X127981716Y-51171938D01*
X127979000Y-51144360D01*
X127979000Y-50685640D01*
X127981716Y-50658062D01*
X127987971Y-50637443D01*
X127998124Y-50618447D01*
X128011792Y-50601792D01*
X128028447Y-50588124D01*
X128047443Y-50577971D01*
X128068062Y-50571716D01*
X128095640Y-50569000D01*
X128604360Y-50569000D01*
X128631938Y-50571716D01*
G37*
G36*
X139931938Y-50471716D02*
G01*
X139952557Y-50477971D01*
X139971553Y-50488124D01*
X139988208Y-50501792D01*
X140001876Y-50518447D01*
X140012029Y-50537443D01*
X140018284Y-50558062D01*
X140021000Y-50585640D01*
X140021000Y-51044360D01*
X140018284Y-51071938D01*
X140012029Y-51092557D01*
X140001876Y-51111553D01*
X139988208Y-51128208D01*
X139971553Y-51141876D01*
X139952557Y-51152029D01*
X139931938Y-51158284D01*
X139904360Y-51161000D01*
X139395640Y-51161000D01*
X139368062Y-51158284D01*
X139347443Y-51152029D01*
X139328447Y-51141876D01*
X139311792Y-51128208D01*
X139298124Y-51111553D01*
X139287971Y-51092557D01*
X139281716Y-51071938D01*
X139279000Y-51044360D01*
X139279000Y-50585640D01*
X139281716Y-50558062D01*
X139287971Y-50537443D01*
X139298124Y-50518447D01*
X139311792Y-50501792D01*
X139328447Y-50488124D01*
X139347443Y-50477971D01*
X139368062Y-50471716D01*
X139395640Y-50469000D01*
X139904360Y-50469000D01*
X139931938Y-50471716D01*
G37*
G36*
X130251000Y-50801000D02*
G01*
X129249000Y-50801000D01*
X129249000Y-49899000D01*
X130251000Y-49899000D01*
X130251000Y-50801000D01*
G37*
G36*
X136576000Y-50781000D02*
G01*
X135824000Y-50781000D01*
X135824000Y-49619000D01*
X136576000Y-49619000D01*
X136576000Y-50781000D01*
G37*
G36*
X138476000Y-50781000D02*
G01*
X137724000Y-50781000D01*
X137724000Y-49619000D01*
X138476000Y-49619000D01*
X138476000Y-50781000D01*
G37*
G36*
X130521938Y-48631716D02*
G01*
X130542557Y-48637971D01*
X130561553Y-48648124D01*
X130578208Y-48661792D01*
X130591876Y-48678447D01*
X130602029Y-48697443D01*
X130608284Y-48718062D01*
X130611000Y-48745640D01*
X130611000Y-49254360D01*
X130608284Y-49281938D01*
X130602029Y-49302557D01*
X130591876Y-49321553D01*
X130578208Y-49338208D01*
X130561553Y-49351876D01*
X130542557Y-49362029D01*
X130521938Y-49368284D01*
X130494360Y-49371000D01*
X130035640Y-49371000D01*
X130008062Y-49368284D01*
X129987443Y-49362029D01*
X129968447Y-49351876D01*
X129951792Y-49338208D01*
X129938124Y-49321553D01*
X129927971Y-49302557D01*
X129921716Y-49281938D01*
X129919000Y-49254360D01*
X129919000Y-48745640D01*
X129921716Y-48718062D01*
X129927971Y-48697443D01*
X129938124Y-48678447D01*
X129951792Y-48661792D01*
X129968447Y-48648124D01*
X129987443Y-48637971D01*
X130008062Y-48631716D01*
X130035640Y-48629000D01*
X130494360Y-48629000D01*
X130521938Y-48631716D01*
G37*
G36*
X131491938Y-48631716D02*
G01*
X131512557Y-48637971D01*
X131531553Y-48648124D01*
X131548208Y-48661792D01*
X131561876Y-48678447D01*
X131572029Y-48697443D01*
X131578284Y-48718062D01*
X131581000Y-48745640D01*
X131581000Y-49254360D01*
X131578284Y-49281938D01*
X131572029Y-49302557D01*
X131561876Y-49321553D01*
X131548208Y-49338208D01*
X131531553Y-49351876D01*
X131512557Y-49362029D01*
X131491938Y-49368284D01*
X131464360Y-49371000D01*
X131005640Y-49371000D01*
X130978062Y-49368284D01*
X130957443Y-49362029D01*
X130938447Y-49351876D01*
X130921792Y-49338208D01*
X130908124Y-49321553D01*
X130897971Y-49302557D01*
X130891716Y-49281938D01*
X130889000Y-49254360D01*
X130889000Y-48745640D01*
X130891716Y-48718062D01*
X130897971Y-48697443D01*
X130908124Y-48678447D01*
X130921792Y-48661792D01*
X130938447Y-48648124D01*
X130957443Y-48637971D01*
X130978062Y-48631716D01*
X131005640Y-48629000D01*
X131464360Y-48629000D01*
X131491938Y-48631716D01*
G37*
G36*
X136704591Y-47978085D02*
G01*
X136738569Y-47988393D01*
X136769890Y-48005134D01*
X136797339Y-48027661D01*
X136819866Y-48055110D01*
X136836607Y-48086431D01*
X136846915Y-48120409D01*
X136851000Y-48161890D01*
X136851000Y-48838110D01*
X136846915Y-48879591D01*
X136836607Y-48913569D01*
X136819866Y-48944890D01*
X136797339Y-48972339D01*
X136769890Y-48994866D01*
X136738569Y-49011607D01*
X136704591Y-49021915D01*
X136663110Y-49026000D01*
X136061890Y-49026000D01*
X136020409Y-49021915D01*
X135986431Y-49011607D01*
X135955110Y-48994866D01*
X135927661Y-48972339D01*
X135905134Y-48944890D01*
X135888393Y-48913569D01*
X135878085Y-48879591D01*
X135874000Y-48838110D01*
X135874000Y-48161890D01*
X135878085Y-48120409D01*
X135888393Y-48086431D01*
X135905134Y-48055110D01*
X135927661Y-48027661D01*
X135955110Y-48005134D01*
X135986431Y-47988393D01*
X136020409Y-47978085D01*
X136061890Y-47974000D01*
X136663110Y-47974000D01*
X136704591Y-47978085D01*
G37*
G36*
X138279591Y-47978085D02*
G01*
X138313569Y-47988393D01*
X138344890Y-48005134D01*
X138372339Y-48027661D01*
X138394866Y-48055110D01*
X138411607Y-48086431D01*
X138421915Y-48120409D01*
X138426000Y-48161890D01*
X138426000Y-48838110D01*
X138421915Y-48879591D01*
X138411607Y-48913569D01*
X138394866Y-48944890D01*
X138372339Y-48972339D01*
X138344890Y-48994866D01*
X138313569Y-49011607D01*
X138279591Y-49021915D01*
X138238110Y-49026000D01*
X137636890Y-49026000D01*
X137595409Y-49021915D01*
X137561431Y-49011607D01*
X137530110Y-48994866D01*
X137502661Y-48972339D01*
X137480134Y-48944890D01*
X137463393Y-48913569D01*
X137453085Y-48879591D01*
X137449000Y-48838110D01*
X137449000Y-48161890D01*
X137453085Y-48120409D01*
X137463393Y-48086431D01*
X137480134Y-48055110D01*
X137502661Y-48027661D01*
X137530110Y-48005134D01*
X137561431Y-47988393D01*
X137595409Y-47978085D01*
X137636890Y-47974000D01*
X138238110Y-47974000D01*
X138279591Y-47978085D01*
G37*
G36*
X131506938Y-47631716D02*
G01*
X131527557Y-47637971D01*
X131546553Y-47648124D01*
X131563208Y-47661792D01*
X131576876Y-47678447D01*
X131587029Y-47697443D01*
X131593284Y-47718062D01*
X131596000Y-47745640D01*
X131596000Y-48254360D01*
X131593284Y-48281938D01*
X131587029Y-48302557D01*
X131576876Y-48321553D01*
X131563208Y-48338208D01*
X131546553Y-48351876D01*
X131527557Y-48362029D01*
X131506938Y-48368284D01*
X131479360Y-48371000D01*
X131020640Y-48371000D01*
X130993062Y-48368284D01*
X130972443Y-48362029D01*
X130953447Y-48351876D01*
X130936792Y-48338208D01*
X130923124Y-48321553D01*
X130912971Y-48302557D01*
X130906716Y-48281938D01*
X130904000Y-48254360D01*
X130904000Y-47745640D01*
X130906716Y-47718062D01*
X130912971Y-47697443D01*
X130923124Y-47678447D01*
X130936792Y-47661792D01*
X130953447Y-47648124D01*
X130972443Y-47637971D01*
X130993062Y-47631716D01*
X131020640Y-47629000D01*
X131479360Y-47629000D01*
X131506938Y-47631716D01*
G37*
G36*
X130536938Y-47631716D02*
G01*
X130557557Y-47637971D01*
X130576553Y-47648124D01*
X130593208Y-47661792D01*
X130606876Y-47678447D01*
X130617029Y-47697443D01*
X130623284Y-47718062D01*
X130626000Y-47745640D01*
X130626000Y-48254360D01*
X130623284Y-48281938D01*
X130617029Y-48302557D01*
X130606876Y-48321553D01*
X130593208Y-48338208D01*
X130576553Y-48351876D01*
X130557557Y-48362029D01*
X130536938Y-48368284D01*
X130509360Y-48371000D01*
X130050640Y-48371000D01*
X130023062Y-48368284D01*
X130002443Y-48362029D01*
X129983447Y-48351876D01*
X129966792Y-48338208D01*
X129953124Y-48321553D01*
X129942971Y-48302557D01*
X129936716Y-48281938D01*
X129934000Y-48254360D01*
X129934000Y-47745640D01*
X129936716Y-47718062D01*
X129942971Y-47697443D01*
X129953124Y-47678447D01*
X129966792Y-47661792D01*
X129983447Y-47648124D01*
X130002443Y-47637971D01*
X130023062Y-47631716D01*
X130050640Y-47629000D01*
X130509360Y-47629000D01*
X130536938Y-47631716D01*
G37*
G36*
X131355355Y-38200083D02*
G01*
X131360029Y-38201501D01*
X131364330Y-38203800D01*
X131370702Y-38209029D01*
X131391076Y-38222643D01*
X131413715Y-38232020D01*
X131437749Y-38236800D01*
X131462253Y-38236800D01*
X131486286Y-38232019D01*
X131508925Y-38222642D01*
X131529298Y-38209029D01*
X131535670Y-38203800D01*
X131539971Y-38201501D01*
X131544645Y-38200083D01*
X131555641Y-38199000D01*
X131844359Y-38199000D01*
X131855355Y-38200083D01*
X131860029Y-38201501D01*
X131864330Y-38203800D01*
X131870702Y-38209029D01*
X131891076Y-38222643D01*
X131913715Y-38232020D01*
X131937749Y-38236800D01*
X131962253Y-38236800D01*
X131986286Y-38232019D01*
X132008925Y-38222642D01*
X132029298Y-38209029D01*
X132035670Y-38203800D01*
X132039971Y-38201501D01*
X132044645Y-38200083D01*
X132055641Y-38199000D01*
X132344359Y-38199000D01*
X132355355Y-38200083D01*
X132360029Y-38201501D01*
X132364330Y-38203800D01*
X132370702Y-38209029D01*
X132391076Y-38222643D01*
X132413715Y-38232020D01*
X132437749Y-38236800D01*
X132462253Y-38236800D01*
X132486286Y-38232019D01*
X132508925Y-38222642D01*
X132529298Y-38209029D01*
X132535670Y-38203800D01*
X132539971Y-38201501D01*
X132544645Y-38200083D01*
X132555641Y-38199000D01*
X132844359Y-38199000D01*
X132855355Y-38200083D01*
X132860029Y-38201501D01*
X132864330Y-38203800D01*
X132870702Y-38209029D01*
X132891076Y-38222643D01*
X132913715Y-38232020D01*
X132937749Y-38236800D01*
X132962253Y-38236800D01*
X132986286Y-38232019D01*
X133008925Y-38222642D01*
X133029298Y-38209029D01*
X133035670Y-38203800D01*
X133039971Y-38201501D01*
X133044645Y-38200083D01*
X133055641Y-38199000D01*
X133344359Y-38199000D01*
X133355355Y-38200083D01*
X133360029Y-38201501D01*
X133364330Y-38203800D01*
X133370702Y-38209029D01*
X133391076Y-38222643D01*
X133413715Y-38232020D01*
X133437749Y-38236800D01*
X133462253Y-38236800D01*
X133486286Y-38232019D01*
X133508925Y-38222642D01*
X133529298Y-38209029D01*
X133535670Y-38203800D01*
X133539971Y-38201501D01*
X133544645Y-38200083D01*
X133555641Y-38199000D01*
X133844359Y-38199000D01*
X133855355Y-38200083D01*
X133860029Y-38201501D01*
X133864330Y-38203800D01*
X133870702Y-38209029D01*
X133891076Y-38222643D01*
X133913715Y-38232020D01*
X133937749Y-38236800D01*
X133962253Y-38236800D01*
X133986286Y-38232019D01*
X134008925Y-38222642D01*
X134029298Y-38209029D01*
X134035670Y-38203800D01*
X134039971Y-38201501D01*
X134044645Y-38200083D01*
X134055641Y-38199000D01*
X134344359Y-38199000D01*
X134355355Y-38200083D01*
X134360029Y-38201501D01*
X134364330Y-38203800D01*
X134370702Y-38209029D01*
X134391076Y-38222643D01*
X134413715Y-38232020D01*
X134437749Y-38236800D01*
X134462253Y-38236800D01*
X134486286Y-38232019D01*
X134508925Y-38222642D01*
X134529298Y-38209029D01*
X134535670Y-38203800D01*
X134539971Y-38201501D01*
X134544645Y-38200083D01*
X134555641Y-38199000D01*
X134844359Y-38199000D01*
X134855355Y-38200083D01*
X134860029Y-38201501D01*
X134864330Y-38203800D01*
X134870702Y-38209029D01*
X134891076Y-38222643D01*
X134913715Y-38232020D01*
X134937749Y-38236800D01*
X134962253Y-38236800D01*
X134986286Y-38232019D01*
X135008925Y-38222642D01*
X135029298Y-38209029D01*
X135035670Y-38203800D01*
X135039971Y-38201501D01*
X135044645Y-38200083D01*
X135055641Y-38199000D01*
X135344359Y-38199000D01*
X135355355Y-38200083D01*
X135360029Y-38201501D01*
X135364330Y-38203800D01*
X135370702Y-38209029D01*
X135391076Y-38222643D01*
X135413715Y-38232020D01*
X135437749Y-38236800D01*
X135462253Y-38236800D01*
X135486286Y-38232019D01*
X135508925Y-38222642D01*
X135529298Y-38209029D01*
X135535670Y-38203800D01*
X135539971Y-38201501D01*
X135544645Y-38200083D01*
X135555641Y-38199000D01*
X135844359Y-38199000D01*
X135855355Y-38200083D01*
X135860029Y-38201501D01*
X135864330Y-38203800D01*
X135870702Y-38209029D01*
X135891076Y-38222643D01*
X135913715Y-38232020D01*
X135937749Y-38236800D01*
X135962253Y-38236800D01*
X135986286Y-38232019D01*
X136008925Y-38222642D01*
X136029298Y-38209029D01*
X136035670Y-38203800D01*
X136039971Y-38201501D01*
X136044645Y-38200083D01*
X136055641Y-38199000D01*
X136344359Y-38199000D01*
X136355355Y-38200083D01*
X136360029Y-38201501D01*
X136364330Y-38203800D01*
X136370702Y-38209029D01*
X136391076Y-38222643D01*
X136413715Y-38232020D01*
X136437749Y-38236800D01*
X136462253Y-38236800D01*
X136486286Y-38232019D01*
X136508925Y-38222642D01*
X136529298Y-38209029D01*
X136535670Y-38203800D01*
X136539971Y-38201501D01*
X136544645Y-38200083D01*
X136555641Y-38199000D01*
X136844359Y-38199000D01*
X136855355Y-38200083D01*
X136860029Y-38201501D01*
X136864331Y-38203800D01*
X136868104Y-38206896D01*
X136871200Y-38210669D01*
X136873499Y-38214971D01*
X136874917Y-38219645D01*
X136876000Y-38230641D01*
X136876000Y-39049001D01*
X136878402Y-39073387D01*
X136885515Y-39096836D01*
X136897066Y-39118447D01*
X136912611Y-39137389D01*
X136931553Y-39152934D01*
X136953164Y-39164485D01*
X136976613Y-39171598D01*
X137000999Y-39174000D01*
X137819359Y-39174000D01*
X137830355Y-39175083D01*
X137835029Y-39176501D01*
X137839331Y-39178800D01*
X137843104Y-39181896D01*
X137846200Y-39185669D01*
X137848499Y-39189971D01*
X137849917Y-39194645D01*
X137851000Y-39205641D01*
X137851000Y-39494359D01*
X137849917Y-39505355D01*
X137848499Y-39510029D01*
X137846200Y-39514330D01*
X137840971Y-39520702D01*
X137827357Y-39541076D01*
X137817980Y-39563715D01*
X137813200Y-39587749D01*
X137813200Y-39612253D01*
X137817981Y-39636286D01*
X137827358Y-39658925D01*
X137840971Y-39679298D01*
X137846200Y-39685670D01*
X137848499Y-39689971D01*
X137849917Y-39694645D01*
X137851000Y-39705641D01*
X137851000Y-39994359D01*
X137849917Y-40005355D01*
X137848499Y-40010029D01*
X137846200Y-40014330D01*
X137840971Y-40020702D01*
X137827357Y-40041076D01*
X137817980Y-40063715D01*
X137813200Y-40087749D01*
X137813200Y-40112253D01*
X137817981Y-40136286D01*
X137827358Y-40158925D01*
X137840971Y-40179298D01*
X137846200Y-40185670D01*
X137848499Y-40189971D01*
X137849917Y-40194645D01*
X137851000Y-40205641D01*
X137851000Y-40494359D01*
X137849917Y-40505355D01*
X137848499Y-40510029D01*
X137846200Y-40514330D01*
X137840971Y-40520702D01*
X137827357Y-40541076D01*
X137817980Y-40563715D01*
X137813200Y-40587749D01*
X137813200Y-40612253D01*
X137817981Y-40636286D01*
X137827358Y-40658925D01*
X137840971Y-40679298D01*
X137846200Y-40685670D01*
X137848499Y-40689971D01*
X137849917Y-40694645D01*
X137851000Y-40705641D01*
X137851000Y-40994359D01*
X137849917Y-41005355D01*
X137848499Y-41010029D01*
X137846200Y-41014330D01*
X137840971Y-41020702D01*
X137827357Y-41041076D01*
X137817980Y-41063715D01*
X137813200Y-41087749D01*
X137813200Y-41112253D01*
X137817981Y-41136286D01*
X137827358Y-41158925D01*
X137840971Y-41179298D01*
X137846200Y-41185670D01*
X137848499Y-41189971D01*
X137849917Y-41194645D01*
X137851000Y-41205641D01*
X137851000Y-41494359D01*
X137849917Y-41505355D01*
X137848499Y-41510029D01*
X137846200Y-41514330D01*
X137840971Y-41520702D01*
X137827357Y-41541076D01*
X137817980Y-41563715D01*
X137813200Y-41587749D01*
X137813200Y-41612253D01*
X137817981Y-41636286D01*
X137827358Y-41658925D01*
X137840971Y-41679298D01*
X137846200Y-41685670D01*
X137848499Y-41689971D01*
X137849917Y-41694645D01*
X137851000Y-41705641D01*
X137851000Y-41994359D01*
X137849917Y-42005355D01*
X137848499Y-42010029D01*
X137846200Y-42014330D01*
X137840971Y-42020702D01*
X137827357Y-42041076D01*
X137817980Y-42063715D01*
X137813200Y-42087749D01*
X137813200Y-42112253D01*
X137817981Y-42136286D01*
X137827358Y-42158925D01*
X137840971Y-42179298D01*
X137846200Y-42185670D01*
X137848499Y-42189971D01*
X137849917Y-42194645D01*
X137851000Y-42205641D01*
X137851000Y-42494359D01*
X137849917Y-42505355D01*
X137848499Y-42510029D01*
X137846200Y-42514330D01*
X137840971Y-42520702D01*
X137827357Y-42541076D01*
X137817980Y-42563715D01*
X137813200Y-42587749D01*
X137813200Y-42612253D01*
X137817981Y-42636286D01*
X137827358Y-42658925D01*
X137840971Y-42679298D01*
X137846200Y-42685670D01*
X137848499Y-42689971D01*
X137849917Y-42694645D01*
X137851000Y-42705641D01*
X137851000Y-42994359D01*
X137849917Y-43005355D01*
X137848499Y-43010029D01*
X137846200Y-43014330D01*
X137840971Y-43020702D01*
X137827357Y-43041076D01*
X137817980Y-43063715D01*
X137813200Y-43087749D01*
X137813200Y-43112253D01*
X137817981Y-43136286D01*
X137827358Y-43158925D01*
X137840971Y-43179298D01*
X137846200Y-43185670D01*
X137848499Y-43189971D01*
X137849917Y-43194645D01*
X137851000Y-43205641D01*
X137851000Y-43494359D01*
X137849917Y-43505355D01*
X137848499Y-43510029D01*
X137846200Y-43514330D01*
X137840971Y-43520702D01*
X137827357Y-43541076D01*
X137817980Y-43563715D01*
X137813200Y-43587749D01*
X137813200Y-43612253D01*
X137817981Y-43636286D01*
X137827358Y-43658925D01*
X137840971Y-43679298D01*
X137846200Y-43685670D01*
X137848499Y-43689971D01*
X137849917Y-43694645D01*
X137851000Y-43705641D01*
X137851000Y-43994359D01*
X137849917Y-44005355D01*
X137848499Y-44010029D01*
X137846200Y-44014330D01*
X137840971Y-44020702D01*
X137827357Y-44041076D01*
X137817980Y-44063715D01*
X137813200Y-44087749D01*
X137813200Y-44112253D01*
X137817981Y-44136286D01*
X137827358Y-44158925D01*
X137840971Y-44179298D01*
X137846200Y-44185670D01*
X137848499Y-44189971D01*
X137849917Y-44194645D01*
X137851000Y-44205641D01*
X137851000Y-44494359D01*
X137849917Y-44505355D01*
X137848499Y-44510029D01*
X137846200Y-44514330D01*
X137840971Y-44520702D01*
X137827357Y-44541076D01*
X137817980Y-44563715D01*
X137813200Y-44587749D01*
X137813200Y-44612253D01*
X137817981Y-44636286D01*
X137827358Y-44658925D01*
X137840971Y-44679298D01*
X137846200Y-44685670D01*
X137848499Y-44689971D01*
X137849917Y-44694645D01*
X137851000Y-44705641D01*
X137851000Y-44994359D01*
X137849917Y-45005355D01*
X137848499Y-45010029D01*
X137846200Y-45014331D01*
X137843104Y-45018104D01*
X137839331Y-45021200D01*
X137835029Y-45023499D01*
X137830355Y-45024917D01*
X137819359Y-45026000D01*
X137000999Y-45026000D01*
X136976613Y-45028402D01*
X136953164Y-45035515D01*
X136931553Y-45047066D01*
X136912611Y-45062611D01*
X136897066Y-45081553D01*
X136885515Y-45103164D01*
X136878402Y-45126613D01*
X136876000Y-45150999D01*
X136876000Y-45969359D01*
X136874917Y-45980355D01*
X136873499Y-45985029D01*
X136871200Y-45989331D01*
X136868104Y-45993104D01*
X136864331Y-45996200D01*
X136860029Y-45998499D01*
X136855355Y-45999917D01*
X136844359Y-46001000D01*
X136555641Y-46001000D01*
X136544645Y-45999917D01*
X136539971Y-45998499D01*
X136535670Y-45996200D01*
X136529298Y-45990971D01*
X136508924Y-45977357D01*
X136486285Y-45967980D01*
X136462251Y-45963200D01*
X136437747Y-45963200D01*
X136413714Y-45967981D01*
X136391075Y-45977358D01*
X136370702Y-45990971D01*
X136364330Y-45996200D01*
X136360029Y-45998499D01*
X136355355Y-45999917D01*
X136344359Y-46001000D01*
X136055641Y-46001000D01*
X136044645Y-45999917D01*
X136039971Y-45998499D01*
X136035670Y-45996200D01*
X136029298Y-45990971D01*
X136008924Y-45977357D01*
X135986285Y-45967980D01*
X135962251Y-45963200D01*
X135937747Y-45963200D01*
X135913714Y-45967981D01*
X135891075Y-45977358D01*
X135870702Y-45990971D01*
X135864330Y-45996200D01*
X135860029Y-45998499D01*
X135855355Y-45999917D01*
X135844359Y-46001000D01*
X135555641Y-46001000D01*
X135544645Y-45999917D01*
X135539971Y-45998499D01*
X135535670Y-45996200D01*
X135529298Y-45990971D01*
X135508924Y-45977357D01*
X135486285Y-45967980D01*
X135462251Y-45963200D01*
X135437747Y-45963200D01*
X135413714Y-45967981D01*
X135391075Y-45977358D01*
X135370702Y-45990971D01*
X135364330Y-45996200D01*
X135360029Y-45998499D01*
X135355355Y-45999917D01*
X135344359Y-46001000D01*
X135055641Y-46001000D01*
X135044645Y-45999917D01*
X135039971Y-45998499D01*
X135035670Y-45996200D01*
X135029298Y-45990971D01*
X135008924Y-45977357D01*
X134986285Y-45967980D01*
X134962251Y-45963200D01*
X134937747Y-45963200D01*
X134913714Y-45967981D01*
X134891075Y-45977358D01*
X134870702Y-45990971D01*
X134864330Y-45996200D01*
X134860029Y-45998499D01*
X134855355Y-45999917D01*
X134844359Y-46001000D01*
X134555641Y-46001000D01*
X134544645Y-45999917D01*
X134539971Y-45998499D01*
X134535670Y-45996200D01*
X134529298Y-45990971D01*
X134508924Y-45977357D01*
X134486285Y-45967980D01*
X134462251Y-45963200D01*
X134437747Y-45963200D01*
X134413714Y-45967981D01*
X134391075Y-45977358D01*
X134370702Y-45990971D01*
X134364330Y-45996200D01*
X134360029Y-45998499D01*
X134355355Y-45999917D01*
X134344359Y-46001000D01*
X134055641Y-46001000D01*
X134044645Y-45999917D01*
X134039971Y-45998499D01*
X134035670Y-45996200D01*
X134029298Y-45990971D01*
X134008924Y-45977357D01*
X133986285Y-45967980D01*
X133962251Y-45963200D01*
X133937747Y-45963200D01*
X133913714Y-45967981D01*
X133891075Y-45977358D01*
X133870702Y-45990971D01*
X133864330Y-45996200D01*
X133860029Y-45998499D01*
X133855355Y-45999917D01*
X133844359Y-46001000D01*
X133555641Y-46001000D01*
X133544645Y-45999917D01*
X133539971Y-45998499D01*
X133535670Y-45996200D01*
X133529298Y-45990971D01*
X133508924Y-45977357D01*
X133486285Y-45967980D01*
X133462251Y-45963200D01*
X133437747Y-45963200D01*
X133413714Y-45967981D01*
X133391075Y-45977358D01*
X133370702Y-45990971D01*
X133364330Y-45996200D01*
X133360029Y-45998499D01*
X133355355Y-45999917D01*
X133344359Y-46001000D01*
X133055641Y-46001000D01*
X133044645Y-45999917D01*
X133039971Y-45998499D01*
X133035670Y-45996200D01*
X133029298Y-45990971D01*
X133008924Y-45977357D01*
X132986285Y-45967980D01*
X132962251Y-45963200D01*
X132937747Y-45963200D01*
X132913714Y-45967981D01*
X132891075Y-45977358D01*
X132870702Y-45990971D01*
X132864330Y-45996200D01*
X132860029Y-45998499D01*
X132855355Y-45999917D01*
X132844359Y-46001000D01*
X132555641Y-46001000D01*
X132544645Y-45999917D01*
X132539971Y-45998499D01*
X132535670Y-45996200D01*
X132529298Y-45990971D01*
X132508924Y-45977357D01*
X132486285Y-45967980D01*
X132462251Y-45963200D01*
X132437747Y-45963200D01*
X132413714Y-45967981D01*
X132391075Y-45977358D01*
X132370702Y-45990971D01*
X132364330Y-45996200D01*
X132360029Y-45998499D01*
X132355355Y-45999917D01*
X132344359Y-46001000D01*
X132055641Y-46001000D01*
X132044645Y-45999917D01*
X132039971Y-45998499D01*
X132035670Y-45996200D01*
X132029298Y-45990971D01*
X132008924Y-45977357D01*
X131986285Y-45967980D01*
X131962251Y-45963200D01*
X131937747Y-45963200D01*
X131913714Y-45967981D01*
X131891075Y-45977358D01*
X131870702Y-45990971D01*
X131864330Y-45996200D01*
X131860029Y-45998499D01*
X131855355Y-45999917D01*
X131844359Y-46001000D01*
X131555641Y-46001000D01*
X131544645Y-45999917D01*
X131539971Y-45998499D01*
X131535670Y-45996200D01*
X131529298Y-45990971D01*
X131508924Y-45977357D01*
X131486285Y-45967980D01*
X131462251Y-45963200D01*
X131437747Y-45963200D01*
X131413714Y-45967981D01*
X131391075Y-45977358D01*
X131370702Y-45990971D01*
X131364330Y-45996200D01*
X131360029Y-45998499D01*
X131355355Y-45999917D01*
X131344359Y-46001000D01*
X131055641Y-46001000D01*
X131044645Y-45999917D01*
X131039971Y-45998499D01*
X131035669Y-45996200D01*
X131031896Y-45993104D01*
X131028800Y-45989331D01*
X131026501Y-45985029D01*
X131025083Y-45980355D01*
X131024000Y-45969359D01*
X131024000Y-45150999D01*
X131021598Y-45126613D01*
X131014485Y-45103164D01*
X131002934Y-45081553D01*
X130987389Y-45062611D01*
X130968447Y-45047066D01*
X130946836Y-45035515D01*
X130923387Y-45028402D01*
X130899001Y-45026000D01*
X130080641Y-45026000D01*
X130069645Y-45024917D01*
X130064971Y-45023499D01*
X130060669Y-45021200D01*
X130056896Y-45018104D01*
X130053800Y-45014331D01*
X130051501Y-45010029D01*
X130050083Y-45005355D01*
X130049000Y-44994359D01*
X130049000Y-44705641D01*
X130050083Y-44694645D01*
X130051501Y-44689971D01*
X130053800Y-44685670D01*
X130059029Y-44679298D01*
X130072643Y-44658924D01*
X130082020Y-44636285D01*
X130086800Y-44612251D01*
X130086800Y-44587747D01*
X130082019Y-44563714D01*
X130072642Y-44541075D01*
X130059029Y-44520702D01*
X130053800Y-44514330D01*
X130051501Y-44510029D01*
X130050083Y-44505355D01*
X130049000Y-44494359D01*
X130049000Y-44205641D01*
X130050083Y-44194645D01*
X130051501Y-44189971D01*
X130053800Y-44185670D01*
X130059029Y-44179298D01*
X130072643Y-44158924D01*
X130082020Y-44136285D01*
X130086800Y-44112251D01*
X130086800Y-44087747D01*
X130082019Y-44063714D01*
X130072642Y-44041075D01*
X130059029Y-44020702D01*
X130053800Y-44014330D01*
X130051501Y-44010029D01*
X130050083Y-44005355D01*
X130049000Y-43994359D01*
X130049000Y-43705641D01*
X130050083Y-43694645D01*
X130051501Y-43689971D01*
X130053800Y-43685670D01*
X130059029Y-43679298D01*
X130072643Y-43658924D01*
X130082020Y-43636285D01*
X130086800Y-43612251D01*
X130086800Y-43587747D01*
X130082019Y-43563714D01*
X130072642Y-43541075D01*
X130059029Y-43520702D01*
X130053800Y-43514330D01*
X130051501Y-43510029D01*
X130050083Y-43505355D01*
X130049000Y-43494359D01*
X130049000Y-43205641D01*
X130050083Y-43194645D01*
X130051501Y-43189971D01*
X130053800Y-43185670D01*
X130059029Y-43179298D01*
X130072643Y-43158924D01*
X130082020Y-43136285D01*
X130086800Y-43112251D01*
X130086800Y-43087747D01*
X130082019Y-43063714D01*
X130072642Y-43041075D01*
X130059029Y-43020702D01*
X130053800Y-43014330D01*
X130051501Y-43010029D01*
X130050083Y-43005355D01*
X130049000Y-42994359D01*
X130049000Y-42705641D01*
X130050083Y-42694645D01*
X130051501Y-42689971D01*
X130053800Y-42685670D01*
X130059029Y-42679298D01*
X130072643Y-42658924D01*
X130082020Y-42636285D01*
X130086800Y-42612251D01*
X130086800Y-42587747D01*
X130082019Y-42563714D01*
X130072642Y-42541075D01*
X130059029Y-42520702D01*
X130053800Y-42514330D01*
X130051501Y-42510029D01*
X130050083Y-42505355D01*
X130049000Y-42494359D01*
X130049000Y-42205641D01*
X130050083Y-42194645D01*
X130051501Y-42189971D01*
X130053800Y-42185670D01*
X130059029Y-42179298D01*
X130072643Y-42158924D01*
X130082020Y-42136285D01*
X130086800Y-42112251D01*
X130086800Y-42087747D01*
X130082019Y-42063714D01*
X130072642Y-42041075D01*
X130059029Y-42020702D01*
X130053800Y-42014330D01*
X130051501Y-42010029D01*
X130050083Y-42005355D01*
X130049000Y-41994359D01*
X130049000Y-41705641D01*
X130050083Y-41694645D01*
X130051501Y-41689971D01*
X130053800Y-41685670D01*
X130059029Y-41679298D01*
X130072643Y-41658924D01*
X130082020Y-41636285D01*
X130086800Y-41612251D01*
X130086800Y-41587747D01*
X130082019Y-41563714D01*
X130072642Y-41541075D01*
X130059029Y-41520702D01*
X130053800Y-41514330D01*
X130051501Y-41510029D01*
X130050083Y-41505355D01*
X130049000Y-41494359D01*
X130049000Y-41205641D01*
X130050083Y-41194645D01*
X130051501Y-41189971D01*
X130053800Y-41185670D01*
X130059029Y-41179298D01*
X130072643Y-41158924D01*
X130082020Y-41136285D01*
X130086800Y-41112251D01*
X130086800Y-41087747D01*
X130082019Y-41063714D01*
X130072642Y-41041075D01*
X130059029Y-41020702D01*
X130053800Y-41014330D01*
X130051501Y-41010029D01*
X130050083Y-41005355D01*
X130049000Y-40994359D01*
X130049000Y-40705641D01*
X130050083Y-40694645D01*
X130051501Y-40689971D01*
X130053800Y-40685670D01*
X130059029Y-40679298D01*
X130072643Y-40658924D01*
X130082020Y-40636285D01*
X130086800Y-40612251D01*
X130086800Y-40587747D01*
X130082019Y-40563714D01*
X130072642Y-40541075D01*
X130059029Y-40520702D01*
X130053800Y-40514330D01*
X130051501Y-40510029D01*
X130050083Y-40505355D01*
X130049000Y-40494359D01*
X130049000Y-40205641D01*
X130050083Y-40194645D01*
X130051501Y-40189971D01*
X130053800Y-40185670D01*
X130059029Y-40179298D01*
X130072643Y-40158924D01*
X130082020Y-40136285D01*
X130086800Y-40112251D01*
X130086800Y-40087747D01*
X130082019Y-40063714D01*
X130072642Y-40041075D01*
X130059029Y-40020702D01*
X130053800Y-40014330D01*
X130051501Y-40010029D01*
X130050083Y-40005355D01*
X130049000Y-39994359D01*
X130049000Y-39705641D01*
X130050083Y-39694645D01*
X130051501Y-39689971D01*
X130053800Y-39685670D01*
X130059029Y-39679298D01*
X130072643Y-39658924D01*
X130082020Y-39636285D01*
X130086800Y-39612251D01*
X130086800Y-39587749D01*
X130913200Y-39587749D01*
X130913200Y-39612253D01*
X130917981Y-39636286D01*
X130927358Y-39658925D01*
X130940971Y-39679298D01*
X130946200Y-39685670D01*
X130948499Y-39689971D01*
X130949917Y-39694645D01*
X130951000Y-39705641D01*
X130951000Y-39994359D01*
X130949917Y-40005355D01*
X130948499Y-40010029D01*
X130946200Y-40014330D01*
X130940971Y-40020702D01*
X130927357Y-40041076D01*
X130917980Y-40063715D01*
X130913200Y-40087749D01*
X130913200Y-40112253D01*
X130917981Y-40136286D01*
X130927358Y-40158925D01*
X130940971Y-40179298D01*
X130946200Y-40185670D01*
X130948499Y-40189971D01*
X130949917Y-40194645D01*
X130951000Y-40205641D01*
X130951000Y-40494359D01*
X130949917Y-40505355D01*
X130948499Y-40510029D01*
X130946200Y-40514330D01*
X130940971Y-40520702D01*
X130927357Y-40541076D01*
X130917980Y-40563715D01*
X130913200Y-40587749D01*
X130913200Y-40612253D01*
X130917981Y-40636286D01*
X130927358Y-40658925D01*
X130940971Y-40679298D01*
X130946200Y-40685670D01*
X130948499Y-40689971D01*
X130949917Y-40694645D01*
X130951000Y-40705641D01*
X130951000Y-40994359D01*
X130949917Y-41005355D01*
X130948499Y-41010029D01*
X130946200Y-41014330D01*
X130940971Y-41020702D01*
X130927357Y-41041076D01*
X130917980Y-41063715D01*
X130913200Y-41087749D01*
X130913200Y-41112253D01*
X130917981Y-41136286D01*
X130927358Y-41158925D01*
X130940971Y-41179298D01*
X130946200Y-41185670D01*
X130948499Y-41189971D01*
X130949917Y-41194645D01*
X130951000Y-41205641D01*
X130951000Y-41494359D01*
X130949917Y-41505355D01*
X130948499Y-41510029D01*
X130946200Y-41514330D01*
X130940971Y-41520702D01*
X130927357Y-41541076D01*
X130917980Y-41563715D01*
X130913200Y-41587749D01*
X130913200Y-41612253D01*
X130917981Y-41636286D01*
X130927358Y-41658925D01*
X130940971Y-41679298D01*
X130946200Y-41685670D01*
X130948499Y-41689971D01*
X130949917Y-41694645D01*
X130951000Y-41705641D01*
X130951000Y-41994359D01*
X130949917Y-42005355D01*
X130948499Y-42010029D01*
X130946200Y-42014330D01*
X130940971Y-42020702D01*
X130927357Y-42041076D01*
X130917980Y-42063715D01*
X130913200Y-42087749D01*
X130913200Y-42112253D01*
X130917981Y-42136286D01*
X130927358Y-42158925D01*
X130940971Y-42179298D01*
X130946200Y-42185670D01*
X130948499Y-42189971D01*
X130949917Y-42194645D01*
X130951000Y-42205641D01*
X130951000Y-42494359D01*
X130949917Y-42505355D01*
X130948499Y-42510029D01*
X130946200Y-42514330D01*
X130940971Y-42520702D01*
X130927357Y-42541076D01*
X130917980Y-42563715D01*
X130913200Y-42587749D01*
X130913200Y-42612253D01*
X130917981Y-42636286D01*
X130927358Y-42658925D01*
X130940971Y-42679298D01*
X130946200Y-42685670D01*
X130948499Y-42689971D01*
X130949917Y-42694645D01*
X130951000Y-42705641D01*
X130951000Y-42994359D01*
X130949917Y-43005355D01*
X130948499Y-43010029D01*
X130946200Y-43014330D01*
X130940971Y-43020702D01*
X130927357Y-43041076D01*
X130917980Y-43063715D01*
X130913200Y-43087749D01*
X130913200Y-43112253D01*
X130917981Y-43136286D01*
X130927358Y-43158925D01*
X130940971Y-43179298D01*
X130946200Y-43185670D01*
X130948499Y-43189971D01*
X130949917Y-43194645D01*
X130951000Y-43205641D01*
X130951000Y-43494359D01*
X130949917Y-43505355D01*
X130948499Y-43510029D01*
X130946200Y-43514330D01*
X130940971Y-43520702D01*
X130927357Y-43541076D01*
X130917980Y-43563715D01*
X130913200Y-43587749D01*
X130913200Y-43612253D01*
X130917981Y-43636286D01*
X130927358Y-43658925D01*
X130940971Y-43679298D01*
X130946200Y-43685670D01*
X130948499Y-43689971D01*
X130949917Y-43694645D01*
X130951000Y-43705641D01*
X130951000Y-43994359D01*
X130949917Y-44005355D01*
X130948499Y-44010029D01*
X130946200Y-44014330D01*
X130940971Y-44020702D01*
X130927357Y-44041076D01*
X130917980Y-44063715D01*
X130913200Y-44087749D01*
X130913200Y-44112253D01*
X130917981Y-44136286D01*
X130927358Y-44158925D01*
X130940971Y-44179298D01*
X130946200Y-44185670D01*
X130948499Y-44189971D01*
X130949917Y-44194645D01*
X130951000Y-44205641D01*
X130951000Y-44494359D01*
X130949917Y-44505355D01*
X130948499Y-44510029D01*
X130946200Y-44514330D01*
X130940971Y-44520702D01*
X130927357Y-44541076D01*
X130917980Y-44563715D01*
X130913200Y-44587749D01*
X130913200Y-44612253D01*
X130917981Y-44636286D01*
X130927358Y-44658925D01*
X130940971Y-44679298D01*
X130946200Y-44685670D01*
X130948499Y-44689971D01*
X130949917Y-44694645D01*
X130951000Y-44705641D01*
X130951000Y-44974001D01*
X130953402Y-44998387D01*
X130960515Y-45021836D01*
X130972066Y-45043447D01*
X130987611Y-45062389D01*
X131006553Y-45077934D01*
X131028164Y-45089485D01*
X131051613Y-45096598D01*
X131075999Y-45099000D01*
X131344359Y-45099000D01*
X131355355Y-45100083D01*
X131360029Y-45101501D01*
X131364330Y-45103800D01*
X131370702Y-45109029D01*
X131391076Y-45122643D01*
X131413715Y-45132020D01*
X131437749Y-45136800D01*
X131462253Y-45136800D01*
X131486286Y-45132019D01*
X131508925Y-45122642D01*
X131529298Y-45109029D01*
X131535670Y-45103800D01*
X131539971Y-45101501D01*
X131544645Y-45100083D01*
X131555641Y-45099000D01*
X131844359Y-45099000D01*
X131855355Y-45100083D01*
X131860029Y-45101501D01*
X131864330Y-45103800D01*
X131870702Y-45109029D01*
X131891076Y-45122643D01*
X131913715Y-45132020D01*
X131937749Y-45136800D01*
X131962253Y-45136800D01*
X131986286Y-45132019D01*
X132008925Y-45122642D01*
X132029298Y-45109029D01*
X132035670Y-45103800D01*
X132039971Y-45101501D01*
X132044645Y-45100083D01*
X132055641Y-45099000D01*
X132344359Y-45099000D01*
X132355355Y-45100083D01*
X132360029Y-45101501D01*
X132364330Y-45103800D01*
X132370702Y-45109029D01*
X132391076Y-45122643D01*
X132413715Y-45132020D01*
X132437749Y-45136800D01*
X132462253Y-45136800D01*
X132486286Y-45132019D01*
X132508925Y-45122642D01*
X132529298Y-45109029D01*
X132535670Y-45103800D01*
X132539971Y-45101501D01*
X132544645Y-45100083D01*
X132555641Y-45099000D01*
X132844359Y-45099000D01*
X132855355Y-45100083D01*
X132860029Y-45101501D01*
X132864330Y-45103800D01*
X132870702Y-45109029D01*
X132891076Y-45122643D01*
X132913715Y-45132020D01*
X132937749Y-45136800D01*
X132962253Y-45136800D01*
X132986286Y-45132019D01*
X133008925Y-45122642D01*
X133029298Y-45109029D01*
X133035670Y-45103800D01*
X133039971Y-45101501D01*
X133044645Y-45100083D01*
X133055641Y-45099000D01*
X133344359Y-45099000D01*
X133355355Y-45100083D01*
X133360029Y-45101501D01*
X133364330Y-45103800D01*
X133370702Y-45109029D01*
X133391076Y-45122643D01*
X133413715Y-45132020D01*
X133437749Y-45136800D01*
X133462253Y-45136800D01*
X133486286Y-45132019D01*
X133508925Y-45122642D01*
X133529298Y-45109029D01*
X133535670Y-45103800D01*
X133539971Y-45101501D01*
X133544645Y-45100083D01*
X133555641Y-45099000D01*
X133844359Y-45099000D01*
X133855355Y-45100083D01*
X133860029Y-45101501D01*
X133864330Y-45103800D01*
X133870702Y-45109029D01*
X133891076Y-45122643D01*
X133913715Y-45132020D01*
X133937749Y-45136800D01*
X133962253Y-45136800D01*
X133986286Y-45132019D01*
X134008925Y-45122642D01*
X134029298Y-45109029D01*
X134035670Y-45103800D01*
X134039971Y-45101501D01*
X134044645Y-45100083D01*
X134055641Y-45099000D01*
X134344359Y-45099000D01*
X134355355Y-45100083D01*
X134360029Y-45101501D01*
X134364330Y-45103800D01*
X134370702Y-45109029D01*
X134391076Y-45122643D01*
X134413715Y-45132020D01*
X134437749Y-45136800D01*
X134462253Y-45136800D01*
X134486286Y-45132019D01*
X134508925Y-45122642D01*
X134529298Y-45109029D01*
X134535670Y-45103800D01*
X134539971Y-45101501D01*
X134544645Y-45100083D01*
X134555641Y-45099000D01*
X134844359Y-45099000D01*
X134855355Y-45100083D01*
X134860029Y-45101501D01*
X134864330Y-45103800D01*
X134870702Y-45109029D01*
X134891076Y-45122643D01*
X134913715Y-45132020D01*
X134937749Y-45136800D01*
X134962253Y-45136800D01*
X134986286Y-45132019D01*
X135008925Y-45122642D01*
X135029298Y-45109029D01*
X135035670Y-45103800D01*
X135039971Y-45101501D01*
X135044645Y-45100083D01*
X135055641Y-45099000D01*
X135344359Y-45099000D01*
X135355355Y-45100083D01*
X135360029Y-45101501D01*
X135364330Y-45103800D01*
X135370702Y-45109029D01*
X135391076Y-45122643D01*
X135413715Y-45132020D01*
X135437749Y-45136800D01*
X135462253Y-45136800D01*
X135486286Y-45132019D01*
X135508925Y-45122642D01*
X135529298Y-45109029D01*
X135535670Y-45103800D01*
X135539971Y-45101501D01*
X135544645Y-45100083D01*
X135555641Y-45099000D01*
X135844359Y-45099000D01*
X135855355Y-45100083D01*
X135860029Y-45101501D01*
X135864330Y-45103800D01*
X135870702Y-45109029D01*
X135891076Y-45122643D01*
X135913715Y-45132020D01*
X135937749Y-45136800D01*
X135962253Y-45136800D01*
X135986286Y-45132019D01*
X136008925Y-45122642D01*
X136029298Y-45109029D01*
X136035670Y-45103800D01*
X136039971Y-45101501D01*
X136044645Y-45100083D01*
X136055641Y-45099000D01*
X136344359Y-45099000D01*
X136355355Y-45100083D01*
X136360029Y-45101501D01*
X136364330Y-45103800D01*
X136370702Y-45109029D01*
X136391076Y-45122643D01*
X136413715Y-45132020D01*
X136437749Y-45136800D01*
X136462253Y-45136800D01*
X136486286Y-45132019D01*
X136508925Y-45122642D01*
X136529298Y-45109029D01*
X136535670Y-45103800D01*
X136539971Y-45101501D01*
X136544645Y-45100083D01*
X136555641Y-45099000D01*
X136824001Y-45099000D01*
X136848387Y-45096598D01*
X136871836Y-45089485D01*
X136893447Y-45077934D01*
X136912389Y-45062389D01*
X136927934Y-45043447D01*
X136939485Y-45021836D01*
X136946598Y-44998387D01*
X136949000Y-44974001D01*
X136949000Y-44705641D01*
X136950083Y-44694645D01*
X136951501Y-44689971D01*
X136953800Y-44685670D01*
X136959029Y-44679298D01*
X136972643Y-44658924D01*
X136982020Y-44636285D01*
X136986800Y-44612251D01*
X136986800Y-44587747D01*
X136982019Y-44563714D01*
X136972642Y-44541075D01*
X136959029Y-44520702D01*
X136953800Y-44514330D01*
X136951501Y-44510029D01*
X136950083Y-44505355D01*
X136949000Y-44494359D01*
X136949000Y-44205641D01*
X136950083Y-44194645D01*
X136951501Y-44189971D01*
X136953800Y-44185670D01*
X136959029Y-44179298D01*
X136972643Y-44158924D01*
X136982020Y-44136285D01*
X136986800Y-44112251D01*
X136986800Y-44087747D01*
X136982019Y-44063714D01*
X136972642Y-44041075D01*
X136959029Y-44020702D01*
X136953800Y-44014330D01*
X136951501Y-44010029D01*
X136950083Y-44005355D01*
X136949000Y-43994359D01*
X136949000Y-43705641D01*
X136950083Y-43694645D01*
X136951501Y-43689971D01*
X136953800Y-43685670D01*
X136959029Y-43679298D01*
X136972643Y-43658924D01*
X136982020Y-43636285D01*
X136986800Y-43612251D01*
X136986800Y-43587747D01*
X136982019Y-43563714D01*
X136972642Y-43541075D01*
X136959029Y-43520702D01*
X136953800Y-43514330D01*
X136951501Y-43510029D01*
X136950083Y-43505355D01*
X136949000Y-43494359D01*
X136949000Y-43205641D01*
X136950083Y-43194645D01*
X136951501Y-43189971D01*
X136953800Y-43185670D01*
X136959029Y-43179298D01*
X136972643Y-43158924D01*
X136982020Y-43136285D01*
X136986800Y-43112251D01*
X136986800Y-43087747D01*
X136982019Y-43063714D01*
X136972642Y-43041075D01*
X136959029Y-43020702D01*
X136953800Y-43014330D01*
X136951501Y-43010029D01*
X136950083Y-43005355D01*
X136949000Y-42994359D01*
X136949000Y-42705641D01*
X136950083Y-42694645D01*
X136951501Y-42689971D01*
X136953800Y-42685670D01*
X136959029Y-42679298D01*
X136972643Y-42658924D01*
X136982020Y-42636285D01*
X136986800Y-42612251D01*
X136986800Y-42587747D01*
X136982019Y-42563714D01*
X136972642Y-42541075D01*
X136959029Y-42520702D01*
X136953800Y-42514330D01*
X136951501Y-42510029D01*
X136950083Y-42505355D01*
X136949000Y-42494359D01*
X136949000Y-42205641D01*
X136950083Y-42194645D01*
X136951501Y-42189971D01*
X136953800Y-42185670D01*
X136959029Y-42179298D01*
X136972643Y-42158924D01*
X136982020Y-42136285D01*
X136986800Y-42112251D01*
X136986800Y-42087747D01*
X136982019Y-42063714D01*
X136972642Y-42041075D01*
X136959029Y-42020702D01*
X136953800Y-42014330D01*
X136951501Y-42010029D01*
X136950083Y-42005355D01*
X136949000Y-41994359D01*
X136949000Y-41705641D01*
X136950083Y-41694645D01*
X136951501Y-41689971D01*
X136953800Y-41685670D01*
X136959029Y-41679298D01*
X136972643Y-41658924D01*
X136982020Y-41636285D01*
X136986800Y-41612251D01*
X136986800Y-41587747D01*
X136982019Y-41563714D01*
X136972642Y-41541075D01*
X136959029Y-41520702D01*
X136953800Y-41514330D01*
X136951501Y-41510029D01*
X136950083Y-41505355D01*
X136949000Y-41494359D01*
X136949000Y-41205641D01*
X136950083Y-41194645D01*
X136951501Y-41189971D01*
X136953800Y-41185670D01*
X136959029Y-41179298D01*
X136972643Y-41158924D01*
X136982020Y-41136285D01*
X136986800Y-41112251D01*
X136986800Y-41087747D01*
X136982019Y-41063714D01*
X136972642Y-41041075D01*
X136959029Y-41020702D01*
X136953800Y-41014330D01*
X136951501Y-41010029D01*
X136950083Y-41005355D01*
X136949000Y-40994359D01*
X136949000Y-40705641D01*
X136950083Y-40694645D01*
X136951501Y-40689971D01*
X136953800Y-40685670D01*
X136959029Y-40679298D01*
X136972643Y-40658924D01*
X136982020Y-40636285D01*
X136986800Y-40612251D01*
X136986800Y-40587747D01*
X136982019Y-40563714D01*
X136972642Y-40541075D01*
X136959029Y-40520702D01*
X136953800Y-40514330D01*
X136951501Y-40510029D01*
X136950083Y-40505355D01*
X136949000Y-40494359D01*
X136949000Y-40205641D01*
X136950083Y-40194645D01*
X136951501Y-40189971D01*
X136953800Y-40185670D01*
X136959029Y-40179298D01*
X136972643Y-40158924D01*
X136982020Y-40136285D01*
X136986800Y-40112251D01*
X136986800Y-40087747D01*
X136982019Y-40063714D01*
X136972642Y-40041075D01*
X136959029Y-40020702D01*
X136953800Y-40014330D01*
X136951501Y-40010029D01*
X136950083Y-40005355D01*
X136949000Y-39994359D01*
X136949000Y-39705641D01*
X136950083Y-39694645D01*
X136951501Y-39689971D01*
X136953800Y-39685670D01*
X136959029Y-39679298D01*
X136972643Y-39658924D01*
X136982020Y-39636285D01*
X136986800Y-39612251D01*
X136986800Y-39587747D01*
X136982019Y-39563714D01*
X136972642Y-39541075D01*
X136959029Y-39520702D01*
X136953800Y-39514330D01*
X136951501Y-39510029D01*
X136950083Y-39505355D01*
X136949000Y-39494359D01*
X136949000Y-39225999D01*
X136946598Y-39201613D01*
X136939485Y-39178164D01*
X136927934Y-39156553D01*
X136912389Y-39137611D01*
X136893447Y-39122066D01*
X136871836Y-39110515D01*
X136848387Y-39103402D01*
X136824001Y-39101000D01*
X136555641Y-39101000D01*
X136544645Y-39099917D01*
X136539971Y-39098499D01*
X136535670Y-39096200D01*
X136529298Y-39090971D01*
X136508924Y-39077357D01*
X136486285Y-39067980D01*
X136462251Y-39063200D01*
X136437747Y-39063200D01*
X136413714Y-39067981D01*
X136391075Y-39077358D01*
X136370702Y-39090971D01*
X136364330Y-39096200D01*
X136360029Y-39098499D01*
X136355355Y-39099917D01*
X136344359Y-39101000D01*
X136055641Y-39101000D01*
X136044645Y-39099917D01*
X136039971Y-39098499D01*
X136035670Y-39096200D01*
X136029298Y-39090971D01*
X136008924Y-39077357D01*
X135986285Y-39067980D01*
X135962251Y-39063200D01*
X135937747Y-39063200D01*
X135913714Y-39067981D01*
X135891075Y-39077358D01*
X135870702Y-39090971D01*
X135864330Y-39096200D01*
X135860029Y-39098499D01*
X135855355Y-39099917D01*
X135844359Y-39101000D01*
X135555641Y-39101000D01*
X135544645Y-39099917D01*
X135539971Y-39098499D01*
X135535670Y-39096200D01*
X135529298Y-39090971D01*
X135508924Y-39077357D01*
X135486285Y-39067980D01*
X135462251Y-39063200D01*
X135437747Y-39063200D01*
X135413714Y-39067981D01*
X135391075Y-39077358D01*
X135370702Y-39090971D01*
X135364330Y-39096200D01*
X135360029Y-39098499D01*
X135355355Y-39099917D01*
X135344359Y-39101000D01*
X135055641Y-39101000D01*
X135044645Y-39099917D01*
X135039971Y-39098499D01*
X135035670Y-39096200D01*
X135029298Y-39090971D01*
X135008924Y-39077357D01*
X134986285Y-39067980D01*
X134962251Y-39063200D01*
X134937747Y-39063200D01*
X134913714Y-39067981D01*
X134891075Y-39077358D01*
X134870702Y-39090971D01*
X134864330Y-39096200D01*
X134860029Y-39098499D01*
X134855355Y-39099917D01*
X134844359Y-39101000D01*
X134555641Y-39101000D01*
X134544645Y-39099917D01*
X134539971Y-39098499D01*
X134535670Y-39096200D01*
X134529298Y-39090971D01*
X134508924Y-39077357D01*
X134486285Y-39067980D01*
X134462251Y-39063200D01*
X134437747Y-39063200D01*
X134413714Y-39067981D01*
X134391075Y-39077358D01*
X134370702Y-39090971D01*
X134364330Y-39096200D01*
X134360029Y-39098499D01*
X134355355Y-39099917D01*
X134344359Y-39101000D01*
X134055641Y-39101000D01*
X134044645Y-39099917D01*
X134039971Y-39098499D01*
X134035670Y-39096200D01*
X134029298Y-39090971D01*
X134008924Y-39077357D01*
X133986285Y-39067980D01*
X133962251Y-39063200D01*
X133937747Y-39063200D01*
X133913714Y-39067981D01*
X133891075Y-39077358D01*
X133870702Y-39090971D01*
X133864330Y-39096200D01*
X133860029Y-39098499D01*
X133855355Y-39099917D01*
X133844359Y-39101000D01*
X133555641Y-39101000D01*
X133544645Y-39099917D01*
X133539971Y-39098499D01*
X133535670Y-39096200D01*
X133529298Y-39090971D01*
X133508924Y-39077357D01*
X133486285Y-39067980D01*
X133462251Y-39063200D01*
X133437747Y-39063200D01*
X133413714Y-39067981D01*
X133391075Y-39077358D01*
X133370702Y-39090971D01*
X133364330Y-39096200D01*
X133360029Y-39098499D01*
X133355355Y-39099917D01*
X133344359Y-39101000D01*
X133055641Y-39101000D01*
X133044645Y-39099917D01*
X133039971Y-39098499D01*
X133035670Y-39096200D01*
X133029298Y-39090971D01*
X133008924Y-39077357D01*
X132986285Y-39067980D01*
X132962251Y-39063200D01*
X132937747Y-39063200D01*
X132913714Y-39067981D01*
X132891075Y-39077358D01*
X132870702Y-39090971D01*
X132864330Y-39096200D01*
X132860029Y-39098499D01*
X132855355Y-39099917D01*
X132844359Y-39101000D01*
X132555641Y-39101000D01*
X132544645Y-39099917D01*
X132539971Y-39098499D01*
X132535670Y-39096200D01*
X132529298Y-39090971D01*
X132508924Y-39077357D01*
X132486285Y-39067980D01*
X132462251Y-39063200D01*
X132437747Y-39063200D01*
X132413714Y-39067981D01*
X132391075Y-39077358D01*
X132370702Y-39090971D01*
X132364330Y-39096200D01*
X132360029Y-39098499D01*
X132355355Y-39099917D01*
X132344359Y-39101000D01*
X132055641Y-39101000D01*
X132044645Y-39099917D01*
X132039971Y-39098499D01*
X132035670Y-39096200D01*
X132029298Y-39090971D01*
X132008924Y-39077357D01*
X131986285Y-39067980D01*
X131962251Y-39063200D01*
X131937747Y-39063200D01*
X131913714Y-39067981D01*
X131891075Y-39077358D01*
X131870702Y-39090971D01*
X131864330Y-39096200D01*
X131860029Y-39098499D01*
X131855355Y-39099917D01*
X131844359Y-39101000D01*
X131555641Y-39101000D01*
X131544645Y-39099917D01*
X131539971Y-39098499D01*
X131535670Y-39096200D01*
X131529298Y-39090971D01*
X131508924Y-39077357D01*
X131486285Y-39067980D01*
X131462251Y-39063200D01*
X131437747Y-39063200D01*
X131413714Y-39067981D01*
X131391075Y-39077358D01*
X131370702Y-39090971D01*
X131364330Y-39096200D01*
X131360029Y-39098499D01*
X131355355Y-39099917D01*
X131344359Y-39101000D01*
X131075999Y-39101000D01*
X131051613Y-39103402D01*
X131028164Y-39110515D01*
X131006553Y-39122066D01*
X130987611Y-39137611D01*
X130972066Y-39156553D01*
X130960515Y-39178164D01*
X130953402Y-39201613D01*
X130951000Y-39225999D01*
X130951000Y-39494359D01*
X130949917Y-39505355D01*
X130948499Y-39510029D01*
X130946200Y-39514330D01*
X130940971Y-39520702D01*
X130927357Y-39541076D01*
X130917980Y-39563715D01*
X130913200Y-39587749D01*
X130086800Y-39587749D01*
X130086800Y-39587747D01*
X130082019Y-39563714D01*
X130072642Y-39541075D01*
X130059029Y-39520702D01*
X130053800Y-39514330D01*
X130051501Y-39510029D01*
X130050083Y-39505355D01*
X130049000Y-39494359D01*
X130049000Y-39205641D01*
X130050083Y-39194645D01*
X130051501Y-39189971D01*
X130053800Y-39185669D01*
X130056896Y-39181896D01*
X130060669Y-39178800D01*
X130064971Y-39176501D01*
X130069645Y-39175083D01*
X130080641Y-39174000D01*
X130899001Y-39174000D01*
X130923387Y-39171598D01*
X130946836Y-39164485D01*
X130968447Y-39152934D01*
X130987389Y-39137389D01*
X131002934Y-39118447D01*
X131014485Y-39096836D01*
X131021598Y-39073387D01*
X131024000Y-39049001D01*
X131024000Y-38230641D01*
X131025083Y-38219645D01*
X131026501Y-38214971D01*
X131028800Y-38210669D01*
X131031896Y-38206896D01*
X131035669Y-38203800D01*
X131039971Y-38201501D01*
X131044645Y-38200083D01*
X131055641Y-38199000D01*
X131344359Y-38199000D01*
X131355355Y-38200083D01*
G37*
G36*
X136536901Y-39402314D02*
G01*
X136563354Y-39410338D01*
X136587731Y-39423368D01*
X136609097Y-39440903D01*
X136626632Y-39462269D01*
X136639662Y-39486646D01*
X136647686Y-39513099D01*
X136651000Y-39546746D01*
X136651000Y-44653254D01*
X136647686Y-44686901D01*
X136639662Y-44713354D01*
X136626632Y-44737731D01*
X136609097Y-44759097D01*
X136587731Y-44776632D01*
X136563354Y-44789662D01*
X136536901Y-44797686D01*
X136503254Y-44801000D01*
X131396746Y-44801000D01*
X131363099Y-44797686D01*
X131336646Y-44789662D01*
X131312269Y-44776632D01*
X131290903Y-44759097D01*
X131273368Y-44737731D01*
X131260338Y-44713354D01*
X131252314Y-44686901D01*
X131249000Y-44653254D01*
X131249000Y-39546746D01*
X131252314Y-39513099D01*
X131260338Y-39486646D01*
X131273368Y-39462269D01*
X131290903Y-39440903D01*
X131312269Y-39423368D01*
X131336646Y-39410338D01*
X131363099Y-39402314D01*
X131396746Y-39399000D01*
X136503254Y-39399000D01*
X136536901Y-39402314D01*
G37*
G36*
X139710721Y-44670174D02*
G01*
X139810995Y-44711709D01*
X139855812Y-44741655D01*
X139901242Y-44772010D01*
X139977990Y-44848758D01*
X139977991Y-44848760D01*
X140038291Y-44939005D01*
X140079826Y-45039279D01*
X140101000Y-45145730D01*
X140101000Y-45254270D01*
X140079826Y-45360721D01*
X140038291Y-45460995D01*
X140038290Y-45460996D01*
X139977990Y-45551242D01*
X139901242Y-45627990D01*
X139855812Y-45658345D01*
X139810995Y-45688291D01*
X139710721Y-45729826D01*
X139604270Y-45751000D01*
X139495730Y-45751000D01*
X139389279Y-45729826D01*
X139289005Y-45688291D01*
X139244188Y-45658345D01*
X139198758Y-45627990D01*
X139122010Y-45551242D01*
X139061710Y-45460996D01*
X139061709Y-45460995D01*
X139020174Y-45360721D01*
X138999000Y-45254270D01*
X138999000Y-45145730D01*
X139020174Y-45039279D01*
X139061709Y-44939005D01*
X139122009Y-44848760D01*
X139122010Y-44848758D01*
X139198758Y-44772010D01*
X139244188Y-44741655D01*
X139289005Y-44711709D01*
X139389279Y-44670174D01*
X139495730Y-44649000D01*
X139604270Y-44649000D01*
X139710721Y-44670174D01*
G37*
G36*
X128510721Y-44670174D02*
G01*
X128610995Y-44711709D01*
X128655812Y-44741655D01*
X128701242Y-44772010D01*
X128777990Y-44848758D01*
X128777991Y-44848760D01*
X128838291Y-44939005D01*
X128879826Y-45039279D01*
X128901000Y-45145730D01*
X128901000Y-45254270D01*
X128879826Y-45360721D01*
X128838291Y-45460995D01*
X128838290Y-45460996D01*
X128777990Y-45551242D01*
X128701242Y-45627990D01*
X128655812Y-45658345D01*
X128610995Y-45688291D01*
X128510721Y-45729826D01*
X128404270Y-45751000D01*
X128295730Y-45751000D01*
X128189279Y-45729826D01*
X128089005Y-45688291D01*
X128044188Y-45658345D01*
X127998758Y-45627990D01*
X127922010Y-45551242D01*
X127861710Y-45460996D01*
X127861709Y-45460995D01*
X127820174Y-45360721D01*
X127799000Y-45254270D01*
X127799000Y-45145730D01*
X127820174Y-45039279D01*
X127861709Y-44939005D01*
X127922009Y-44848760D01*
X127922010Y-44848758D01*
X127998758Y-44772010D01*
X128044188Y-44741655D01*
X128089005Y-44711709D01*
X128189279Y-44670174D01*
X128295730Y-44649000D01*
X128404270Y-44649000D01*
X128510721Y-44670174D01*
G37*
G36*
X139710721Y-38470174D02*
G01*
X139810995Y-38511709D01*
X139810996Y-38511710D01*
X139901242Y-38572010D01*
X139977990Y-38648758D01*
X139977991Y-38648760D01*
X140038291Y-38739005D01*
X140079826Y-38839279D01*
X140101000Y-38945730D01*
X140101000Y-39054270D01*
X140079826Y-39160721D01*
X140038291Y-39260995D01*
X140038290Y-39260996D01*
X139977990Y-39351242D01*
X139901242Y-39427990D01*
X139886261Y-39438000D01*
X139810995Y-39488291D01*
X139710721Y-39529826D01*
X139604270Y-39551000D01*
X139495730Y-39551000D01*
X139389279Y-39529826D01*
X139289005Y-39488291D01*
X139213739Y-39438000D01*
X139198758Y-39427990D01*
X139122010Y-39351242D01*
X139061710Y-39260996D01*
X139061709Y-39260995D01*
X139020174Y-39160721D01*
X138999000Y-39054270D01*
X138999000Y-38945730D01*
X139020174Y-38839279D01*
X139061709Y-38739005D01*
X139122009Y-38648760D01*
X139122010Y-38648758D01*
X139198758Y-38572010D01*
X139289004Y-38511710D01*
X139289005Y-38511709D01*
X139389279Y-38470174D01*
X139495730Y-38449000D01*
X139604270Y-38449000D01*
X139710721Y-38470174D01*
G37*
G36*
X128510721Y-38470174D02*
G01*
X128610995Y-38511709D01*
X128610996Y-38511710D01*
X128701242Y-38572010D01*
X128777990Y-38648758D01*
X128777991Y-38648760D01*
X128838291Y-38739005D01*
X128879826Y-38839279D01*
X128901000Y-38945730D01*
X128901000Y-39054270D01*
X128879826Y-39160721D01*
X128838291Y-39260995D01*
X128838290Y-39260996D01*
X128777990Y-39351242D01*
X128701242Y-39427990D01*
X128686261Y-39438000D01*
X128610995Y-39488291D01*
X128510721Y-39529826D01*
X128404270Y-39551000D01*
X128295730Y-39551000D01*
X128189279Y-39529826D01*
X128089005Y-39488291D01*
X128013739Y-39438000D01*
X127998758Y-39427990D01*
X127922010Y-39351242D01*
X127861710Y-39260996D01*
X127861709Y-39260995D01*
X127820174Y-39160721D01*
X127799000Y-39054270D01*
X127799000Y-38945730D01*
X127820174Y-38839279D01*
X127861709Y-38739005D01*
X127922009Y-38648760D01*
X127922010Y-38648758D01*
X127998758Y-38572010D01*
X128089004Y-38511710D01*
X128089005Y-38511709D01*
X128189279Y-38470174D01*
X128295730Y-38449000D01*
X128404270Y-38449000D01*
X128510721Y-38470174D01*
G37*
G36*
X134271938Y-36831716D02*
G01*
X134292557Y-36837971D01*
X134311553Y-36848124D01*
X134328208Y-36861792D01*
X134341876Y-36878447D01*
X134352029Y-36897443D01*
X134358284Y-36918062D01*
X134361000Y-36945640D01*
X134361000Y-37454360D01*
X134358284Y-37481938D01*
X134352029Y-37502557D01*
X134341876Y-37521553D01*
X134328208Y-37538208D01*
X134311553Y-37551876D01*
X134292557Y-37562029D01*
X134271938Y-37568284D01*
X134244360Y-37571000D01*
X133785640Y-37571000D01*
X133758062Y-37568284D01*
X133737443Y-37562029D01*
X133718447Y-37551876D01*
X133701792Y-37538208D01*
X133688124Y-37521553D01*
X133677971Y-37502557D01*
X133671716Y-37481938D01*
X133669000Y-37454360D01*
X133669000Y-36945640D01*
X133671716Y-36918062D01*
X133677971Y-36897443D01*
X133688124Y-36878447D01*
X133701792Y-36861792D01*
X133718447Y-36848124D01*
X133737443Y-36837971D01*
X133758062Y-36831716D01*
X133785640Y-36829000D01*
X134244360Y-36829000D01*
X134271938Y-36831716D01*
G37*
G36*
X135241938Y-36831716D02*
G01*
X135262557Y-36837971D01*
X135281553Y-36848124D01*
X135298208Y-36861792D01*
X135311876Y-36878447D01*
X135322029Y-36897443D01*
X135328284Y-36918062D01*
X135331000Y-36945640D01*
X135331000Y-37454360D01*
X135328284Y-37481938D01*
X135322029Y-37502557D01*
X135311876Y-37521553D01*
X135298208Y-37538208D01*
X135281553Y-37551876D01*
X135262557Y-37562029D01*
X135241938Y-37568284D01*
X135214360Y-37571000D01*
X134755640Y-37571000D01*
X134728062Y-37568284D01*
X134707443Y-37562029D01*
X134688447Y-37551876D01*
X134671792Y-37538208D01*
X134658124Y-37521553D01*
X134647971Y-37502557D01*
X134641716Y-37481938D01*
X134639000Y-37454360D01*
X134639000Y-36945640D01*
X134641716Y-36918062D01*
X134647971Y-36897443D01*
X134658124Y-36878447D01*
X134671792Y-36861792D01*
X134688447Y-36848124D01*
X134707443Y-36837971D01*
X134728062Y-36831716D01*
X134755640Y-36829000D01*
X135214360Y-36829000D01*
X135241938Y-36831716D01*
G37*
G36*
X133131938Y-36641716D02*
G01*
X133152557Y-36647971D01*
X133171553Y-36658124D01*
X133188208Y-36671792D01*
X133201876Y-36688447D01*
X133212029Y-36707443D01*
X133218284Y-36728062D01*
X133221000Y-36755640D01*
X133221000Y-37214360D01*
X133218284Y-37241938D01*
X133212029Y-37262557D01*
X133201876Y-37281553D01*
X133188208Y-37298208D01*
X133171553Y-37311876D01*
X133152557Y-37322029D01*
X133131938Y-37328284D01*
X133104360Y-37331000D01*
X132595640Y-37331000D01*
X132568062Y-37328284D01*
X132547443Y-37322029D01*
X132528447Y-37311876D01*
X132511792Y-37298208D01*
X132498124Y-37281553D01*
X132487971Y-37262557D01*
X132481716Y-37241938D01*
X132479000Y-37214360D01*
X132479000Y-36755640D01*
X132481716Y-36728062D01*
X132487971Y-36707443D01*
X132498124Y-36688447D01*
X132511792Y-36671792D01*
X132528447Y-36658124D01*
X132547443Y-36647971D01*
X132568062Y-36641716D01*
X132595640Y-36639000D01*
X133104360Y-36639000D01*
X133131938Y-36641716D01*
G37*
G36*
X130631938Y-36641716D02*
G01*
X130652557Y-36647971D01*
X130671553Y-36658124D01*
X130688208Y-36671792D01*
X130701876Y-36688447D01*
X130712029Y-36707443D01*
X130718284Y-36728062D01*
X130721000Y-36755640D01*
X130721000Y-37214360D01*
X130718284Y-37241938D01*
X130712029Y-37262557D01*
X130701876Y-37281553D01*
X130688208Y-37298208D01*
X130671553Y-37311876D01*
X130652557Y-37322029D01*
X130631938Y-37328284D01*
X130604360Y-37331000D01*
X130095640Y-37331000D01*
X130068062Y-37328284D01*
X130047443Y-37322029D01*
X130028447Y-37311876D01*
X130011792Y-37298208D01*
X129998124Y-37281553D01*
X129987971Y-37262557D01*
X129981716Y-37241938D01*
X129979000Y-37214360D01*
X129979000Y-36755640D01*
X129981716Y-36728062D01*
X129987971Y-36707443D01*
X129998124Y-36688447D01*
X130011792Y-36671792D01*
X130028447Y-36658124D01*
X130047443Y-36647971D01*
X130068062Y-36641716D01*
X130095640Y-36639000D01*
X130604360Y-36639000D01*
X130631938Y-36641716D01*
G37*
G36*
X136481938Y-36641716D02*
G01*
X136502557Y-36647971D01*
X136521553Y-36658124D01*
X136538208Y-36671792D01*
X136551876Y-36688447D01*
X136562029Y-36707443D01*
X136568284Y-36728062D01*
X136571000Y-36755640D01*
X136571000Y-37214360D01*
X136568284Y-37241938D01*
X136562029Y-37262557D01*
X136551876Y-37281553D01*
X136538208Y-37298208D01*
X136521553Y-37311876D01*
X136502557Y-37322029D01*
X136481938Y-37328284D01*
X136454360Y-37331000D01*
X135945640Y-37331000D01*
X135918062Y-37328284D01*
X135897443Y-37322029D01*
X135878447Y-37311876D01*
X135861792Y-37298208D01*
X135848124Y-37281553D01*
X135837971Y-37262557D01*
X135831716Y-37241938D01*
X135829000Y-37214360D01*
X135829000Y-36755640D01*
X135831716Y-36728062D01*
X135837971Y-36707443D01*
X135848124Y-36688447D01*
X135861792Y-36671792D01*
X135878447Y-36658124D01*
X135897443Y-36647971D01*
X135918062Y-36641716D01*
X135945640Y-36639000D01*
X136454360Y-36639000D01*
X136481938Y-36641716D01*
G37*
G36*
X137831938Y-36641716D02*
G01*
X137852557Y-36647971D01*
X137871553Y-36658124D01*
X137888208Y-36671792D01*
X137901876Y-36688447D01*
X137912029Y-36707443D01*
X137918284Y-36728062D01*
X137921000Y-36755640D01*
X137921000Y-37214360D01*
X137918284Y-37241938D01*
X137912029Y-37262557D01*
X137901876Y-37281553D01*
X137888208Y-37298208D01*
X137871553Y-37311876D01*
X137852557Y-37322029D01*
X137831938Y-37328284D01*
X137804360Y-37331000D01*
X137295640Y-37331000D01*
X137268062Y-37328284D01*
X137247443Y-37322029D01*
X137228447Y-37311876D01*
X137211792Y-37298208D01*
X137198124Y-37281553D01*
X137187971Y-37262557D01*
X137181716Y-37241938D01*
X137179000Y-37214360D01*
X137179000Y-36755640D01*
X137181716Y-36728062D01*
X137187971Y-36707443D01*
X137198124Y-36688447D01*
X137211792Y-36671792D01*
X137228447Y-36658124D01*
X137247443Y-36647971D01*
X137268062Y-36641716D01*
X137295640Y-36639000D01*
X137804360Y-36639000D01*
X137831938Y-36641716D01*
G37*
G36*
X131931938Y-36641716D02*
G01*
X131952557Y-36647971D01*
X131971553Y-36658124D01*
X131988208Y-36671792D01*
X132001876Y-36688447D01*
X132012029Y-36707443D01*
X132018284Y-36728062D01*
X132021000Y-36755640D01*
X132021000Y-37214360D01*
X132018284Y-37241938D01*
X132012029Y-37262557D01*
X132001876Y-37281553D01*
X131988208Y-37298208D01*
X131971553Y-37311876D01*
X131952557Y-37322029D01*
X131931938Y-37328284D01*
X131904360Y-37331000D01*
X131395640Y-37331000D01*
X131368062Y-37328284D01*
X131347443Y-37322029D01*
X131328447Y-37311876D01*
X131311792Y-37298208D01*
X131298124Y-37281553D01*
X131287971Y-37262557D01*
X131281716Y-37241938D01*
X131279000Y-37214360D01*
X131279000Y-36755640D01*
X131281716Y-36728062D01*
X131287971Y-36707443D01*
X131298124Y-36688447D01*
X131311792Y-36671792D01*
X131328447Y-36658124D01*
X131347443Y-36647971D01*
X131368062Y-36641716D01*
X131395640Y-36639000D01*
X131904360Y-36639000D01*
X131931938Y-36641716D01*
G37*
G36*
X136481938Y-35671716D02*
G01*
X136502557Y-35677971D01*
X136521553Y-35688124D01*
X136538208Y-35701792D01*
X136551876Y-35718447D01*
X136562029Y-35737443D01*
X136568284Y-35758062D01*
X136571000Y-35785640D01*
X136571000Y-36244360D01*
X136568284Y-36271938D01*
X136562029Y-36292557D01*
X136551876Y-36311553D01*
X136538208Y-36328208D01*
X136521553Y-36341876D01*
X136502557Y-36352029D01*
X136481938Y-36358284D01*
X136454360Y-36361000D01*
X135945640Y-36361000D01*
X135918062Y-36358284D01*
X135897443Y-36352029D01*
X135878447Y-36341876D01*
X135861792Y-36328208D01*
X135848124Y-36311553D01*
X135837971Y-36292557D01*
X135831716Y-36271938D01*
X135829000Y-36244360D01*
X135829000Y-35785640D01*
X135831716Y-35758062D01*
X135837971Y-35737443D01*
X135848124Y-35718447D01*
X135861792Y-35701792D01*
X135878447Y-35688124D01*
X135897443Y-35677971D01*
X135918062Y-35671716D01*
X135945640Y-35669000D01*
X136454360Y-35669000D01*
X136481938Y-35671716D01*
G37*
G36*
X130631938Y-35671716D02*
G01*
X130652557Y-35677971D01*
X130671553Y-35688124D01*
X130688208Y-35701792D01*
X130701876Y-35718447D01*
X130712029Y-35737443D01*
X130718284Y-35758062D01*
X130721000Y-35785640D01*
X130721000Y-36244360D01*
X130718284Y-36271938D01*
X130712029Y-36292557D01*
X130701876Y-36311553D01*
X130688208Y-36328208D01*
X130671553Y-36341876D01*
X130652557Y-36352029D01*
X130631938Y-36358284D01*
X130604360Y-36361000D01*
X130095640Y-36361000D01*
X130068062Y-36358284D01*
X130047443Y-36352029D01*
X130028447Y-36341876D01*
X130011792Y-36328208D01*
X129998124Y-36311553D01*
X129987971Y-36292557D01*
X129981716Y-36271938D01*
X129979000Y-36244360D01*
X129979000Y-35785640D01*
X129981716Y-35758062D01*
X129987971Y-35737443D01*
X129998124Y-35718447D01*
X130011792Y-35701792D01*
X130028447Y-35688124D01*
X130047443Y-35677971D01*
X130068062Y-35671716D01*
X130095640Y-35669000D01*
X130604360Y-35669000D01*
X130631938Y-35671716D01*
G37*
G36*
X137831938Y-35671716D02*
G01*
X137852557Y-35677971D01*
X137871553Y-35688124D01*
X137888208Y-35701792D01*
X137901876Y-35718447D01*
X137912029Y-35737443D01*
X137918284Y-35758062D01*
X137921000Y-35785640D01*
X137921000Y-36244360D01*
X137918284Y-36271938D01*
X137912029Y-36292557D01*
X137901876Y-36311553D01*
X137888208Y-36328208D01*
X137871553Y-36341876D01*
X137852557Y-36352029D01*
X137831938Y-36358284D01*
X137804360Y-36361000D01*
X137295640Y-36361000D01*
X137268062Y-36358284D01*
X137247443Y-36352029D01*
X137228447Y-36341876D01*
X137211792Y-36328208D01*
X137198124Y-36311553D01*
X137187971Y-36292557D01*
X137181716Y-36271938D01*
X137179000Y-36244360D01*
X137179000Y-35785640D01*
X137181716Y-35758062D01*
X137187971Y-35737443D01*
X137198124Y-35718447D01*
X137211792Y-35701792D01*
X137228447Y-35688124D01*
X137247443Y-35677971D01*
X137268062Y-35671716D01*
X137295640Y-35669000D01*
X137804360Y-35669000D01*
X137831938Y-35671716D01*
G37*
G36*
X133131938Y-35671716D02*
G01*
X133152557Y-35677971D01*
X133171553Y-35688124D01*
X133188208Y-35701792D01*
X133201876Y-35718447D01*
X133212029Y-35737443D01*
X133218284Y-35758062D01*
X133221000Y-35785640D01*
X133221000Y-36244360D01*
X133218284Y-36271938D01*
X133212029Y-36292557D01*
X133201876Y-36311553D01*
X133188208Y-36328208D01*
X133171553Y-36341876D01*
X133152557Y-36352029D01*
X133131938Y-36358284D01*
X133104360Y-36361000D01*
X132595640Y-36361000D01*
X132568062Y-36358284D01*
X132547443Y-36352029D01*
X132528447Y-36341876D01*
X132511792Y-36328208D01*
X132498124Y-36311553D01*
X132487971Y-36292557D01*
X132481716Y-36271938D01*
X132479000Y-36244360D01*
X132479000Y-35785640D01*
X132481716Y-35758062D01*
X132487971Y-35737443D01*
X132498124Y-35718447D01*
X132511792Y-35701792D01*
X132528447Y-35688124D01*
X132547443Y-35677971D01*
X132568062Y-35671716D01*
X132595640Y-35669000D01*
X133104360Y-35669000D01*
X133131938Y-35671716D01*
G37*
G36*
X131931938Y-35671716D02*
G01*
X131952557Y-35677971D01*
X131971553Y-35688124D01*
X131988208Y-35701792D01*
X132001876Y-35718447D01*
X132012029Y-35737443D01*
X132018284Y-35758062D01*
X132021000Y-35785640D01*
X132021000Y-36244360D01*
X132018284Y-36271938D01*
X132012029Y-36292557D01*
X132001876Y-36311553D01*
X131988208Y-36328208D01*
X131971553Y-36341876D01*
X131952557Y-36352029D01*
X131931938Y-36358284D01*
X131904360Y-36361000D01*
X131395640Y-36361000D01*
X131368062Y-36358284D01*
X131347443Y-36352029D01*
X131328447Y-36341876D01*
X131311792Y-36328208D01*
X131298124Y-36311553D01*
X131287971Y-36292557D01*
X131281716Y-36271938D01*
X131279000Y-36244360D01*
X131279000Y-35785640D01*
X131281716Y-35758062D01*
X131287971Y-35737443D01*
X131298124Y-35718447D01*
X131311792Y-35701792D01*
X131328447Y-35688124D01*
X131347443Y-35677971D01*
X131368062Y-35671716D01*
X131395640Y-35669000D01*
X131904360Y-35669000D01*
X131931938Y-35671716D01*
G37*
G36*
X135241938Y-35431716D02*
G01*
X135262557Y-35437971D01*
X135281553Y-35448124D01*
X135298208Y-35461792D01*
X135311876Y-35478447D01*
X135322029Y-35497443D01*
X135328284Y-35518062D01*
X135331000Y-35545640D01*
X135331000Y-36054360D01*
X135328284Y-36081938D01*
X135322029Y-36102557D01*
X135311876Y-36121553D01*
X135298208Y-36138208D01*
X135281553Y-36151876D01*
X135262557Y-36162029D01*
X135241938Y-36168284D01*
X135214360Y-36171000D01*
X134755640Y-36171000D01*
X134728062Y-36168284D01*
X134707443Y-36162029D01*
X134688447Y-36151876D01*
X134671792Y-36138208D01*
X134658124Y-36121553D01*
X134647971Y-36102557D01*
X134641716Y-36081938D01*
X134639000Y-36054360D01*
X134639000Y-35545640D01*
X134641716Y-35518062D01*
X134647971Y-35497443D01*
X134658124Y-35478447D01*
X134671792Y-35461792D01*
X134688447Y-35448124D01*
X134707443Y-35437971D01*
X134728062Y-35431716D01*
X134755640Y-35429000D01*
X135214360Y-35429000D01*
X135241938Y-35431716D01*
G37*
G36*
X134271938Y-35431716D02*
G01*
X134292557Y-35437971D01*
X134311553Y-35448124D01*
X134328208Y-35461792D01*
X134341876Y-35478447D01*
X134352029Y-35497443D01*
X134358284Y-35518062D01*
X134361000Y-35545640D01*
X134361000Y-36054360D01*
X134358284Y-36081938D01*
X134352029Y-36102557D01*
X134341876Y-36121553D01*
X134328208Y-36138208D01*
X134311553Y-36151876D01*
X134292557Y-36162029D01*
X134271938Y-36168284D01*
X134244360Y-36171000D01*
X133785640Y-36171000D01*
X133758062Y-36168284D01*
X133737443Y-36162029D01*
X133718447Y-36151876D01*
X133701792Y-36138208D01*
X133688124Y-36121553D01*
X133677971Y-36102557D01*
X133671716Y-36081938D01*
X133669000Y-36054360D01*
X133669000Y-35545640D01*
X133671716Y-35518062D01*
X133677971Y-35497443D01*
X133688124Y-35478447D01*
X133701792Y-35461792D01*
X133718447Y-35448124D01*
X133737443Y-35437971D01*
X133758062Y-35431716D01*
X133785640Y-35429000D01*
X134244360Y-35429000D01*
X134271938Y-35431716D01*
G37*
G36*
X129951000Y-34991000D02*
G01*
X128449000Y-34991000D01*
X128449000Y-32889000D01*
X129951000Y-32889000D01*
X129951000Y-34991000D01*
G37*
G36*
X139451000Y-34991000D02*
G01*
X137949000Y-34991000D01*
X137949000Y-32889000D01*
X139451000Y-32889000D01*
X139451000Y-34991000D01*
G37*
M02*
