M48
; DRILL file {KiCad 5.1.5} date 2020年06月01日 星期一 05时57分38秒
; FORMAT={-:-/ absolute / inch / decimal}
; #@! TF.CreationDate,2020-06-01T05:57:38+08:00
; #@! TF.GenerationSoftware,Kicad,Pcbnew,5.1.5
; #@! TF.FileFunction,Plated,1,2,PTH
FMAT,2
INCH
T1C0.0118
T2C0.0157
%
G90
G05
T1
X5.3406Y-1.4862
T2
X5.0335Y-1.6496
X5.0413Y-1.4646
X5.0531Y-1.9291
X5.0531Y-2.1181
X5.0531Y-2.1969
X5.0924Y-1.464
X5.0981Y-1.6511
X5.0981Y-1.579
X5.1009Y-1.5281
X5.1358Y-2.8819
X5.1398Y-2.1969
X5.1476Y-1.8386
X5.1791Y-1.9724
X5.2067Y-2.1969
X5.2106Y-1.5866
X5.2106Y-1.6575
X5.2106Y-1.7283
X5.2343Y-1.8543
X5.2343Y-1.9173
X5.2343Y-2.8819
X5.2736Y-1.5866
X5.2736Y-1.6575
X5.2736Y-1.7283
X5.2894Y-1.8543
X5.3012Y-2.1969
X5.313Y-2.8819
X5.3366Y-1.5866
X5.3366Y-1.6575
X5.3366Y-1.7283
X5.3366Y-1.8543
X5.4114Y-2.8819
X5.4154Y-1.8543
X5.4311Y-2.1969
X5.4508Y-1.4646
X5.4626Y-1.6575
X5.4626Y-1.8543
X5.4744Y-1.5945
X5.498Y-1.4646
X5.498Y-1.9488
X5.498Y-2.1299
X5.498Y-2.1969
T0
M30
