G04 #@! TF.GenerationSoftware,KiCad,Pcbnew,5.1.5*
G04 #@! TF.CreationDate,2020-06-01T05:57:33+08:00*
G04 #@! TF.ProjectId,udisk,75646973-6b2e-46b6-9963-61645f706362,rev?*
G04 #@! TF.SameCoordinates,Original*
G04 #@! TF.FileFunction,Paste,Top*
G04 #@! TF.FilePolarity,Positive*
%FSLAX46Y46*%
G04 Gerber Fmt 4.6, Leading zero omitted, Abs format (unit mm)*
G04 Created by KiCad (PCBNEW 5.1.5) date 2020-06-01 05:57:33*
%MOMM*%
%LPD*%
G04 APERTURE LIST*
%ADD10C,0.100000*%
%ADD11R,1.400000X2.000000*%
%ADD12R,0.800000X1.000000*%
%ADD13O,1.500000X6.000000*%
%ADD14O,2.000000X7.000000*%
%ADD15R,0.650000X1.060000*%
%ADD16R,0.900000X0.800000*%
G04 APERTURE END LIST*
D10*
G36*
X130536958Y-35720710D02*
G01*
X130551276Y-35722834D01*
X130565317Y-35726351D01*
X130578946Y-35731228D01*
X130592031Y-35737417D01*
X130604447Y-35744858D01*
X130616073Y-35753481D01*
X130626798Y-35763202D01*
X130636519Y-35773927D01*
X130645142Y-35785553D01*
X130652583Y-35797969D01*
X130658772Y-35811054D01*
X130663649Y-35824683D01*
X130667166Y-35838724D01*
X130669290Y-35853042D01*
X130670000Y-35867500D01*
X130670000Y-36162500D01*
X130669290Y-36176958D01*
X130667166Y-36191276D01*
X130663649Y-36205317D01*
X130658772Y-36218946D01*
X130652583Y-36232031D01*
X130645142Y-36244447D01*
X130636519Y-36256073D01*
X130626798Y-36266798D01*
X130616073Y-36276519D01*
X130604447Y-36285142D01*
X130592031Y-36292583D01*
X130578946Y-36298772D01*
X130565317Y-36303649D01*
X130551276Y-36307166D01*
X130536958Y-36309290D01*
X130522500Y-36310000D01*
X130177500Y-36310000D01*
X130163042Y-36309290D01*
X130148724Y-36307166D01*
X130134683Y-36303649D01*
X130121054Y-36298772D01*
X130107969Y-36292583D01*
X130095553Y-36285142D01*
X130083927Y-36276519D01*
X130073202Y-36266798D01*
X130063481Y-36256073D01*
X130054858Y-36244447D01*
X130047417Y-36232031D01*
X130041228Y-36218946D01*
X130036351Y-36205317D01*
X130032834Y-36191276D01*
X130030710Y-36176958D01*
X130030000Y-36162500D01*
X130030000Y-35867500D01*
X130030710Y-35853042D01*
X130032834Y-35838724D01*
X130036351Y-35824683D01*
X130041228Y-35811054D01*
X130047417Y-35797969D01*
X130054858Y-35785553D01*
X130063481Y-35773927D01*
X130073202Y-35763202D01*
X130083927Y-35753481D01*
X130095553Y-35744858D01*
X130107969Y-35737417D01*
X130121054Y-35731228D01*
X130134683Y-35726351D01*
X130148724Y-35722834D01*
X130163042Y-35720710D01*
X130177500Y-35720000D01*
X130522500Y-35720000D01*
X130536958Y-35720710D01*
G37*
G36*
X130536958Y-36690710D02*
G01*
X130551276Y-36692834D01*
X130565317Y-36696351D01*
X130578946Y-36701228D01*
X130592031Y-36707417D01*
X130604447Y-36714858D01*
X130616073Y-36723481D01*
X130626798Y-36733202D01*
X130636519Y-36743927D01*
X130645142Y-36755553D01*
X130652583Y-36767969D01*
X130658772Y-36781054D01*
X130663649Y-36794683D01*
X130667166Y-36808724D01*
X130669290Y-36823042D01*
X130670000Y-36837500D01*
X130670000Y-37132500D01*
X130669290Y-37146958D01*
X130667166Y-37161276D01*
X130663649Y-37175317D01*
X130658772Y-37188946D01*
X130652583Y-37202031D01*
X130645142Y-37214447D01*
X130636519Y-37226073D01*
X130626798Y-37236798D01*
X130616073Y-37246519D01*
X130604447Y-37255142D01*
X130592031Y-37262583D01*
X130578946Y-37268772D01*
X130565317Y-37273649D01*
X130551276Y-37277166D01*
X130536958Y-37279290D01*
X130522500Y-37280000D01*
X130177500Y-37280000D01*
X130163042Y-37279290D01*
X130148724Y-37277166D01*
X130134683Y-37273649D01*
X130121054Y-37268772D01*
X130107969Y-37262583D01*
X130095553Y-37255142D01*
X130083927Y-37246519D01*
X130073202Y-37236798D01*
X130063481Y-37226073D01*
X130054858Y-37214447D01*
X130047417Y-37202031D01*
X130041228Y-37188946D01*
X130036351Y-37175317D01*
X130032834Y-37161276D01*
X130030710Y-37146958D01*
X130030000Y-37132500D01*
X130030000Y-36837500D01*
X130030710Y-36823042D01*
X130032834Y-36808724D01*
X130036351Y-36794683D01*
X130041228Y-36781054D01*
X130047417Y-36767969D01*
X130054858Y-36755553D01*
X130063481Y-36743927D01*
X130073202Y-36733202D01*
X130083927Y-36723481D01*
X130095553Y-36714858D01*
X130107969Y-36707417D01*
X130121054Y-36701228D01*
X130134683Y-36696351D01*
X130148724Y-36692834D01*
X130163042Y-36690710D01*
X130177500Y-36690000D01*
X130522500Y-36690000D01*
X130536958Y-36690710D01*
G37*
D11*
X138700000Y-33940000D03*
X129200000Y-33940000D03*
D12*
X133250000Y-56900000D03*
X134650000Y-56900000D03*
D13*
X134950000Y-66900000D03*
X132950000Y-66900000D03*
D14*
X137450000Y-66900000D03*
X130450000Y-66900000D03*
D10*
G36*
X136386958Y-35720710D02*
G01*
X136401276Y-35722834D01*
X136415317Y-35726351D01*
X136428946Y-35731228D01*
X136442031Y-35737417D01*
X136454447Y-35744858D01*
X136466073Y-35753481D01*
X136476798Y-35763202D01*
X136486519Y-35773927D01*
X136495142Y-35785553D01*
X136502583Y-35797969D01*
X136508772Y-35811054D01*
X136513649Y-35824683D01*
X136517166Y-35838724D01*
X136519290Y-35853042D01*
X136520000Y-35867500D01*
X136520000Y-36162500D01*
X136519290Y-36176958D01*
X136517166Y-36191276D01*
X136513649Y-36205317D01*
X136508772Y-36218946D01*
X136502583Y-36232031D01*
X136495142Y-36244447D01*
X136486519Y-36256073D01*
X136476798Y-36266798D01*
X136466073Y-36276519D01*
X136454447Y-36285142D01*
X136442031Y-36292583D01*
X136428946Y-36298772D01*
X136415317Y-36303649D01*
X136401276Y-36307166D01*
X136386958Y-36309290D01*
X136372500Y-36310000D01*
X136027500Y-36310000D01*
X136013042Y-36309290D01*
X135998724Y-36307166D01*
X135984683Y-36303649D01*
X135971054Y-36298772D01*
X135957969Y-36292583D01*
X135945553Y-36285142D01*
X135933927Y-36276519D01*
X135923202Y-36266798D01*
X135913481Y-36256073D01*
X135904858Y-36244447D01*
X135897417Y-36232031D01*
X135891228Y-36218946D01*
X135886351Y-36205317D01*
X135882834Y-36191276D01*
X135880710Y-36176958D01*
X135880000Y-36162500D01*
X135880000Y-35867500D01*
X135880710Y-35853042D01*
X135882834Y-35838724D01*
X135886351Y-35824683D01*
X135891228Y-35811054D01*
X135897417Y-35797969D01*
X135904858Y-35785553D01*
X135913481Y-35773927D01*
X135923202Y-35763202D01*
X135933927Y-35753481D01*
X135945553Y-35744858D01*
X135957969Y-35737417D01*
X135971054Y-35731228D01*
X135984683Y-35726351D01*
X135998724Y-35722834D01*
X136013042Y-35720710D01*
X136027500Y-35720000D01*
X136372500Y-35720000D01*
X136386958Y-35720710D01*
G37*
G36*
X136386958Y-36690710D02*
G01*
X136401276Y-36692834D01*
X136415317Y-36696351D01*
X136428946Y-36701228D01*
X136442031Y-36707417D01*
X136454447Y-36714858D01*
X136466073Y-36723481D01*
X136476798Y-36733202D01*
X136486519Y-36743927D01*
X136495142Y-36755553D01*
X136502583Y-36767969D01*
X136508772Y-36781054D01*
X136513649Y-36794683D01*
X136517166Y-36808724D01*
X136519290Y-36823042D01*
X136520000Y-36837500D01*
X136520000Y-37132500D01*
X136519290Y-37146958D01*
X136517166Y-37161276D01*
X136513649Y-37175317D01*
X136508772Y-37188946D01*
X136502583Y-37202031D01*
X136495142Y-37214447D01*
X136486519Y-37226073D01*
X136476798Y-37236798D01*
X136466073Y-37246519D01*
X136454447Y-37255142D01*
X136442031Y-37262583D01*
X136428946Y-37268772D01*
X136415317Y-37273649D01*
X136401276Y-37277166D01*
X136386958Y-37279290D01*
X136372500Y-37280000D01*
X136027500Y-37280000D01*
X136013042Y-37279290D01*
X135998724Y-37277166D01*
X135984683Y-37273649D01*
X135971054Y-37268772D01*
X135957969Y-37262583D01*
X135945553Y-37255142D01*
X135933927Y-37246519D01*
X135923202Y-37236798D01*
X135913481Y-37226073D01*
X135904858Y-37214447D01*
X135897417Y-37202031D01*
X135891228Y-37188946D01*
X135886351Y-37175317D01*
X135882834Y-37161276D01*
X135880710Y-37146958D01*
X135880000Y-37132500D01*
X135880000Y-36837500D01*
X135880710Y-36823042D01*
X135882834Y-36808724D01*
X135886351Y-36794683D01*
X135891228Y-36781054D01*
X135897417Y-36767969D01*
X135904858Y-36755553D01*
X135913481Y-36743927D01*
X135923202Y-36733202D01*
X135933927Y-36723481D01*
X135945553Y-36714858D01*
X135957969Y-36707417D01*
X135971054Y-36701228D01*
X135984683Y-36696351D01*
X135998724Y-36692834D01*
X136013042Y-36690710D01*
X136027500Y-36690000D01*
X136372500Y-36690000D01*
X136386958Y-36690710D01*
G37*
G36*
X135146958Y-36880710D02*
G01*
X135161276Y-36882834D01*
X135175317Y-36886351D01*
X135188946Y-36891228D01*
X135202031Y-36897417D01*
X135214447Y-36904858D01*
X135226073Y-36913481D01*
X135236798Y-36923202D01*
X135246519Y-36933927D01*
X135255142Y-36945553D01*
X135262583Y-36957969D01*
X135268772Y-36971054D01*
X135273649Y-36984683D01*
X135277166Y-36998724D01*
X135279290Y-37013042D01*
X135280000Y-37027500D01*
X135280000Y-37372500D01*
X135279290Y-37386958D01*
X135277166Y-37401276D01*
X135273649Y-37415317D01*
X135268772Y-37428946D01*
X135262583Y-37442031D01*
X135255142Y-37454447D01*
X135246519Y-37466073D01*
X135236798Y-37476798D01*
X135226073Y-37486519D01*
X135214447Y-37495142D01*
X135202031Y-37502583D01*
X135188946Y-37508772D01*
X135175317Y-37513649D01*
X135161276Y-37517166D01*
X135146958Y-37519290D01*
X135132500Y-37520000D01*
X134837500Y-37520000D01*
X134823042Y-37519290D01*
X134808724Y-37517166D01*
X134794683Y-37513649D01*
X134781054Y-37508772D01*
X134767969Y-37502583D01*
X134755553Y-37495142D01*
X134743927Y-37486519D01*
X134733202Y-37476798D01*
X134723481Y-37466073D01*
X134714858Y-37454447D01*
X134707417Y-37442031D01*
X134701228Y-37428946D01*
X134696351Y-37415317D01*
X134692834Y-37401276D01*
X134690710Y-37386958D01*
X134690000Y-37372500D01*
X134690000Y-37027500D01*
X134690710Y-37013042D01*
X134692834Y-36998724D01*
X134696351Y-36984683D01*
X134701228Y-36971054D01*
X134707417Y-36957969D01*
X134714858Y-36945553D01*
X134723481Y-36933927D01*
X134733202Y-36923202D01*
X134743927Y-36913481D01*
X134755553Y-36904858D01*
X134767969Y-36897417D01*
X134781054Y-36891228D01*
X134794683Y-36886351D01*
X134808724Y-36882834D01*
X134823042Y-36880710D01*
X134837500Y-36880000D01*
X135132500Y-36880000D01*
X135146958Y-36880710D01*
G37*
G36*
X134176958Y-36880710D02*
G01*
X134191276Y-36882834D01*
X134205317Y-36886351D01*
X134218946Y-36891228D01*
X134232031Y-36897417D01*
X134244447Y-36904858D01*
X134256073Y-36913481D01*
X134266798Y-36923202D01*
X134276519Y-36933927D01*
X134285142Y-36945553D01*
X134292583Y-36957969D01*
X134298772Y-36971054D01*
X134303649Y-36984683D01*
X134307166Y-36998724D01*
X134309290Y-37013042D01*
X134310000Y-37027500D01*
X134310000Y-37372500D01*
X134309290Y-37386958D01*
X134307166Y-37401276D01*
X134303649Y-37415317D01*
X134298772Y-37428946D01*
X134292583Y-37442031D01*
X134285142Y-37454447D01*
X134276519Y-37466073D01*
X134266798Y-37476798D01*
X134256073Y-37486519D01*
X134244447Y-37495142D01*
X134232031Y-37502583D01*
X134218946Y-37508772D01*
X134205317Y-37513649D01*
X134191276Y-37517166D01*
X134176958Y-37519290D01*
X134162500Y-37520000D01*
X133867500Y-37520000D01*
X133853042Y-37519290D01*
X133838724Y-37517166D01*
X133824683Y-37513649D01*
X133811054Y-37508772D01*
X133797969Y-37502583D01*
X133785553Y-37495142D01*
X133773927Y-37486519D01*
X133763202Y-37476798D01*
X133753481Y-37466073D01*
X133744858Y-37454447D01*
X133737417Y-37442031D01*
X133731228Y-37428946D01*
X133726351Y-37415317D01*
X133722834Y-37401276D01*
X133720710Y-37386958D01*
X133720000Y-37372500D01*
X133720000Y-37027500D01*
X133720710Y-37013042D01*
X133722834Y-36998724D01*
X133726351Y-36984683D01*
X133731228Y-36971054D01*
X133737417Y-36957969D01*
X133744858Y-36945553D01*
X133753481Y-36933927D01*
X133763202Y-36923202D01*
X133773927Y-36913481D01*
X133785553Y-36904858D01*
X133797969Y-36897417D01*
X133811054Y-36891228D01*
X133824683Y-36886351D01*
X133838724Y-36882834D01*
X133853042Y-36880710D01*
X133867500Y-36880000D01*
X134162500Y-36880000D01*
X134176958Y-36880710D01*
G37*
G36*
X134176958Y-35480710D02*
G01*
X134191276Y-35482834D01*
X134205317Y-35486351D01*
X134218946Y-35491228D01*
X134232031Y-35497417D01*
X134244447Y-35504858D01*
X134256073Y-35513481D01*
X134266798Y-35523202D01*
X134276519Y-35533927D01*
X134285142Y-35545553D01*
X134292583Y-35557969D01*
X134298772Y-35571054D01*
X134303649Y-35584683D01*
X134307166Y-35598724D01*
X134309290Y-35613042D01*
X134310000Y-35627500D01*
X134310000Y-35972500D01*
X134309290Y-35986958D01*
X134307166Y-36001276D01*
X134303649Y-36015317D01*
X134298772Y-36028946D01*
X134292583Y-36042031D01*
X134285142Y-36054447D01*
X134276519Y-36066073D01*
X134266798Y-36076798D01*
X134256073Y-36086519D01*
X134244447Y-36095142D01*
X134232031Y-36102583D01*
X134218946Y-36108772D01*
X134205317Y-36113649D01*
X134191276Y-36117166D01*
X134176958Y-36119290D01*
X134162500Y-36120000D01*
X133867500Y-36120000D01*
X133853042Y-36119290D01*
X133838724Y-36117166D01*
X133824683Y-36113649D01*
X133811054Y-36108772D01*
X133797969Y-36102583D01*
X133785553Y-36095142D01*
X133773927Y-36086519D01*
X133763202Y-36076798D01*
X133753481Y-36066073D01*
X133744858Y-36054447D01*
X133737417Y-36042031D01*
X133731228Y-36028946D01*
X133726351Y-36015317D01*
X133722834Y-36001276D01*
X133720710Y-35986958D01*
X133720000Y-35972500D01*
X133720000Y-35627500D01*
X133720710Y-35613042D01*
X133722834Y-35598724D01*
X133726351Y-35584683D01*
X133731228Y-35571054D01*
X133737417Y-35557969D01*
X133744858Y-35545553D01*
X133753481Y-35533927D01*
X133763202Y-35523202D01*
X133773927Y-35513481D01*
X133785553Y-35504858D01*
X133797969Y-35497417D01*
X133811054Y-35491228D01*
X133824683Y-35486351D01*
X133838724Y-35482834D01*
X133853042Y-35480710D01*
X133867500Y-35480000D01*
X134162500Y-35480000D01*
X134176958Y-35480710D01*
G37*
G36*
X135146958Y-35480710D02*
G01*
X135161276Y-35482834D01*
X135175317Y-35486351D01*
X135188946Y-35491228D01*
X135202031Y-35497417D01*
X135214447Y-35504858D01*
X135226073Y-35513481D01*
X135236798Y-35523202D01*
X135246519Y-35533927D01*
X135255142Y-35545553D01*
X135262583Y-35557969D01*
X135268772Y-35571054D01*
X135273649Y-35584683D01*
X135277166Y-35598724D01*
X135279290Y-35613042D01*
X135280000Y-35627500D01*
X135280000Y-35972500D01*
X135279290Y-35986958D01*
X135277166Y-36001276D01*
X135273649Y-36015317D01*
X135268772Y-36028946D01*
X135262583Y-36042031D01*
X135255142Y-36054447D01*
X135246519Y-36066073D01*
X135236798Y-36076798D01*
X135226073Y-36086519D01*
X135214447Y-36095142D01*
X135202031Y-36102583D01*
X135188946Y-36108772D01*
X135175317Y-36113649D01*
X135161276Y-36117166D01*
X135146958Y-36119290D01*
X135132500Y-36120000D01*
X134837500Y-36120000D01*
X134823042Y-36119290D01*
X134808724Y-36117166D01*
X134794683Y-36113649D01*
X134781054Y-36108772D01*
X134767969Y-36102583D01*
X134755553Y-36095142D01*
X134743927Y-36086519D01*
X134733202Y-36076798D01*
X134723481Y-36066073D01*
X134714858Y-36054447D01*
X134707417Y-36042031D01*
X134701228Y-36028946D01*
X134696351Y-36015317D01*
X134692834Y-36001276D01*
X134690710Y-35986958D01*
X134690000Y-35972500D01*
X134690000Y-35627500D01*
X134690710Y-35613042D01*
X134692834Y-35598724D01*
X134696351Y-35584683D01*
X134701228Y-35571054D01*
X134707417Y-35557969D01*
X134714858Y-35545553D01*
X134723481Y-35533927D01*
X134733202Y-35523202D01*
X134743927Y-35513481D01*
X134755553Y-35504858D01*
X134767969Y-35497417D01*
X134781054Y-35491228D01*
X134794683Y-35486351D01*
X134808724Y-35482834D01*
X134823042Y-35480710D01*
X134837500Y-35480000D01*
X135132500Y-35480000D01*
X135146958Y-35480710D01*
G37*
G36*
X131836958Y-36690710D02*
G01*
X131851276Y-36692834D01*
X131865317Y-36696351D01*
X131878946Y-36701228D01*
X131892031Y-36707417D01*
X131904447Y-36714858D01*
X131916073Y-36723481D01*
X131926798Y-36733202D01*
X131936519Y-36743927D01*
X131945142Y-36755553D01*
X131952583Y-36767969D01*
X131958772Y-36781054D01*
X131963649Y-36794683D01*
X131967166Y-36808724D01*
X131969290Y-36823042D01*
X131970000Y-36837500D01*
X131970000Y-37132500D01*
X131969290Y-37146958D01*
X131967166Y-37161276D01*
X131963649Y-37175317D01*
X131958772Y-37188946D01*
X131952583Y-37202031D01*
X131945142Y-37214447D01*
X131936519Y-37226073D01*
X131926798Y-37236798D01*
X131916073Y-37246519D01*
X131904447Y-37255142D01*
X131892031Y-37262583D01*
X131878946Y-37268772D01*
X131865317Y-37273649D01*
X131851276Y-37277166D01*
X131836958Y-37279290D01*
X131822500Y-37280000D01*
X131477500Y-37280000D01*
X131463042Y-37279290D01*
X131448724Y-37277166D01*
X131434683Y-37273649D01*
X131421054Y-37268772D01*
X131407969Y-37262583D01*
X131395553Y-37255142D01*
X131383927Y-37246519D01*
X131373202Y-37236798D01*
X131363481Y-37226073D01*
X131354858Y-37214447D01*
X131347417Y-37202031D01*
X131341228Y-37188946D01*
X131336351Y-37175317D01*
X131332834Y-37161276D01*
X131330710Y-37146958D01*
X131330000Y-37132500D01*
X131330000Y-36837500D01*
X131330710Y-36823042D01*
X131332834Y-36808724D01*
X131336351Y-36794683D01*
X131341228Y-36781054D01*
X131347417Y-36767969D01*
X131354858Y-36755553D01*
X131363481Y-36743927D01*
X131373202Y-36733202D01*
X131383927Y-36723481D01*
X131395553Y-36714858D01*
X131407969Y-36707417D01*
X131421054Y-36701228D01*
X131434683Y-36696351D01*
X131448724Y-36692834D01*
X131463042Y-36690710D01*
X131477500Y-36690000D01*
X131822500Y-36690000D01*
X131836958Y-36690710D01*
G37*
G36*
X131836958Y-35720710D02*
G01*
X131851276Y-35722834D01*
X131865317Y-35726351D01*
X131878946Y-35731228D01*
X131892031Y-35737417D01*
X131904447Y-35744858D01*
X131916073Y-35753481D01*
X131926798Y-35763202D01*
X131936519Y-35773927D01*
X131945142Y-35785553D01*
X131952583Y-35797969D01*
X131958772Y-35811054D01*
X131963649Y-35824683D01*
X131967166Y-35838724D01*
X131969290Y-35853042D01*
X131970000Y-35867500D01*
X131970000Y-36162500D01*
X131969290Y-36176958D01*
X131967166Y-36191276D01*
X131963649Y-36205317D01*
X131958772Y-36218946D01*
X131952583Y-36232031D01*
X131945142Y-36244447D01*
X131936519Y-36256073D01*
X131926798Y-36266798D01*
X131916073Y-36276519D01*
X131904447Y-36285142D01*
X131892031Y-36292583D01*
X131878946Y-36298772D01*
X131865317Y-36303649D01*
X131851276Y-36307166D01*
X131836958Y-36309290D01*
X131822500Y-36310000D01*
X131477500Y-36310000D01*
X131463042Y-36309290D01*
X131448724Y-36307166D01*
X131434683Y-36303649D01*
X131421054Y-36298772D01*
X131407969Y-36292583D01*
X131395553Y-36285142D01*
X131383927Y-36276519D01*
X131373202Y-36266798D01*
X131363481Y-36256073D01*
X131354858Y-36244447D01*
X131347417Y-36232031D01*
X131341228Y-36218946D01*
X131336351Y-36205317D01*
X131332834Y-36191276D01*
X131330710Y-36176958D01*
X131330000Y-36162500D01*
X131330000Y-35867500D01*
X131330710Y-35853042D01*
X131332834Y-35838724D01*
X131336351Y-35824683D01*
X131341228Y-35811054D01*
X131347417Y-35797969D01*
X131354858Y-35785553D01*
X131363481Y-35773927D01*
X131373202Y-35763202D01*
X131383927Y-35753481D01*
X131395553Y-35744858D01*
X131407969Y-35737417D01*
X131421054Y-35731228D01*
X131434683Y-35726351D01*
X131448724Y-35722834D01*
X131463042Y-35720710D01*
X131477500Y-35720000D01*
X131822500Y-35720000D01*
X131836958Y-35720710D01*
G37*
G36*
X133036958Y-35720710D02*
G01*
X133051276Y-35722834D01*
X133065317Y-35726351D01*
X133078946Y-35731228D01*
X133092031Y-35737417D01*
X133104447Y-35744858D01*
X133116073Y-35753481D01*
X133126798Y-35763202D01*
X133136519Y-35773927D01*
X133145142Y-35785553D01*
X133152583Y-35797969D01*
X133158772Y-35811054D01*
X133163649Y-35824683D01*
X133167166Y-35838724D01*
X133169290Y-35853042D01*
X133170000Y-35867500D01*
X133170000Y-36162500D01*
X133169290Y-36176958D01*
X133167166Y-36191276D01*
X133163649Y-36205317D01*
X133158772Y-36218946D01*
X133152583Y-36232031D01*
X133145142Y-36244447D01*
X133136519Y-36256073D01*
X133126798Y-36266798D01*
X133116073Y-36276519D01*
X133104447Y-36285142D01*
X133092031Y-36292583D01*
X133078946Y-36298772D01*
X133065317Y-36303649D01*
X133051276Y-36307166D01*
X133036958Y-36309290D01*
X133022500Y-36310000D01*
X132677500Y-36310000D01*
X132663042Y-36309290D01*
X132648724Y-36307166D01*
X132634683Y-36303649D01*
X132621054Y-36298772D01*
X132607969Y-36292583D01*
X132595553Y-36285142D01*
X132583927Y-36276519D01*
X132573202Y-36266798D01*
X132563481Y-36256073D01*
X132554858Y-36244447D01*
X132547417Y-36232031D01*
X132541228Y-36218946D01*
X132536351Y-36205317D01*
X132532834Y-36191276D01*
X132530710Y-36176958D01*
X132530000Y-36162500D01*
X132530000Y-35867500D01*
X132530710Y-35853042D01*
X132532834Y-35838724D01*
X132536351Y-35824683D01*
X132541228Y-35811054D01*
X132547417Y-35797969D01*
X132554858Y-35785553D01*
X132563481Y-35773927D01*
X132573202Y-35763202D01*
X132583927Y-35753481D01*
X132595553Y-35744858D01*
X132607969Y-35737417D01*
X132621054Y-35731228D01*
X132634683Y-35726351D01*
X132648724Y-35722834D01*
X132663042Y-35720710D01*
X132677500Y-35720000D01*
X133022500Y-35720000D01*
X133036958Y-35720710D01*
G37*
G36*
X133036958Y-36690710D02*
G01*
X133051276Y-36692834D01*
X133065317Y-36696351D01*
X133078946Y-36701228D01*
X133092031Y-36707417D01*
X133104447Y-36714858D01*
X133116073Y-36723481D01*
X133126798Y-36733202D01*
X133136519Y-36743927D01*
X133145142Y-36755553D01*
X133152583Y-36767969D01*
X133158772Y-36781054D01*
X133163649Y-36794683D01*
X133167166Y-36808724D01*
X133169290Y-36823042D01*
X133170000Y-36837500D01*
X133170000Y-37132500D01*
X133169290Y-37146958D01*
X133167166Y-37161276D01*
X133163649Y-37175317D01*
X133158772Y-37188946D01*
X133152583Y-37202031D01*
X133145142Y-37214447D01*
X133136519Y-37226073D01*
X133126798Y-37236798D01*
X133116073Y-37246519D01*
X133104447Y-37255142D01*
X133092031Y-37262583D01*
X133078946Y-37268772D01*
X133065317Y-37273649D01*
X133051276Y-37277166D01*
X133036958Y-37279290D01*
X133022500Y-37280000D01*
X132677500Y-37280000D01*
X132663042Y-37279290D01*
X132648724Y-37277166D01*
X132634683Y-37273649D01*
X132621054Y-37268772D01*
X132607969Y-37262583D01*
X132595553Y-37255142D01*
X132583927Y-37246519D01*
X132573202Y-37236798D01*
X132563481Y-37226073D01*
X132554858Y-37214447D01*
X132547417Y-37202031D01*
X132541228Y-37188946D01*
X132536351Y-37175317D01*
X132532834Y-37161276D01*
X132530710Y-37146958D01*
X132530000Y-37132500D01*
X132530000Y-36837500D01*
X132530710Y-36823042D01*
X132532834Y-36808724D01*
X132536351Y-36794683D01*
X132541228Y-36781054D01*
X132547417Y-36767969D01*
X132554858Y-36755553D01*
X132563481Y-36743927D01*
X132573202Y-36733202D01*
X132583927Y-36723481D01*
X132595553Y-36714858D01*
X132607969Y-36707417D01*
X132621054Y-36701228D01*
X132634683Y-36696351D01*
X132648724Y-36692834D01*
X132663042Y-36690710D01*
X132677500Y-36690000D01*
X133022500Y-36690000D01*
X133036958Y-36690710D01*
G37*
G36*
X137736958Y-35720710D02*
G01*
X137751276Y-35722834D01*
X137765317Y-35726351D01*
X137778946Y-35731228D01*
X137792031Y-35737417D01*
X137804447Y-35744858D01*
X137816073Y-35753481D01*
X137826798Y-35763202D01*
X137836519Y-35773927D01*
X137845142Y-35785553D01*
X137852583Y-35797969D01*
X137858772Y-35811054D01*
X137863649Y-35824683D01*
X137867166Y-35838724D01*
X137869290Y-35853042D01*
X137870000Y-35867500D01*
X137870000Y-36162500D01*
X137869290Y-36176958D01*
X137867166Y-36191276D01*
X137863649Y-36205317D01*
X137858772Y-36218946D01*
X137852583Y-36232031D01*
X137845142Y-36244447D01*
X137836519Y-36256073D01*
X137826798Y-36266798D01*
X137816073Y-36276519D01*
X137804447Y-36285142D01*
X137792031Y-36292583D01*
X137778946Y-36298772D01*
X137765317Y-36303649D01*
X137751276Y-36307166D01*
X137736958Y-36309290D01*
X137722500Y-36310000D01*
X137377500Y-36310000D01*
X137363042Y-36309290D01*
X137348724Y-36307166D01*
X137334683Y-36303649D01*
X137321054Y-36298772D01*
X137307969Y-36292583D01*
X137295553Y-36285142D01*
X137283927Y-36276519D01*
X137273202Y-36266798D01*
X137263481Y-36256073D01*
X137254858Y-36244447D01*
X137247417Y-36232031D01*
X137241228Y-36218946D01*
X137236351Y-36205317D01*
X137232834Y-36191276D01*
X137230710Y-36176958D01*
X137230000Y-36162500D01*
X137230000Y-35867500D01*
X137230710Y-35853042D01*
X137232834Y-35838724D01*
X137236351Y-35824683D01*
X137241228Y-35811054D01*
X137247417Y-35797969D01*
X137254858Y-35785553D01*
X137263481Y-35773927D01*
X137273202Y-35763202D01*
X137283927Y-35753481D01*
X137295553Y-35744858D01*
X137307969Y-35737417D01*
X137321054Y-35731228D01*
X137334683Y-35726351D01*
X137348724Y-35722834D01*
X137363042Y-35720710D01*
X137377500Y-35720000D01*
X137722500Y-35720000D01*
X137736958Y-35720710D01*
G37*
G36*
X137736958Y-36690710D02*
G01*
X137751276Y-36692834D01*
X137765317Y-36696351D01*
X137778946Y-36701228D01*
X137792031Y-36707417D01*
X137804447Y-36714858D01*
X137816073Y-36723481D01*
X137826798Y-36733202D01*
X137836519Y-36743927D01*
X137845142Y-36755553D01*
X137852583Y-36767969D01*
X137858772Y-36781054D01*
X137863649Y-36794683D01*
X137867166Y-36808724D01*
X137869290Y-36823042D01*
X137870000Y-36837500D01*
X137870000Y-37132500D01*
X137869290Y-37146958D01*
X137867166Y-37161276D01*
X137863649Y-37175317D01*
X137858772Y-37188946D01*
X137852583Y-37202031D01*
X137845142Y-37214447D01*
X137836519Y-37226073D01*
X137826798Y-37236798D01*
X137816073Y-37246519D01*
X137804447Y-37255142D01*
X137792031Y-37262583D01*
X137778946Y-37268772D01*
X137765317Y-37273649D01*
X137751276Y-37277166D01*
X137736958Y-37279290D01*
X137722500Y-37280000D01*
X137377500Y-37280000D01*
X137363042Y-37279290D01*
X137348724Y-37277166D01*
X137334683Y-37273649D01*
X137321054Y-37268772D01*
X137307969Y-37262583D01*
X137295553Y-37255142D01*
X137283927Y-37246519D01*
X137273202Y-37236798D01*
X137263481Y-37226073D01*
X137254858Y-37214447D01*
X137247417Y-37202031D01*
X137241228Y-37188946D01*
X137236351Y-37175317D01*
X137232834Y-37161276D01*
X137230710Y-37146958D01*
X137230000Y-37132500D01*
X137230000Y-36837500D01*
X137230710Y-36823042D01*
X137232834Y-36808724D01*
X137236351Y-36794683D01*
X137241228Y-36781054D01*
X137247417Y-36767969D01*
X137254858Y-36755553D01*
X137263481Y-36743927D01*
X137273202Y-36733202D01*
X137283927Y-36723481D01*
X137295553Y-36714858D01*
X137307969Y-36707417D01*
X137321054Y-36701228D01*
X137334683Y-36696351D01*
X137348724Y-36692834D01*
X137363042Y-36690710D01*
X137377500Y-36690000D01*
X137722500Y-36690000D01*
X137736958Y-36690710D01*
G37*
G36*
X137743626Y-39225301D02*
G01*
X137749693Y-39226201D01*
X137755643Y-39227691D01*
X137761418Y-39229758D01*
X137766962Y-39232380D01*
X137772223Y-39235533D01*
X137777150Y-39239187D01*
X137781694Y-39243306D01*
X137785813Y-39247850D01*
X137789467Y-39252777D01*
X137792620Y-39258038D01*
X137795242Y-39263582D01*
X137797309Y-39269357D01*
X137798799Y-39275307D01*
X137799699Y-39281374D01*
X137800000Y-39287500D01*
X137800000Y-39412500D01*
X137799699Y-39418626D01*
X137798799Y-39424693D01*
X137797309Y-39430643D01*
X137795242Y-39436418D01*
X137792620Y-39441962D01*
X137789467Y-39447223D01*
X137785813Y-39452150D01*
X137781694Y-39456694D01*
X137777150Y-39460813D01*
X137772223Y-39464467D01*
X137766962Y-39467620D01*
X137761418Y-39470242D01*
X137755643Y-39472309D01*
X137749693Y-39473799D01*
X137743626Y-39474699D01*
X137737500Y-39475000D01*
X137062500Y-39475000D01*
X137056374Y-39474699D01*
X137050307Y-39473799D01*
X137044357Y-39472309D01*
X137038582Y-39470242D01*
X137033038Y-39467620D01*
X137027777Y-39464467D01*
X137022850Y-39460813D01*
X137018306Y-39456694D01*
X137014187Y-39452150D01*
X137010533Y-39447223D01*
X137007380Y-39441962D01*
X137004758Y-39436418D01*
X137002691Y-39430643D01*
X137001201Y-39424693D01*
X137000301Y-39418626D01*
X137000000Y-39412500D01*
X137000000Y-39287500D01*
X137000301Y-39281374D01*
X137001201Y-39275307D01*
X137002691Y-39269357D01*
X137004758Y-39263582D01*
X137007380Y-39258038D01*
X137010533Y-39252777D01*
X137014187Y-39247850D01*
X137018306Y-39243306D01*
X137022850Y-39239187D01*
X137027777Y-39235533D01*
X137033038Y-39232380D01*
X137038582Y-39229758D01*
X137044357Y-39227691D01*
X137050307Y-39226201D01*
X137056374Y-39225301D01*
X137062500Y-39225000D01*
X137737500Y-39225000D01*
X137743626Y-39225301D01*
G37*
G36*
X137743626Y-39725301D02*
G01*
X137749693Y-39726201D01*
X137755643Y-39727691D01*
X137761418Y-39729758D01*
X137766962Y-39732380D01*
X137772223Y-39735533D01*
X137777150Y-39739187D01*
X137781694Y-39743306D01*
X137785813Y-39747850D01*
X137789467Y-39752777D01*
X137792620Y-39758038D01*
X137795242Y-39763582D01*
X137797309Y-39769357D01*
X137798799Y-39775307D01*
X137799699Y-39781374D01*
X137800000Y-39787500D01*
X137800000Y-39912500D01*
X137799699Y-39918626D01*
X137798799Y-39924693D01*
X137797309Y-39930643D01*
X137795242Y-39936418D01*
X137792620Y-39941962D01*
X137789467Y-39947223D01*
X137785813Y-39952150D01*
X137781694Y-39956694D01*
X137777150Y-39960813D01*
X137772223Y-39964467D01*
X137766962Y-39967620D01*
X137761418Y-39970242D01*
X137755643Y-39972309D01*
X137749693Y-39973799D01*
X137743626Y-39974699D01*
X137737500Y-39975000D01*
X137062500Y-39975000D01*
X137056374Y-39974699D01*
X137050307Y-39973799D01*
X137044357Y-39972309D01*
X137038582Y-39970242D01*
X137033038Y-39967620D01*
X137027777Y-39964467D01*
X137022850Y-39960813D01*
X137018306Y-39956694D01*
X137014187Y-39952150D01*
X137010533Y-39947223D01*
X137007380Y-39941962D01*
X137004758Y-39936418D01*
X137002691Y-39930643D01*
X137001201Y-39924693D01*
X137000301Y-39918626D01*
X137000000Y-39912500D01*
X137000000Y-39787500D01*
X137000301Y-39781374D01*
X137001201Y-39775307D01*
X137002691Y-39769357D01*
X137004758Y-39763582D01*
X137007380Y-39758038D01*
X137010533Y-39752777D01*
X137014187Y-39747850D01*
X137018306Y-39743306D01*
X137022850Y-39739187D01*
X137027777Y-39735533D01*
X137033038Y-39732380D01*
X137038582Y-39729758D01*
X137044357Y-39727691D01*
X137050307Y-39726201D01*
X137056374Y-39725301D01*
X137062500Y-39725000D01*
X137737500Y-39725000D01*
X137743626Y-39725301D01*
G37*
G36*
X137743626Y-40225301D02*
G01*
X137749693Y-40226201D01*
X137755643Y-40227691D01*
X137761418Y-40229758D01*
X137766962Y-40232380D01*
X137772223Y-40235533D01*
X137777150Y-40239187D01*
X137781694Y-40243306D01*
X137785813Y-40247850D01*
X137789467Y-40252777D01*
X137792620Y-40258038D01*
X137795242Y-40263582D01*
X137797309Y-40269357D01*
X137798799Y-40275307D01*
X137799699Y-40281374D01*
X137800000Y-40287500D01*
X137800000Y-40412500D01*
X137799699Y-40418626D01*
X137798799Y-40424693D01*
X137797309Y-40430643D01*
X137795242Y-40436418D01*
X137792620Y-40441962D01*
X137789467Y-40447223D01*
X137785813Y-40452150D01*
X137781694Y-40456694D01*
X137777150Y-40460813D01*
X137772223Y-40464467D01*
X137766962Y-40467620D01*
X137761418Y-40470242D01*
X137755643Y-40472309D01*
X137749693Y-40473799D01*
X137743626Y-40474699D01*
X137737500Y-40475000D01*
X137062500Y-40475000D01*
X137056374Y-40474699D01*
X137050307Y-40473799D01*
X137044357Y-40472309D01*
X137038582Y-40470242D01*
X137033038Y-40467620D01*
X137027777Y-40464467D01*
X137022850Y-40460813D01*
X137018306Y-40456694D01*
X137014187Y-40452150D01*
X137010533Y-40447223D01*
X137007380Y-40441962D01*
X137004758Y-40436418D01*
X137002691Y-40430643D01*
X137001201Y-40424693D01*
X137000301Y-40418626D01*
X137000000Y-40412500D01*
X137000000Y-40287500D01*
X137000301Y-40281374D01*
X137001201Y-40275307D01*
X137002691Y-40269357D01*
X137004758Y-40263582D01*
X137007380Y-40258038D01*
X137010533Y-40252777D01*
X137014187Y-40247850D01*
X137018306Y-40243306D01*
X137022850Y-40239187D01*
X137027777Y-40235533D01*
X137033038Y-40232380D01*
X137038582Y-40229758D01*
X137044357Y-40227691D01*
X137050307Y-40226201D01*
X137056374Y-40225301D01*
X137062500Y-40225000D01*
X137737500Y-40225000D01*
X137743626Y-40225301D01*
G37*
G36*
X137743626Y-40725301D02*
G01*
X137749693Y-40726201D01*
X137755643Y-40727691D01*
X137761418Y-40729758D01*
X137766962Y-40732380D01*
X137772223Y-40735533D01*
X137777150Y-40739187D01*
X137781694Y-40743306D01*
X137785813Y-40747850D01*
X137789467Y-40752777D01*
X137792620Y-40758038D01*
X137795242Y-40763582D01*
X137797309Y-40769357D01*
X137798799Y-40775307D01*
X137799699Y-40781374D01*
X137800000Y-40787500D01*
X137800000Y-40912500D01*
X137799699Y-40918626D01*
X137798799Y-40924693D01*
X137797309Y-40930643D01*
X137795242Y-40936418D01*
X137792620Y-40941962D01*
X137789467Y-40947223D01*
X137785813Y-40952150D01*
X137781694Y-40956694D01*
X137777150Y-40960813D01*
X137772223Y-40964467D01*
X137766962Y-40967620D01*
X137761418Y-40970242D01*
X137755643Y-40972309D01*
X137749693Y-40973799D01*
X137743626Y-40974699D01*
X137737500Y-40975000D01*
X137062500Y-40975000D01*
X137056374Y-40974699D01*
X137050307Y-40973799D01*
X137044357Y-40972309D01*
X137038582Y-40970242D01*
X137033038Y-40967620D01*
X137027777Y-40964467D01*
X137022850Y-40960813D01*
X137018306Y-40956694D01*
X137014187Y-40952150D01*
X137010533Y-40947223D01*
X137007380Y-40941962D01*
X137004758Y-40936418D01*
X137002691Y-40930643D01*
X137001201Y-40924693D01*
X137000301Y-40918626D01*
X137000000Y-40912500D01*
X137000000Y-40787500D01*
X137000301Y-40781374D01*
X137001201Y-40775307D01*
X137002691Y-40769357D01*
X137004758Y-40763582D01*
X137007380Y-40758038D01*
X137010533Y-40752777D01*
X137014187Y-40747850D01*
X137018306Y-40743306D01*
X137022850Y-40739187D01*
X137027777Y-40735533D01*
X137033038Y-40732380D01*
X137038582Y-40729758D01*
X137044357Y-40727691D01*
X137050307Y-40726201D01*
X137056374Y-40725301D01*
X137062500Y-40725000D01*
X137737500Y-40725000D01*
X137743626Y-40725301D01*
G37*
G36*
X137743626Y-41225301D02*
G01*
X137749693Y-41226201D01*
X137755643Y-41227691D01*
X137761418Y-41229758D01*
X137766962Y-41232380D01*
X137772223Y-41235533D01*
X137777150Y-41239187D01*
X137781694Y-41243306D01*
X137785813Y-41247850D01*
X137789467Y-41252777D01*
X137792620Y-41258038D01*
X137795242Y-41263582D01*
X137797309Y-41269357D01*
X137798799Y-41275307D01*
X137799699Y-41281374D01*
X137800000Y-41287500D01*
X137800000Y-41412500D01*
X137799699Y-41418626D01*
X137798799Y-41424693D01*
X137797309Y-41430643D01*
X137795242Y-41436418D01*
X137792620Y-41441962D01*
X137789467Y-41447223D01*
X137785813Y-41452150D01*
X137781694Y-41456694D01*
X137777150Y-41460813D01*
X137772223Y-41464467D01*
X137766962Y-41467620D01*
X137761418Y-41470242D01*
X137755643Y-41472309D01*
X137749693Y-41473799D01*
X137743626Y-41474699D01*
X137737500Y-41475000D01*
X137062500Y-41475000D01*
X137056374Y-41474699D01*
X137050307Y-41473799D01*
X137044357Y-41472309D01*
X137038582Y-41470242D01*
X137033038Y-41467620D01*
X137027777Y-41464467D01*
X137022850Y-41460813D01*
X137018306Y-41456694D01*
X137014187Y-41452150D01*
X137010533Y-41447223D01*
X137007380Y-41441962D01*
X137004758Y-41436418D01*
X137002691Y-41430643D01*
X137001201Y-41424693D01*
X137000301Y-41418626D01*
X137000000Y-41412500D01*
X137000000Y-41287500D01*
X137000301Y-41281374D01*
X137001201Y-41275307D01*
X137002691Y-41269357D01*
X137004758Y-41263582D01*
X137007380Y-41258038D01*
X137010533Y-41252777D01*
X137014187Y-41247850D01*
X137018306Y-41243306D01*
X137022850Y-41239187D01*
X137027777Y-41235533D01*
X137033038Y-41232380D01*
X137038582Y-41229758D01*
X137044357Y-41227691D01*
X137050307Y-41226201D01*
X137056374Y-41225301D01*
X137062500Y-41225000D01*
X137737500Y-41225000D01*
X137743626Y-41225301D01*
G37*
G36*
X137743626Y-41725301D02*
G01*
X137749693Y-41726201D01*
X137755643Y-41727691D01*
X137761418Y-41729758D01*
X137766962Y-41732380D01*
X137772223Y-41735533D01*
X137777150Y-41739187D01*
X137781694Y-41743306D01*
X137785813Y-41747850D01*
X137789467Y-41752777D01*
X137792620Y-41758038D01*
X137795242Y-41763582D01*
X137797309Y-41769357D01*
X137798799Y-41775307D01*
X137799699Y-41781374D01*
X137800000Y-41787500D01*
X137800000Y-41912500D01*
X137799699Y-41918626D01*
X137798799Y-41924693D01*
X137797309Y-41930643D01*
X137795242Y-41936418D01*
X137792620Y-41941962D01*
X137789467Y-41947223D01*
X137785813Y-41952150D01*
X137781694Y-41956694D01*
X137777150Y-41960813D01*
X137772223Y-41964467D01*
X137766962Y-41967620D01*
X137761418Y-41970242D01*
X137755643Y-41972309D01*
X137749693Y-41973799D01*
X137743626Y-41974699D01*
X137737500Y-41975000D01*
X137062500Y-41975000D01*
X137056374Y-41974699D01*
X137050307Y-41973799D01*
X137044357Y-41972309D01*
X137038582Y-41970242D01*
X137033038Y-41967620D01*
X137027777Y-41964467D01*
X137022850Y-41960813D01*
X137018306Y-41956694D01*
X137014187Y-41952150D01*
X137010533Y-41947223D01*
X137007380Y-41941962D01*
X137004758Y-41936418D01*
X137002691Y-41930643D01*
X137001201Y-41924693D01*
X137000301Y-41918626D01*
X137000000Y-41912500D01*
X137000000Y-41787500D01*
X137000301Y-41781374D01*
X137001201Y-41775307D01*
X137002691Y-41769357D01*
X137004758Y-41763582D01*
X137007380Y-41758038D01*
X137010533Y-41752777D01*
X137014187Y-41747850D01*
X137018306Y-41743306D01*
X137022850Y-41739187D01*
X137027777Y-41735533D01*
X137033038Y-41732380D01*
X137038582Y-41729758D01*
X137044357Y-41727691D01*
X137050307Y-41726201D01*
X137056374Y-41725301D01*
X137062500Y-41725000D01*
X137737500Y-41725000D01*
X137743626Y-41725301D01*
G37*
G36*
X137743626Y-42225301D02*
G01*
X137749693Y-42226201D01*
X137755643Y-42227691D01*
X137761418Y-42229758D01*
X137766962Y-42232380D01*
X137772223Y-42235533D01*
X137777150Y-42239187D01*
X137781694Y-42243306D01*
X137785813Y-42247850D01*
X137789467Y-42252777D01*
X137792620Y-42258038D01*
X137795242Y-42263582D01*
X137797309Y-42269357D01*
X137798799Y-42275307D01*
X137799699Y-42281374D01*
X137800000Y-42287500D01*
X137800000Y-42412500D01*
X137799699Y-42418626D01*
X137798799Y-42424693D01*
X137797309Y-42430643D01*
X137795242Y-42436418D01*
X137792620Y-42441962D01*
X137789467Y-42447223D01*
X137785813Y-42452150D01*
X137781694Y-42456694D01*
X137777150Y-42460813D01*
X137772223Y-42464467D01*
X137766962Y-42467620D01*
X137761418Y-42470242D01*
X137755643Y-42472309D01*
X137749693Y-42473799D01*
X137743626Y-42474699D01*
X137737500Y-42475000D01*
X137062500Y-42475000D01*
X137056374Y-42474699D01*
X137050307Y-42473799D01*
X137044357Y-42472309D01*
X137038582Y-42470242D01*
X137033038Y-42467620D01*
X137027777Y-42464467D01*
X137022850Y-42460813D01*
X137018306Y-42456694D01*
X137014187Y-42452150D01*
X137010533Y-42447223D01*
X137007380Y-42441962D01*
X137004758Y-42436418D01*
X137002691Y-42430643D01*
X137001201Y-42424693D01*
X137000301Y-42418626D01*
X137000000Y-42412500D01*
X137000000Y-42287500D01*
X137000301Y-42281374D01*
X137001201Y-42275307D01*
X137002691Y-42269357D01*
X137004758Y-42263582D01*
X137007380Y-42258038D01*
X137010533Y-42252777D01*
X137014187Y-42247850D01*
X137018306Y-42243306D01*
X137022850Y-42239187D01*
X137027777Y-42235533D01*
X137033038Y-42232380D01*
X137038582Y-42229758D01*
X137044357Y-42227691D01*
X137050307Y-42226201D01*
X137056374Y-42225301D01*
X137062500Y-42225000D01*
X137737500Y-42225000D01*
X137743626Y-42225301D01*
G37*
G36*
X137743626Y-42725301D02*
G01*
X137749693Y-42726201D01*
X137755643Y-42727691D01*
X137761418Y-42729758D01*
X137766962Y-42732380D01*
X137772223Y-42735533D01*
X137777150Y-42739187D01*
X137781694Y-42743306D01*
X137785813Y-42747850D01*
X137789467Y-42752777D01*
X137792620Y-42758038D01*
X137795242Y-42763582D01*
X137797309Y-42769357D01*
X137798799Y-42775307D01*
X137799699Y-42781374D01*
X137800000Y-42787500D01*
X137800000Y-42912500D01*
X137799699Y-42918626D01*
X137798799Y-42924693D01*
X137797309Y-42930643D01*
X137795242Y-42936418D01*
X137792620Y-42941962D01*
X137789467Y-42947223D01*
X137785813Y-42952150D01*
X137781694Y-42956694D01*
X137777150Y-42960813D01*
X137772223Y-42964467D01*
X137766962Y-42967620D01*
X137761418Y-42970242D01*
X137755643Y-42972309D01*
X137749693Y-42973799D01*
X137743626Y-42974699D01*
X137737500Y-42975000D01*
X137062500Y-42975000D01*
X137056374Y-42974699D01*
X137050307Y-42973799D01*
X137044357Y-42972309D01*
X137038582Y-42970242D01*
X137033038Y-42967620D01*
X137027777Y-42964467D01*
X137022850Y-42960813D01*
X137018306Y-42956694D01*
X137014187Y-42952150D01*
X137010533Y-42947223D01*
X137007380Y-42941962D01*
X137004758Y-42936418D01*
X137002691Y-42930643D01*
X137001201Y-42924693D01*
X137000301Y-42918626D01*
X137000000Y-42912500D01*
X137000000Y-42787500D01*
X137000301Y-42781374D01*
X137001201Y-42775307D01*
X137002691Y-42769357D01*
X137004758Y-42763582D01*
X137007380Y-42758038D01*
X137010533Y-42752777D01*
X137014187Y-42747850D01*
X137018306Y-42743306D01*
X137022850Y-42739187D01*
X137027777Y-42735533D01*
X137033038Y-42732380D01*
X137038582Y-42729758D01*
X137044357Y-42727691D01*
X137050307Y-42726201D01*
X137056374Y-42725301D01*
X137062500Y-42725000D01*
X137737500Y-42725000D01*
X137743626Y-42725301D01*
G37*
G36*
X137743626Y-43225301D02*
G01*
X137749693Y-43226201D01*
X137755643Y-43227691D01*
X137761418Y-43229758D01*
X137766962Y-43232380D01*
X137772223Y-43235533D01*
X137777150Y-43239187D01*
X137781694Y-43243306D01*
X137785813Y-43247850D01*
X137789467Y-43252777D01*
X137792620Y-43258038D01*
X137795242Y-43263582D01*
X137797309Y-43269357D01*
X137798799Y-43275307D01*
X137799699Y-43281374D01*
X137800000Y-43287500D01*
X137800000Y-43412500D01*
X137799699Y-43418626D01*
X137798799Y-43424693D01*
X137797309Y-43430643D01*
X137795242Y-43436418D01*
X137792620Y-43441962D01*
X137789467Y-43447223D01*
X137785813Y-43452150D01*
X137781694Y-43456694D01*
X137777150Y-43460813D01*
X137772223Y-43464467D01*
X137766962Y-43467620D01*
X137761418Y-43470242D01*
X137755643Y-43472309D01*
X137749693Y-43473799D01*
X137743626Y-43474699D01*
X137737500Y-43475000D01*
X137062500Y-43475000D01*
X137056374Y-43474699D01*
X137050307Y-43473799D01*
X137044357Y-43472309D01*
X137038582Y-43470242D01*
X137033038Y-43467620D01*
X137027777Y-43464467D01*
X137022850Y-43460813D01*
X137018306Y-43456694D01*
X137014187Y-43452150D01*
X137010533Y-43447223D01*
X137007380Y-43441962D01*
X137004758Y-43436418D01*
X137002691Y-43430643D01*
X137001201Y-43424693D01*
X137000301Y-43418626D01*
X137000000Y-43412500D01*
X137000000Y-43287500D01*
X137000301Y-43281374D01*
X137001201Y-43275307D01*
X137002691Y-43269357D01*
X137004758Y-43263582D01*
X137007380Y-43258038D01*
X137010533Y-43252777D01*
X137014187Y-43247850D01*
X137018306Y-43243306D01*
X137022850Y-43239187D01*
X137027777Y-43235533D01*
X137033038Y-43232380D01*
X137038582Y-43229758D01*
X137044357Y-43227691D01*
X137050307Y-43226201D01*
X137056374Y-43225301D01*
X137062500Y-43225000D01*
X137737500Y-43225000D01*
X137743626Y-43225301D01*
G37*
G36*
X137743626Y-43725301D02*
G01*
X137749693Y-43726201D01*
X137755643Y-43727691D01*
X137761418Y-43729758D01*
X137766962Y-43732380D01*
X137772223Y-43735533D01*
X137777150Y-43739187D01*
X137781694Y-43743306D01*
X137785813Y-43747850D01*
X137789467Y-43752777D01*
X137792620Y-43758038D01*
X137795242Y-43763582D01*
X137797309Y-43769357D01*
X137798799Y-43775307D01*
X137799699Y-43781374D01*
X137800000Y-43787500D01*
X137800000Y-43912500D01*
X137799699Y-43918626D01*
X137798799Y-43924693D01*
X137797309Y-43930643D01*
X137795242Y-43936418D01*
X137792620Y-43941962D01*
X137789467Y-43947223D01*
X137785813Y-43952150D01*
X137781694Y-43956694D01*
X137777150Y-43960813D01*
X137772223Y-43964467D01*
X137766962Y-43967620D01*
X137761418Y-43970242D01*
X137755643Y-43972309D01*
X137749693Y-43973799D01*
X137743626Y-43974699D01*
X137737500Y-43975000D01*
X137062500Y-43975000D01*
X137056374Y-43974699D01*
X137050307Y-43973799D01*
X137044357Y-43972309D01*
X137038582Y-43970242D01*
X137033038Y-43967620D01*
X137027777Y-43964467D01*
X137022850Y-43960813D01*
X137018306Y-43956694D01*
X137014187Y-43952150D01*
X137010533Y-43947223D01*
X137007380Y-43941962D01*
X137004758Y-43936418D01*
X137002691Y-43930643D01*
X137001201Y-43924693D01*
X137000301Y-43918626D01*
X137000000Y-43912500D01*
X137000000Y-43787500D01*
X137000301Y-43781374D01*
X137001201Y-43775307D01*
X137002691Y-43769357D01*
X137004758Y-43763582D01*
X137007380Y-43758038D01*
X137010533Y-43752777D01*
X137014187Y-43747850D01*
X137018306Y-43743306D01*
X137022850Y-43739187D01*
X137027777Y-43735533D01*
X137033038Y-43732380D01*
X137038582Y-43729758D01*
X137044357Y-43727691D01*
X137050307Y-43726201D01*
X137056374Y-43725301D01*
X137062500Y-43725000D01*
X137737500Y-43725000D01*
X137743626Y-43725301D01*
G37*
G36*
X137743626Y-44225301D02*
G01*
X137749693Y-44226201D01*
X137755643Y-44227691D01*
X137761418Y-44229758D01*
X137766962Y-44232380D01*
X137772223Y-44235533D01*
X137777150Y-44239187D01*
X137781694Y-44243306D01*
X137785813Y-44247850D01*
X137789467Y-44252777D01*
X137792620Y-44258038D01*
X137795242Y-44263582D01*
X137797309Y-44269357D01*
X137798799Y-44275307D01*
X137799699Y-44281374D01*
X137800000Y-44287500D01*
X137800000Y-44412500D01*
X137799699Y-44418626D01*
X137798799Y-44424693D01*
X137797309Y-44430643D01*
X137795242Y-44436418D01*
X137792620Y-44441962D01*
X137789467Y-44447223D01*
X137785813Y-44452150D01*
X137781694Y-44456694D01*
X137777150Y-44460813D01*
X137772223Y-44464467D01*
X137766962Y-44467620D01*
X137761418Y-44470242D01*
X137755643Y-44472309D01*
X137749693Y-44473799D01*
X137743626Y-44474699D01*
X137737500Y-44475000D01*
X137062500Y-44475000D01*
X137056374Y-44474699D01*
X137050307Y-44473799D01*
X137044357Y-44472309D01*
X137038582Y-44470242D01*
X137033038Y-44467620D01*
X137027777Y-44464467D01*
X137022850Y-44460813D01*
X137018306Y-44456694D01*
X137014187Y-44452150D01*
X137010533Y-44447223D01*
X137007380Y-44441962D01*
X137004758Y-44436418D01*
X137002691Y-44430643D01*
X137001201Y-44424693D01*
X137000301Y-44418626D01*
X137000000Y-44412500D01*
X137000000Y-44287500D01*
X137000301Y-44281374D01*
X137001201Y-44275307D01*
X137002691Y-44269357D01*
X137004758Y-44263582D01*
X137007380Y-44258038D01*
X137010533Y-44252777D01*
X137014187Y-44247850D01*
X137018306Y-44243306D01*
X137022850Y-44239187D01*
X137027777Y-44235533D01*
X137033038Y-44232380D01*
X137038582Y-44229758D01*
X137044357Y-44227691D01*
X137050307Y-44226201D01*
X137056374Y-44225301D01*
X137062500Y-44225000D01*
X137737500Y-44225000D01*
X137743626Y-44225301D01*
G37*
G36*
X137743626Y-44725301D02*
G01*
X137749693Y-44726201D01*
X137755643Y-44727691D01*
X137761418Y-44729758D01*
X137766962Y-44732380D01*
X137772223Y-44735533D01*
X137777150Y-44739187D01*
X137781694Y-44743306D01*
X137785813Y-44747850D01*
X137789467Y-44752777D01*
X137792620Y-44758038D01*
X137795242Y-44763582D01*
X137797309Y-44769357D01*
X137798799Y-44775307D01*
X137799699Y-44781374D01*
X137800000Y-44787500D01*
X137800000Y-44912500D01*
X137799699Y-44918626D01*
X137798799Y-44924693D01*
X137797309Y-44930643D01*
X137795242Y-44936418D01*
X137792620Y-44941962D01*
X137789467Y-44947223D01*
X137785813Y-44952150D01*
X137781694Y-44956694D01*
X137777150Y-44960813D01*
X137772223Y-44964467D01*
X137766962Y-44967620D01*
X137761418Y-44970242D01*
X137755643Y-44972309D01*
X137749693Y-44973799D01*
X137743626Y-44974699D01*
X137737500Y-44975000D01*
X137062500Y-44975000D01*
X137056374Y-44974699D01*
X137050307Y-44973799D01*
X137044357Y-44972309D01*
X137038582Y-44970242D01*
X137033038Y-44967620D01*
X137027777Y-44964467D01*
X137022850Y-44960813D01*
X137018306Y-44956694D01*
X137014187Y-44952150D01*
X137010533Y-44947223D01*
X137007380Y-44941962D01*
X137004758Y-44936418D01*
X137002691Y-44930643D01*
X137001201Y-44924693D01*
X137000301Y-44918626D01*
X137000000Y-44912500D01*
X137000000Y-44787500D01*
X137000301Y-44781374D01*
X137001201Y-44775307D01*
X137002691Y-44769357D01*
X137004758Y-44763582D01*
X137007380Y-44758038D01*
X137010533Y-44752777D01*
X137014187Y-44747850D01*
X137018306Y-44743306D01*
X137022850Y-44739187D01*
X137027777Y-44735533D01*
X137033038Y-44732380D01*
X137038582Y-44729758D01*
X137044357Y-44727691D01*
X137050307Y-44726201D01*
X137056374Y-44725301D01*
X137062500Y-44725000D01*
X137737500Y-44725000D01*
X137743626Y-44725301D01*
G37*
G36*
X136768626Y-45150301D02*
G01*
X136774693Y-45151201D01*
X136780643Y-45152691D01*
X136786418Y-45154758D01*
X136791962Y-45157380D01*
X136797223Y-45160533D01*
X136802150Y-45164187D01*
X136806694Y-45168306D01*
X136810813Y-45172850D01*
X136814467Y-45177777D01*
X136817620Y-45183038D01*
X136820242Y-45188582D01*
X136822309Y-45194357D01*
X136823799Y-45200307D01*
X136824699Y-45206374D01*
X136825000Y-45212500D01*
X136825000Y-45887500D01*
X136824699Y-45893626D01*
X136823799Y-45899693D01*
X136822309Y-45905643D01*
X136820242Y-45911418D01*
X136817620Y-45916962D01*
X136814467Y-45922223D01*
X136810813Y-45927150D01*
X136806694Y-45931694D01*
X136802150Y-45935813D01*
X136797223Y-45939467D01*
X136791962Y-45942620D01*
X136786418Y-45945242D01*
X136780643Y-45947309D01*
X136774693Y-45948799D01*
X136768626Y-45949699D01*
X136762500Y-45950000D01*
X136637500Y-45950000D01*
X136631374Y-45949699D01*
X136625307Y-45948799D01*
X136619357Y-45947309D01*
X136613582Y-45945242D01*
X136608038Y-45942620D01*
X136602777Y-45939467D01*
X136597850Y-45935813D01*
X136593306Y-45931694D01*
X136589187Y-45927150D01*
X136585533Y-45922223D01*
X136582380Y-45916962D01*
X136579758Y-45911418D01*
X136577691Y-45905643D01*
X136576201Y-45899693D01*
X136575301Y-45893626D01*
X136575000Y-45887500D01*
X136575000Y-45212500D01*
X136575301Y-45206374D01*
X136576201Y-45200307D01*
X136577691Y-45194357D01*
X136579758Y-45188582D01*
X136582380Y-45183038D01*
X136585533Y-45177777D01*
X136589187Y-45172850D01*
X136593306Y-45168306D01*
X136597850Y-45164187D01*
X136602777Y-45160533D01*
X136608038Y-45157380D01*
X136613582Y-45154758D01*
X136619357Y-45152691D01*
X136625307Y-45151201D01*
X136631374Y-45150301D01*
X136637500Y-45150000D01*
X136762500Y-45150000D01*
X136768626Y-45150301D01*
G37*
G36*
X136268626Y-45150301D02*
G01*
X136274693Y-45151201D01*
X136280643Y-45152691D01*
X136286418Y-45154758D01*
X136291962Y-45157380D01*
X136297223Y-45160533D01*
X136302150Y-45164187D01*
X136306694Y-45168306D01*
X136310813Y-45172850D01*
X136314467Y-45177777D01*
X136317620Y-45183038D01*
X136320242Y-45188582D01*
X136322309Y-45194357D01*
X136323799Y-45200307D01*
X136324699Y-45206374D01*
X136325000Y-45212500D01*
X136325000Y-45887500D01*
X136324699Y-45893626D01*
X136323799Y-45899693D01*
X136322309Y-45905643D01*
X136320242Y-45911418D01*
X136317620Y-45916962D01*
X136314467Y-45922223D01*
X136310813Y-45927150D01*
X136306694Y-45931694D01*
X136302150Y-45935813D01*
X136297223Y-45939467D01*
X136291962Y-45942620D01*
X136286418Y-45945242D01*
X136280643Y-45947309D01*
X136274693Y-45948799D01*
X136268626Y-45949699D01*
X136262500Y-45950000D01*
X136137500Y-45950000D01*
X136131374Y-45949699D01*
X136125307Y-45948799D01*
X136119357Y-45947309D01*
X136113582Y-45945242D01*
X136108038Y-45942620D01*
X136102777Y-45939467D01*
X136097850Y-45935813D01*
X136093306Y-45931694D01*
X136089187Y-45927150D01*
X136085533Y-45922223D01*
X136082380Y-45916962D01*
X136079758Y-45911418D01*
X136077691Y-45905643D01*
X136076201Y-45899693D01*
X136075301Y-45893626D01*
X136075000Y-45887500D01*
X136075000Y-45212500D01*
X136075301Y-45206374D01*
X136076201Y-45200307D01*
X136077691Y-45194357D01*
X136079758Y-45188582D01*
X136082380Y-45183038D01*
X136085533Y-45177777D01*
X136089187Y-45172850D01*
X136093306Y-45168306D01*
X136097850Y-45164187D01*
X136102777Y-45160533D01*
X136108038Y-45157380D01*
X136113582Y-45154758D01*
X136119357Y-45152691D01*
X136125307Y-45151201D01*
X136131374Y-45150301D01*
X136137500Y-45150000D01*
X136262500Y-45150000D01*
X136268626Y-45150301D01*
G37*
G36*
X135768626Y-45150301D02*
G01*
X135774693Y-45151201D01*
X135780643Y-45152691D01*
X135786418Y-45154758D01*
X135791962Y-45157380D01*
X135797223Y-45160533D01*
X135802150Y-45164187D01*
X135806694Y-45168306D01*
X135810813Y-45172850D01*
X135814467Y-45177777D01*
X135817620Y-45183038D01*
X135820242Y-45188582D01*
X135822309Y-45194357D01*
X135823799Y-45200307D01*
X135824699Y-45206374D01*
X135825000Y-45212500D01*
X135825000Y-45887500D01*
X135824699Y-45893626D01*
X135823799Y-45899693D01*
X135822309Y-45905643D01*
X135820242Y-45911418D01*
X135817620Y-45916962D01*
X135814467Y-45922223D01*
X135810813Y-45927150D01*
X135806694Y-45931694D01*
X135802150Y-45935813D01*
X135797223Y-45939467D01*
X135791962Y-45942620D01*
X135786418Y-45945242D01*
X135780643Y-45947309D01*
X135774693Y-45948799D01*
X135768626Y-45949699D01*
X135762500Y-45950000D01*
X135637500Y-45950000D01*
X135631374Y-45949699D01*
X135625307Y-45948799D01*
X135619357Y-45947309D01*
X135613582Y-45945242D01*
X135608038Y-45942620D01*
X135602777Y-45939467D01*
X135597850Y-45935813D01*
X135593306Y-45931694D01*
X135589187Y-45927150D01*
X135585533Y-45922223D01*
X135582380Y-45916962D01*
X135579758Y-45911418D01*
X135577691Y-45905643D01*
X135576201Y-45899693D01*
X135575301Y-45893626D01*
X135575000Y-45887500D01*
X135575000Y-45212500D01*
X135575301Y-45206374D01*
X135576201Y-45200307D01*
X135577691Y-45194357D01*
X135579758Y-45188582D01*
X135582380Y-45183038D01*
X135585533Y-45177777D01*
X135589187Y-45172850D01*
X135593306Y-45168306D01*
X135597850Y-45164187D01*
X135602777Y-45160533D01*
X135608038Y-45157380D01*
X135613582Y-45154758D01*
X135619357Y-45152691D01*
X135625307Y-45151201D01*
X135631374Y-45150301D01*
X135637500Y-45150000D01*
X135762500Y-45150000D01*
X135768626Y-45150301D01*
G37*
G36*
X135268626Y-45150301D02*
G01*
X135274693Y-45151201D01*
X135280643Y-45152691D01*
X135286418Y-45154758D01*
X135291962Y-45157380D01*
X135297223Y-45160533D01*
X135302150Y-45164187D01*
X135306694Y-45168306D01*
X135310813Y-45172850D01*
X135314467Y-45177777D01*
X135317620Y-45183038D01*
X135320242Y-45188582D01*
X135322309Y-45194357D01*
X135323799Y-45200307D01*
X135324699Y-45206374D01*
X135325000Y-45212500D01*
X135325000Y-45887500D01*
X135324699Y-45893626D01*
X135323799Y-45899693D01*
X135322309Y-45905643D01*
X135320242Y-45911418D01*
X135317620Y-45916962D01*
X135314467Y-45922223D01*
X135310813Y-45927150D01*
X135306694Y-45931694D01*
X135302150Y-45935813D01*
X135297223Y-45939467D01*
X135291962Y-45942620D01*
X135286418Y-45945242D01*
X135280643Y-45947309D01*
X135274693Y-45948799D01*
X135268626Y-45949699D01*
X135262500Y-45950000D01*
X135137500Y-45950000D01*
X135131374Y-45949699D01*
X135125307Y-45948799D01*
X135119357Y-45947309D01*
X135113582Y-45945242D01*
X135108038Y-45942620D01*
X135102777Y-45939467D01*
X135097850Y-45935813D01*
X135093306Y-45931694D01*
X135089187Y-45927150D01*
X135085533Y-45922223D01*
X135082380Y-45916962D01*
X135079758Y-45911418D01*
X135077691Y-45905643D01*
X135076201Y-45899693D01*
X135075301Y-45893626D01*
X135075000Y-45887500D01*
X135075000Y-45212500D01*
X135075301Y-45206374D01*
X135076201Y-45200307D01*
X135077691Y-45194357D01*
X135079758Y-45188582D01*
X135082380Y-45183038D01*
X135085533Y-45177777D01*
X135089187Y-45172850D01*
X135093306Y-45168306D01*
X135097850Y-45164187D01*
X135102777Y-45160533D01*
X135108038Y-45157380D01*
X135113582Y-45154758D01*
X135119357Y-45152691D01*
X135125307Y-45151201D01*
X135131374Y-45150301D01*
X135137500Y-45150000D01*
X135262500Y-45150000D01*
X135268626Y-45150301D01*
G37*
G36*
X134768626Y-45150301D02*
G01*
X134774693Y-45151201D01*
X134780643Y-45152691D01*
X134786418Y-45154758D01*
X134791962Y-45157380D01*
X134797223Y-45160533D01*
X134802150Y-45164187D01*
X134806694Y-45168306D01*
X134810813Y-45172850D01*
X134814467Y-45177777D01*
X134817620Y-45183038D01*
X134820242Y-45188582D01*
X134822309Y-45194357D01*
X134823799Y-45200307D01*
X134824699Y-45206374D01*
X134825000Y-45212500D01*
X134825000Y-45887500D01*
X134824699Y-45893626D01*
X134823799Y-45899693D01*
X134822309Y-45905643D01*
X134820242Y-45911418D01*
X134817620Y-45916962D01*
X134814467Y-45922223D01*
X134810813Y-45927150D01*
X134806694Y-45931694D01*
X134802150Y-45935813D01*
X134797223Y-45939467D01*
X134791962Y-45942620D01*
X134786418Y-45945242D01*
X134780643Y-45947309D01*
X134774693Y-45948799D01*
X134768626Y-45949699D01*
X134762500Y-45950000D01*
X134637500Y-45950000D01*
X134631374Y-45949699D01*
X134625307Y-45948799D01*
X134619357Y-45947309D01*
X134613582Y-45945242D01*
X134608038Y-45942620D01*
X134602777Y-45939467D01*
X134597850Y-45935813D01*
X134593306Y-45931694D01*
X134589187Y-45927150D01*
X134585533Y-45922223D01*
X134582380Y-45916962D01*
X134579758Y-45911418D01*
X134577691Y-45905643D01*
X134576201Y-45899693D01*
X134575301Y-45893626D01*
X134575000Y-45887500D01*
X134575000Y-45212500D01*
X134575301Y-45206374D01*
X134576201Y-45200307D01*
X134577691Y-45194357D01*
X134579758Y-45188582D01*
X134582380Y-45183038D01*
X134585533Y-45177777D01*
X134589187Y-45172850D01*
X134593306Y-45168306D01*
X134597850Y-45164187D01*
X134602777Y-45160533D01*
X134608038Y-45157380D01*
X134613582Y-45154758D01*
X134619357Y-45152691D01*
X134625307Y-45151201D01*
X134631374Y-45150301D01*
X134637500Y-45150000D01*
X134762500Y-45150000D01*
X134768626Y-45150301D01*
G37*
G36*
X134268626Y-45150301D02*
G01*
X134274693Y-45151201D01*
X134280643Y-45152691D01*
X134286418Y-45154758D01*
X134291962Y-45157380D01*
X134297223Y-45160533D01*
X134302150Y-45164187D01*
X134306694Y-45168306D01*
X134310813Y-45172850D01*
X134314467Y-45177777D01*
X134317620Y-45183038D01*
X134320242Y-45188582D01*
X134322309Y-45194357D01*
X134323799Y-45200307D01*
X134324699Y-45206374D01*
X134325000Y-45212500D01*
X134325000Y-45887500D01*
X134324699Y-45893626D01*
X134323799Y-45899693D01*
X134322309Y-45905643D01*
X134320242Y-45911418D01*
X134317620Y-45916962D01*
X134314467Y-45922223D01*
X134310813Y-45927150D01*
X134306694Y-45931694D01*
X134302150Y-45935813D01*
X134297223Y-45939467D01*
X134291962Y-45942620D01*
X134286418Y-45945242D01*
X134280643Y-45947309D01*
X134274693Y-45948799D01*
X134268626Y-45949699D01*
X134262500Y-45950000D01*
X134137500Y-45950000D01*
X134131374Y-45949699D01*
X134125307Y-45948799D01*
X134119357Y-45947309D01*
X134113582Y-45945242D01*
X134108038Y-45942620D01*
X134102777Y-45939467D01*
X134097850Y-45935813D01*
X134093306Y-45931694D01*
X134089187Y-45927150D01*
X134085533Y-45922223D01*
X134082380Y-45916962D01*
X134079758Y-45911418D01*
X134077691Y-45905643D01*
X134076201Y-45899693D01*
X134075301Y-45893626D01*
X134075000Y-45887500D01*
X134075000Y-45212500D01*
X134075301Y-45206374D01*
X134076201Y-45200307D01*
X134077691Y-45194357D01*
X134079758Y-45188582D01*
X134082380Y-45183038D01*
X134085533Y-45177777D01*
X134089187Y-45172850D01*
X134093306Y-45168306D01*
X134097850Y-45164187D01*
X134102777Y-45160533D01*
X134108038Y-45157380D01*
X134113582Y-45154758D01*
X134119357Y-45152691D01*
X134125307Y-45151201D01*
X134131374Y-45150301D01*
X134137500Y-45150000D01*
X134262500Y-45150000D01*
X134268626Y-45150301D01*
G37*
G36*
X133768626Y-45150301D02*
G01*
X133774693Y-45151201D01*
X133780643Y-45152691D01*
X133786418Y-45154758D01*
X133791962Y-45157380D01*
X133797223Y-45160533D01*
X133802150Y-45164187D01*
X133806694Y-45168306D01*
X133810813Y-45172850D01*
X133814467Y-45177777D01*
X133817620Y-45183038D01*
X133820242Y-45188582D01*
X133822309Y-45194357D01*
X133823799Y-45200307D01*
X133824699Y-45206374D01*
X133825000Y-45212500D01*
X133825000Y-45887500D01*
X133824699Y-45893626D01*
X133823799Y-45899693D01*
X133822309Y-45905643D01*
X133820242Y-45911418D01*
X133817620Y-45916962D01*
X133814467Y-45922223D01*
X133810813Y-45927150D01*
X133806694Y-45931694D01*
X133802150Y-45935813D01*
X133797223Y-45939467D01*
X133791962Y-45942620D01*
X133786418Y-45945242D01*
X133780643Y-45947309D01*
X133774693Y-45948799D01*
X133768626Y-45949699D01*
X133762500Y-45950000D01*
X133637500Y-45950000D01*
X133631374Y-45949699D01*
X133625307Y-45948799D01*
X133619357Y-45947309D01*
X133613582Y-45945242D01*
X133608038Y-45942620D01*
X133602777Y-45939467D01*
X133597850Y-45935813D01*
X133593306Y-45931694D01*
X133589187Y-45927150D01*
X133585533Y-45922223D01*
X133582380Y-45916962D01*
X133579758Y-45911418D01*
X133577691Y-45905643D01*
X133576201Y-45899693D01*
X133575301Y-45893626D01*
X133575000Y-45887500D01*
X133575000Y-45212500D01*
X133575301Y-45206374D01*
X133576201Y-45200307D01*
X133577691Y-45194357D01*
X133579758Y-45188582D01*
X133582380Y-45183038D01*
X133585533Y-45177777D01*
X133589187Y-45172850D01*
X133593306Y-45168306D01*
X133597850Y-45164187D01*
X133602777Y-45160533D01*
X133608038Y-45157380D01*
X133613582Y-45154758D01*
X133619357Y-45152691D01*
X133625307Y-45151201D01*
X133631374Y-45150301D01*
X133637500Y-45150000D01*
X133762500Y-45150000D01*
X133768626Y-45150301D01*
G37*
G36*
X133268626Y-45150301D02*
G01*
X133274693Y-45151201D01*
X133280643Y-45152691D01*
X133286418Y-45154758D01*
X133291962Y-45157380D01*
X133297223Y-45160533D01*
X133302150Y-45164187D01*
X133306694Y-45168306D01*
X133310813Y-45172850D01*
X133314467Y-45177777D01*
X133317620Y-45183038D01*
X133320242Y-45188582D01*
X133322309Y-45194357D01*
X133323799Y-45200307D01*
X133324699Y-45206374D01*
X133325000Y-45212500D01*
X133325000Y-45887500D01*
X133324699Y-45893626D01*
X133323799Y-45899693D01*
X133322309Y-45905643D01*
X133320242Y-45911418D01*
X133317620Y-45916962D01*
X133314467Y-45922223D01*
X133310813Y-45927150D01*
X133306694Y-45931694D01*
X133302150Y-45935813D01*
X133297223Y-45939467D01*
X133291962Y-45942620D01*
X133286418Y-45945242D01*
X133280643Y-45947309D01*
X133274693Y-45948799D01*
X133268626Y-45949699D01*
X133262500Y-45950000D01*
X133137500Y-45950000D01*
X133131374Y-45949699D01*
X133125307Y-45948799D01*
X133119357Y-45947309D01*
X133113582Y-45945242D01*
X133108038Y-45942620D01*
X133102777Y-45939467D01*
X133097850Y-45935813D01*
X133093306Y-45931694D01*
X133089187Y-45927150D01*
X133085533Y-45922223D01*
X133082380Y-45916962D01*
X133079758Y-45911418D01*
X133077691Y-45905643D01*
X133076201Y-45899693D01*
X133075301Y-45893626D01*
X133075000Y-45887500D01*
X133075000Y-45212500D01*
X133075301Y-45206374D01*
X133076201Y-45200307D01*
X133077691Y-45194357D01*
X133079758Y-45188582D01*
X133082380Y-45183038D01*
X133085533Y-45177777D01*
X133089187Y-45172850D01*
X133093306Y-45168306D01*
X133097850Y-45164187D01*
X133102777Y-45160533D01*
X133108038Y-45157380D01*
X133113582Y-45154758D01*
X133119357Y-45152691D01*
X133125307Y-45151201D01*
X133131374Y-45150301D01*
X133137500Y-45150000D01*
X133262500Y-45150000D01*
X133268626Y-45150301D01*
G37*
G36*
X132768626Y-45150301D02*
G01*
X132774693Y-45151201D01*
X132780643Y-45152691D01*
X132786418Y-45154758D01*
X132791962Y-45157380D01*
X132797223Y-45160533D01*
X132802150Y-45164187D01*
X132806694Y-45168306D01*
X132810813Y-45172850D01*
X132814467Y-45177777D01*
X132817620Y-45183038D01*
X132820242Y-45188582D01*
X132822309Y-45194357D01*
X132823799Y-45200307D01*
X132824699Y-45206374D01*
X132825000Y-45212500D01*
X132825000Y-45887500D01*
X132824699Y-45893626D01*
X132823799Y-45899693D01*
X132822309Y-45905643D01*
X132820242Y-45911418D01*
X132817620Y-45916962D01*
X132814467Y-45922223D01*
X132810813Y-45927150D01*
X132806694Y-45931694D01*
X132802150Y-45935813D01*
X132797223Y-45939467D01*
X132791962Y-45942620D01*
X132786418Y-45945242D01*
X132780643Y-45947309D01*
X132774693Y-45948799D01*
X132768626Y-45949699D01*
X132762500Y-45950000D01*
X132637500Y-45950000D01*
X132631374Y-45949699D01*
X132625307Y-45948799D01*
X132619357Y-45947309D01*
X132613582Y-45945242D01*
X132608038Y-45942620D01*
X132602777Y-45939467D01*
X132597850Y-45935813D01*
X132593306Y-45931694D01*
X132589187Y-45927150D01*
X132585533Y-45922223D01*
X132582380Y-45916962D01*
X132579758Y-45911418D01*
X132577691Y-45905643D01*
X132576201Y-45899693D01*
X132575301Y-45893626D01*
X132575000Y-45887500D01*
X132575000Y-45212500D01*
X132575301Y-45206374D01*
X132576201Y-45200307D01*
X132577691Y-45194357D01*
X132579758Y-45188582D01*
X132582380Y-45183038D01*
X132585533Y-45177777D01*
X132589187Y-45172850D01*
X132593306Y-45168306D01*
X132597850Y-45164187D01*
X132602777Y-45160533D01*
X132608038Y-45157380D01*
X132613582Y-45154758D01*
X132619357Y-45152691D01*
X132625307Y-45151201D01*
X132631374Y-45150301D01*
X132637500Y-45150000D01*
X132762500Y-45150000D01*
X132768626Y-45150301D01*
G37*
G36*
X132268626Y-45150301D02*
G01*
X132274693Y-45151201D01*
X132280643Y-45152691D01*
X132286418Y-45154758D01*
X132291962Y-45157380D01*
X132297223Y-45160533D01*
X132302150Y-45164187D01*
X132306694Y-45168306D01*
X132310813Y-45172850D01*
X132314467Y-45177777D01*
X132317620Y-45183038D01*
X132320242Y-45188582D01*
X132322309Y-45194357D01*
X132323799Y-45200307D01*
X132324699Y-45206374D01*
X132325000Y-45212500D01*
X132325000Y-45887500D01*
X132324699Y-45893626D01*
X132323799Y-45899693D01*
X132322309Y-45905643D01*
X132320242Y-45911418D01*
X132317620Y-45916962D01*
X132314467Y-45922223D01*
X132310813Y-45927150D01*
X132306694Y-45931694D01*
X132302150Y-45935813D01*
X132297223Y-45939467D01*
X132291962Y-45942620D01*
X132286418Y-45945242D01*
X132280643Y-45947309D01*
X132274693Y-45948799D01*
X132268626Y-45949699D01*
X132262500Y-45950000D01*
X132137500Y-45950000D01*
X132131374Y-45949699D01*
X132125307Y-45948799D01*
X132119357Y-45947309D01*
X132113582Y-45945242D01*
X132108038Y-45942620D01*
X132102777Y-45939467D01*
X132097850Y-45935813D01*
X132093306Y-45931694D01*
X132089187Y-45927150D01*
X132085533Y-45922223D01*
X132082380Y-45916962D01*
X132079758Y-45911418D01*
X132077691Y-45905643D01*
X132076201Y-45899693D01*
X132075301Y-45893626D01*
X132075000Y-45887500D01*
X132075000Y-45212500D01*
X132075301Y-45206374D01*
X132076201Y-45200307D01*
X132077691Y-45194357D01*
X132079758Y-45188582D01*
X132082380Y-45183038D01*
X132085533Y-45177777D01*
X132089187Y-45172850D01*
X132093306Y-45168306D01*
X132097850Y-45164187D01*
X132102777Y-45160533D01*
X132108038Y-45157380D01*
X132113582Y-45154758D01*
X132119357Y-45152691D01*
X132125307Y-45151201D01*
X132131374Y-45150301D01*
X132137500Y-45150000D01*
X132262500Y-45150000D01*
X132268626Y-45150301D01*
G37*
G36*
X131768626Y-45150301D02*
G01*
X131774693Y-45151201D01*
X131780643Y-45152691D01*
X131786418Y-45154758D01*
X131791962Y-45157380D01*
X131797223Y-45160533D01*
X131802150Y-45164187D01*
X131806694Y-45168306D01*
X131810813Y-45172850D01*
X131814467Y-45177777D01*
X131817620Y-45183038D01*
X131820242Y-45188582D01*
X131822309Y-45194357D01*
X131823799Y-45200307D01*
X131824699Y-45206374D01*
X131825000Y-45212500D01*
X131825000Y-45887500D01*
X131824699Y-45893626D01*
X131823799Y-45899693D01*
X131822309Y-45905643D01*
X131820242Y-45911418D01*
X131817620Y-45916962D01*
X131814467Y-45922223D01*
X131810813Y-45927150D01*
X131806694Y-45931694D01*
X131802150Y-45935813D01*
X131797223Y-45939467D01*
X131791962Y-45942620D01*
X131786418Y-45945242D01*
X131780643Y-45947309D01*
X131774693Y-45948799D01*
X131768626Y-45949699D01*
X131762500Y-45950000D01*
X131637500Y-45950000D01*
X131631374Y-45949699D01*
X131625307Y-45948799D01*
X131619357Y-45947309D01*
X131613582Y-45945242D01*
X131608038Y-45942620D01*
X131602777Y-45939467D01*
X131597850Y-45935813D01*
X131593306Y-45931694D01*
X131589187Y-45927150D01*
X131585533Y-45922223D01*
X131582380Y-45916962D01*
X131579758Y-45911418D01*
X131577691Y-45905643D01*
X131576201Y-45899693D01*
X131575301Y-45893626D01*
X131575000Y-45887500D01*
X131575000Y-45212500D01*
X131575301Y-45206374D01*
X131576201Y-45200307D01*
X131577691Y-45194357D01*
X131579758Y-45188582D01*
X131582380Y-45183038D01*
X131585533Y-45177777D01*
X131589187Y-45172850D01*
X131593306Y-45168306D01*
X131597850Y-45164187D01*
X131602777Y-45160533D01*
X131608038Y-45157380D01*
X131613582Y-45154758D01*
X131619357Y-45152691D01*
X131625307Y-45151201D01*
X131631374Y-45150301D01*
X131637500Y-45150000D01*
X131762500Y-45150000D01*
X131768626Y-45150301D01*
G37*
G36*
X131268626Y-45150301D02*
G01*
X131274693Y-45151201D01*
X131280643Y-45152691D01*
X131286418Y-45154758D01*
X131291962Y-45157380D01*
X131297223Y-45160533D01*
X131302150Y-45164187D01*
X131306694Y-45168306D01*
X131310813Y-45172850D01*
X131314467Y-45177777D01*
X131317620Y-45183038D01*
X131320242Y-45188582D01*
X131322309Y-45194357D01*
X131323799Y-45200307D01*
X131324699Y-45206374D01*
X131325000Y-45212500D01*
X131325000Y-45887500D01*
X131324699Y-45893626D01*
X131323799Y-45899693D01*
X131322309Y-45905643D01*
X131320242Y-45911418D01*
X131317620Y-45916962D01*
X131314467Y-45922223D01*
X131310813Y-45927150D01*
X131306694Y-45931694D01*
X131302150Y-45935813D01*
X131297223Y-45939467D01*
X131291962Y-45942620D01*
X131286418Y-45945242D01*
X131280643Y-45947309D01*
X131274693Y-45948799D01*
X131268626Y-45949699D01*
X131262500Y-45950000D01*
X131137500Y-45950000D01*
X131131374Y-45949699D01*
X131125307Y-45948799D01*
X131119357Y-45947309D01*
X131113582Y-45945242D01*
X131108038Y-45942620D01*
X131102777Y-45939467D01*
X131097850Y-45935813D01*
X131093306Y-45931694D01*
X131089187Y-45927150D01*
X131085533Y-45922223D01*
X131082380Y-45916962D01*
X131079758Y-45911418D01*
X131077691Y-45905643D01*
X131076201Y-45899693D01*
X131075301Y-45893626D01*
X131075000Y-45887500D01*
X131075000Y-45212500D01*
X131075301Y-45206374D01*
X131076201Y-45200307D01*
X131077691Y-45194357D01*
X131079758Y-45188582D01*
X131082380Y-45183038D01*
X131085533Y-45177777D01*
X131089187Y-45172850D01*
X131093306Y-45168306D01*
X131097850Y-45164187D01*
X131102777Y-45160533D01*
X131108038Y-45157380D01*
X131113582Y-45154758D01*
X131119357Y-45152691D01*
X131125307Y-45151201D01*
X131131374Y-45150301D01*
X131137500Y-45150000D01*
X131262500Y-45150000D01*
X131268626Y-45150301D01*
G37*
G36*
X130843626Y-44725301D02*
G01*
X130849693Y-44726201D01*
X130855643Y-44727691D01*
X130861418Y-44729758D01*
X130866962Y-44732380D01*
X130872223Y-44735533D01*
X130877150Y-44739187D01*
X130881694Y-44743306D01*
X130885813Y-44747850D01*
X130889467Y-44752777D01*
X130892620Y-44758038D01*
X130895242Y-44763582D01*
X130897309Y-44769357D01*
X130898799Y-44775307D01*
X130899699Y-44781374D01*
X130900000Y-44787500D01*
X130900000Y-44912500D01*
X130899699Y-44918626D01*
X130898799Y-44924693D01*
X130897309Y-44930643D01*
X130895242Y-44936418D01*
X130892620Y-44941962D01*
X130889467Y-44947223D01*
X130885813Y-44952150D01*
X130881694Y-44956694D01*
X130877150Y-44960813D01*
X130872223Y-44964467D01*
X130866962Y-44967620D01*
X130861418Y-44970242D01*
X130855643Y-44972309D01*
X130849693Y-44973799D01*
X130843626Y-44974699D01*
X130837500Y-44975000D01*
X130162500Y-44975000D01*
X130156374Y-44974699D01*
X130150307Y-44973799D01*
X130144357Y-44972309D01*
X130138582Y-44970242D01*
X130133038Y-44967620D01*
X130127777Y-44964467D01*
X130122850Y-44960813D01*
X130118306Y-44956694D01*
X130114187Y-44952150D01*
X130110533Y-44947223D01*
X130107380Y-44941962D01*
X130104758Y-44936418D01*
X130102691Y-44930643D01*
X130101201Y-44924693D01*
X130100301Y-44918626D01*
X130100000Y-44912500D01*
X130100000Y-44787500D01*
X130100301Y-44781374D01*
X130101201Y-44775307D01*
X130102691Y-44769357D01*
X130104758Y-44763582D01*
X130107380Y-44758038D01*
X130110533Y-44752777D01*
X130114187Y-44747850D01*
X130118306Y-44743306D01*
X130122850Y-44739187D01*
X130127777Y-44735533D01*
X130133038Y-44732380D01*
X130138582Y-44729758D01*
X130144357Y-44727691D01*
X130150307Y-44726201D01*
X130156374Y-44725301D01*
X130162500Y-44725000D01*
X130837500Y-44725000D01*
X130843626Y-44725301D01*
G37*
G36*
X130843626Y-44225301D02*
G01*
X130849693Y-44226201D01*
X130855643Y-44227691D01*
X130861418Y-44229758D01*
X130866962Y-44232380D01*
X130872223Y-44235533D01*
X130877150Y-44239187D01*
X130881694Y-44243306D01*
X130885813Y-44247850D01*
X130889467Y-44252777D01*
X130892620Y-44258038D01*
X130895242Y-44263582D01*
X130897309Y-44269357D01*
X130898799Y-44275307D01*
X130899699Y-44281374D01*
X130900000Y-44287500D01*
X130900000Y-44412500D01*
X130899699Y-44418626D01*
X130898799Y-44424693D01*
X130897309Y-44430643D01*
X130895242Y-44436418D01*
X130892620Y-44441962D01*
X130889467Y-44447223D01*
X130885813Y-44452150D01*
X130881694Y-44456694D01*
X130877150Y-44460813D01*
X130872223Y-44464467D01*
X130866962Y-44467620D01*
X130861418Y-44470242D01*
X130855643Y-44472309D01*
X130849693Y-44473799D01*
X130843626Y-44474699D01*
X130837500Y-44475000D01*
X130162500Y-44475000D01*
X130156374Y-44474699D01*
X130150307Y-44473799D01*
X130144357Y-44472309D01*
X130138582Y-44470242D01*
X130133038Y-44467620D01*
X130127777Y-44464467D01*
X130122850Y-44460813D01*
X130118306Y-44456694D01*
X130114187Y-44452150D01*
X130110533Y-44447223D01*
X130107380Y-44441962D01*
X130104758Y-44436418D01*
X130102691Y-44430643D01*
X130101201Y-44424693D01*
X130100301Y-44418626D01*
X130100000Y-44412500D01*
X130100000Y-44287500D01*
X130100301Y-44281374D01*
X130101201Y-44275307D01*
X130102691Y-44269357D01*
X130104758Y-44263582D01*
X130107380Y-44258038D01*
X130110533Y-44252777D01*
X130114187Y-44247850D01*
X130118306Y-44243306D01*
X130122850Y-44239187D01*
X130127777Y-44235533D01*
X130133038Y-44232380D01*
X130138582Y-44229758D01*
X130144357Y-44227691D01*
X130150307Y-44226201D01*
X130156374Y-44225301D01*
X130162500Y-44225000D01*
X130837500Y-44225000D01*
X130843626Y-44225301D01*
G37*
G36*
X130843626Y-43725301D02*
G01*
X130849693Y-43726201D01*
X130855643Y-43727691D01*
X130861418Y-43729758D01*
X130866962Y-43732380D01*
X130872223Y-43735533D01*
X130877150Y-43739187D01*
X130881694Y-43743306D01*
X130885813Y-43747850D01*
X130889467Y-43752777D01*
X130892620Y-43758038D01*
X130895242Y-43763582D01*
X130897309Y-43769357D01*
X130898799Y-43775307D01*
X130899699Y-43781374D01*
X130900000Y-43787500D01*
X130900000Y-43912500D01*
X130899699Y-43918626D01*
X130898799Y-43924693D01*
X130897309Y-43930643D01*
X130895242Y-43936418D01*
X130892620Y-43941962D01*
X130889467Y-43947223D01*
X130885813Y-43952150D01*
X130881694Y-43956694D01*
X130877150Y-43960813D01*
X130872223Y-43964467D01*
X130866962Y-43967620D01*
X130861418Y-43970242D01*
X130855643Y-43972309D01*
X130849693Y-43973799D01*
X130843626Y-43974699D01*
X130837500Y-43975000D01*
X130162500Y-43975000D01*
X130156374Y-43974699D01*
X130150307Y-43973799D01*
X130144357Y-43972309D01*
X130138582Y-43970242D01*
X130133038Y-43967620D01*
X130127777Y-43964467D01*
X130122850Y-43960813D01*
X130118306Y-43956694D01*
X130114187Y-43952150D01*
X130110533Y-43947223D01*
X130107380Y-43941962D01*
X130104758Y-43936418D01*
X130102691Y-43930643D01*
X130101201Y-43924693D01*
X130100301Y-43918626D01*
X130100000Y-43912500D01*
X130100000Y-43787500D01*
X130100301Y-43781374D01*
X130101201Y-43775307D01*
X130102691Y-43769357D01*
X130104758Y-43763582D01*
X130107380Y-43758038D01*
X130110533Y-43752777D01*
X130114187Y-43747850D01*
X130118306Y-43743306D01*
X130122850Y-43739187D01*
X130127777Y-43735533D01*
X130133038Y-43732380D01*
X130138582Y-43729758D01*
X130144357Y-43727691D01*
X130150307Y-43726201D01*
X130156374Y-43725301D01*
X130162500Y-43725000D01*
X130837500Y-43725000D01*
X130843626Y-43725301D01*
G37*
G36*
X130843626Y-43225301D02*
G01*
X130849693Y-43226201D01*
X130855643Y-43227691D01*
X130861418Y-43229758D01*
X130866962Y-43232380D01*
X130872223Y-43235533D01*
X130877150Y-43239187D01*
X130881694Y-43243306D01*
X130885813Y-43247850D01*
X130889467Y-43252777D01*
X130892620Y-43258038D01*
X130895242Y-43263582D01*
X130897309Y-43269357D01*
X130898799Y-43275307D01*
X130899699Y-43281374D01*
X130900000Y-43287500D01*
X130900000Y-43412500D01*
X130899699Y-43418626D01*
X130898799Y-43424693D01*
X130897309Y-43430643D01*
X130895242Y-43436418D01*
X130892620Y-43441962D01*
X130889467Y-43447223D01*
X130885813Y-43452150D01*
X130881694Y-43456694D01*
X130877150Y-43460813D01*
X130872223Y-43464467D01*
X130866962Y-43467620D01*
X130861418Y-43470242D01*
X130855643Y-43472309D01*
X130849693Y-43473799D01*
X130843626Y-43474699D01*
X130837500Y-43475000D01*
X130162500Y-43475000D01*
X130156374Y-43474699D01*
X130150307Y-43473799D01*
X130144357Y-43472309D01*
X130138582Y-43470242D01*
X130133038Y-43467620D01*
X130127777Y-43464467D01*
X130122850Y-43460813D01*
X130118306Y-43456694D01*
X130114187Y-43452150D01*
X130110533Y-43447223D01*
X130107380Y-43441962D01*
X130104758Y-43436418D01*
X130102691Y-43430643D01*
X130101201Y-43424693D01*
X130100301Y-43418626D01*
X130100000Y-43412500D01*
X130100000Y-43287500D01*
X130100301Y-43281374D01*
X130101201Y-43275307D01*
X130102691Y-43269357D01*
X130104758Y-43263582D01*
X130107380Y-43258038D01*
X130110533Y-43252777D01*
X130114187Y-43247850D01*
X130118306Y-43243306D01*
X130122850Y-43239187D01*
X130127777Y-43235533D01*
X130133038Y-43232380D01*
X130138582Y-43229758D01*
X130144357Y-43227691D01*
X130150307Y-43226201D01*
X130156374Y-43225301D01*
X130162500Y-43225000D01*
X130837500Y-43225000D01*
X130843626Y-43225301D01*
G37*
G36*
X130843626Y-42725301D02*
G01*
X130849693Y-42726201D01*
X130855643Y-42727691D01*
X130861418Y-42729758D01*
X130866962Y-42732380D01*
X130872223Y-42735533D01*
X130877150Y-42739187D01*
X130881694Y-42743306D01*
X130885813Y-42747850D01*
X130889467Y-42752777D01*
X130892620Y-42758038D01*
X130895242Y-42763582D01*
X130897309Y-42769357D01*
X130898799Y-42775307D01*
X130899699Y-42781374D01*
X130900000Y-42787500D01*
X130900000Y-42912500D01*
X130899699Y-42918626D01*
X130898799Y-42924693D01*
X130897309Y-42930643D01*
X130895242Y-42936418D01*
X130892620Y-42941962D01*
X130889467Y-42947223D01*
X130885813Y-42952150D01*
X130881694Y-42956694D01*
X130877150Y-42960813D01*
X130872223Y-42964467D01*
X130866962Y-42967620D01*
X130861418Y-42970242D01*
X130855643Y-42972309D01*
X130849693Y-42973799D01*
X130843626Y-42974699D01*
X130837500Y-42975000D01*
X130162500Y-42975000D01*
X130156374Y-42974699D01*
X130150307Y-42973799D01*
X130144357Y-42972309D01*
X130138582Y-42970242D01*
X130133038Y-42967620D01*
X130127777Y-42964467D01*
X130122850Y-42960813D01*
X130118306Y-42956694D01*
X130114187Y-42952150D01*
X130110533Y-42947223D01*
X130107380Y-42941962D01*
X130104758Y-42936418D01*
X130102691Y-42930643D01*
X130101201Y-42924693D01*
X130100301Y-42918626D01*
X130100000Y-42912500D01*
X130100000Y-42787500D01*
X130100301Y-42781374D01*
X130101201Y-42775307D01*
X130102691Y-42769357D01*
X130104758Y-42763582D01*
X130107380Y-42758038D01*
X130110533Y-42752777D01*
X130114187Y-42747850D01*
X130118306Y-42743306D01*
X130122850Y-42739187D01*
X130127777Y-42735533D01*
X130133038Y-42732380D01*
X130138582Y-42729758D01*
X130144357Y-42727691D01*
X130150307Y-42726201D01*
X130156374Y-42725301D01*
X130162500Y-42725000D01*
X130837500Y-42725000D01*
X130843626Y-42725301D01*
G37*
G36*
X130843626Y-42225301D02*
G01*
X130849693Y-42226201D01*
X130855643Y-42227691D01*
X130861418Y-42229758D01*
X130866962Y-42232380D01*
X130872223Y-42235533D01*
X130877150Y-42239187D01*
X130881694Y-42243306D01*
X130885813Y-42247850D01*
X130889467Y-42252777D01*
X130892620Y-42258038D01*
X130895242Y-42263582D01*
X130897309Y-42269357D01*
X130898799Y-42275307D01*
X130899699Y-42281374D01*
X130900000Y-42287500D01*
X130900000Y-42412500D01*
X130899699Y-42418626D01*
X130898799Y-42424693D01*
X130897309Y-42430643D01*
X130895242Y-42436418D01*
X130892620Y-42441962D01*
X130889467Y-42447223D01*
X130885813Y-42452150D01*
X130881694Y-42456694D01*
X130877150Y-42460813D01*
X130872223Y-42464467D01*
X130866962Y-42467620D01*
X130861418Y-42470242D01*
X130855643Y-42472309D01*
X130849693Y-42473799D01*
X130843626Y-42474699D01*
X130837500Y-42475000D01*
X130162500Y-42475000D01*
X130156374Y-42474699D01*
X130150307Y-42473799D01*
X130144357Y-42472309D01*
X130138582Y-42470242D01*
X130133038Y-42467620D01*
X130127777Y-42464467D01*
X130122850Y-42460813D01*
X130118306Y-42456694D01*
X130114187Y-42452150D01*
X130110533Y-42447223D01*
X130107380Y-42441962D01*
X130104758Y-42436418D01*
X130102691Y-42430643D01*
X130101201Y-42424693D01*
X130100301Y-42418626D01*
X130100000Y-42412500D01*
X130100000Y-42287500D01*
X130100301Y-42281374D01*
X130101201Y-42275307D01*
X130102691Y-42269357D01*
X130104758Y-42263582D01*
X130107380Y-42258038D01*
X130110533Y-42252777D01*
X130114187Y-42247850D01*
X130118306Y-42243306D01*
X130122850Y-42239187D01*
X130127777Y-42235533D01*
X130133038Y-42232380D01*
X130138582Y-42229758D01*
X130144357Y-42227691D01*
X130150307Y-42226201D01*
X130156374Y-42225301D01*
X130162500Y-42225000D01*
X130837500Y-42225000D01*
X130843626Y-42225301D01*
G37*
G36*
X130843626Y-41725301D02*
G01*
X130849693Y-41726201D01*
X130855643Y-41727691D01*
X130861418Y-41729758D01*
X130866962Y-41732380D01*
X130872223Y-41735533D01*
X130877150Y-41739187D01*
X130881694Y-41743306D01*
X130885813Y-41747850D01*
X130889467Y-41752777D01*
X130892620Y-41758038D01*
X130895242Y-41763582D01*
X130897309Y-41769357D01*
X130898799Y-41775307D01*
X130899699Y-41781374D01*
X130900000Y-41787500D01*
X130900000Y-41912500D01*
X130899699Y-41918626D01*
X130898799Y-41924693D01*
X130897309Y-41930643D01*
X130895242Y-41936418D01*
X130892620Y-41941962D01*
X130889467Y-41947223D01*
X130885813Y-41952150D01*
X130881694Y-41956694D01*
X130877150Y-41960813D01*
X130872223Y-41964467D01*
X130866962Y-41967620D01*
X130861418Y-41970242D01*
X130855643Y-41972309D01*
X130849693Y-41973799D01*
X130843626Y-41974699D01*
X130837500Y-41975000D01*
X130162500Y-41975000D01*
X130156374Y-41974699D01*
X130150307Y-41973799D01*
X130144357Y-41972309D01*
X130138582Y-41970242D01*
X130133038Y-41967620D01*
X130127777Y-41964467D01*
X130122850Y-41960813D01*
X130118306Y-41956694D01*
X130114187Y-41952150D01*
X130110533Y-41947223D01*
X130107380Y-41941962D01*
X130104758Y-41936418D01*
X130102691Y-41930643D01*
X130101201Y-41924693D01*
X130100301Y-41918626D01*
X130100000Y-41912500D01*
X130100000Y-41787500D01*
X130100301Y-41781374D01*
X130101201Y-41775307D01*
X130102691Y-41769357D01*
X130104758Y-41763582D01*
X130107380Y-41758038D01*
X130110533Y-41752777D01*
X130114187Y-41747850D01*
X130118306Y-41743306D01*
X130122850Y-41739187D01*
X130127777Y-41735533D01*
X130133038Y-41732380D01*
X130138582Y-41729758D01*
X130144357Y-41727691D01*
X130150307Y-41726201D01*
X130156374Y-41725301D01*
X130162500Y-41725000D01*
X130837500Y-41725000D01*
X130843626Y-41725301D01*
G37*
G36*
X130843626Y-41225301D02*
G01*
X130849693Y-41226201D01*
X130855643Y-41227691D01*
X130861418Y-41229758D01*
X130866962Y-41232380D01*
X130872223Y-41235533D01*
X130877150Y-41239187D01*
X130881694Y-41243306D01*
X130885813Y-41247850D01*
X130889467Y-41252777D01*
X130892620Y-41258038D01*
X130895242Y-41263582D01*
X130897309Y-41269357D01*
X130898799Y-41275307D01*
X130899699Y-41281374D01*
X130900000Y-41287500D01*
X130900000Y-41412500D01*
X130899699Y-41418626D01*
X130898799Y-41424693D01*
X130897309Y-41430643D01*
X130895242Y-41436418D01*
X130892620Y-41441962D01*
X130889467Y-41447223D01*
X130885813Y-41452150D01*
X130881694Y-41456694D01*
X130877150Y-41460813D01*
X130872223Y-41464467D01*
X130866962Y-41467620D01*
X130861418Y-41470242D01*
X130855643Y-41472309D01*
X130849693Y-41473799D01*
X130843626Y-41474699D01*
X130837500Y-41475000D01*
X130162500Y-41475000D01*
X130156374Y-41474699D01*
X130150307Y-41473799D01*
X130144357Y-41472309D01*
X130138582Y-41470242D01*
X130133038Y-41467620D01*
X130127777Y-41464467D01*
X130122850Y-41460813D01*
X130118306Y-41456694D01*
X130114187Y-41452150D01*
X130110533Y-41447223D01*
X130107380Y-41441962D01*
X130104758Y-41436418D01*
X130102691Y-41430643D01*
X130101201Y-41424693D01*
X130100301Y-41418626D01*
X130100000Y-41412500D01*
X130100000Y-41287500D01*
X130100301Y-41281374D01*
X130101201Y-41275307D01*
X130102691Y-41269357D01*
X130104758Y-41263582D01*
X130107380Y-41258038D01*
X130110533Y-41252777D01*
X130114187Y-41247850D01*
X130118306Y-41243306D01*
X130122850Y-41239187D01*
X130127777Y-41235533D01*
X130133038Y-41232380D01*
X130138582Y-41229758D01*
X130144357Y-41227691D01*
X130150307Y-41226201D01*
X130156374Y-41225301D01*
X130162500Y-41225000D01*
X130837500Y-41225000D01*
X130843626Y-41225301D01*
G37*
G36*
X130843626Y-40725301D02*
G01*
X130849693Y-40726201D01*
X130855643Y-40727691D01*
X130861418Y-40729758D01*
X130866962Y-40732380D01*
X130872223Y-40735533D01*
X130877150Y-40739187D01*
X130881694Y-40743306D01*
X130885813Y-40747850D01*
X130889467Y-40752777D01*
X130892620Y-40758038D01*
X130895242Y-40763582D01*
X130897309Y-40769357D01*
X130898799Y-40775307D01*
X130899699Y-40781374D01*
X130900000Y-40787500D01*
X130900000Y-40912500D01*
X130899699Y-40918626D01*
X130898799Y-40924693D01*
X130897309Y-40930643D01*
X130895242Y-40936418D01*
X130892620Y-40941962D01*
X130889467Y-40947223D01*
X130885813Y-40952150D01*
X130881694Y-40956694D01*
X130877150Y-40960813D01*
X130872223Y-40964467D01*
X130866962Y-40967620D01*
X130861418Y-40970242D01*
X130855643Y-40972309D01*
X130849693Y-40973799D01*
X130843626Y-40974699D01*
X130837500Y-40975000D01*
X130162500Y-40975000D01*
X130156374Y-40974699D01*
X130150307Y-40973799D01*
X130144357Y-40972309D01*
X130138582Y-40970242D01*
X130133038Y-40967620D01*
X130127777Y-40964467D01*
X130122850Y-40960813D01*
X130118306Y-40956694D01*
X130114187Y-40952150D01*
X130110533Y-40947223D01*
X130107380Y-40941962D01*
X130104758Y-40936418D01*
X130102691Y-40930643D01*
X130101201Y-40924693D01*
X130100301Y-40918626D01*
X130100000Y-40912500D01*
X130100000Y-40787500D01*
X130100301Y-40781374D01*
X130101201Y-40775307D01*
X130102691Y-40769357D01*
X130104758Y-40763582D01*
X130107380Y-40758038D01*
X130110533Y-40752777D01*
X130114187Y-40747850D01*
X130118306Y-40743306D01*
X130122850Y-40739187D01*
X130127777Y-40735533D01*
X130133038Y-40732380D01*
X130138582Y-40729758D01*
X130144357Y-40727691D01*
X130150307Y-40726201D01*
X130156374Y-40725301D01*
X130162500Y-40725000D01*
X130837500Y-40725000D01*
X130843626Y-40725301D01*
G37*
G36*
X130843626Y-40225301D02*
G01*
X130849693Y-40226201D01*
X130855643Y-40227691D01*
X130861418Y-40229758D01*
X130866962Y-40232380D01*
X130872223Y-40235533D01*
X130877150Y-40239187D01*
X130881694Y-40243306D01*
X130885813Y-40247850D01*
X130889467Y-40252777D01*
X130892620Y-40258038D01*
X130895242Y-40263582D01*
X130897309Y-40269357D01*
X130898799Y-40275307D01*
X130899699Y-40281374D01*
X130900000Y-40287500D01*
X130900000Y-40412500D01*
X130899699Y-40418626D01*
X130898799Y-40424693D01*
X130897309Y-40430643D01*
X130895242Y-40436418D01*
X130892620Y-40441962D01*
X130889467Y-40447223D01*
X130885813Y-40452150D01*
X130881694Y-40456694D01*
X130877150Y-40460813D01*
X130872223Y-40464467D01*
X130866962Y-40467620D01*
X130861418Y-40470242D01*
X130855643Y-40472309D01*
X130849693Y-40473799D01*
X130843626Y-40474699D01*
X130837500Y-40475000D01*
X130162500Y-40475000D01*
X130156374Y-40474699D01*
X130150307Y-40473799D01*
X130144357Y-40472309D01*
X130138582Y-40470242D01*
X130133038Y-40467620D01*
X130127777Y-40464467D01*
X130122850Y-40460813D01*
X130118306Y-40456694D01*
X130114187Y-40452150D01*
X130110533Y-40447223D01*
X130107380Y-40441962D01*
X130104758Y-40436418D01*
X130102691Y-40430643D01*
X130101201Y-40424693D01*
X130100301Y-40418626D01*
X130100000Y-40412500D01*
X130100000Y-40287500D01*
X130100301Y-40281374D01*
X130101201Y-40275307D01*
X130102691Y-40269357D01*
X130104758Y-40263582D01*
X130107380Y-40258038D01*
X130110533Y-40252777D01*
X130114187Y-40247850D01*
X130118306Y-40243306D01*
X130122850Y-40239187D01*
X130127777Y-40235533D01*
X130133038Y-40232380D01*
X130138582Y-40229758D01*
X130144357Y-40227691D01*
X130150307Y-40226201D01*
X130156374Y-40225301D01*
X130162500Y-40225000D01*
X130837500Y-40225000D01*
X130843626Y-40225301D01*
G37*
G36*
X130843626Y-39725301D02*
G01*
X130849693Y-39726201D01*
X130855643Y-39727691D01*
X130861418Y-39729758D01*
X130866962Y-39732380D01*
X130872223Y-39735533D01*
X130877150Y-39739187D01*
X130881694Y-39743306D01*
X130885813Y-39747850D01*
X130889467Y-39752777D01*
X130892620Y-39758038D01*
X130895242Y-39763582D01*
X130897309Y-39769357D01*
X130898799Y-39775307D01*
X130899699Y-39781374D01*
X130900000Y-39787500D01*
X130900000Y-39912500D01*
X130899699Y-39918626D01*
X130898799Y-39924693D01*
X130897309Y-39930643D01*
X130895242Y-39936418D01*
X130892620Y-39941962D01*
X130889467Y-39947223D01*
X130885813Y-39952150D01*
X130881694Y-39956694D01*
X130877150Y-39960813D01*
X130872223Y-39964467D01*
X130866962Y-39967620D01*
X130861418Y-39970242D01*
X130855643Y-39972309D01*
X130849693Y-39973799D01*
X130843626Y-39974699D01*
X130837500Y-39975000D01*
X130162500Y-39975000D01*
X130156374Y-39974699D01*
X130150307Y-39973799D01*
X130144357Y-39972309D01*
X130138582Y-39970242D01*
X130133038Y-39967620D01*
X130127777Y-39964467D01*
X130122850Y-39960813D01*
X130118306Y-39956694D01*
X130114187Y-39952150D01*
X130110533Y-39947223D01*
X130107380Y-39941962D01*
X130104758Y-39936418D01*
X130102691Y-39930643D01*
X130101201Y-39924693D01*
X130100301Y-39918626D01*
X130100000Y-39912500D01*
X130100000Y-39787500D01*
X130100301Y-39781374D01*
X130101201Y-39775307D01*
X130102691Y-39769357D01*
X130104758Y-39763582D01*
X130107380Y-39758038D01*
X130110533Y-39752777D01*
X130114187Y-39747850D01*
X130118306Y-39743306D01*
X130122850Y-39739187D01*
X130127777Y-39735533D01*
X130133038Y-39732380D01*
X130138582Y-39729758D01*
X130144357Y-39727691D01*
X130150307Y-39726201D01*
X130156374Y-39725301D01*
X130162500Y-39725000D01*
X130837500Y-39725000D01*
X130843626Y-39725301D01*
G37*
G36*
X130843626Y-39225301D02*
G01*
X130849693Y-39226201D01*
X130855643Y-39227691D01*
X130861418Y-39229758D01*
X130866962Y-39232380D01*
X130872223Y-39235533D01*
X130877150Y-39239187D01*
X130881694Y-39243306D01*
X130885813Y-39247850D01*
X130889467Y-39252777D01*
X130892620Y-39258038D01*
X130895242Y-39263582D01*
X130897309Y-39269357D01*
X130898799Y-39275307D01*
X130899699Y-39281374D01*
X130900000Y-39287500D01*
X130900000Y-39412500D01*
X130899699Y-39418626D01*
X130898799Y-39424693D01*
X130897309Y-39430643D01*
X130895242Y-39436418D01*
X130892620Y-39441962D01*
X130889467Y-39447223D01*
X130885813Y-39452150D01*
X130881694Y-39456694D01*
X130877150Y-39460813D01*
X130872223Y-39464467D01*
X130866962Y-39467620D01*
X130861418Y-39470242D01*
X130855643Y-39472309D01*
X130849693Y-39473799D01*
X130843626Y-39474699D01*
X130837500Y-39475000D01*
X130162500Y-39475000D01*
X130156374Y-39474699D01*
X130150307Y-39473799D01*
X130144357Y-39472309D01*
X130138582Y-39470242D01*
X130133038Y-39467620D01*
X130127777Y-39464467D01*
X130122850Y-39460813D01*
X130118306Y-39456694D01*
X130114187Y-39452150D01*
X130110533Y-39447223D01*
X130107380Y-39441962D01*
X130104758Y-39436418D01*
X130102691Y-39430643D01*
X130101201Y-39424693D01*
X130100301Y-39418626D01*
X130100000Y-39412500D01*
X130100000Y-39287500D01*
X130100301Y-39281374D01*
X130101201Y-39275307D01*
X130102691Y-39269357D01*
X130104758Y-39263582D01*
X130107380Y-39258038D01*
X130110533Y-39252777D01*
X130114187Y-39247850D01*
X130118306Y-39243306D01*
X130122850Y-39239187D01*
X130127777Y-39235533D01*
X130133038Y-39232380D01*
X130138582Y-39229758D01*
X130144357Y-39227691D01*
X130150307Y-39226201D01*
X130156374Y-39225301D01*
X130162500Y-39225000D01*
X130837500Y-39225000D01*
X130843626Y-39225301D01*
G37*
G36*
X131268626Y-38250301D02*
G01*
X131274693Y-38251201D01*
X131280643Y-38252691D01*
X131286418Y-38254758D01*
X131291962Y-38257380D01*
X131297223Y-38260533D01*
X131302150Y-38264187D01*
X131306694Y-38268306D01*
X131310813Y-38272850D01*
X131314467Y-38277777D01*
X131317620Y-38283038D01*
X131320242Y-38288582D01*
X131322309Y-38294357D01*
X131323799Y-38300307D01*
X131324699Y-38306374D01*
X131325000Y-38312500D01*
X131325000Y-38987500D01*
X131324699Y-38993626D01*
X131323799Y-38999693D01*
X131322309Y-39005643D01*
X131320242Y-39011418D01*
X131317620Y-39016962D01*
X131314467Y-39022223D01*
X131310813Y-39027150D01*
X131306694Y-39031694D01*
X131302150Y-39035813D01*
X131297223Y-39039467D01*
X131291962Y-39042620D01*
X131286418Y-39045242D01*
X131280643Y-39047309D01*
X131274693Y-39048799D01*
X131268626Y-39049699D01*
X131262500Y-39050000D01*
X131137500Y-39050000D01*
X131131374Y-39049699D01*
X131125307Y-39048799D01*
X131119357Y-39047309D01*
X131113582Y-39045242D01*
X131108038Y-39042620D01*
X131102777Y-39039467D01*
X131097850Y-39035813D01*
X131093306Y-39031694D01*
X131089187Y-39027150D01*
X131085533Y-39022223D01*
X131082380Y-39016962D01*
X131079758Y-39011418D01*
X131077691Y-39005643D01*
X131076201Y-38999693D01*
X131075301Y-38993626D01*
X131075000Y-38987500D01*
X131075000Y-38312500D01*
X131075301Y-38306374D01*
X131076201Y-38300307D01*
X131077691Y-38294357D01*
X131079758Y-38288582D01*
X131082380Y-38283038D01*
X131085533Y-38277777D01*
X131089187Y-38272850D01*
X131093306Y-38268306D01*
X131097850Y-38264187D01*
X131102777Y-38260533D01*
X131108038Y-38257380D01*
X131113582Y-38254758D01*
X131119357Y-38252691D01*
X131125307Y-38251201D01*
X131131374Y-38250301D01*
X131137500Y-38250000D01*
X131262500Y-38250000D01*
X131268626Y-38250301D01*
G37*
G36*
X131768626Y-38250301D02*
G01*
X131774693Y-38251201D01*
X131780643Y-38252691D01*
X131786418Y-38254758D01*
X131791962Y-38257380D01*
X131797223Y-38260533D01*
X131802150Y-38264187D01*
X131806694Y-38268306D01*
X131810813Y-38272850D01*
X131814467Y-38277777D01*
X131817620Y-38283038D01*
X131820242Y-38288582D01*
X131822309Y-38294357D01*
X131823799Y-38300307D01*
X131824699Y-38306374D01*
X131825000Y-38312500D01*
X131825000Y-38987500D01*
X131824699Y-38993626D01*
X131823799Y-38999693D01*
X131822309Y-39005643D01*
X131820242Y-39011418D01*
X131817620Y-39016962D01*
X131814467Y-39022223D01*
X131810813Y-39027150D01*
X131806694Y-39031694D01*
X131802150Y-39035813D01*
X131797223Y-39039467D01*
X131791962Y-39042620D01*
X131786418Y-39045242D01*
X131780643Y-39047309D01*
X131774693Y-39048799D01*
X131768626Y-39049699D01*
X131762500Y-39050000D01*
X131637500Y-39050000D01*
X131631374Y-39049699D01*
X131625307Y-39048799D01*
X131619357Y-39047309D01*
X131613582Y-39045242D01*
X131608038Y-39042620D01*
X131602777Y-39039467D01*
X131597850Y-39035813D01*
X131593306Y-39031694D01*
X131589187Y-39027150D01*
X131585533Y-39022223D01*
X131582380Y-39016962D01*
X131579758Y-39011418D01*
X131577691Y-39005643D01*
X131576201Y-38999693D01*
X131575301Y-38993626D01*
X131575000Y-38987500D01*
X131575000Y-38312500D01*
X131575301Y-38306374D01*
X131576201Y-38300307D01*
X131577691Y-38294357D01*
X131579758Y-38288582D01*
X131582380Y-38283038D01*
X131585533Y-38277777D01*
X131589187Y-38272850D01*
X131593306Y-38268306D01*
X131597850Y-38264187D01*
X131602777Y-38260533D01*
X131608038Y-38257380D01*
X131613582Y-38254758D01*
X131619357Y-38252691D01*
X131625307Y-38251201D01*
X131631374Y-38250301D01*
X131637500Y-38250000D01*
X131762500Y-38250000D01*
X131768626Y-38250301D01*
G37*
G36*
X132268626Y-38250301D02*
G01*
X132274693Y-38251201D01*
X132280643Y-38252691D01*
X132286418Y-38254758D01*
X132291962Y-38257380D01*
X132297223Y-38260533D01*
X132302150Y-38264187D01*
X132306694Y-38268306D01*
X132310813Y-38272850D01*
X132314467Y-38277777D01*
X132317620Y-38283038D01*
X132320242Y-38288582D01*
X132322309Y-38294357D01*
X132323799Y-38300307D01*
X132324699Y-38306374D01*
X132325000Y-38312500D01*
X132325000Y-38987500D01*
X132324699Y-38993626D01*
X132323799Y-38999693D01*
X132322309Y-39005643D01*
X132320242Y-39011418D01*
X132317620Y-39016962D01*
X132314467Y-39022223D01*
X132310813Y-39027150D01*
X132306694Y-39031694D01*
X132302150Y-39035813D01*
X132297223Y-39039467D01*
X132291962Y-39042620D01*
X132286418Y-39045242D01*
X132280643Y-39047309D01*
X132274693Y-39048799D01*
X132268626Y-39049699D01*
X132262500Y-39050000D01*
X132137500Y-39050000D01*
X132131374Y-39049699D01*
X132125307Y-39048799D01*
X132119357Y-39047309D01*
X132113582Y-39045242D01*
X132108038Y-39042620D01*
X132102777Y-39039467D01*
X132097850Y-39035813D01*
X132093306Y-39031694D01*
X132089187Y-39027150D01*
X132085533Y-39022223D01*
X132082380Y-39016962D01*
X132079758Y-39011418D01*
X132077691Y-39005643D01*
X132076201Y-38999693D01*
X132075301Y-38993626D01*
X132075000Y-38987500D01*
X132075000Y-38312500D01*
X132075301Y-38306374D01*
X132076201Y-38300307D01*
X132077691Y-38294357D01*
X132079758Y-38288582D01*
X132082380Y-38283038D01*
X132085533Y-38277777D01*
X132089187Y-38272850D01*
X132093306Y-38268306D01*
X132097850Y-38264187D01*
X132102777Y-38260533D01*
X132108038Y-38257380D01*
X132113582Y-38254758D01*
X132119357Y-38252691D01*
X132125307Y-38251201D01*
X132131374Y-38250301D01*
X132137500Y-38250000D01*
X132262500Y-38250000D01*
X132268626Y-38250301D01*
G37*
G36*
X132768626Y-38250301D02*
G01*
X132774693Y-38251201D01*
X132780643Y-38252691D01*
X132786418Y-38254758D01*
X132791962Y-38257380D01*
X132797223Y-38260533D01*
X132802150Y-38264187D01*
X132806694Y-38268306D01*
X132810813Y-38272850D01*
X132814467Y-38277777D01*
X132817620Y-38283038D01*
X132820242Y-38288582D01*
X132822309Y-38294357D01*
X132823799Y-38300307D01*
X132824699Y-38306374D01*
X132825000Y-38312500D01*
X132825000Y-38987500D01*
X132824699Y-38993626D01*
X132823799Y-38999693D01*
X132822309Y-39005643D01*
X132820242Y-39011418D01*
X132817620Y-39016962D01*
X132814467Y-39022223D01*
X132810813Y-39027150D01*
X132806694Y-39031694D01*
X132802150Y-39035813D01*
X132797223Y-39039467D01*
X132791962Y-39042620D01*
X132786418Y-39045242D01*
X132780643Y-39047309D01*
X132774693Y-39048799D01*
X132768626Y-39049699D01*
X132762500Y-39050000D01*
X132637500Y-39050000D01*
X132631374Y-39049699D01*
X132625307Y-39048799D01*
X132619357Y-39047309D01*
X132613582Y-39045242D01*
X132608038Y-39042620D01*
X132602777Y-39039467D01*
X132597850Y-39035813D01*
X132593306Y-39031694D01*
X132589187Y-39027150D01*
X132585533Y-39022223D01*
X132582380Y-39016962D01*
X132579758Y-39011418D01*
X132577691Y-39005643D01*
X132576201Y-38999693D01*
X132575301Y-38993626D01*
X132575000Y-38987500D01*
X132575000Y-38312500D01*
X132575301Y-38306374D01*
X132576201Y-38300307D01*
X132577691Y-38294357D01*
X132579758Y-38288582D01*
X132582380Y-38283038D01*
X132585533Y-38277777D01*
X132589187Y-38272850D01*
X132593306Y-38268306D01*
X132597850Y-38264187D01*
X132602777Y-38260533D01*
X132608038Y-38257380D01*
X132613582Y-38254758D01*
X132619357Y-38252691D01*
X132625307Y-38251201D01*
X132631374Y-38250301D01*
X132637500Y-38250000D01*
X132762500Y-38250000D01*
X132768626Y-38250301D01*
G37*
G36*
X133268626Y-38250301D02*
G01*
X133274693Y-38251201D01*
X133280643Y-38252691D01*
X133286418Y-38254758D01*
X133291962Y-38257380D01*
X133297223Y-38260533D01*
X133302150Y-38264187D01*
X133306694Y-38268306D01*
X133310813Y-38272850D01*
X133314467Y-38277777D01*
X133317620Y-38283038D01*
X133320242Y-38288582D01*
X133322309Y-38294357D01*
X133323799Y-38300307D01*
X133324699Y-38306374D01*
X133325000Y-38312500D01*
X133325000Y-38987500D01*
X133324699Y-38993626D01*
X133323799Y-38999693D01*
X133322309Y-39005643D01*
X133320242Y-39011418D01*
X133317620Y-39016962D01*
X133314467Y-39022223D01*
X133310813Y-39027150D01*
X133306694Y-39031694D01*
X133302150Y-39035813D01*
X133297223Y-39039467D01*
X133291962Y-39042620D01*
X133286418Y-39045242D01*
X133280643Y-39047309D01*
X133274693Y-39048799D01*
X133268626Y-39049699D01*
X133262500Y-39050000D01*
X133137500Y-39050000D01*
X133131374Y-39049699D01*
X133125307Y-39048799D01*
X133119357Y-39047309D01*
X133113582Y-39045242D01*
X133108038Y-39042620D01*
X133102777Y-39039467D01*
X133097850Y-39035813D01*
X133093306Y-39031694D01*
X133089187Y-39027150D01*
X133085533Y-39022223D01*
X133082380Y-39016962D01*
X133079758Y-39011418D01*
X133077691Y-39005643D01*
X133076201Y-38999693D01*
X133075301Y-38993626D01*
X133075000Y-38987500D01*
X133075000Y-38312500D01*
X133075301Y-38306374D01*
X133076201Y-38300307D01*
X133077691Y-38294357D01*
X133079758Y-38288582D01*
X133082380Y-38283038D01*
X133085533Y-38277777D01*
X133089187Y-38272850D01*
X133093306Y-38268306D01*
X133097850Y-38264187D01*
X133102777Y-38260533D01*
X133108038Y-38257380D01*
X133113582Y-38254758D01*
X133119357Y-38252691D01*
X133125307Y-38251201D01*
X133131374Y-38250301D01*
X133137500Y-38250000D01*
X133262500Y-38250000D01*
X133268626Y-38250301D01*
G37*
G36*
X133768626Y-38250301D02*
G01*
X133774693Y-38251201D01*
X133780643Y-38252691D01*
X133786418Y-38254758D01*
X133791962Y-38257380D01*
X133797223Y-38260533D01*
X133802150Y-38264187D01*
X133806694Y-38268306D01*
X133810813Y-38272850D01*
X133814467Y-38277777D01*
X133817620Y-38283038D01*
X133820242Y-38288582D01*
X133822309Y-38294357D01*
X133823799Y-38300307D01*
X133824699Y-38306374D01*
X133825000Y-38312500D01*
X133825000Y-38987500D01*
X133824699Y-38993626D01*
X133823799Y-38999693D01*
X133822309Y-39005643D01*
X133820242Y-39011418D01*
X133817620Y-39016962D01*
X133814467Y-39022223D01*
X133810813Y-39027150D01*
X133806694Y-39031694D01*
X133802150Y-39035813D01*
X133797223Y-39039467D01*
X133791962Y-39042620D01*
X133786418Y-39045242D01*
X133780643Y-39047309D01*
X133774693Y-39048799D01*
X133768626Y-39049699D01*
X133762500Y-39050000D01*
X133637500Y-39050000D01*
X133631374Y-39049699D01*
X133625307Y-39048799D01*
X133619357Y-39047309D01*
X133613582Y-39045242D01*
X133608038Y-39042620D01*
X133602777Y-39039467D01*
X133597850Y-39035813D01*
X133593306Y-39031694D01*
X133589187Y-39027150D01*
X133585533Y-39022223D01*
X133582380Y-39016962D01*
X133579758Y-39011418D01*
X133577691Y-39005643D01*
X133576201Y-38999693D01*
X133575301Y-38993626D01*
X133575000Y-38987500D01*
X133575000Y-38312500D01*
X133575301Y-38306374D01*
X133576201Y-38300307D01*
X133577691Y-38294357D01*
X133579758Y-38288582D01*
X133582380Y-38283038D01*
X133585533Y-38277777D01*
X133589187Y-38272850D01*
X133593306Y-38268306D01*
X133597850Y-38264187D01*
X133602777Y-38260533D01*
X133608038Y-38257380D01*
X133613582Y-38254758D01*
X133619357Y-38252691D01*
X133625307Y-38251201D01*
X133631374Y-38250301D01*
X133637500Y-38250000D01*
X133762500Y-38250000D01*
X133768626Y-38250301D01*
G37*
G36*
X134268626Y-38250301D02*
G01*
X134274693Y-38251201D01*
X134280643Y-38252691D01*
X134286418Y-38254758D01*
X134291962Y-38257380D01*
X134297223Y-38260533D01*
X134302150Y-38264187D01*
X134306694Y-38268306D01*
X134310813Y-38272850D01*
X134314467Y-38277777D01*
X134317620Y-38283038D01*
X134320242Y-38288582D01*
X134322309Y-38294357D01*
X134323799Y-38300307D01*
X134324699Y-38306374D01*
X134325000Y-38312500D01*
X134325000Y-38987500D01*
X134324699Y-38993626D01*
X134323799Y-38999693D01*
X134322309Y-39005643D01*
X134320242Y-39011418D01*
X134317620Y-39016962D01*
X134314467Y-39022223D01*
X134310813Y-39027150D01*
X134306694Y-39031694D01*
X134302150Y-39035813D01*
X134297223Y-39039467D01*
X134291962Y-39042620D01*
X134286418Y-39045242D01*
X134280643Y-39047309D01*
X134274693Y-39048799D01*
X134268626Y-39049699D01*
X134262500Y-39050000D01*
X134137500Y-39050000D01*
X134131374Y-39049699D01*
X134125307Y-39048799D01*
X134119357Y-39047309D01*
X134113582Y-39045242D01*
X134108038Y-39042620D01*
X134102777Y-39039467D01*
X134097850Y-39035813D01*
X134093306Y-39031694D01*
X134089187Y-39027150D01*
X134085533Y-39022223D01*
X134082380Y-39016962D01*
X134079758Y-39011418D01*
X134077691Y-39005643D01*
X134076201Y-38999693D01*
X134075301Y-38993626D01*
X134075000Y-38987500D01*
X134075000Y-38312500D01*
X134075301Y-38306374D01*
X134076201Y-38300307D01*
X134077691Y-38294357D01*
X134079758Y-38288582D01*
X134082380Y-38283038D01*
X134085533Y-38277777D01*
X134089187Y-38272850D01*
X134093306Y-38268306D01*
X134097850Y-38264187D01*
X134102777Y-38260533D01*
X134108038Y-38257380D01*
X134113582Y-38254758D01*
X134119357Y-38252691D01*
X134125307Y-38251201D01*
X134131374Y-38250301D01*
X134137500Y-38250000D01*
X134262500Y-38250000D01*
X134268626Y-38250301D01*
G37*
G36*
X134768626Y-38250301D02*
G01*
X134774693Y-38251201D01*
X134780643Y-38252691D01*
X134786418Y-38254758D01*
X134791962Y-38257380D01*
X134797223Y-38260533D01*
X134802150Y-38264187D01*
X134806694Y-38268306D01*
X134810813Y-38272850D01*
X134814467Y-38277777D01*
X134817620Y-38283038D01*
X134820242Y-38288582D01*
X134822309Y-38294357D01*
X134823799Y-38300307D01*
X134824699Y-38306374D01*
X134825000Y-38312500D01*
X134825000Y-38987500D01*
X134824699Y-38993626D01*
X134823799Y-38999693D01*
X134822309Y-39005643D01*
X134820242Y-39011418D01*
X134817620Y-39016962D01*
X134814467Y-39022223D01*
X134810813Y-39027150D01*
X134806694Y-39031694D01*
X134802150Y-39035813D01*
X134797223Y-39039467D01*
X134791962Y-39042620D01*
X134786418Y-39045242D01*
X134780643Y-39047309D01*
X134774693Y-39048799D01*
X134768626Y-39049699D01*
X134762500Y-39050000D01*
X134637500Y-39050000D01*
X134631374Y-39049699D01*
X134625307Y-39048799D01*
X134619357Y-39047309D01*
X134613582Y-39045242D01*
X134608038Y-39042620D01*
X134602777Y-39039467D01*
X134597850Y-39035813D01*
X134593306Y-39031694D01*
X134589187Y-39027150D01*
X134585533Y-39022223D01*
X134582380Y-39016962D01*
X134579758Y-39011418D01*
X134577691Y-39005643D01*
X134576201Y-38999693D01*
X134575301Y-38993626D01*
X134575000Y-38987500D01*
X134575000Y-38312500D01*
X134575301Y-38306374D01*
X134576201Y-38300307D01*
X134577691Y-38294357D01*
X134579758Y-38288582D01*
X134582380Y-38283038D01*
X134585533Y-38277777D01*
X134589187Y-38272850D01*
X134593306Y-38268306D01*
X134597850Y-38264187D01*
X134602777Y-38260533D01*
X134608038Y-38257380D01*
X134613582Y-38254758D01*
X134619357Y-38252691D01*
X134625307Y-38251201D01*
X134631374Y-38250301D01*
X134637500Y-38250000D01*
X134762500Y-38250000D01*
X134768626Y-38250301D01*
G37*
G36*
X135268626Y-38250301D02*
G01*
X135274693Y-38251201D01*
X135280643Y-38252691D01*
X135286418Y-38254758D01*
X135291962Y-38257380D01*
X135297223Y-38260533D01*
X135302150Y-38264187D01*
X135306694Y-38268306D01*
X135310813Y-38272850D01*
X135314467Y-38277777D01*
X135317620Y-38283038D01*
X135320242Y-38288582D01*
X135322309Y-38294357D01*
X135323799Y-38300307D01*
X135324699Y-38306374D01*
X135325000Y-38312500D01*
X135325000Y-38987500D01*
X135324699Y-38993626D01*
X135323799Y-38999693D01*
X135322309Y-39005643D01*
X135320242Y-39011418D01*
X135317620Y-39016962D01*
X135314467Y-39022223D01*
X135310813Y-39027150D01*
X135306694Y-39031694D01*
X135302150Y-39035813D01*
X135297223Y-39039467D01*
X135291962Y-39042620D01*
X135286418Y-39045242D01*
X135280643Y-39047309D01*
X135274693Y-39048799D01*
X135268626Y-39049699D01*
X135262500Y-39050000D01*
X135137500Y-39050000D01*
X135131374Y-39049699D01*
X135125307Y-39048799D01*
X135119357Y-39047309D01*
X135113582Y-39045242D01*
X135108038Y-39042620D01*
X135102777Y-39039467D01*
X135097850Y-39035813D01*
X135093306Y-39031694D01*
X135089187Y-39027150D01*
X135085533Y-39022223D01*
X135082380Y-39016962D01*
X135079758Y-39011418D01*
X135077691Y-39005643D01*
X135076201Y-38999693D01*
X135075301Y-38993626D01*
X135075000Y-38987500D01*
X135075000Y-38312500D01*
X135075301Y-38306374D01*
X135076201Y-38300307D01*
X135077691Y-38294357D01*
X135079758Y-38288582D01*
X135082380Y-38283038D01*
X135085533Y-38277777D01*
X135089187Y-38272850D01*
X135093306Y-38268306D01*
X135097850Y-38264187D01*
X135102777Y-38260533D01*
X135108038Y-38257380D01*
X135113582Y-38254758D01*
X135119357Y-38252691D01*
X135125307Y-38251201D01*
X135131374Y-38250301D01*
X135137500Y-38250000D01*
X135262500Y-38250000D01*
X135268626Y-38250301D01*
G37*
G36*
X135768626Y-38250301D02*
G01*
X135774693Y-38251201D01*
X135780643Y-38252691D01*
X135786418Y-38254758D01*
X135791962Y-38257380D01*
X135797223Y-38260533D01*
X135802150Y-38264187D01*
X135806694Y-38268306D01*
X135810813Y-38272850D01*
X135814467Y-38277777D01*
X135817620Y-38283038D01*
X135820242Y-38288582D01*
X135822309Y-38294357D01*
X135823799Y-38300307D01*
X135824699Y-38306374D01*
X135825000Y-38312500D01*
X135825000Y-38987500D01*
X135824699Y-38993626D01*
X135823799Y-38999693D01*
X135822309Y-39005643D01*
X135820242Y-39011418D01*
X135817620Y-39016962D01*
X135814467Y-39022223D01*
X135810813Y-39027150D01*
X135806694Y-39031694D01*
X135802150Y-39035813D01*
X135797223Y-39039467D01*
X135791962Y-39042620D01*
X135786418Y-39045242D01*
X135780643Y-39047309D01*
X135774693Y-39048799D01*
X135768626Y-39049699D01*
X135762500Y-39050000D01*
X135637500Y-39050000D01*
X135631374Y-39049699D01*
X135625307Y-39048799D01*
X135619357Y-39047309D01*
X135613582Y-39045242D01*
X135608038Y-39042620D01*
X135602777Y-39039467D01*
X135597850Y-39035813D01*
X135593306Y-39031694D01*
X135589187Y-39027150D01*
X135585533Y-39022223D01*
X135582380Y-39016962D01*
X135579758Y-39011418D01*
X135577691Y-39005643D01*
X135576201Y-38999693D01*
X135575301Y-38993626D01*
X135575000Y-38987500D01*
X135575000Y-38312500D01*
X135575301Y-38306374D01*
X135576201Y-38300307D01*
X135577691Y-38294357D01*
X135579758Y-38288582D01*
X135582380Y-38283038D01*
X135585533Y-38277777D01*
X135589187Y-38272850D01*
X135593306Y-38268306D01*
X135597850Y-38264187D01*
X135602777Y-38260533D01*
X135608038Y-38257380D01*
X135613582Y-38254758D01*
X135619357Y-38252691D01*
X135625307Y-38251201D01*
X135631374Y-38250301D01*
X135637500Y-38250000D01*
X135762500Y-38250000D01*
X135768626Y-38250301D01*
G37*
G36*
X136268626Y-38250301D02*
G01*
X136274693Y-38251201D01*
X136280643Y-38252691D01*
X136286418Y-38254758D01*
X136291962Y-38257380D01*
X136297223Y-38260533D01*
X136302150Y-38264187D01*
X136306694Y-38268306D01*
X136310813Y-38272850D01*
X136314467Y-38277777D01*
X136317620Y-38283038D01*
X136320242Y-38288582D01*
X136322309Y-38294357D01*
X136323799Y-38300307D01*
X136324699Y-38306374D01*
X136325000Y-38312500D01*
X136325000Y-38987500D01*
X136324699Y-38993626D01*
X136323799Y-38999693D01*
X136322309Y-39005643D01*
X136320242Y-39011418D01*
X136317620Y-39016962D01*
X136314467Y-39022223D01*
X136310813Y-39027150D01*
X136306694Y-39031694D01*
X136302150Y-39035813D01*
X136297223Y-39039467D01*
X136291962Y-39042620D01*
X136286418Y-39045242D01*
X136280643Y-39047309D01*
X136274693Y-39048799D01*
X136268626Y-39049699D01*
X136262500Y-39050000D01*
X136137500Y-39050000D01*
X136131374Y-39049699D01*
X136125307Y-39048799D01*
X136119357Y-39047309D01*
X136113582Y-39045242D01*
X136108038Y-39042620D01*
X136102777Y-39039467D01*
X136097850Y-39035813D01*
X136093306Y-39031694D01*
X136089187Y-39027150D01*
X136085533Y-39022223D01*
X136082380Y-39016962D01*
X136079758Y-39011418D01*
X136077691Y-39005643D01*
X136076201Y-38999693D01*
X136075301Y-38993626D01*
X136075000Y-38987500D01*
X136075000Y-38312500D01*
X136075301Y-38306374D01*
X136076201Y-38300307D01*
X136077691Y-38294357D01*
X136079758Y-38288582D01*
X136082380Y-38283038D01*
X136085533Y-38277777D01*
X136089187Y-38272850D01*
X136093306Y-38268306D01*
X136097850Y-38264187D01*
X136102777Y-38260533D01*
X136108038Y-38257380D01*
X136113582Y-38254758D01*
X136119357Y-38252691D01*
X136125307Y-38251201D01*
X136131374Y-38250301D01*
X136137500Y-38250000D01*
X136262500Y-38250000D01*
X136268626Y-38250301D01*
G37*
G36*
X136768626Y-38250301D02*
G01*
X136774693Y-38251201D01*
X136780643Y-38252691D01*
X136786418Y-38254758D01*
X136791962Y-38257380D01*
X136797223Y-38260533D01*
X136802150Y-38264187D01*
X136806694Y-38268306D01*
X136810813Y-38272850D01*
X136814467Y-38277777D01*
X136817620Y-38283038D01*
X136820242Y-38288582D01*
X136822309Y-38294357D01*
X136823799Y-38300307D01*
X136824699Y-38306374D01*
X136825000Y-38312500D01*
X136825000Y-38987500D01*
X136824699Y-38993626D01*
X136823799Y-38999693D01*
X136822309Y-39005643D01*
X136820242Y-39011418D01*
X136817620Y-39016962D01*
X136814467Y-39022223D01*
X136810813Y-39027150D01*
X136806694Y-39031694D01*
X136802150Y-39035813D01*
X136797223Y-39039467D01*
X136791962Y-39042620D01*
X136786418Y-39045242D01*
X136780643Y-39047309D01*
X136774693Y-39048799D01*
X136768626Y-39049699D01*
X136762500Y-39050000D01*
X136637500Y-39050000D01*
X136631374Y-39049699D01*
X136625307Y-39048799D01*
X136619357Y-39047309D01*
X136613582Y-39045242D01*
X136608038Y-39042620D01*
X136602777Y-39039467D01*
X136597850Y-39035813D01*
X136593306Y-39031694D01*
X136589187Y-39027150D01*
X136585533Y-39022223D01*
X136582380Y-39016962D01*
X136579758Y-39011418D01*
X136577691Y-39005643D01*
X136576201Y-38999693D01*
X136575301Y-38993626D01*
X136575000Y-38987500D01*
X136575000Y-38312500D01*
X136575301Y-38306374D01*
X136576201Y-38300307D01*
X136577691Y-38294357D01*
X136579758Y-38288582D01*
X136582380Y-38283038D01*
X136585533Y-38277777D01*
X136589187Y-38272850D01*
X136593306Y-38268306D01*
X136597850Y-38264187D01*
X136602777Y-38260533D01*
X136608038Y-38257380D01*
X136613582Y-38254758D01*
X136619357Y-38252691D01*
X136625307Y-38251201D01*
X136631374Y-38250301D01*
X136637500Y-38250000D01*
X136762500Y-38250000D01*
X136768626Y-38250301D01*
G37*
G36*
X132279504Y-43546204D02*
G01*
X132303773Y-43549804D01*
X132327571Y-43555765D01*
X132350671Y-43564030D01*
X132372849Y-43574520D01*
X132393893Y-43587133D01*
X132413598Y-43601747D01*
X132431777Y-43618223D01*
X132448253Y-43636402D01*
X132462867Y-43656107D01*
X132475480Y-43677151D01*
X132485970Y-43699329D01*
X132494235Y-43722429D01*
X132500196Y-43746227D01*
X132503796Y-43770496D01*
X132505000Y-43795000D01*
X132505000Y-44365000D01*
X132503796Y-44389504D01*
X132500196Y-44413773D01*
X132494235Y-44437571D01*
X132485970Y-44460671D01*
X132475480Y-44482849D01*
X132462867Y-44503893D01*
X132448253Y-44523598D01*
X132431777Y-44541777D01*
X132413598Y-44558253D01*
X132393893Y-44572867D01*
X132372849Y-44585480D01*
X132350671Y-44595970D01*
X132327571Y-44604235D01*
X132303773Y-44610196D01*
X132279504Y-44613796D01*
X132255000Y-44615000D01*
X131685000Y-44615000D01*
X131660496Y-44613796D01*
X131636227Y-44610196D01*
X131612429Y-44604235D01*
X131589329Y-44595970D01*
X131567151Y-44585480D01*
X131546107Y-44572867D01*
X131526402Y-44558253D01*
X131508223Y-44541777D01*
X131491747Y-44523598D01*
X131477133Y-44503893D01*
X131464520Y-44482849D01*
X131454030Y-44460671D01*
X131445765Y-44437571D01*
X131439804Y-44413773D01*
X131436204Y-44389504D01*
X131435000Y-44365000D01*
X131435000Y-43795000D01*
X131436204Y-43770496D01*
X131439804Y-43746227D01*
X131445765Y-43722429D01*
X131454030Y-43699329D01*
X131464520Y-43677151D01*
X131477133Y-43656107D01*
X131491747Y-43636402D01*
X131508223Y-43618223D01*
X131526402Y-43601747D01*
X131546107Y-43587133D01*
X131567151Y-43574520D01*
X131589329Y-43564030D01*
X131612429Y-43555765D01*
X131636227Y-43549804D01*
X131660496Y-43546204D01*
X131685000Y-43545000D01*
X132255000Y-43545000D01*
X132279504Y-43546204D01*
G37*
G36*
X133599504Y-43546204D02*
G01*
X133623773Y-43549804D01*
X133647571Y-43555765D01*
X133670671Y-43564030D01*
X133692849Y-43574520D01*
X133713893Y-43587133D01*
X133733598Y-43601747D01*
X133751777Y-43618223D01*
X133768253Y-43636402D01*
X133782867Y-43656107D01*
X133795480Y-43677151D01*
X133805970Y-43699329D01*
X133814235Y-43722429D01*
X133820196Y-43746227D01*
X133823796Y-43770496D01*
X133825000Y-43795000D01*
X133825000Y-44365000D01*
X133823796Y-44389504D01*
X133820196Y-44413773D01*
X133814235Y-44437571D01*
X133805970Y-44460671D01*
X133795480Y-44482849D01*
X133782867Y-44503893D01*
X133768253Y-44523598D01*
X133751777Y-44541777D01*
X133733598Y-44558253D01*
X133713893Y-44572867D01*
X133692849Y-44585480D01*
X133670671Y-44595970D01*
X133647571Y-44604235D01*
X133623773Y-44610196D01*
X133599504Y-44613796D01*
X133575000Y-44615000D01*
X133005000Y-44615000D01*
X132980496Y-44613796D01*
X132956227Y-44610196D01*
X132932429Y-44604235D01*
X132909329Y-44595970D01*
X132887151Y-44585480D01*
X132866107Y-44572867D01*
X132846402Y-44558253D01*
X132828223Y-44541777D01*
X132811747Y-44523598D01*
X132797133Y-44503893D01*
X132784520Y-44482849D01*
X132774030Y-44460671D01*
X132765765Y-44437571D01*
X132759804Y-44413773D01*
X132756204Y-44389504D01*
X132755000Y-44365000D01*
X132755000Y-43795000D01*
X132756204Y-43770496D01*
X132759804Y-43746227D01*
X132765765Y-43722429D01*
X132774030Y-43699329D01*
X132784520Y-43677151D01*
X132797133Y-43656107D01*
X132811747Y-43636402D01*
X132828223Y-43618223D01*
X132846402Y-43601747D01*
X132866107Y-43587133D01*
X132887151Y-43574520D01*
X132909329Y-43564030D01*
X132932429Y-43555765D01*
X132956227Y-43549804D01*
X132980496Y-43546204D01*
X133005000Y-43545000D01*
X133575000Y-43545000D01*
X133599504Y-43546204D01*
G37*
G36*
X134919504Y-43546204D02*
G01*
X134943773Y-43549804D01*
X134967571Y-43555765D01*
X134990671Y-43564030D01*
X135012849Y-43574520D01*
X135033893Y-43587133D01*
X135053598Y-43601747D01*
X135071777Y-43618223D01*
X135088253Y-43636402D01*
X135102867Y-43656107D01*
X135115480Y-43677151D01*
X135125970Y-43699329D01*
X135134235Y-43722429D01*
X135140196Y-43746227D01*
X135143796Y-43770496D01*
X135145000Y-43795000D01*
X135145000Y-44365000D01*
X135143796Y-44389504D01*
X135140196Y-44413773D01*
X135134235Y-44437571D01*
X135125970Y-44460671D01*
X135115480Y-44482849D01*
X135102867Y-44503893D01*
X135088253Y-44523598D01*
X135071777Y-44541777D01*
X135053598Y-44558253D01*
X135033893Y-44572867D01*
X135012849Y-44585480D01*
X134990671Y-44595970D01*
X134967571Y-44604235D01*
X134943773Y-44610196D01*
X134919504Y-44613796D01*
X134895000Y-44615000D01*
X134325000Y-44615000D01*
X134300496Y-44613796D01*
X134276227Y-44610196D01*
X134252429Y-44604235D01*
X134229329Y-44595970D01*
X134207151Y-44585480D01*
X134186107Y-44572867D01*
X134166402Y-44558253D01*
X134148223Y-44541777D01*
X134131747Y-44523598D01*
X134117133Y-44503893D01*
X134104520Y-44482849D01*
X134094030Y-44460671D01*
X134085765Y-44437571D01*
X134079804Y-44413773D01*
X134076204Y-44389504D01*
X134075000Y-44365000D01*
X134075000Y-43795000D01*
X134076204Y-43770496D01*
X134079804Y-43746227D01*
X134085765Y-43722429D01*
X134094030Y-43699329D01*
X134104520Y-43677151D01*
X134117133Y-43656107D01*
X134131747Y-43636402D01*
X134148223Y-43618223D01*
X134166402Y-43601747D01*
X134186107Y-43587133D01*
X134207151Y-43574520D01*
X134229329Y-43564030D01*
X134252429Y-43555765D01*
X134276227Y-43549804D01*
X134300496Y-43546204D01*
X134325000Y-43545000D01*
X134895000Y-43545000D01*
X134919504Y-43546204D01*
G37*
G36*
X136239504Y-43546204D02*
G01*
X136263773Y-43549804D01*
X136287571Y-43555765D01*
X136310671Y-43564030D01*
X136332849Y-43574520D01*
X136353893Y-43587133D01*
X136373598Y-43601747D01*
X136391777Y-43618223D01*
X136408253Y-43636402D01*
X136422867Y-43656107D01*
X136435480Y-43677151D01*
X136445970Y-43699329D01*
X136454235Y-43722429D01*
X136460196Y-43746227D01*
X136463796Y-43770496D01*
X136465000Y-43795000D01*
X136465000Y-44365000D01*
X136463796Y-44389504D01*
X136460196Y-44413773D01*
X136454235Y-44437571D01*
X136445970Y-44460671D01*
X136435480Y-44482849D01*
X136422867Y-44503893D01*
X136408253Y-44523598D01*
X136391777Y-44541777D01*
X136373598Y-44558253D01*
X136353893Y-44572867D01*
X136332849Y-44585480D01*
X136310671Y-44595970D01*
X136287571Y-44604235D01*
X136263773Y-44610196D01*
X136239504Y-44613796D01*
X136215000Y-44615000D01*
X135645000Y-44615000D01*
X135620496Y-44613796D01*
X135596227Y-44610196D01*
X135572429Y-44604235D01*
X135549329Y-44595970D01*
X135527151Y-44585480D01*
X135506107Y-44572867D01*
X135486402Y-44558253D01*
X135468223Y-44541777D01*
X135451747Y-44523598D01*
X135437133Y-44503893D01*
X135424520Y-44482849D01*
X135414030Y-44460671D01*
X135405765Y-44437571D01*
X135399804Y-44413773D01*
X135396204Y-44389504D01*
X135395000Y-44365000D01*
X135395000Y-43795000D01*
X135396204Y-43770496D01*
X135399804Y-43746227D01*
X135405765Y-43722429D01*
X135414030Y-43699329D01*
X135424520Y-43677151D01*
X135437133Y-43656107D01*
X135451747Y-43636402D01*
X135468223Y-43618223D01*
X135486402Y-43601747D01*
X135506107Y-43587133D01*
X135527151Y-43574520D01*
X135549329Y-43564030D01*
X135572429Y-43555765D01*
X135596227Y-43549804D01*
X135620496Y-43546204D01*
X135645000Y-43545000D01*
X136215000Y-43545000D01*
X136239504Y-43546204D01*
G37*
G36*
X132279504Y-42226204D02*
G01*
X132303773Y-42229804D01*
X132327571Y-42235765D01*
X132350671Y-42244030D01*
X132372849Y-42254520D01*
X132393893Y-42267133D01*
X132413598Y-42281747D01*
X132431777Y-42298223D01*
X132448253Y-42316402D01*
X132462867Y-42336107D01*
X132475480Y-42357151D01*
X132485970Y-42379329D01*
X132494235Y-42402429D01*
X132500196Y-42426227D01*
X132503796Y-42450496D01*
X132505000Y-42475000D01*
X132505000Y-43045000D01*
X132503796Y-43069504D01*
X132500196Y-43093773D01*
X132494235Y-43117571D01*
X132485970Y-43140671D01*
X132475480Y-43162849D01*
X132462867Y-43183893D01*
X132448253Y-43203598D01*
X132431777Y-43221777D01*
X132413598Y-43238253D01*
X132393893Y-43252867D01*
X132372849Y-43265480D01*
X132350671Y-43275970D01*
X132327571Y-43284235D01*
X132303773Y-43290196D01*
X132279504Y-43293796D01*
X132255000Y-43295000D01*
X131685000Y-43295000D01*
X131660496Y-43293796D01*
X131636227Y-43290196D01*
X131612429Y-43284235D01*
X131589329Y-43275970D01*
X131567151Y-43265480D01*
X131546107Y-43252867D01*
X131526402Y-43238253D01*
X131508223Y-43221777D01*
X131491747Y-43203598D01*
X131477133Y-43183893D01*
X131464520Y-43162849D01*
X131454030Y-43140671D01*
X131445765Y-43117571D01*
X131439804Y-43093773D01*
X131436204Y-43069504D01*
X131435000Y-43045000D01*
X131435000Y-42475000D01*
X131436204Y-42450496D01*
X131439804Y-42426227D01*
X131445765Y-42402429D01*
X131454030Y-42379329D01*
X131464520Y-42357151D01*
X131477133Y-42336107D01*
X131491747Y-42316402D01*
X131508223Y-42298223D01*
X131526402Y-42281747D01*
X131546107Y-42267133D01*
X131567151Y-42254520D01*
X131589329Y-42244030D01*
X131612429Y-42235765D01*
X131636227Y-42229804D01*
X131660496Y-42226204D01*
X131685000Y-42225000D01*
X132255000Y-42225000D01*
X132279504Y-42226204D01*
G37*
G36*
X133599504Y-42226204D02*
G01*
X133623773Y-42229804D01*
X133647571Y-42235765D01*
X133670671Y-42244030D01*
X133692849Y-42254520D01*
X133713893Y-42267133D01*
X133733598Y-42281747D01*
X133751777Y-42298223D01*
X133768253Y-42316402D01*
X133782867Y-42336107D01*
X133795480Y-42357151D01*
X133805970Y-42379329D01*
X133814235Y-42402429D01*
X133820196Y-42426227D01*
X133823796Y-42450496D01*
X133825000Y-42475000D01*
X133825000Y-43045000D01*
X133823796Y-43069504D01*
X133820196Y-43093773D01*
X133814235Y-43117571D01*
X133805970Y-43140671D01*
X133795480Y-43162849D01*
X133782867Y-43183893D01*
X133768253Y-43203598D01*
X133751777Y-43221777D01*
X133733598Y-43238253D01*
X133713893Y-43252867D01*
X133692849Y-43265480D01*
X133670671Y-43275970D01*
X133647571Y-43284235D01*
X133623773Y-43290196D01*
X133599504Y-43293796D01*
X133575000Y-43295000D01*
X133005000Y-43295000D01*
X132980496Y-43293796D01*
X132956227Y-43290196D01*
X132932429Y-43284235D01*
X132909329Y-43275970D01*
X132887151Y-43265480D01*
X132866107Y-43252867D01*
X132846402Y-43238253D01*
X132828223Y-43221777D01*
X132811747Y-43203598D01*
X132797133Y-43183893D01*
X132784520Y-43162849D01*
X132774030Y-43140671D01*
X132765765Y-43117571D01*
X132759804Y-43093773D01*
X132756204Y-43069504D01*
X132755000Y-43045000D01*
X132755000Y-42475000D01*
X132756204Y-42450496D01*
X132759804Y-42426227D01*
X132765765Y-42402429D01*
X132774030Y-42379329D01*
X132784520Y-42357151D01*
X132797133Y-42336107D01*
X132811747Y-42316402D01*
X132828223Y-42298223D01*
X132846402Y-42281747D01*
X132866107Y-42267133D01*
X132887151Y-42254520D01*
X132909329Y-42244030D01*
X132932429Y-42235765D01*
X132956227Y-42229804D01*
X132980496Y-42226204D01*
X133005000Y-42225000D01*
X133575000Y-42225000D01*
X133599504Y-42226204D01*
G37*
G36*
X134919504Y-42226204D02*
G01*
X134943773Y-42229804D01*
X134967571Y-42235765D01*
X134990671Y-42244030D01*
X135012849Y-42254520D01*
X135033893Y-42267133D01*
X135053598Y-42281747D01*
X135071777Y-42298223D01*
X135088253Y-42316402D01*
X135102867Y-42336107D01*
X135115480Y-42357151D01*
X135125970Y-42379329D01*
X135134235Y-42402429D01*
X135140196Y-42426227D01*
X135143796Y-42450496D01*
X135145000Y-42475000D01*
X135145000Y-43045000D01*
X135143796Y-43069504D01*
X135140196Y-43093773D01*
X135134235Y-43117571D01*
X135125970Y-43140671D01*
X135115480Y-43162849D01*
X135102867Y-43183893D01*
X135088253Y-43203598D01*
X135071777Y-43221777D01*
X135053598Y-43238253D01*
X135033893Y-43252867D01*
X135012849Y-43265480D01*
X134990671Y-43275970D01*
X134967571Y-43284235D01*
X134943773Y-43290196D01*
X134919504Y-43293796D01*
X134895000Y-43295000D01*
X134325000Y-43295000D01*
X134300496Y-43293796D01*
X134276227Y-43290196D01*
X134252429Y-43284235D01*
X134229329Y-43275970D01*
X134207151Y-43265480D01*
X134186107Y-43252867D01*
X134166402Y-43238253D01*
X134148223Y-43221777D01*
X134131747Y-43203598D01*
X134117133Y-43183893D01*
X134104520Y-43162849D01*
X134094030Y-43140671D01*
X134085765Y-43117571D01*
X134079804Y-43093773D01*
X134076204Y-43069504D01*
X134075000Y-43045000D01*
X134075000Y-42475000D01*
X134076204Y-42450496D01*
X134079804Y-42426227D01*
X134085765Y-42402429D01*
X134094030Y-42379329D01*
X134104520Y-42357151D01*
X134117133Y-42336107D01*
X134131747Y-42316402D01*
X134148223Y-42298223D01*
X134166402Y-42281747D01*
X134186107Y-42267133D01*
X134207151Y-42254520D01*
X134229329Y-42244030D01*
X134252429Y-42235765D01*
X134276227Y-42229804D01*
X134300496Y-42226204D01*
X134325000Y-42225000D01*
X134895000Y-42225000D01*
X134919504Y-42226204D01*
G37*
G36*
X136239504Y-42226204D02*
G01*
X136263773Y-42229804D01*
X136287571Y-42235765D01*
X136310671Y-42244030D01*
X136332849Y-42254520D01*
X136353893Y-42267133D01*
X136373598Y-42281747D01*
X136391777Y-42298223D01*
X136408253Y-42316402D01*
X136422867Y-42336107D01*
X136435480Y-42357151D01*
X136445970Y-42379329D01*
X136454235Y-42402429D01*
X136460196Y-42426227D01*
X136463796Y-42450496D01*
X136465000Y-42475000D01*
X136465000Y-43045000D01*
X136463796Y-43069504D01*
X136460196Y-43093773D01*
X136454235Y-43117571D01*
X136445970Y-43140671D01*
X136435480Y-43162849D01*
X136422867Y-43183893D01*
X136408253Y-43203598D01*
X136391777Y-43221777D01*
X136373598Y-43238253D01*
X136353893Y-43252867D01*
X136332849Y-43265480D01*
X136310671Y-43275970D01*
X136287571Y-43284235D01*
X136263773Y-43290196D01*
X136239504Y-43293796D01*
X136215000Y-43295000D01*
X135645000Y-43295000D01*
X135620496Y-43293796D01*
X135596227Y-43290196D01*
X135572429Y-43284235D01*
X135549329Y-43275970D01*
X135527151Y-43265480D01*
X135506107Y-43252867D01*
X135486402Y-43238253D01*
X135468223Y-43221777D01*
X135451747Y-43203598D01*
X135437133Y-43183893D01*
X135424520Y-43162849D01*
X135414030Y-43140671D01*
X135405765Y-43117571D01*
X135399804Y-43093773D01*
X135396204Y-43069504D01*
X135395000Y-43045000D01*
X135395000Y-42475000D01*
X135396204Y-42450496D01*
X135399804Y-42426227D01*
X135405765Y-42402429D01*
X135414030Y-42379329D01*
X135424520Y-42357151D01*
X135437133Y-42336107D01*
X135451747Y-42316402D01*
X135468223Y-42298223D01*
X135486402Y-42281747D01*
X135506107Y-42267133D01*
X135527151Y-42254520D01*
X135549329Y-42244030D01*
X135572429Y-42235765D01*
X135596227Y-42229804D01*
X135620496Y-42226204D01*
X135645000Y-42225000D01*
X136215000Y-42225000D01*
X136239504Y-42226204D01*
G37*
G36*
X132279504Y-40906204D02*
G01*
X132303773Y-40909804D01*
X132327571Y-40915765D01*
X132350671Y-40924030D01*
X132372849Y-40934520D01*
X132393893Y-40947133D01*
X132413598Y-40961747D01*
X132431777Y-40978223D01*
X132448253Y-40996402D01*
X132462867Y-41016107D01*
X132475480Y-41037151D01*
X132485970Y-41059329D01*
X132494235Y-41082429D01*
X132500196Y-41106227D01*
X132503796Y-41130496D01*
X132505000Y-41155000D01*
X132505000Y-41725000D01*
X132503796Y-41749504D01*
X132500196Y-41773773D01*
X132494235Y-41797571D01*
X132485970Y-41820671D01*
X132475480Y-41842849D01*
X132462867Y-41863893D01*
X132448253Y-41883598D01*
X132431777Y-41901777D01*
X132413598Y-41918253D01*
X132393893Y-41932867D01*
X132372849Y-41945480D01*
X132350671Y-41955970D01*
X132327571Y-41964235D01*
X132303773Y-41970196D01*
X132279504Y-41973796D01*
X132255000Y-41975000D01*
X131685000Y-41975000D01*
X131660496Y-41973796D01*
X131636227Y-41970196D01*
X131612429Y-41964235D01*
X131589329Y-41955970D01*
X131567151Y-41945480D01*
X131546107Y-41932867D01*
X131526402Y-41918253D01*
X131508223Y-41901777D01*
X131491747Y-41883598D01*
X131477133Y-41863893D01*
X131464520Y-41842849D01*
X131454030Y-41820671D01*
X131445765Y-41797571D01*
X131439804Y-41773773D01*
X131436204Y-41749504D01*
X131435000Y-41725000D01*
X131435000Y-41155000D01*
X131436204Y-41130496D01*
X131439804Y-41106227D01*
X131445765Y-41082429D01*
X131454030Y-41059329D01*
X131464520Y-41037151D01*
X131477133Y-41016107D01*
X131491747Y-40996402D01*
X131508223Y-40978223D01*
X131526402Y-40961747D01*
X131546107Y-40947133D01*
X131567151Y-40934520D01*
X131589329Y-40924030D01*
X131612429Y-40915765D01*
X131636227Y-40909804D01*
X131660496Y-40906204D01*
X131685000Y-40905000D01*
X132255000Y-40905000D01*
X132279504Y-40906204D01*
G37*
G36*
X133599504Y-40906204D02*
G01*
X133623773Y-40909804D01*
X133647571Y-40915765D01*
X133670671Y-40924030D01*
X133692849Y-40934520D01*
X133713893Y-40947133D01*
X133733598Y-40961747D01*
X133751777Y-40978223D01*
X133768253Y-40996402D01*
X133782867Y-41016107D01*
X133795480Y-41037151D01*
X133805970Y-41059329D01*
X133814235Y-41082429D01*
X133820196Y-41106227D01*
X133823796Y-41130496D01*
X133825000Y-41155000D01*
X133825000Y-41725000D01*
X133823796Y-41749504D01*
X133820196Y-41773773D01*
X133814235Y-41797571D01*
X133805970Y-41820671D01*
X133795480Y-41842849D01*
X133782867Y-41863893D01*
X133768253Y-41883598D01*
X133751777Y-41901777D01*
X133733598Y-41918253D01*
X133713893Y-41932867D01*
X133692849Y-41945480D01*
X133670671Y-41955970D01*
X133647571Y-41964235D01*
X133623773Y-41970196D01*
X133599504Y-41973796D01*
X133575000Y-41975000D01*
X133005000Y-41975000D01*
X132980496Y-41973796D01*
X132956227Y-41970196D01*
X132932429Y-41964235D01*
X132909329Y-41955970D01*
X132887151Y-41945480D01*
X132866107Y-41932867D01*
X132846402Y-41918253D01*
X132828223Y-41901777D01*
X132811747Y-41883598D01*
X132797133Y-41863893D01*
X132784520Y-41842849D01*
X132774030Y-41820671D01*
X132765765Y-41797571D01*
X132759804Y-41773773D01*
X132756204Y-41749504D01*
X132755000Y-41725000D01*
X132755000Y-41155000D01*
X132756204Y-41130496D01*
X132759804Y-41106227D01*
X132765765Y-41082429D01*
X132774030Y-41059329D01*
X132784520Y-41037151D01*
X132797133Y-41016107D01*
X132811747Y-40996402D01*
X132828223Y-40978223D01*
X132846402Y-40961747D01*
X132866107Y-40947133D01*
X132887151Y-40934520D01*
X132909329Y-40924030D01*
X132932429Y-40915765D01*
X132956227Y-40909804D01*
X132980496Y-40906204D01*
X133005000Y-40905000D01*
X133575000Y-40905000D01*
X133599504Y-40906204D01*
G37*
G36*
X134919504Y-40906204D02*
G01*
X134943773Y-40909804D01*
X134967571Y-40915765D01*
X134990671Y-40924030D01*
X135012849Y-40934520D01*
X135033893Y-40947133D01*
X135053598Y-40961747D01*
X135071777Y-40978223D01*
X135088253Y-40996402D01*
X135102867Y-41016107D01*
X135115480Y-41037151D01*
X135125970Y-41059329D01*
X135134235Y-41082429D01*
X135140196Y-41106227D01*
X135143796Y-41130496D01*
X135145000Y-41155000D01*
X135145000Y-41725000D01*
X135143796Y-41749504D01*
X135140196Y-41773773D01*
X135134235Y-41797571D01*
X135125970Y-41820671D01*
X135115480Y-41842849D01*
X135102867Y-41863893D01*
X135088253Y-41883598D01*
X135071777Y-41901777D01*
X135053598Y-41918253D01*
X135033893Y-41932867D01*
X135012849Y-41945480D01*
X134990671Y-41955970D01*
X134967571Y-41964235D01*
X134943773Y-41970196D01*
X134919504Y-41973796D01*
X134895000Y-41975000D01*
X134325000Y-41975000D01*
X134300496Y-41973796D01*
X134276227Y-41970196D01*
X134252429Y-41964235D01*
X134229329Y-41955970D01*
X134207151Y-41945480D01*
X134186107Y-41932867D01*
X134166402Y-41918253D01*
X134148223Y-41901777D01*
X134131747Y-41883598D01*
X134117133Y-41863893D01*
X134104520Y-41842849D01*
X134094030Y-41820671D01*
X134085765Y-41797571D01*
X134079804Y-41773773D01*
X134076204Y-41749504D01*
X134075000Y-41725000D01*
X134075000Y-41155000D01*
X134076204Y-41130496D01*
X134079804Y-41106227D01*
X134085765Y-41082429D01*
X134094030Y-41059329D01*
X134104520Y-41037151D01*
X134117133Y-41016107D01*
X134131747Y-40996402D01*
X134148223Y-40978223D01*
X134166402Y-40961747D01*
X134186107Y-40947133D01*
X134207151Y-40934520D01*
X134229329Y-40924030D01*
X134252429Y-40915765D01*
X134276227Y-40909804D01*
X134300496Y-40906204D01*
X134325000Y-40905000D01*
X134895000Y-40905000D01*
X134919504Y-40906204D01*
G37*
G36*
X136239504Y-40906204D02*
G01*
X136263773Y-40909804D01*
X136287571Y-40915765D01*
X136310671Y-40924030D01*
X136332849Y-40934520D01*
X136353893Y-40947133D01*
X136373598Y-40961747D01*
X136391777Y-40978223D01*
X136408253Y-40996402D01*
X136422867Y-41016107D01*
X136435480Y-41037151D01*
X136445970Y-41059329D01*
X136454235Y-41082429D01*
X136460196Y-41106227D01*
X136463796Y-41130496D01*
X136465000Y-41155000D01*
X136465000Y-41725000D01*
X136463796Y-41749504D01*
X136460196Y-41773773D01*
X136454235Y-41797571D01*
X136445970Y-41820671D01*
X136435480Y-41842849D01*
X136422867Y-41863893D01*
X136408253Y-41883598D01*
X136391777Y-41901777D01*
X136373598Y-41918253D01*
X136353893Y-41932867D01*
X136332849Y-41945480D01*
X136310671Y-41955970D01*
X136287571Y-41964235D01*
X136263773Y-41970196D01*
X136239504Y-41973796D01*
X136215000Y-41975000D01*
X135645000Y-41975000D01*
X135620496Y-41973796D01*
X135596227Y-41970196D01*
X135572429Y-41964235D01*
X135549329Y-41955970D01*
X135527151Y-41945480D01*
X135506107Y-41932867D01*
X135486402Y-41918253D01*
X135468223Y-41901777D01*
X135451747Y-41883598D01*
X135437133Y-41863893D01*
X135424520Y-41842849D01*
X135414030Y-41820671D01*
X135405765Y-41797571D01*
X135399804Y-41773773D01*
X135396204Y-41749504D01*
X135395000Y-41725000D01*
X135395000Y-41155000D01*
X135396204Y-41130496D01*
X135399804Y-41106227D01*
X135405765Y-41082429D01*
X135414030Y-41059329D01*
X135424520Y-41037151D01*
X135437133Y-41016107D01*
X135451747Y-40996402D01*
X135468223Y-40978223D01*
X135486402Y-40961747D01*
X135506107Y-40947133D01*
X135527151Y-40934520D01*
X135549329Y-40924030D01*
X135572429Y-40915765D01*
X135596227Y-40909804D01*
X135620496Y-40906204D01*
X135645000Y-40905000D01*
X136215000Y-40905000D01*
X136239504Y-40906204D01*
G37*
G36*
X132279504Y-39586204D02*
G01*
X132303773Y-39589804D01*
X132327571Y-39595765D01*
X132350671Y-39604030D01*
X132372849Y-39614520D01*
X132393893Y-39627133D01*
X132413598Y-39641747D01*
X132431777Y-39658223D01*
X132448253Y-39676402D01*
X132462867Y-39696107D01*
X132475480Y-39717151D01*
X132485970Y-39739329D01*
X132494235Y-39762429D01*
X132500196Y-39786227D01*
X132503796Y-39810496D01*
X132505000Y-39835000D01*
X132505000Y-40405000D01*
X132503796Y-40429504D01*
X132500196Y-40453773D01*
X132494235Y-40477571D01*
X132485970Y-40500671D01*
X132475480Y-40522849D01*
X132462867Y-40543893D01*
X132448253Y-40563598D01*
X132431777Y-40581777D01*
X132413598Y-40598253D01*
X132393893Y-40612867D01*
X132372849Y-40625480D01*
X132350671Y-40635970D01*
X132327571Y-40644235D01*
X132303773Y-40650196D01*
X132279504Y-40653796D01*
X132255000Y-40655000D01*
X131685000Y-40655000D01*
X131660496Y-40653796D01*
X131636227Y-40650196D01*
X131612429Y-40644235D01*
X131589329Y-40635970D01*
X131567151Y-40625480D01*
X131546107Y-40612867D01*
X131526402Y-40598253D01*
X131508223Y-40581777D01*
X131491747Y-40563598D01*
X131477133Y-40543893D01*
X131464520Y-40522849D01*
X131454030Y-40500671D01*
X131445765Y-40477571D01*
X131439804Y-40453773D01*
X131436204Y-40429504D01*
X131435000Y-40405000D01*
X131435000Y-39835000D01*
X131436204Y-39810496D01*
X131439804Y-39786227D01*
X131445765Y-39762429D01*
X131454030Y-39739329D01*
X131464520Y-39717151D01*
X131477133Y-39696107D01*
X131491747Y-39676402D01*
X131508223Y-39658223D01*
X131526402Y-39641747D01*
X131546107Y-39627133D01*
X131567151Y-39614520D01*
X131589329Y-39604030D01*
X131612429Y-39595765D01*
X131636227Y-39589804D01*
X131660496Y-39586204D01*
X131685000Y-39585000D01*
X132255000Y-39585000D01*
X132279504Y-39586204D01*
G37*
G36*
X133599504Y-39586204D02*
G01*
X133623773Y-39589804D01*
X133647571Y-39595765D01*
X133670671Y-39604030D01*
X133692849Y-39614520D01*
X133713893Y-39627133D01*
X133733598Y-39641747D01*
X133751777Y-39658223D01*
X133768253Y-39676402D01*
X133782867Y-39696107D01*
X133795480Y-39717151D01*
X133805970Y-39739329D01*
X133814235Y-39762429D01*
X133820196Y-39786227D01*
X133823796Y-39810496D01*
X133825000Y-39835000D01*
X133825000Y-40405000D01*
X133823796Y-40429504D01*
X133820196Y-40453773D01*
X133814235Y-40477571D01*
X133805970Y-40500671D01*
X133795480Y-40522849D01*
X133782867Y-40543893D01*
X133768253Y-40563598D01*
X133751777Y-40581777D01*
X133733598Y-40598253D01*
X133713893Y-40612867D01*
X133692849Y-40625480D01*
X133670671Y-40635970D01*
X133647571Y-40644235D01*
X133623773Y-40650196D01*
X133599504Y-40653796D01*
X133575000Y-40655000D01*
X133005000Y-40655000D01*
X132980496Y-40653796D01*
X132956227Y-40650196D01*
X132932429Y-40644235D01*
X132909329Y-40635970D01*
X132887151Y-40625480D01*
X132866107Y-40612867D01*
X132846402Y-40598253D01*
X132828223Y-40581777D01*
X132811747Y-40563598D01*
X132797133Y-40543893D01*
X132784520Y-40522849D01*
X132774030Y-40500671D01*
X132765765Y-40477571D01*
X132759804Y-40453773D01*
X132756204Y-40429504D01*
X132755000Y-40405000D01*
X132755000Y-39835000D01*
X132756204Y-39810496D01*
X132759804Y-39786227D01*
X132765765Y-39762429D01*
X132774030Y-39739329D01*
X132784520Y-39717151D01*
X132797133Y-39696107D01*
X132811747Y-39676402D01*
X132828223Y-39658223D01*
X132846402Y-39641747D01*
X132866107Y-39627133D01*
X132887151Y-39614520D01*
X132909329Y-39604030D01*
X132932429Y-39595765D01*
X132956227Y-39589804D01*
X132980496Y-39586204D01*
X133005000Y-39585000D01*
X133575000Y-39585000D01*
X133599504Y-39586204D01*
G37*
G36*
X134919504Y-39586204D02*
G01*
X134943773Y-39589804D01*
X134967571Y-39595765D01*
X134990671Y-39604030D01*
X135012849Y-39614520D01*
X135033893Y-39627133D01*
X135053598Y-39641747D01*
X135071777Y-39658223D01*
X135088253Y-39676402D01*
X135102867Y-39696107D01*
X135115480Y-39717151D01*
X135125970Y-39739329D01*
X135134235Y-39762429D01*
X135140196Y-39786227D01*
X135143796Y-39810496D01*
X135145000Y-39835000D01*
X135145000Y-40405000D01*
X135143796Y-40429504D01*
X135140196Y-40453773D01*
X135134235Y-40477571D01*
X135125970Y-40500671D01*
X135115480Y-40522849D01*
X135102867Y-40543893D01*
X135088253Y-40563598D01*
X135071777Y-40581777D01*
X135053598Y-40598253D01*
X135033893Y-40612867D01*
X135012849Y-40625480D01*
X134990671Y-40635970D01*
X134967571Y-40644235D01*
X134943773Y-40650196D01*
X134919504Y-40653796D01*
X134895000Y-40655000D01*
X134325000Y-40655000D01*
X134300496Y-40653796D01*
X134276227Y-40650196D01*
X134252429Y-40644235D01*
X134229329Y-40635970D01*
X134207151Y-40625480D01*
X134186107Y-40612867D01*
X134166402Y-40598253D01*
X134148223Y-40581777D01*
X134131747Y-40563598D01*
X134117133Y-40543893D01*
X134104520Y-40522849D01*
X134094030Y-40500671D01*
X134085765Y-40477571D01*
X134079804Y-40453773D01*
X134076204Y-40429504D01*
X134075000Y-40405000D01*
X134075000Y-39835000D01*
X134076204Y-39810496D01*
X134079804Y-39786227D01*
X134085765Y-39762429D01*
X134094030Y-39739329D01*
X134104520Y-39717151D01*
X134117133Y-39696107D01*
X134131747Y-39676402D01*
X134148223Y-39658223D01*
X134166402Y-39641747D01*
X134186107Y-39627133D01*
X134207151Y-39614520D01*
X134229329Y-39604030D01*
X134252429Y-39595765D01*
X134276227Y-39589804D01*
X134300496Y-39586204D01*
X134325000Y-39585000D01*
X134895000Y-39585000D01*
X134919504Y-39586204D01*
G37*
G36*
X136239504Y-39586204D02*
G01*
X136263773Y-39589804D01*
X136287571Y-39595765D01*
X136310671Y-39604030D01*
X136332849Y-39614520D01*
X136353893Y-39627133D01*
X136373598Y-39641747D01*
X136391777Y-39658223D01*
X136408253Y-39676402D01*
X136422867Y-39696107D01*
X136435480Y-39717151D01*
X136445970Y-39739329D01*
X136454235Y-39762429D01*
X136460196Y-39786227D01*
X136463796Y-39810496D01*
X136465000Y-39835000D01*
X136465000Y-40405000D01*
X136463796Y-40429504D01*
X136460196Y-40453773D01*
X136454235Y-40477571D01*
X136445970Y-40500671D01*
X136435480Y-40522849D01*
X136422867Y-40543893D01*
X136408253Y-40563598D01*
X136391777Y-40581777D01*
X136373598Y-40598253D01*
X136353893Y-40612867D01*
X136332849Y-40625480D01*
X136310671Y-40635970D01*
X136287571Y-40644235D01*
X136263773Y-40650196D01*
X136239504Y-40653796D01*
X136215000Y-40655000D01*
X135645000Y-40655000D01*
X135620496Y-40653796D01*
X135596227Y-40650196D01*
X135572429Y-40644235D01*
X135549329Y-40635970D01*
X135527151Y-40625480D01*
X135506107Y-40612867D01*
X135486402Y-40598253D01*
X135468223Y-40581777D01*
X135451747Y-40563598D01*
X135437133Y-40543893D01*
X135424520Y-40522849D01*
X135414030Y-40500671D01*
X135405765Y-40477571D01*
X135399804Y-40453773D01*
X135396204Y-40429504D01*
X135395000Y-40405000D01*
X135395000Y-39835000D01*
X135396204Y-39810496D01*
X135399804Y-39786227D01*
X135405765Y-39762429D01*
X135414030Y-39739329D01*
X135424520Y-39717151D01*
X135437133Y-39696107D01*
X135451747Y-39676402D01*
X135468223Y-39658223D01*
X135486402Y-39641747D01*
X135506107Y-39627133D01*
X135527151Y-39614520D01*
X135549329Y-39604030D01*
X135572429Y-39595765D01*
X135596227Y-39589804D01*
X135620496Y-39586204D01*
X135645000Y-39585000D01*
X136215000Y-39585000D01*
X136239504Y-39586204D01*
G37*
D15*
X136200000Y-50200000D03*
X138100000Y-50200000D03*
X138100000Y-52400000D03*
X137150000Y-52400000D03*
X136200000Y-52400000D03*
D10*
G36*
X130441958Y-47680710D02*
G01*
X130456276Y-47682834D01*
X130470317Y-47686351D01*
X130483946Y-47691228D01*
X130497031Y-47697417D01*
X130509447Y-47704858D01*
X130521073Y-47713481D01*
X130531798Y-47723202D01*
X130541519Y-47733927D01*
X130550142Y-47745553D01*
X130557583Y-47757969D01*
X130563772Y-47771054D01*
X130568649Y-47784683D01*
X130572166Y-47798724D01*
X130574290Y-47813042D01*
X130575000Y-47827500D01*
X130575000Y-48172500D01*
X130574290Y-48186958D01*
X130572166Y-48201276D01*
X130568649Y-48215317D01*
X130563772Y-48228946D01*
X130557583Y-48242031D01*
X130550142Y-48254447D01*
X130541519Y-48266073D01*
X130531798Y-48276798D01*
X130521073Y-48286519D01*
X130509447Y-48295142D01*
X130497031Y-48302583D01*
X130483946Y-48308772D01*
X130470317Y-48313649D01*
X130456276Y-48317166D01*
X130441958Y-48319290D01*
X130427500Y-48320000D01*
X130132500Y-48320000D01*
X130118042Y-48319290D01*
X130103724Y-48317166D01*
X130089683Y-48313649D01*
X130076054Y-48308772D01*
X130062969Y-48302583D01*
X130050553Y-48295142D01*
X130038927Y-48286519D01*
X130028202Y-48276798D01*
X130018481Y-48266073D01*
X130009858Y-48254447D01*
X130002417Y-48242031D01*
X129996228Y-48228946D01*
X129991351Y-48215317D01*
X129987834Y-48201276D01*
X129985710Y-48186958D01*
X129985000Y-48172500D01*
X129985000Y-47827500D01*
X129985710Y-47813042D01*
X129987834Y-47798724D01*
X129991351Y-47784683D01*
X129996228Y-47771054D01*
X130002417Y-47757969D01*
X130009858Y-47745553D01*
X130018481Y-47733927D01*
X130028202Y-47723202D01*
X130038927Y-47713481D01*
X130050553Y-47704858D01*
X130062969Y-47697417D01*
X130076054Y-47691228D01*
X130089683Y-47686351D01*
X130103724Y-47682834D01*
X130118042Y-47680710D01*
X130132500Y-47680000D01*
X130427500Y-47680000D01*
X130441958Y-47680710D01*
G37*
G36*
X131411958Y-47680710D02*
G01*
X131426276Y-47682834D01*
X131440317Y-47686351D01*
X131453946Y-47691228D01*
X131467031Y-47697417D01*
X131479447Y-47704858D01*
X131491073Y-47713481D01*
X131501798Y-47723202D01*
X131511519Y-47733927D01*
X131520142Y-47745553D01*
X131527583Y-47757969D01*
X131533772Y-47771054D01*
X131538649Y-47784683D01*
X131542166Y-47798724D01*
X131544290Y-47813042D01*
X131545000Y-47827500D01*
X131545000Y-48172500D01*
X131544290Y-48186958D01*
X131542166Y-48201276D01*
X131538649Y-48215317D01*
X131533772Y-48228946D01*
X131527583Y-48242031D01*
X131520142Y-48254447D01*
X131511519Y-48266073D01*
X131501798Y-48276798D01*
X131491073Y-48286519D01*
X131479447Y-48295142D01*
X131467031Y-48302583D01*
X131453946Y-48308772D01*
X131440317Y-48313649D01*
X131426276Y-48317166D01*
X131411958Y-48319290D01*
X131397500Y-48320000D01*
X131102500Y-48320000D01*
X131088042Y-48319290D01*
X131073724Y-48317166D01*
X131059683Y-48313649D01*
X131046054Y-48308772D01*
X131032969Y-48302583D01*
X131020553Y-48295142D01*
X131008927Y-48286519D01*
X130998202Y-48276798D01*
X130988481Y-48266073D01*
X130979858Y-48254447D01*
X130972417Y-48242031D01*
X130966228Y-48228946D01*
X130961351Y-48215317D01*
X130957834Y-48201276D01*
X130955710Y-48186958D01*
X130955000Y-48172500D01*
X130955000Y-47827500D01*
X130955710Y-47813042D01*
X130957834Y-47798724D01*
X130961351Y-47784683D01*
X130966228Y-47771054D01*
X130972417Y-47757969D01*
X130979858Y-47745553D01*
X130988481Y-47733927D01*
X130998202Y-47723202D01*
X131008927Y-47713481D01*
X131020553Y-47704858D01*
X131032969Y-47697417D01*
X131046054Y-47691228D01*
X131059683Y-47686351D01*
X131073724Y-47682834D01*
X131088042Y-47680710D01*
X131102500Y-47680000D01*
X131397500Y-47680000D01*
X131411958Y-47680710D01*
G37*
G36*
X131396958Y-53480710D02*
G01*
X131411276Y-53482834D01*
X131425317Y-53486351D01*
X131438946Y-53491228D01*
X131452031Y-53497417D01*
X131464447Y-53504858D01*
X131476073Y-53513481D01*
X131486798Y-53523202D01*
X131496519Y-53533927D01*
X131505142Y-53545553D01*
X131512583Y-53557969D01*
X131518772Y-53571054D01*
X131523649Y-53584683D01*
X131527166Y-53598724D01*
X131529290Y-53613042D01*
X131530000Y-53627500D01*
X131530000Y-53972500D01*
X131529290Y-53986958D01*
X131527166Y-54001276D01*
X131523649Y-54015317D01*
X131518772Y-54028946D01*
X131512583Y-54042031D01*
X131505142Y-54054447D01*
X131496519Y-54066073D01*
X131486798Y-54076798D01*
X131476073Y-54086519D01*
X131464447Y-54095142D01*
X131452031Y-54102583D01*
X131438946Y-54108772D01*
X131425317Y-54113649D01*
X131411276Y-54117166D01*
X131396958Y-54119290D01*
X131382500Y-54120000D01*
X131087500Y-54120000D01*
X131073042Y-54119290D01*
X131058724Y-54117166D01*
X131044683Y-54113649D01*
X131031054Y-54108772D01*
X131017969Y-54102583D01*
X131005553Y-54095142D01*
X130993927Y-54086519D01*
X130983202Y-54076798D01*
X130973481Y-54066073D01*
X130964858Y-54054447D01*
X130957417Y-54042031D01*
X130951228Y-54028946D01*
X130946351Y-54015317D01*
X130942834Y-54001276D01*
X130940710Y-53986958D01*
X130940000Y-53972500D01*
X130940000Y-53627500D01*
X130940710Y-53613042D01*
X130942834Y-53598724D01*
X130946351Y-53584683D01*
X130951228Y-53571054D01*
X130957417Y-53557969D01*
X130964858Y-53545553D01*
X130973481Y-53533927D01*
X130983202Y-53523202D01*
X130993927Y-53513481D01*
X131005553Y-53504858D01*
X131017969Y-53497417D01*
X131031054Y-53491228D01*
X131044683Y-53486351D01*
X131058724Y-53482834D01*
X131073042Y-53480710D01*
X131087500Y-53480000D01*
X131382500Y-53480000D01*
X131396958Y-53480710D01*
G37*
G36*
X130426958Y-53480710D02*
G01*
X130441276Y-53482834D01*
X130455317Y-53486351D01*
X130468946Y-53491228D01*
X130482031Y-53497417D01*
X130494447Y-53504858D01*
X130506073Y-53513481D01*
X130516798Y-53523202D01*
X130526519Y-53533927D01*
X130535142Y-53545553D01*
X130542583Y-53557969D01*
X130548772Y-53571054D01*
X130553649Y-53584683D01*
X130557166Y-53598724D01*
X130559290Y-53613042D01*
X130560000Y-53627500D01*
X130560000Y-53972500D01*
X130559290Y-53986958D01*
X130557166Y-54001276D01*
X130553649Y-54015317D01*
X130548772Y-54028946D01*
X130542583Y-54042031D01*
X130535142Y-54054447D01*
X130526519Y-54066073D01*
X130516798Y-54076798D01*
X130506073Y-54086519D01*
X130494447Y-54095142D01*
X130482031Y-54102583D01*
X130468946Y-54108772D01*
X130455317Y-54113649D01*
X130441276Y-54117166D01*
X130426958Y-54119290D01*
X130412500Y-54120000D01*
X130117500Y-54120000D01*
X130103042Y-54119290D01*
X130088724Y-54117166D01*
X130074683Y-54113649D01*
X130061054Y-54108772D01*
X130047969Y-54102583D01*
X130035553Y-54095142D01*
X130023927Y-54086519D01*
X130013202Y-54076798D01*
X130003481Y-54066073D01*
X129994858Y-54054447D01*
X129987417Y-54042031D01*
X129981228Y-54028946D01*
X129976351Y-54015317D01*
X129972834Y-54001276D01*
X129970710Y-53986958D01*
X129970000Y-53972500D01*
X129970000Y-53627500D01*
X129970710Y-53613042D01*
X129972834Y-53598724D01*
X129976351Y-53584683D01*
X129981228Y-53571054D01*
X129987417Y-53557969D01*
X129994858Y-53545553D01*
X130003481Y-53533927D01*
X130013202Y-53523202D01*
X130023927Y-53513481D01*
X130035553Y-53504858D01*
X130047969Y-53497417D01*
X130061054Y-53491228D01*
X130074683Y-53486351D01*
X130088724Y-53482834D01*
X130103042Y-53480710D01*
X130117500Y-53480000D01*
X130412500Y-53480000D01*
X130426958Y-53480710D01*
G37*
G36*
X130426958Y-48680710D02*
G01*
X130441276Y-48682834D01*
X130455317Y-48686351D01*
X130468946Y-48691228D01*
X130482031Y-48697417D01*
X130494447Y-48704858D01*
X130506073Y-48713481D01*
X130516798Y-48723202D01*
X130526519Y-48733927D01*
X130535142Y-48745553D01*
X130542583Y-48757969D01*
X130548772Y-48771054D01*
X130553649Y-48784683D01*
X130557166Y-48798724D01*
X130559290Y-48813042D01*
X130560000Y-48827500D01*
X130560000Y-49172500D01*
X130559290Y-49186958D01*
X130557166Y-49201276D01*
X130553649Y-49215317D01*
X130548772Y-49228946D01*
X130542583Y-49242031D01*
X130535142Y-49254447D01*
X130526519Y-49266073D01*
X130516798Y-49276798D01*
X130506073Y-49286519D01*
X130494447Y-49295142D01*
X130482031Y-49302583D01*
X130468946Y-49308772D01*
X130455317Y-49313649D01*
X130441276Y-49317166D01*
X130426958Y-49319290D01*
X130412500Y-49320000D01*
X130117500Y-49320000D01*
X130103042Y-49319290D01*
X130088724Y-49317166D01*
X130074683Y-49313649D01*
X130061054Y-49308772D01*
X130047969Y-49302583D01*
X130035553Y-49295142D01*
X130023927Y-49286519D01*
X130013202Y-49276798D01*
X130003481Y-49266073D01*
X129994858Y-49254447D01*
X129987417Y-49242031D01*
X129981228Y-49228946D01*
X129976351Y-49215317D01*
X129972834Y-49201276D01*
X129970710Y-49186958D01*
X129970000Y-49172500D01*
X129970000Y-48827500D01*
X129970710Y-48813042D01*
X129972834Y-48798724D01*
X129976351Y-48784683D01*
X129981228Y-48771054D01*
X129987417Y-48757969D01*
X129994858Y-48745553D01*
X130003481Y-48733927D01*
X130013202Y-48723202D01*
X130023927Y-48713481D01*
X130035553Y-48704858D01*
X130047969Y-48697417D01*
X130061054Y-48691228D01*
X130074683Y-48686351D01*
X130088724Y-48682834D01*
X130103042Y-48680710D01*
X130117500Y-48680000D01*
X130412500Y-48680000D01*
X130426958Y-48680710D01*
G37*
G36*
X131396958Y-48680710D02*
G01*
X131411276Y-48682834D01*
X131425317Y-48686351D01*
X131438946Y-48691228D01*
X131452031Y-48697417D01*
X131464447Y-48704858D01*
X131476073Y-48713481D01*
X131486798Y-48723202D01*
X131496519Y-48733927D01*
X131505142Y-48745553D01*
X131512583Y-48757969D01*
X131518772Y-48771054D01*
X131523649Y-48784683D01*
X131527166Y-48798724D01*
X131529290Y-48813042D01*
X131530000Y-48827500D01*
X131530000Y-49172500D01*
X131529290Y-49186958D01*
X131527166Y-49201276D01*
X131523649Y-49215317D01*
X131518772Y-49228946D01*
X131512583Y-49242031D01*
X131505142Y-49254447D01*
X131496519Y-49266073D01*
X131486798Y-49276798D01*
X131476073Y-49286519D01*
X131464447Y-49295142D01*
X131452031Y-49302583D01*
X131438946Y-49308772D01*
X131425317Y-49313649D01*
X131411276Y-49317166D01*
X131396958Y-49319290D01*
X131382500Y-49320000D01*
X131087500Y-49320000D01*
X131073042Y-49319290D01*
X131058724Y-49317166D01*
X131044683Y-49313649D01*
X131031054Y-49308772D01*
X131017969Y-49302583D01*
X131005553Y-49295142D01*
X130993927Y-49286519D01*
X130983202Y-49276798D01*
X130973481Y-49266073D01*
X130964858Y-49254447D01*
X130957417Y-49242031D01*
X130951228Y-49228946D01*
X130946351Y-49215317D01*
X130942834Y-49201276D01*
X130940710Y-49186958D01*
X130940000Y-49172500D01*
X130940000Y-48827500D01*
X130940710Y-48813042D01*
X130942834Y-48798724D01*
X130946351Y-48784683D01*
X130951228Y-48771054D01*
X130957417Y-48757969D01*
X130964858Y-48745553D01*
X130973481Y-48733927D01*
X130983202Y-48723202D01*
X130993927Y-48713481D01*
X131005553Y-48704858D01*
X131017969Y-48697417D01*
X131031054Y-48691228D01*
X131044683Y-48686351D01*
X131058724Y-48682834D01*
X131073042Y-48680710D01*
X131087500Y-48680000D01*
X131382500Y-48680000D01*
X131396958Y-48680710D01*
G37*
G36*
X128536958Y-50620710D02*
G01*
X128551276Y-50622834D01*
X128565317Y-50626351D01*
X128578946Y-50631228D01*
X128592031Y-50637417D01*
X128604447Y-50644858D01*
X128616073Y-50653481D01*
X128626798Y-50663202D01*
X128636519Y-50673927D01*
X128645142Y-50685553D01*
X128652583Y-50697969D01*
X128658772Y-50711054D01*
X128663649Y-50724683D01*
X128667166Y-50738724D01*
X128669290Y-50753042D01*
X128670000Y-50767500D01*
X128670000Y-51062500D01*
X128669290Y-51076958D01*
X128667166Y-51091276D01*
X128663649Y-51105317D01*
X128658772Y-51118946D01*
X128652583Y-51132031D01*
X128645142Y-51144447D01*
X128636519Y-51156073D01*
X128626798Y-51166798D01*
X128616073Y-51176519D01*
X128604447Y-51185142D01*
X128592031Y-51192583D01*
X128578946Y-51198772D01*
X128565317Y-51203649D01*
X128551276Y-51207166D01*
X128536958Y-51209290D01*
X128522500Y-51210000D01*
X128177500Y-51210000D01*
X128163042Y-51209290D01*
X128148724Y-51207166D01*
X128134683Y-51203649D01*
X128121054Y-51198772D01*
X128107969Y-51192583D01*
X128095553Y-51185142D01*
X128083927Y-51176519D01*
X128073202Y-51166798D01*
X128063481Y-51156073D01*
X128054858Y-51144447D01*
X128047417Y-51132031D01*
X128041228Y-51118946D01*
X128036351Y-51105317D01*
X128032834Y-51091276D01*
X128030710Y-51076958D01*
X128030000Y-51062500D01*
X128030000Y-50767500D01*
X128030710Y-50753042D01*
X128032834Y-50738724D01*
X128036351Y-50724683D01*
X128041228Y-50711054D01*
X128047417Y-50697969D01*
X128054858Y-50685553D01*
X128063481Y-50673927D01*
X128073202Y-50663202D01*
X128083927Y-50653481D01*
X128095553Y-50644858D01*
X128107969Y-50637417D01*
X128121054Y-50631228D01*
X128134683Y-50626351D01*
X128148724Y-50622834D01*
X128163042Y-50620710D01*
X128177500Y-50620000D01*
X128522500Y-50620000D01*
X128536958Y-50620710D01*
G37*
G36*
X128536958Y-51590710D02*
G01*
X128551276Y-51592834D01*
X128565317Y-51596351D01*
X128578946Y-51601228D01*
X128592031Y-51607417D01*
X128604447Y-51614858D01*
X128616073Y-51623481D01*
X128626798Y-51633202D01*
X128636519Y-51643927D01*
X128645142Y-51655553D01*
X128652583Y-51667969D01*
X128658772Y-51681054D01*
X128663649Y-51694683D01*
X128667166Y-51708724D01*
X128669290Y-51723042D01*
X128670000Y-51737500D01*
X128670000Y-52032500D01*
X128669290Y-52046958D01*
X128667166Y-52061276D01*
X128663649Y-52075317D01*
X128658772Y-52088946D01*
X128652583Y-52102031D01*
X128645142Y-52114447D01*
X128636519Y-52126073D01*
X128626798Y-52136798D01*
X128616073Y-52146519D01*
X128604447Y-52155142D01*
X128592031Y-52162583D01*
X128578946Y-52168772D01*
X128565317Y-52173649D01*
X128551276Y-52177166D01*
X128536958Y-52179290D01*
X128522500Y-52180000D01*
X128177500Y-52180000D01*
X128163042Y-52179290D01*
X128148724Y-52177166D01*
X128134683Y-52173649D01*
X128121054Y-52168772D01*
X128107969Y-52162583D01*
X128095553Y-52155142D01*
X128083927Y-52146519D01*
X128073202Y-52136798D01*
X128063481Y-52126073D01*
X128054858Y-52114447D01*
X128047417Y-52102031D01*
X128041228Y-52088946D01*
X128036351Y-52075317D01*
X128032834Y-52061276D01*
X128030710Y-52046958D01*
X128030000Y-52032500D01*
X128030000Y-51737500D01*
X128030710Y-51723042D01*
X128032834Y-51708724D01*
X128036351Y-51694683D01*
X128041228Y-51681054D01*
X128047417Y-51667969D01*
X128054858Y-51655553D01*
X128063481Y-51643927D01*
X128073202Y-51633202D01*
X128083927Y-51623481D01*
X128095553Y-51614858D01*
X128107969Y-51607417D01*
X128121054Y-51601228D01*
X128134683Y-51596351D01*
X128148724Y-51592834D01*
X128163042Y-51590710D01*
X128177500Y-51590000D01*
X128522500Y-51590000D01*
X128536958Y-51590710D01*
G37*
G36*
X139836958Y-50520710D02*
G01*
X139851276Y-50522834D01*
X139865317Y-50526351D01*
X139878946Y-50531228D01*
X139892031Y-50537417D01*
X139904447Y-50544858D01*
X139916073Y-50553481D01*
X139926798Y-50563202D01*
X139936519Y-50573927D01*
X139945142Y-50585553D01*
X139952583Y-50597969D01*
X139958772Y-50611054D01*
X139963649Y-50624683D01*
X139967166Y-50638724D01*
X139969290Y-50653042D01*
X139970000Y-50667500D01*
X139970000Y-50962500D01*
X139969290Y-50976958D01*
X139967166Y-50991276D01*
X139963649Y-51005317D01*
X139958772Y-51018946D01*
X139952583Y-51032031D01*
X139945142Y-51044447D01*
X139936519Y-51056073D01*
X139926798Y-51066798D01*
X139916073Y-51076519D01*
X139904447Y-51085142D01*
X139892031Y-51092583D01*
X139878946Y-51098772D01*
X139865317Y-51103649D01*
X139851276Y-51107166D01*
X139836958Y-51109290D01*
X139822500Y-51110000D01*
X139477500Y-51110000D01*
X139463042Y-51109290D01*
X139448724Y-51107166D01*
X139434683Y-51103649D01*
X139421054Y-51098772D01*
X139407969Y-51092583D01*
X139395553Y-51085142D01*
X139383927Y-51076519D01*
X139373202Y-51066798D01*
X139363481Y-51056073D01*
X139354858Y-51044447D01*
X139347417Y-51032031D01*
X139341228Y-51018946D01*
X139336351Y-51005317D01*
X139332834Y-50991276D01*
X139330710Y-50976958D01*
X139330000Y-50962500D01*
X139330000Y-50667500D01*
X139330710Y-50653042D01*
X139332834Y-50638724D01*
X139336351Y-50624683D01*
X139341228Y-50611054D01*
X139347417Y-50597969D01*
X139354858Y-50585553D01*
X139363481Y-50573927D01*
X139373202Y-50563202D01*
X139383927Y-50553481D01*
X139395553Y-50544858D01*
X139407969Y-50537417D01*
X139421054Y-50531228D01*
X139434683Y-50526351D01*
X139448724Y-50522834D01*
X139463042Y-50520710D01*
X139477500Y-50520000D01*
X139822500Y-50520000D01*
X139836958Y-50520710D01*
G37*
G36*
X139836958Y-51490710D02*
G01*
X139851276Y-51492834D01*
X139865317Y-51496351D01*
X139878946Y-51501228D01*
X139892031Y-51507417D01*
X139904447Y-51514858D01*
X139916073Y-51523481D01*
X139926798Y-51533202D01*
X139936519Y-51543927D01*
X139945142Y-51555553D01*
X139952583Y-51567969D01*
X139958772Y-51581054D01*
X139963649Y-51594683D01*
X139967166Y-51608724D01*
X139969290Y-51623042D01*
X139970000Y-51637500D01*
X139970000Y-51932500D01*
X139969290Y-51946958D01*
X139967166Y-51961276D01*
X139963649Y-51975317D01*
X139958772Y-51988946D01*
X139952583Y-52002031D01*
X139945142Y-52014447D01*
X139936519Y-52026073D01*
X139926798Y-52036798D01*
X139916073Y-52046519D01*
X139904447Y-52055142D01*
X139892031Y-52062583D01*
X139878946Y-52068772D01*
X139865317Y-52073649D01*
X139851276Y-52077166D01*
X139836958Y-52079290D01*
X139822500Y-52080000D01*
X139477500Y-52080000D01*
X139463042Y-52079290D01*
X139448724Y-52077166D01*
X139434683Y-52073649D01*
X139421054Y-52068772D01*
X139407969Y-52062583D01*
X139395553Y-52055142D01*
X139383927Y-52046519D01*
X139373202Y-52036798D01*
X139363481Y-52026073D01*
X139354858Y-52014447D01*
X139347417Y-52002031D01*
X139341228Y-51988946D01*
X139336351Y-51975317D01*
X139332834Y-51961276D01*
X139330710Y-51946958D01*
X139330000Y-51932500D01*
X139330000Y-51637500D01*
X139330710Y-51623042D01*
X139332834Y-51608724D01*
X139336351Y-51594683D01*
X139341228Y-51581054D01*
X139347417Y-51567969D01*
X139354858Y-51555553D01*
X139363481Y-51543927D01*
X139373202Y-51533202D01*
X139383927Y-51523481D01*
X139395553Y-51514858D01*
X139407969Y-51507417D01*
X139421054Y-51501228D01*
X139434683Y-51496351D01*
X139448724Y-51492834D01*
X139463042Y-51490710D01*
X139477500Y-51490000D01*
X139822500Y-51490000D01*
X139836958Y-51490710D01*
G37*
D16*
X131750000Y-51300000D03*
X129750000Y-52250000D03*
X129750000Y-50350000D03*
D10*
G36*
X133626958Y-50880710D02*
G01*
X133641276Y-50882834D01*
X133655317Y-50886351D01*
X133668946Y-50891228D01*
X133682031Y-50897417D01*
X133694447Y-50904858D01*
X133706073Y-50913481D01*
X133716798Y-50923202D01*
X133726519Y-50933927D01*
X133735142Y-50945553D01*
X133742583Y-50957969D01*
X133748772Y-50971054D01*
X133753649Y-50984683D01*
X133757166Y-50998724D01*
X133759290Y-51013042D01*
X133760000Y-51027500D01*
X133760000Y-51372500D01*
X133759290Y-51386958D01*
X133757166Y-51401276D01*
X133753649Y-51415317D01*
X133748772Y-51428946D01*
X133742583Y-51442031D01*
X133735142Y-51454447D01*
X133726519Y-51466073D01*
X133716798Y-51476798D01*
X133706073Y-51486519D01*
X133694447Y-51495142D01*
X133682031Y-51502583D01*
X133668946Y-51508772D01*
X133655317Y-51513649D01*
X133641276Y-51517166D01*
X133626958Y-51519290D01*
X133612500Y-51520000D01*
X133317500Y-51520000D01*
X133303042Y-51519290D01*
X133288724Y-51517166D01*
X133274683Y-51513649D01*
X133261054Y-51508772D01*
X133247969Y-51502583D01*
X133235553Y-51495142D01*
X133223927Y-51486519D01*
X133213202Y-51476798D01*
X133203481Y-51466073D01*
X133194858Y-51454447D01*
X133187417Y-51442031D01*
X133181228Y-51428946D01*
X133176351Y-51415317D01*
X133172834Y-51401276D01*
X133170710Y-51386958D01*
X133170000Y-51372500D01*
X133170000Y-51027500D01*
X133170710Y-51013042D01*
X133172834Y-50998724D01*
X133176351Y-50984683D01*
X133181228Y-50971054D01*
X133187417Y-50957969D01*
X133194858Y-50945553D01*
X133203481Y-50933927D01*
X133213202Y-50923202D01*
X133223927Y-50913481D01*
X133235553Y-50904858D01*
X133247969Y-50897417D01*
X133261054Y-50891228D01*
X133274683Y-50886351D01*
X133288724Y-50882834D01*
X133303042Y-50880710D01*
X133317500Y-50880000D01*
X133612500Y-50880000D01*
X133626958Y-50880710D01*
G37*
G36*
X134596958Y-50880710D02*
G01*
X134611276Y-50882834D01*
X134625317Y-50886351D01*
X134638946Y-50891228D01*
X134652031Y-50897417D01*
X134664447Y-50904858D01*
X134676073Y-50913481D01*
X134686798Y-50923202D01*
X134696519Y-50933927D01*
X134705142Y-50945553D01*
X134712583Y-50957969D01*
X134718772Y-50971054D01*
X134723649Y-50984683D01*
X134727166Y-50998724D01*
X134729290Y-51013042D01*
X134730000Y-51027500D01*
X134730000Y-51372500D01*
X134729290Y-51386958D01*
X134727166Y-51401276D01*
X134723649Y-51415317D01*
X134718772Y-51428946D01*
X134712583Y-51442031D01*
X134705142Y-51454447D01*
X134696519Y-51466073D01*
X134686798Y-51476798D01*
X134676073Y-51486519D01*
X134664447Y-51495142D01*
X134652031Y-51502583D01*
X134638946Y-51508772D01*
X134625317Y-51513649D01*
X134611276Y-51517166D01*
X134596958Y-51519290D01*
X134582500Y-51520000D01*
X134287500Y-51520000D01*
X134273042Y-51519290D01*
X134258724Y-51517166D01*
X134244683Y-51513649D01*
X134231054Y-51508772D01*
X134217969Y-51502583D01*
X134205553Y-51495142D01*
X134193927Y-51486519D01*
X134183202Y-51476798D01*
X134173481Y-51466073D01*
X134164858Y-51454447D01*
X134157417Y-51442031D01*
X134151228Y-51428946D01*
X134146351Y-51415317D01*
X134142834Y-51401276D01*
X134140710Y-51386958D01*
X134140000Y-51372500D01*
X134140000Y-51027500D01*
X134140710Y-51013042D01*
X134142834Y-50998724D01*
X134146351Y-50984683D01*
X134151228Y-50971054D01*
X134157417Y-50957969D01*
X134164858Y-50945553D01*
X134173481Y-50933927D01*
X134183202Y-50923202D01*
X134193927Y-50913481D01*
X134205553Y-50904858D01*
X134217969Y-50897417D01*
X134231054Y-50891228D01*
X134244683Y-50886351D01*
X134258724Y-50882834D01*
X134273042Y-50880710D01*
X134287500Y-50880000D01*
X134582500Y-50880000D01*
X134596958Y-50880710D01*
G37*
G36*
X138177691Y-48026053D02*
G01*
X138198926Y-48029203D01*
X138219750Y-48034419D01*
X138239962Y-48041651D01*
X138259368Y-48050830D01*
X138277781Y-48061866D01*
X138295024Y-48074654D01*
X138310930Y-48089070D01*
X138325346Y-48104976D01*
X138338134Y-48122219D01*
X138349170Y-48140632D01*
X138358349Y-48160038D01*
X138365581Y-48180250D01*
X138370797Y-48201074D01*
X138373947Y-48222309D01*
X138375000Y-48243750D01*
X138375000Y-48756250D01*
X138373947Y-48777691D01*
X138370797Y-48798926D01*
X138365581Y-48819750D01*
X138358349Y-48839962D01*
X138349170Y-48859368D01*
X138338134Y-48877781D01*
X138325346Y-48895024D01*
X138310930Y-48910930D01*
X138295024Y-48925346D01*
X138277781Y-48938134D01*
X138259368Y-48949170D01*
X138239962Y-48958349D01*
X138219750Y-48965581D01*
X138198926Y-48970797D01*
X138177691Y-48973947D01*
X138156250Y-48975000D01*
X137718750Y-48975000D01*
X137697309Y-48973947D01*
X137676074Y-48970797D01*
X137655250Y-48965581D01*
X137635038Y-48958349D01*
X137615632Y-48949170D01*
X137597219Y-48938134D01*
X137579976Y-48925346D01*
X137564070Y-48910930D01*
X137549654Y-48895024D01*
X137536866Y-48877781D01*
X137525830Y-48859368D01*
X137516651Y-48839962D01*
X137509419Y-48819750D01*
X137504203Y-48798926D01*
X137501053Y-48777691D01*
X137500000Y-48756250D01*
X137500000Y-48243750D01*
X137501053Y-48222309D01*
X137504203Y-48201074D01*
X137509419Y-48180250D01*
X137516651Y-48160038D01*
X137525830Y-48140632D01*
X137536866Y-48122219D01*
X137549654Y-48104976D01*
X137564070Y-48089070D01*
X137579976Y-48074654D01*
X137597219Y-48061866D01*
X137615632Y-48050830D01*
X137635038Y-48041651D01*
X137655250Y-48034419D01*
X137676074Y-48029203D01*
X137697309Y-48026053D01*
X137718750Y-48025000D01*
X138156250Y-48025000D01*
X138177691Y-48026053D01*
G37*
G36*
X136602691Y-48026053D02*
G01*
X136623926Y-48029203D01*
X136644750Y-48034419D01*
X136664962Y-48041651D01*
X136684368Y-48050830D01*
X136702781Y-48061866D01*
X136720024Y-48074654D01*
X136735930Y-48089070D01*
X136750346Y-48104976D01*
X136763134Y-48122219D01*
X136774170Y-48140632D01*
X136783349Y-48160038D01*
X136790581Y-48180250D01*
X136795797Y-48201074D01*
X136798947Y-48222309D01*
X136800000Y-48243750D01*
X136800000Y-48756250D01*
X136798947Y-48777691D01*
X136795797Y-48798926D01*
X136790581Y-48819750D01*
X136783349Y-48839962D01*
X136774170Y-48859368D01*
X136763134Y-48877781D01*
X136750346Y-48895024D01*
X136735930Y-48910930D01*
X136720024Y-48925346D01*
X136702781Y-48938134D01*
X136684368Y-48949170D01*
X136664962Y-48958349D01*
X136644750Y-48965581D01*
X136623926Y-48970797D01*
X136602691Y-48973947D01*
X136581250Y-48975000D01*
X136143750Y-48975000D01*
X136122309Y-48973947D01*
X136101074Y-48970797D01*
X136080250Y-48965581D01*
X136060038Y-48958349D01*
X136040632Y-48949170D01*
X136022219Y-48938134D01*
X136004976Y-48925346D01*
X135989070Y-48910930D01*
X135974654Y-48895024D01*
X135961866Y-48877781D01*
X135950830Y-48859368D01*
X135941651Y-48839962D01*
X135934419Y-48819750D01*
X135929203Y-48798926D01*
X135926053Y-48777691D01*
X135925000Y-48756250D01*
X135925000Y-48243750D01*
X135926053Y-48222309D01*
X135929203Y-48201074D01*
X135934419Y-48180250D01*
X135941651Y-48160038D01*
X135950830Y-48140632D01*
X135961866Y-48122219D01*
X135974654Y-48104976D01*
X135989070Y-48089070D01*
X136004976Y-48074654D01*
X136022219Y-48061866D01*
X136040632Y-48050830D01*
X136060038Y-48041651D01*
X136080250Y-48034419D01*
X136101074Y-48029203D01*
X136122309Y-48026053D01*
X136143750Y-48025000D01*
X136581250Y-48025000D01*
X136602691Y-48026053D01*
G37*
G36*
X138177691Y-53626053D02*
G01*
X138198926Y-53629203D01*
X138219750Y-53634419D01*
X138239962Y-53641651D01*
X138259368Y-53650830D01*
X138277781Y-53661866D01*
X138295024Y-53674654D01*
X138310930Y-53689070D01*
X138325346Y-53704976D01*
X138338134Y-53722219D01*
X138349170Y-53740632D01*
X138358349Y-53760038D01*
X138365581Y-53780250D01*
X138370797Y-53801074D01*
X138373947Y-53822309D01*
X138375000Y-53843750D01*
X138375000Y-54356250D01*
X138373947Y-54377691D01*
X138370797Y-54398926D01*
X138365581Y-54419750D01*
X138358349Y-54439962D01*
X138349170Y-54459368D01*
X138338134Y-54477781D01*
X138325346Y-54495024D01*
X138310930Y-54510930D01*
X138295024Y-54525346D01*
X138277781Y-54538134D01*
X138259368Y-54549170D01*
X138239962Y-54558349D01*
X138219750Y-54565581D01*
X138198926Y-54570797D01*
X138177691Y-54573947D01*
X138156250Y-54575000D01*
X137718750Y-54575000D01*
X137697309Y-54573947D01*
X137676074Y-54570797D01*
X137655250Y-54565581D01*
X137635038Y-54558349D01*
X137615632Y-54549170D01*
X137597219Y-54538134D01*
X137579976Y-54525346D01*
X137564070Y-54510930D01*
X137549654Y-54495024D01*
X137536866Y-54477781D01*
X137525830Y-54459368D01*
X137516651Y-54439962D01*
X137509419Y-54419750D01*
X137504203Y-54398926D01*
X137501053Y-54377691D01*
X137500000Y-54356250D01*
X137500000Y-53843750D01*
X137501053Y-53822309D01*
X137504203Y-53801074D01*
X137509419Y-53780250D01*
X137516651Y-53760038D01*
X137525830Y-53740632D01*
X137536866Y-53722219D01*
X137549654Y-53704976D01*
X137564070Y-53689070D01*
X137579976Y-53674654D01*
X137597219Y-53661866D01*
X137615632Y-53650830D01*
X137635038Y-53641651D01*
X137655250Y-53634419D01*
X137676074Y-53629203D01*
X137697309Y-53626053D01*
X137718750Y-53625000D01*
X138156250Y-53625000D01*
X138177691Y-53626053D01*
G37*
G36*
X136602691Y-53626053D02*
G01*
X136623926Y-53629203D01*
X136644750Y-53634419D01*
X136664962Y-53641651D01*
X136684368Y-53650830D01*
X136702781Y-53661866D01*
X136720024Y-53674654D01*
X136735930Y-53689070D01*
X136750346Y-53704976D01*
X136763134Y-53722219D01*
X136774170Y-53740632D01*
X136783349Y-53760038D01*
X136790581Y-53780250D01*
X136795797Y-53801074D01*
X136798947Y-53822309D01*
X136800000Y-53843750D01*
X136800000Y-54356250D01*
X136798947Y-54377691D01*
X136795797Y-54398926D01*
X136790581Y-54419750D01*
X136783349Y-54439962D01*
X136774170Y-54459368D01*
X136763134Y-54477781D01*
X136750346Y-54495024D01*
X136735930Y-54510930D01*
X136720024Y-54525346D01*
X136702781Y-54538134D01*
X136684368Y-54549170D01*
X136664962Y-54558349D01*
X136644750Y-54565581D01*
X136623926Y-54570797D01*
X136602691Y-54573947D01*
X136581250Y-54575000D01*
X136143750Y-54575000D01*
X136122309Y-54573947D01*
X136101074Y-54570797D01*
X136080250Y-54565581D01*
X136060038Y-54558349D01*
X136040632Y-54549170D01*
X136022219Y-54538134D01*
X136004976Y-54525346D01*
X135989070Y-54510930D01*
X135974654Y-54495024D01*
X135961866Y-54477781D01*
X135950830Y-54459368D01*
X135941651Y-54439962D01*
X135934419Y-54419750D01*
X135929203Y-54398926D01*
X135926053Y-54377691D01*
X135925000Y-54356250D01*
X135925000Y-53843750D01*
X135926053Y-53822309D01*
X135929203Y-53801074D01*
X135934419Y-53780250D01*
X135941651Y-53760038D01*
X135950830Y-53740632D01*
X135961866Y-53722219D01*
X135974654Y-53704976D01*
X135989070Y-53689070D01*
X136004976Y-53674654D01*
X136022219Y-53661866D01*
X136040632Y-53650830D01*
X136060038Y-53641651D01*
X136080250Y-53634419D01*
X136101074Y-53629203D01*
X136122309Y-53626053D01*
X136143750Y-53625000D01*
X136581250Y-53625000D01*
X136602691Y-53626053D01*
G37*
M02*
