G04 #@! TF.GenerationSoftware,KiCad,Pcbnew,5.1.5*
G04 #@! TF.CreationDate,2020-06-07T16:35:10+08:00*
G04 #@! TF.ProjectId,udisk,75646973-6b2e-46b6-9963-61645f706362,rev?*
G04 #@! TF.SameCoordinates,Original*
G04 #@! TF.FileFunction,Soldermask,Bot*
G04 #@! TF.FilePolarity,Negative*
%FSLAX46Y46*%
G04 Gerber Fmt 4.6, Leading zero omitted, Abs format (unit mm)*
G04 Created by KiCad (PCBNEW 5.1.5) date 2020-06-07 16:35:10*
%MOMM*%
%LPD*%
G04 APERTURE LIST*
%ADD10C,0.100000*%
G04 APERTURE END LIST*
D10*
G36*
X139846228Y-73013483D02*
G01*
X140034922Y-73070723D01*
X140208815Y-73163671D01*
X140361239Y-73288761D01*
X140486329Y-73441185D01*
X140579277Y-73615078D01*
X140636517Y-73803772D01*
X140651000Y-73950825D01*
X140651000Y-75649175D01*
X140636517Y-75796228D01*
X140579277Y-75984922D01*
X140486329Y-76158815D01*
X140361239Y-76311239D01*
X140208815Y-76436329D01*
X140034921Y-76529277D01*
X139846227Y-76586517D01*
X139650000Y-76605843D01*
X139453772Y-76586517D01*
X139265078Y-76529277D01*
X139091185Y-76436329D01*
X138938761Y-76311239D01*
X138813671Y-76158815D01*
X138720723Y-75984921D01*
X138663483Y-75796227D01*
X138649000Y-75649174D01*
X138649000Y-73950825D01*
X138663483Y-73803769D01*
X138720722Y-73615081D01*
X138813672Y-73441185D01*
X138938762Y-73288761D01*
X139091186Y-73163671D01*
X139265079Y-73070723D01*
X139453773Y-73013483D01*
X139650000Y-72994157D01*
X139846228Y-73013483D01*
G37*
G36*
X128446228Y-73013483D02*
G01*
X128634922Y-73070723D01*
X128808815Y-73163671D01*
X128961239Y-73288761D01*
X129086329Y-73441185D01*
X129179277Y-73615078D01*
X129236517Y-73803772D01*
X129251000Y-73950825D01*
X129251000Y-75649175D01*
X129236517Y-75796228D01*
X129179277Y-75984922D01*
X129086329Y-76158815D01*
X128961239Y-76311239D01*
X128808815Y-76436329D01*
X128634921Y-76529277D01*
X128446227Y-76586517D01*
X128250000Y-76605843D01*
X128053772Y-76586517D01*
X127865078Y-76529277D01*
X127691185Y-76436329D01*
X127538761Y-76311239D01*
X127413671Y-76158815D01*
X127320723Y-75984921D01*
X127263483Y-75796227D01*
X127249000Y-75649174D01*
X127249000Y-73950825D01*
X127263483Y-73803769D01*
X127320722Y-73615081D01*
X127413672Y-73441185D01*
X127538762Y-73288761D01*
X127691186Y-73163671D01*
X127865079Y-73070723D01*
X128053773Y-73013483D01*
X128250000Y-72994157D01*
X128446228Y-73013483D01*
G37*
G36*
X131786601Y-74214397D02*
G01*
X131825305Y-74222096D01*
X131857340Y-74235365D01*
X131934680Y-74267400D01*
X132033115Y-74333173D01*
X132116827Y-74416885D01*
X132182600Y-74515320D01*
X132227904Y-74624696D01*
X132251000Y-74740805D01*
X132251000Y-74859195D01*
X132227904Y-74975304D01*
X132182600Y-75084680D01*
X132116827Y-75183115D01*
X132033115Y-75266827D01*
X131934680Y-75332600D01*
X131857340Y-75364635D01*
X131825305Y-75377904D01*
X131786601Y-75385603D01*
X131709195Y-75401000D01*
X131590805Y-75401000D01*
X131513399Y-75385603D01*
X131474695Y-75377904D01*
X131442660Y-75364635D01*
X131365320Y-75332600D01*
X131266885Y-75266827D01*
X131183173Y-75183115D01*
X131117400Y-75084680D01*
X131072096Y-74975304D01*
X131049000Y-74859195D01*
X131049000Y-74740805D01*
X131072096Y-74624696D01*
X131117400Y-74515320D01*
X131183173Y-74416885D01*
X131266885Y-74333173D01*
X131365320Y-74267400D01*
X131442660Y-74235365D01*
X131474695Y-74222096D01*
X131513399Y-74214397D01*
X131590805Y-74199000D01*
X131709195Y-74199000D01*
X131786601Y-74214397D01*
G37*
G36*
X136386601Y-74214397D02*
G01*
X136425305Y-74222096D01*
X136457340Y-74235365D01*
X136534680Y-74267400D01*
X136633115Y-74333173D01*
X136716827Y-74416885D01*
X136782600Y-74515320D01*
X136827904Y-74624696D01*
X136851000Y-74740805D01*
X136851000Y-74859195D01*
X136827904Y-74975304D01*
X136782600Y-75084680D01*
X136716827Y-75183115D01*
X136633115Y-75266827D01*
X136534680Y-75332600D01*
X136457340Y-75364635D01*
X136425305Y-75377904D01*
X136386601Y-75385603D01*
X136309195Y-75401000D01*
X136190805Y-75401000D01*
X136113399Y-75385603D01*
X136074695Y-75377904D01*
X136042660Y-75364635D01*
X135965320Y-75332600D01*
X135866885Y-75266827D01*
X135783173Y-75183115D01*
X135717400Y-75084680D01*
X135672096Y-74975304D01*
X135649000Y-74859195D01*
X135649000Y-74740805D01*
X135672096Y-74624696D01*
X135717400Y-74515320D01*
X135783173Y-74416885D01*
X135866885Y-74333173D01*
X135965320Y-74267400D01*
X136042660Y-74235365D01*
X136074695Y-74222096D01*
X136113399Y-74214397D01*
X136190805Y-74199000D01*
X136309195Y-74199000D01*
X136386601Y-74214397D01*
G37*
G36*
X131051000Y-73351000D02*
G01*
X129849000Y-73351000D01*
X129849000Y-70749000D01*
X131051000Y-70749000D01*
X131051000Y-73351000D01*
G37*
G36*
X133551000Y-73351000D02*
G01*
X132349000Y-73351000D01*
X132349000Y-70749000D01*
X133551000Y-70749000D01*
X133551000Y-73351000D01*
G37*
G36*
X135551000Y-73351000D02*
G01*
X134349000Y-73351000D01*
X134349000Y-70749000D01*
X135551000Y-70749000D01*
X135551000Y-73351000D01*
G37*
G36*
X138051000Y-73351000D02*
G01*
X136849000Y-73351000D01*
X136849000Y-70749000D01*
X138051000Y-70749000D01*
X138051000Y-73351000D01*
G37*
G36*
X138384600Y-54800000D02*
G01*
X129532600Y-54800000D01*
X129532600Y-52198000D01*
X138384600Y-52198000D01*
X138384600Y-54800000D01*
G37*
G36*
X135816000Y-38851000D02*
G01*
X132084000Y-38851000D01*
X132084000Y-38149000D01*
X135816000Y-38149000D01*
X135816000Y-38851000D01*
G37*
G36*
X135816000Y-37451000D02*
G01*
X132084000Y-37451000D01*
X132084000Y-36749000D01*
X135816000Y-36749000D01*
X135816000Y-37451000D01*
G37*
M02*
