M48
; DRILL file {KiCad 5.1.5} date 2020年06月07日 星期日 16时35分13秒
; FORMAT={-:-/ absolute / inch / decimal}
; #@! TF.CreationDate,2020-06-07T16:35:13+08:00
; #@! TF.GenerationSoftware,Kicad,Pcbnew,5.1.5
; #@! TF.FileFunction,Plated,1,2,PTH
FMAT,2
INCH
T1C0.0118
T2C0.0157
T3C0.0354
%
G90
G05
T1
X5.3406Y-1.4862
T2
X5.0335Y-1.4646
X5.0335Y-1.6496
X5.0531Y-1.9291
X5.0531Y-2.1181
X5.0531Y-2.1969
X5.0924Y-1.464
X5.0981Y-1.6511
X5.0981Y-1.579
X5.1009Y-1.5281
X5.1358Y-2.9213
X5.1398Y-2.1969
X5.1791Y-1.9724
X5.187Y-1.8543
X5.2067Y-2.1969
X5.2106Y-1.5866
X5.2106Y-1.6575
X5.2106Y-1.7283
X5.2343Y-2.9213
X5.2461Y-1.8543
X5.2736Y-1.5866
X5.2736Y-1.6575
X5.2736Y-1.7283
X5.2894Y-1.8543
X5.3012Y-2.1969
X5.313Y-2.9213
X5.3366Y-1.5866
X5.3366Y-1.6575
X5.3366Y-1.7283
X5.3366Y-1.8543
X5.4114Y-2.9213
X5.4154Y-1.8543
X5.4311Y-2.1969
X5.4508Y-1.4646
X5.4626Y-1.8543
X5.4783Y-1.5906
X5.4783Y-1.6417
X5.498Y-1.4646
X5.498Y-1.9488
X5.498Y-2.1299
T3
G00X5.0492Y-2.9134
M15
G01X5.0492Y-2.9764
M16
G05
G00X5.498Y-2.9134
M15
G01X5.498Y-2.9764
M16
G05
T0
M30
