G04 #@! TF.GenerationSoftware,KiCad,Pcbnew,5.1.5*
G04 #@! TF.CreationDate,2020-06-01T07:17:40+08:00*
G04 #@! TF.ProjectId,udisk,75646973-6b2e-46b6-9963-61645f706362,rev?*
G04 #@! TF.SameCoordinates,Original*
G04 #@! TF.FileFunction,Legend,Top*
G04 #@! TF.FilePolarity,Positive*
%FSLAX46Y46*%
G04 Gerber Fmt 4.6, Leading zero omitted, Abs format (unit mm)*
G04 Created by KiCad (PCBNEW 5.1.5) date 2020-06-01 07:17:40*
%MOMM*%
%LPD*%
G04 APERTURE LIST*
%ADD10C,0.120000*%
G04 APERTURE END LIST*
D10*
X136987221Y-54610000D02*
X137312779Y-54610000D01*
X136987221Y-53590000D02*
X137312779Y-53590000D01*
X136987221Y-49010000D02*
X137312779Y-49010000D01*
X136987221Y-47990000D02*
X137312779Y-47990000D01*
X131510000Y-52880000D02*
X130050000Y-52880000D01*
X131510000Y-49720000D02*
X129350000Y-49720000D01*
X131510000Y-49720000D02*
X131510000Y-50650000D01*
X131510000Y-52880000D02*
X131510000Y-51950000D01*
X135540000Y-50400000D02*
X135540000Y-52850000D01*
X138760000Y-52200000D02*
X138760000Y-50400000D01*
X137560000Y-38965000D02*
X137560000Y-38490000D01*
X130340000Y-45710000D02*
X130815000Y-45710000D01*
X130340000Y-45235000D02*
X130340000Y-45710000D01*
X130340000Y-38490000D02*
X130815000Y-38490000D01*
X130340000Y-38965000D02*
X130340000Y-38490000D01*
X137560000Y-45710000D02*
X137085000Y-45710000D01*
X137560000Y-45235000D02*
X137560000Y-45710000D01*
X140250000Y-39000000D02*
G75*
G03X140250000Y-39000000I-700000J0D01*
G01*
X140250000Y-45200000D02*
G75*
G03X140250000Y-45200000I-700000J0D01*
G01*
X129050000Y-39000000D02*
G75*
G03X129050000Y-39000000I-700000J0D01*
G01*
X129050000Y-45200000D02*
G75*
G03X129050000Y-45200000I-700000J0D01*
G01*
X128450000Y-55400000D02*
X139450000Y-55400000D01*
X139450000Y-70400000D02*
X139450000Y-55400000D01*
X128450000Y-70400000D02*
X139450000Y-70400000D01*
X128450000Y-55400000D02*
X128450000Y-70400000D01*
X137460391Y-33988898D02*
G75*
G02X137460001Y-33990001I29609J-11102D01*
G01*
X137900000Y-32900000D02*
X130000000Y-32900000D01*
X137900000Y-35000000D02*
X130000000Y-35000000D01*
M02*
