G04 #@! TF.GenerationSoftware,KiCad,Pcbnew,5.1.5*
G04 #@! TF.CreationDate,2020-06-01T07:17:40+08:00*
G04 #@! TF.ProjectId,udisk,75646973-6b2e-46b6-9963-61645f706362,rev?*
G04 #@! TF.SameCoordinates,Original*
G04 #@! TF.FileFunction,Legend,Bot*
G04 #@! TF.FilePolarity,Positive*
%FSLAX46Y46*%
G04 Gerber Fmt 4.6, Leading zero omitted, Abs format (unit mm)*
G04 Created by KiCad (PCBNEW 5.1.5) date 2020-06-01 07:17:40*
%MOMM*%
%LPD*%
G04 APERTURE LIST*
%ADD10C,0.150000*%
%ADD11C,0.120000*%
%ADD12C,0.100000*%
%ADD13C,0.203200*%
G04 APERTURE END LIST*
D10*
X136849747Y-33412380D02*
X136308080Y-34412380D01*
X136183080Y-33412380D02*
X136974747Y-34412380D01*
X135897366Y-33412380D02*
X135784270Y-34412380D01*
X135504508Y-33698095D01*
X135403318Y-34412380D01*
X135040223Y-33412380D01*
X134754508Y-33412380D02*
X134212842Y-34412380D01*
X134087842Y-33412380D02*
X134879508Y-34412380D01*
X133022366Y-34412380D02*
X133069985Y-34412380D01*
X133159270Y-34364761D01*
X133284270Y-34221904D01*
X133486651Y-33936190D01*
X133564032Y-33793333D01*
X133593794Y-33650476D01*
X133581889Y-33555238D01*
X133522366Y-33460000D01*
X133421175Y-33412380D01*
X133373556Y-33412380D01*
X133284270Y-33460000D01*
X133248556Y-33555238D01*
X133254508Y-33602857D01*
X133314032Y-33698095D01*
X133367604Y-33745714D01*
X133677127Y-33936190D01*
X133730699Y-33983809D01*
X133790223Y-34079047D01*
X133808080Y-34221904D01*
X133772366Y-34317142D01*
X133730699Y-34364761D01*
X133641413Y-34412380D01*
X133498556Y-34412380D01*
X133397366Y-34364761D01*
X133343794Y-34317142D01*
X133177127Y-34126666D01*
X133111651Y-33983809D01*
X133099747Y-33888571D01*
X132564032Y-33412380D02*
X132022366Y-34412380D01*
X131897366Y-33412380D02*
X132689032Y-34412380D01*
X131391413Y-33936190D02*
X131450937Y-34412380D01*
X131659270Y-33412380D02*
X131391413Y-33936190D01*
X130992604Y-33412380D01*
D11*
X138508600Y-52069000D02*
X129408600Y-52069000D01*
X138508600Y-54929000D02*
X129408600Y-54929000D01*
X138508600Y-53559000D02*
X138508600Y-52069000D01*
X129408600Y-53559000D02*
X129408600Y-52069000D01*
D10*
X140700000Y-42450000D02*
X127200000Y-42450000D01*
X127200000Y-42450000D02*
X127200000Y-70450000D01*
X140700000Y-70450000D02*
X127200000Y-70450000D01*
X140700000Y-42450000D02*
X140700000Y-70450000D01*
D11*
X138508600Y-53559000D02*
X138508600Y-54929000D01*
X129408600Y-53559000D02*
X129408600Y-54929000D01*
D10*
X140700000Y-45850000D02*
X127200000Y-45850000D01*
D12*
X132582000Y-39444000D02*
G75*
G03X132582000Y-39444000I-254000J0D01*
G01*
D13*
X131930000Y-39010000D02*
X135970000Y-39010000D01*
X131930000Y-36590000D02*
X135970000Y-36590000D01*
X135970000Y-36590000D02*
X135970000Y-39010000D01*
X131930000Y-36590000D02*
X131930000Y-39010000D01*
M02*
