G04 #@! TF.GenerationSoftware,KiCad,Pcbnew,5.1.5*
G04 #@! TF.CreationDate,2020-06-07T16:35:10+08:00*
G04 #@! TF.ProjectId,udisk,75646973-6b2e-46b6-9963-61645f706362,rev?*
G04 #@! TF.SameCoordinates,Original*
G04 #@! TF.FileFunction,Copper,L2,Bot*
G04 #@! TF.FilePolarity,Positive*
%FSLAX46Y46*%
G04 Gerber Fmt 4.6, Leading zero omitted, Abs format (unit mm)*
G04 Created by KiCad (PCBNEW 5.1.5) date 2020-06-07 16:35:10*
%MOMM*%
%LPD*%
G04 APERTURE LIST*
%ADD10O,1.900000X3.500000*%
%ADD11R,1.100000X2.500000*%
%ADD12R,0.350000X2.500000*%
%ADD13R,0.720000X0.600000*%
%ADD14C,0.800000*%
%ADD15C,0.450000*%
%ADD16C,0.250000*%
%ADD17C,0.254000*%
G04 APERTURE END LIST*
D10*
X139650000Y-74800000D03*
X128250000Y-74800000D03*
D11*
X137450000Y-72050000D03*
X130450000Y-72050000D03*
X134950000Y-72050000D03*
X132950000Y-72050000D03*
D12*
X138158600Y-53499000D03*
X137458600Y-53499000D03*
X136758600Y-53499000D03*
X136058600Y-53499000D03*
X135358600Y-53499000D03*
X134658600Y-53499000D03*
X133958600Y-53499000D03*
X133258600Y-53499000D03*
X132558600Y-53499000D03*
X131858600Y-53499000D03*
X131158600Y-53499000D03*
X130458600Y-53499000D03*
X129758600Y-53499000D03*
D13*
X133465000Y-38500000D03*
X135405000Y-37100000D03*
X135405000Y-38500000D03*
X132495000Y-38500000D03*
X134435000Y-38500000D03*
X133465000Y-37100000D03*
X132495000Y-37100000D03*
X134435000Y-37100000D03*
D14*
X139150000Y-40400000D03*
X135550000Y-43900000D03*
X133950000Y-43900000D03*
X132350000Y-43900000D03*
X135550000Y-42100000D03*
X132350000Y-42100000D03*
X133950000Y-42100000D03*
X135550000Y-40300000D03*
X133950000Y-40300000D03*
X132350000Y-40300000D03*
X131550000Y-50100000D03*
X137450000Y-74200000D03*
X139650000Y-37200000D03*
X127850000Y-37200000D03*
X127850000Y-41900000D03*
X139650000Y-49500000D03*
X139650000Y-54100000D03*
X137950000Y-55800000D03*
X128350000Y-55800000D03*
X128350000Y-53800000D03*
X134650000Y-55800000D03*
X128350000Y-49000000D03*
X133250000Y-47100000D03*
D15*
X135650000Y-37750000D03*
D14*
X132250000Y-55800000D03*
X129348182Y-37186502D03*
X138450000Y-37200000D03*
X129492363Y-41937347D03*
X131750000Y-47100000D03*
X139150000Y-41700000D03*
X138750000Y-47100000D03*
X137550000Y-47100000D03*
X135550000Y-47100000D03*
X134350000Y-47100000D03*
X130550000Y-55800000D03*
X130450000Y-74200000D03*
X132950000Y-74200000D03*
X134950000Y-74200000D03*
X129492364Y-40107575D03*
X129562653Y-38812653D03*
D16*
X133258600Y-53499000D02*
X133258600Y-55308600D01*
X133258600Y-55308600D02*
X133850000Y-55900000D01*
X134450000Y-37115000D02*
X134435000Y-37100000D01*
X131858600Y-55408600D02*
X131858600Y-53499000D01*
X132250000Y-55800000D02*
X131858600Y-55408600D01*
X131858600Y-52408600D02*
X131858600Y-53699000D01*
X132495000Y-37200000D02*
X129361680Y-37200000D01*
X129361680Y-37200000D02*
X129348182Y-37186502D01*
X135405000Y-37200000D02*
X138450000Y-37200000D01*
X135550000Y-37245000D02*
X135405000Y-37100000D01*
X128767363Y-41212347D02*
X129092364Y-41537348D01*
X129092364Y-41537348D02*
X129492363Y-41937347D01*
X128767363Y-37767321D02*
X128767363Y-41212347D01*
X129348182Y-37186502D02*
X128767363Y-37767321D01*
X135405000Y-37505000D02*
X135650000Y-37750000D01*
X135405000Y-37100000D02*
X135405000Y-37505000D01*
X131669600Y-51910000D02*
X131858600Y-52099000D01*
X131858600Y-52099000D02*
X131858600Y-53599000D01*
X130647600Y-51910000D02*
X131669600Y-51910000D01*
X130458600Y-52099000D02*
X130647600Y-51910000D01*
X130458600Y-53599000D02*
X130458600Y-52099000D01*
X130458600Y-53699000D02*
X130458600Y-52388998D01*
X130458600Y-51923874D02*
X130458600Y-53699000D01*
X129492363Y-41937347D02*
X129492363Y-50957637D01*
X129492363Y-50957637D02*
X130458600Y-51923874D01*
X138024999Y-44625001D02*
X136950000Y-45700000D01*
X133150000Y-45700000D02*
X131750000Y-47100000D01*
X138450000Y-37200000D02*
X138024999Y-37625001D01*
X136950000Y-45700000D02*
X133150000Y-45700000D01*
X138024999Y-37625001D02*
X138024999Y-44625001D01*
X139550000Y-43465685D02*
X139550000Y-47700000D01*
X136758600Y-50491400D02*
X136758600Y-53499000D01*
X139550000Y-47700000D02*
X136758600Y-50491400D01*
X139549999Y-42099999D02*
X139150000Y-41700000D01*
X139550000Y-43465685D02*
X139549999Y-42099999D01*
X136058600Y-49791400D02*
X136058600Y-53499000D01*
X138750000Y-47100000D02*
X136058600Y-49791400D01*
X135358600Y-49291400D02*
X135358600Y-53499000D01*
X137550000Y-47100000D02*
X135358600Y-49291400D01*
X134675000Y-53482600D02*
X134658600Y-53499000D01*
X135550000Y-47100000D02*
X134658600Y-47991400D01*
X134658600Y-47991400D02*
X134658600Y-48008600D01*
X134658600Y-48008600D02*
X134658600Y-53499000D01*
X133950000Y-53490400D02*
X133958600Y-53499000D01*
X133958600Y-47508600D02*
X133958600Y-53499000D01*
X133950001Y-47500001D02*
X133958600Y-47508600D01*
X134350000Y-47100000D02*
X133950001Y-47500001D01*
X131158600Y-55191400D02*
X131158600Y-53499000D01*
X130550000Y-55800000D02*
X131158600Y-55191400D01*
X130450000Y-72050000D02*
X130450000Y-74200000D01*
X132950000Y-72050000D02*
X132950000Y-74200000D01*
X134950000Y-72050000D02*
X134950000Y-74200000D01*
X135405000Y-38600000D02*
X134435000Y-38600000D01*
X130999939Y-38600000D02*
X132495000Y-38600000D01*
X129492364Y-40107575D02*
X130999939Y-38600000D01*
X129962652Y-38412654D02*
X129562653Y-38812653D01*
X130500307Y-37874999D02*
X129962652Y-38412654D01*
X133240001Y-37874999D02*
X130500307Y-37874999D01*
X133465000Y-37650000D02*
X133240001Y-37874999D01*
X133465000Y-37100000D02*
X133465000Y-37650000D01*
D17*
G36*
X140344001Y-70430050D02*
G01*
X140344000Y-70430060D01*
X140344000Y-72576278D01*
X140139221Y-72487051D01*
X140022588Y-72459414D01*
X139777000Y-72579416D01*
X139777000Y-74673000D01*
X140344001Y-74673000D01*
X140344001Y-74927000D01*
X139777000Y-74927000D01*
X139777000Y-74947000D01*
X139523000Y-74947000D01*
X139523000Y-74927000D01*
X138065000Y-74927000D01*
X138065000Y-75727000D01*
X138120232Y-76033778D01*
X138234252Y-76323886D01*
X138402678Y-76586175D01*
X138619038Y-76810566D01*
X138875017Y-76988436D01*
X139117290Y-77094000D01*
X128782710Y-77094000D01*
X129024983Y-76988436D01*
X129280962Y-76810566D01*
X129497322Y-76586175D01*
X129665748Y-76323886D01*
X129779768Y-76033778D01*
X129835000Y-75727000D01*
X129835000Y-74927000D01*
X128377000Y-74927000D01*
X128377000Y-74947000D01*
X128123000Y-74947000D01*
X128123000Y-74927000D01*
X127556000Y-74927000D01*
X127556000Y-74673000D01*
X128123000Y-74673000D01*
X128123000Y-72579416D01*
X128377000Y-72579416D01*
X128377000Y-74673000D01*
X129826748Y-74673000D01*
X129843358Y-74697859D01*
X129952141Y-74806642D01*
X130080058Y-74892113D01*
X130222191Y-74950987D01*
X130373078Y-74981000D01*
X130526922Y-74981000D01*
X130677809Y-74950987D01*
X130726761Y-74930710D01*
X130754778Y-75071563D01*
X130824958Y-75240994D01*
X130926845Y-75393478D01*
X131056522Y-75523155D01*
X131209006Y-75625042D01*
X131378437Y-75695222D01*
X131558304Y-75731000D01*
X131741696Y-75731000D01*
X131921563Y-75695222D01*
X132090994Y-75625042D01*
X132243478Y-75523155D01*
X132373155Y-75393478D01*
X132475042Y-75240994D01*
X132545222Y-75071563D01*
X132580852Y-74892442D01*
X132722191Y-74950987D01*
X132873078Y-74981000D01*
X133026922Y-74981000D01*
X133177809Y-74950987D01*
X133319942Y-74892113D01*
X133447859Y-74806642D01*
X133556642Y-74697859D01*
X133642113Y-74569942D01*
X133700987Y-74427809D01*
X133731000Y-74276922D01*
X133731000Y-74123078D01*
X133700987Y-73972191D01*
X133642113Y-73830058D01*
X133556642Y-73702141D01*
X133533996Y-73679495D01*
X133574689Y-73675487D01*
X133646508Y-73653701D01*
X133712696Y-73618322D01*
X133770711Y-73570711D01*
X133818322Y-73512696D01*
X133853701Y-73446508D01*
X133875487Y-73374689D01*
X133882843Y-73300000D01*
X133882843Y-70800000D01*
X134017157Y-70800000D01*
X134017157Y-73300000D01*
X134024513Y-73374689D01*
X134046299Y-73446508D01*
X134081678Y-73512696D01*
X134129289Y-73570711D01*
X134187304Y-73618322D01*
X134253492Y-73653701D01*
X134325311Y-73675487D01*
X134366004Y-73679495D01*
X134343358Y-73702141D01*
X134257887Y-73830058D01*
X134199013Y-73972191D01*
X134169000Y-74123078D01*
X134169000Y-74276922D01*
X134199013Y-74427809D01*
X134257887Y-74569942D01*
X134343358Y-74697859D01*
X134452141Y-74806642D01*
X134580058Y-74892113D01*
X134722191Y-74950987D01*
X134873078Y-74981000D01*
X135026922Y-74981000D01*
X135177809Y-74950987D01*
X135319148Y-74892442D01*
X135354778Y-75071563D01*
X135424958Y-75240994D01*
X135526845Y-75393478D01*
X135656522Y-75523155D01*
X135809006Y-75625042D01*
X135978437Y-75695222D01*
X136158304Y-75731000D01*
X136341696Y-75731000D01*
X136521563Y-75695222D01*
X136690994Y-75625042D01*
X136843478Y-75523155D01*
X136973155Y-75393478D01*
X137075042Y-75240994D01*
X137145222Y-75071563D01*
X137181000Y-74891696D01*
X137181000Y-74708304D01*
X137145222Y-74528437D01*
X137075042Y-74359006D01*
X136973155Y-74206522D01*
X136843478Y-74076845D01*
X136690994Y-73974958D01*
X136521563Y-73904778D01*
X136341696Y-73869000D01*
X136158304Y-73869000D01*
X135978437Y-73904778D01*
X135809006Y-73974958D01*
X135714145Y-74038342D01*
X135700987Y-73972191D01*
X135642113Y-73830058D01*
X135556642Y-73702141D01*
X135533996Y-73679495D01*
X135574689Y-73675487D01*
X135646508Y-73653701D01*
X135712696Y-73618322D01*
X135770711Y-73570711D01*
X135818322Y-73512696D01*
X135853701Y-73446508D01*
X135875487Y-73374689D01*
X135882843Y-73300000D01*
X136261928Y-73300000D01*
X136274188Y-73424482D01*
X136310498Y-73544180D01*
X136369463Y-73654494D01*
X136448815Y-73751185D01*
X136545506Y-73830537D01*
X136655820Y-73889502D01*
X136775518Y-73925812D01*
X136900000Y-73938072D01*
X137164250Y-73935000D01*
X137323000Y-73776250D01*
X137323000Y-72177000D01*
X137577000Y-72177000D01*
X137577000Y-73776250D01*
X137735750Y-73935000D01*
X138000000Y-73938072D01*
X138065000Y-73931670D01*
X138065000Y-74673000D01*
X139523000Y-74673000D01*
X139523000Y-72579416D01*
X139277412Y-72459414D01*
X139160779Y-72487051D01*
X138875017Y-72611564D01*
X138636407Y-72777365D01*
X138635000Y-72335750D01*
X138476250Y-72177000D01*
X137577000Y-72177000D01*
X137323000Y-72177000D01*
X136423750Y-72177000D01*
X136265000Y-72335750D01*
X136261928Y-73300000D01*
X135882843Y-73300000D01*
X135882843Y-70800000D01*
X136261928Y-70800000D01*
X136265000Y-71764250D01*
X136423750Y-71923000D01*
X137323000Y-71923000D01*
X137323000Y-70323750D01*
X137577000Y-70323750D01*
X137577000Y-71923000D01*
X138476250Y-71923000D01*
X138635000Y-71764250D01*
X138638072Y-70800000D01*
X138625812Y-70675518D01*
X138589502Y-70555820D01*
X138530537Y-70445506D01*
X138451185Y-70348815D01*
X138354494Y-70269463D01*
X138244180Y-70210498D01*
X138124482Y-70174188D01*
X138000000Y-70161928D01*
X137735750Y-70165000D01*
X137577000Y-70323750D01*
X137323000Y-70323750D01*
X137164250Y-70165000D01*
X136900000Y-70161928D01*
X136775518Y-70174188D01*
X136655820Y-70210498D01*
X136545506Y-70269463D01*
X136448815Y-70348815D01*
X136369463Y-70445506D01*
X136310498Y-70555820D01*
X136274188Y-70675518D01*
X136261928Y-70800000D01*
X135882843Y-70800000D01*
X135875487Y-70725311D01*
X135853701Y-70653492D01*
X135818322Y-70587304D01*
X135770711Y-70529289D01*
X135712696Y-70481678D01*
X135646508Y-70446299D01*
X135574689Y-70424513D01*
X135500000Y-70417157D01*
X134400000Y-70417157D01*
X134325311Y-70424513D01*
X134253492Y-70446299D01*
X134187304Y-70481678D01*
X134129289Y-70529289D01*
X134081678Y-70587304D01*
X134046299Y-70653492D01*
X134024513Y-70725311D01*
X134017157Y-70800000D01*
X133882843Y-70800000D01*
X133875487Y-70725311D01*
X133853701Y-70653492D01*
X133818322Y-70587304D01*
X133770711Y-70529289D01*
X133712696Y-70481678D01*
X133646508Y-70446299D01*
X133574689Y-70424513D01*
X133500000Y-70417157D01*
X132400000Y-70417157D01*
X132325311Y-70424513D01*
X132253492Y-70446299D01*
X132187304Y-70481678D01*
X132129289Y-70529289D01*
X132081678Y-70587304D01*
X132046299Y-70653492D01*
X132024513Y-70725311D01*
X132017157Y-70800000D01*
X132017157Y-73300000D01*
X132024513Y-73374689D01*
X132046299Y-73446508D01*
X132081678Y-73512696D01*
X132129289Y-73570711D01*
X132187304Y-73618322D01*
X132253492Y-73653701D01*
X132325311Y-73675487D01*
X132366004Y-73679495D01*
X132343358Y-73702141D01*
X132257887Y-73830058D01*
X132199013Y-73972191D01*
X132185855Y-74038342D01*
X132090994Y-73974958D01*
X131921563Y-73904778D01*
X131741696Y-73869000D01*
X131558304Y-73869000D01*
X131378437Y-73904778D01*
X131209006Y-73974958D01*
X131202414Y-73979363D01*
X131200987Y-73972191D01*
X131142113Y-73830058D01*
X131056642Y-73702141D01*
X131033996Y-73679495D01*
X131074689Y-73675487D01*
X131146508Y-73653701D01*
X131212696Y-73618322D01*
X131270711Y-73570711D01*
X131318322Y-73512696D01*
X131353701Y-73446508D01*
X131375487Y-73374689D01*
X131382843Y-73300000D01*
X131382843Y-70800000D01*
X131375487Y-70725311D01*
X131353701Y-70653492D01*
X131318322Y-70587304D01*
X131270711Y-70529289D01*
X131212696Y-70481678D01*
X131146508Y-70446299D01*
X131074689Y-70424513D01*
X131000000Y-70417157D01*
X129900000Y-70417157D01*
X129825311Y-70424513D01*
X129753492Y-70446299D01*
X129687304Y-70481678D01*
X129629289Y-70529289D01*
X129581678Y-70587304D01*
X129546299Y-70653492D01*
X129524513Y-70725311D01*
X129517157Y-70800000D01*
X129517157Y-73044714D01*
X129497322Y-73013825D01*
X129280962Y-72789434D01*
X129024983Y-72611564D01*
X128739221Y-72487051D01*
X128622588Y-72459414D01*
X128377000Y-72579416D01*
X128123000Y-72579416D01*
X127877412Y-72459414D01*
X127760779Y-72487051D01*
X127556000Y-72576278D01*
X127556000Y-54742538D01*
X128945561Y-54742538D01*
X128956560Y-54867138D01*
X128991656Y-54987197D01*
X129049500Y-55098103D01*
X129127869Y-55195593D01*
X129223752Y-55275920D01*
X129333463Y-55335999D01*
X129452787Y-55373519D01*
X129551850Y-55384000D01*
X129710600Y-55225250D01*
X129710600Y-53626000D01*
X129107350Y-53626000D01*
X128948600Y-53784750D01*
X128945561Y-54742538D01*
X127556000Y-54742538D01*
X127556000Y-37767321D01*
X128258916Y-37767321D01*
X128261363Y-37792167D01*
X128261364Y-41187491D01*
X128258916Y-41212347D01*
X128268685Y-41311539D01*
X128297618Y-41406921D01*
X128314314Y-41438156D01*
X128344605Y-41494826D01*
X128407837Y-41571874D01*
X128427144Y-41587719D01*
X128711363Y-41871938D01*
X128711363Y-42014269D01*
X128741376Y-42165156D01*
X128800250Y-42307289D01*
X128885721Y-42435206D01*
X128986363Y-42535848D01*
X128986364Y-50932781D01*
X128983916Y-50957637D01*
X128993685Y-51056829D01*
X129022618Y-51152211D01*
X129022619Y-51152212D01*
X129069605Y-51240116D01*
X129132837Y-51317164D01*
X129152143Y-51333008D01*
X129445810Y-51626675D01*
X129333463Y-51662001D01*
X129223752Y-51722080D01*
X129127869Y-51802407D01*
X129049500Y-51899897D01*
X128991656Y-52010803D01*
X128956560Y-52130862D01*
X128945561Y-52255462D01*
X128948600Y-53213250D01*
X129107350Y-53372000D01*
X129710600Y-53372000D01*
X129710600Y-53352000D01*
X129806600Y-53352000D01*
X129806600Y-53372000D01*
X129900757Y-53372000D01*
X129900757Y-53626000D01*
X129806600Y-53626000D01*
X129806600Y-55225250D01*
X129919379Y-55338029D01*
X129857887Y-55430058D01*
X129799013Y-55572191D01*
X129769000Y-55723078D01*
X129769000Y-55876922D01*
X129799013Y-56027809D01*
X129857887Y-56169942D01*
X129943358Y-56297859D01*
X130052141Y-56406642D01*
X130180058Y-56492113D01*
X130322191Y-56550987D01*
X130473078Y-56581000D01*
X130626922Y-56581000D01*
X130777809Y-56550987D01*
X130919942Y-56492113D01*
X131047859Y-56406642D01*
X131156642Y-56297859D01*
X131242113Y-56169942D01*
X131300987Y-56027809D01*
X131331000Y-55876922D01*
X131331000Y-55734592D01*
X131414479Y-55651113D01*
X131435841Y-55691079D01*
X131469000Y-55731483D01*
X131469000Y-55876922D01*
X131499013Y-56027809D01*
X131557887Y-56169942D01*
X131643358Y-56297859D01*
X131752141Y-56406642D01*
X131880058Y-56492113D01*
X132022191Y-56550987D01*
X132173078Y-56581000D01*
X132326922Y-56581000D01*
X132477809Y-56550987D01*
X132619942Y-56492113D01*
X132747859Y-56406642D01*
X132856642Y-56297859D01*
X132942113Y-56169942D01*
X133000987Y-56027809D01*
X133031000Y-55876922D01*
X133031000Y-55723078D01*
X133000987Y-55572191D01*
X132942113Y-55430058D01*
X132891448Y-55354232D01*
X132952787Y-55373519D01*
X133051850Y-55384000D01*
X133210600Y-55225250D01*
X133210600Y-53626000D01*
X133116443Y-53626000D01*
X133116443Y-53372000D01*
X133210600Y-53372000D01*
X133210600Y-51772750D01*
X133051850Y-51614000D01*
X132952787Y-51624481D01*
X132833463Y-51662001D01*
X132723752Y-51722080D01*
X132627869Y-51802407D01*
X132576622Y-51866157D01*
X132383600Y-51866157D01*
X132311676Y-51873241D01*
X132281359Y-51816521D01*
X132218127Y-51739473D01*
X132198815Y-51723624D01*
X132044976Y-51569785D01*
X132029127Y-51550473D01*
X131952079Y-51487241D01*
X131864175Y-51440255D01*
X131768793Y-51411322D01*
X131694454Y-51404000D01*
X131694446Y-51404000D01*
X131669600Y-51401553D01*
X131644754Y-51404000D01*
X130672445Y-51404000D01*
X130652337Y-51402020D01*
X129998363Y-50748046D01*
X129998363Y-42535848D01*
X130099005Y-42435206D01*
X130184476Y-42307289D01*
X130243350Y-42165156D01*
X130273363Y-42014269D01*
X130273363Y-41860425D01*
X130243350Y-41709538D01*
X130184476Y-41567405D01*
X130099005Y-41439488D01*
X129990222Y-41330705D01*
X129862305Y-41245234D01*
X129720172Y-41186360D01*
X129569285Y-41156347D01*
X129426954Y-41156347D01*
X129273363Y-41002756D01*
X129273363Y-40860314D01*
X129415442Y-40888575D01*
X129569286Y-40888575D01*
X129720173Y-40858562D01*
X129862306Y-40799688D01*
X129990223Y-40714217D01*
X130099006Y-40605434D01*
X130184477Y-40477517D01*
X130243351Y-40335384D01*
X130273364Y-40184497D01*
X130273364Y-40042166D01*
X131209531Y-39106000D01*
X131907289Y-39106000D01*
X131922304Y-39118322D01*
X131988492Y-39153701D01*
X132060311Y-39175487D01*
X132135000Y-39182843D01*
X132855000Y-39182843D01*
X132929689Y-39175487D01*
X132980000Y-39160225D01*
X133030311Y-39175487D01*
X133105000Y-39182843D01*
X133825000Y-39182843D01*
X133899689Y-39175487D01*
X133950000Y-39160225D01*
X134000311Y-39175487D01*
X134075000Y-39182843D01*
X134795000Y-39182843D01*
X134869689Y-39175487D01*
X134920000Y-39160225D01*
X134970311Y-39175487D01*
X135045000Y-39182843D01*
X135765000Y-39182843D01*
X135839689Y-39175487D01*
X135911508Y-39153701D01*
X135977696Y-39118322D01*
X136035711Y-39070711D01*
X136083322Y-39012696D01*
X136118701Y-38946508D01*
X136140487Y-38874689D01*
X136147843Y-38800000D01*
X136147843Y-38200000D01*
X136140487Y-38125311D01*
X136136605Y-38112515D01*
X136187030Y-38037049D01*
X136232712Y-37926764D01*
X136256000Y-37809686D01*
X136256000Y-37706000D01*
X137518999Y-37706000D01*
X137519000Y-44415408D01*
X136740409Y-45194000D01*
X133174846Y-45194000D01*
X133150000Y-45191553D01*
X133125154Y-45194000D01*
X133125146Y-45194000D01*
X133050807Y-45201322D01*
X132955425Y-45230255D01*
X132867521Y-45277241D01*
X132790473Y-45340473D01*
X132774629Y-45359779D01*
X131815409Y-46319000D01*
X131673078Y-46319000D01*
X131522191Y-46349013D01*
X131380058Y-46407887D01*
X131252141Y-46493358D01*
X131143358Y-46602141D01*
X131057887Y-46730058D01*
X130999013Y-46872191D01*
X130969000Y-47023078D01*
X130969000Y-47176922D01*
X130999013Y-47327809D01*
X131057887Y-47469942D01*
X131143358Y-47597859D01*
X131252141Y-47706642D01*
X131380058Y-47792113D01*
X131522191Y-47850987D01*
X131673078Y-47881000D01*
X131826922Y-47881000D01*
X131977809Y-47850987D01*
X132119942Y-47792113D01*
X132247859Y-47706642D01*
X132356642Y-47597859D01*
X132442113Y-47469942D01*
X132500987Y-47327809D01*
X132531000Y-47176922D01*
X132531000Y-47034591D01*
X133359592Y-46206000D01*
X136925154Y-46206000D01*
X136950000Y-46208447D01*
X136974846Y-46206000D01*
X136974854Y-46206000D01*
X137049193Y-46198678D01*
X137144575Y-46169745D01*
X137232479Y-46122759D01*
X137309527Y-46059527D01*
X137325376Y-46040215D01*
X138365219Y-45000373D01*
X138384526Y-44984528D01*
X138447758Y-44907480D01*
X138494744Y-44819576D01*
X138523677Y-44724194D01*
X138530999Y-44649855D01*
X138530999Y-44649848D01*
X138533446Y-44625002D01*
X138530999Y-44600156D01*
X138530999Y-42179362D01*
X138543358Y-42197859D01*
X138652141Y-42306642D01*
X138780058Y-42392113D01*
X138922191Y-42450987D01*
X139044000Y-42475216D01*
X139044001Y-43440823D01*
X139044000Y-43440832D01*
X139044001Y-46376431D01*
X138977809Y-46349013D01*
X138826922Y-46319000D01*
X138673078Y-46319000D01*
X138522191Y-46349013D01*
X138380058Y-46407887D01*
X138252141Y-46493358D01*
X138150000Y-46595499D01*
X138047859Y-46493358D01*
X137919942Y-46407887D01*
X137777809Y-46349013D01*
X137626922Y-46319000D01*
X137473078Y-46319000D01*
X137322191Y-46349013D01*
X137180058Y-46407887D01*
X137052141Y-46493358D01*
X136943358Y-46602141D01*
X136857887Y-46730058D01*
X136799013Y-46872191D01*
X136769000Y-47023078D01*
X136769000Y-47165408D01*
X135164600Y-48769809D01*
X135164600Y-48200991D01*
X135484592Y-47881000D01*
X135626922Y-47881000D01*
X135777809Y-47850987D01*
X135919942Y-47792113D01*
X136047859Y-47706642D01*
X136156642Y-47597859D01*
X136242113Y-47469942D01*
X136300987Y-47327809D01*
X136331000Y-47176922D01*
X136331000Y-47023078D01*
X136300987Y-46872191D01*
X136242113Y-46730058D01*
X136156642Y-46602141D01*
X136047859Y-46493358D01*
X135919942Y-46407887D01*
X135777809Y-46349013D01*
X135626922Y-46319000D01*
X135473078Y-46319000D01*
X135322191Y-46349013D01*
X135180058Y-46407887D01*
X135052141Y-46493358D01*
X134950000Y-46595499D01*
X134847859Y-46493358D01*
X134719942Y-46407887D01*
X134577809Y-46349013D01*
X134426922Y-46319000D01*
X134273078Y-46319000D01*
X134122191Y-46349013D01*
X133980058Y-46407887D01*
X133852141Y-46493358D01*
X133743358Y-46602141D01*
X133657887Y-46730058D01*
X133599013Y-46872191D01*
X133569000Y-47023078D01*
X133569000Y-47166641D01*
X133560563Y-47176922D01*
X133527242Y-47217524D01*
X133520437Y-47230255D01*
X133480256Y-47305427D01*
X133451323Y-47400809D01*
X133447441Y-47440222D01*
X133441554Y-47500002D01*
X133451323Y-47599195D01*
X133452600Y-47603405D01*
X133452601Y-51626749D01*
X133306600Y-51772750D01*
X133306600Y-53372000D01*
X133400757Y-53372000D01*
X133400757Y-53626000D01*
X133306600Y-53626000D01*
X133306600Y-55225250D01*
X133465350Y-55384000D01*
X133564413Y-55373519D01*
X133683737Y-55335999D01*
X133793448Y-55275920D01*
X133889331Y-55195593D01*
X133940578Y-55131843D01*
X134133600Y-55131843D01*
X134208289Y-55124487D01*
X134280108Y-55102701D01*
X134308600Y-55087471D01*
X134337092Y-55102701D01*
X134408911Y-55124487D01*
X134483600Y-55131843D01*
X134833600Y-55131843D01*
X134908289Y-55124487D01*
X134980108Y-55102701D01*
X135008600Y-55087471D01*
X135037092Y-55102701D01*
X135108911Y-55124487D01*
X135183600Y-55131843D01*
X135533600Y-55131843D01*
X135608289Y-55124487D01*
X135680108Y-55102701D01*
X135708600Y-55087471D01*
X135737092Y-55102701D01*
X135808911Y-55124487D01*
X135883600Y-55131843D01*
X136233600Y-55131843D01*
X136308289Y-55124487D01*
X136380108Y-55102701D01*
X136408600Y-55087471D01*
X136437092Y-55102701D01*
X136508911Y-55124487D01*
X136583600Y-55131843D01*
X136933600Y-55131843D01*
X137008289Y-55124487D01*
X137080108Y-55102701D01*
X137108600Y-55087471D01*
X137137092Y-55102701D01*
X137208911Y-55124487D01*
X137283600Y-55131843D01*
X137633600Y-55131843D01*
X137708289Y-55124487D01*
X137780108Y-55102701D01*
X137808600Y-55087471D01*
X137837092Y-55102701D01*
X137908911Y-55124487D01*
X137983600Y-55131843D01*
X138333600Y-55131843D01*
X138408289Y-55124487D01*
X138480108Y-55102701D01*
X138546296Y-55067322D01*
X138604311Y-55019711D01*
X138651922Y-54961696D01*
X138687301Y-54895508D01*
X138709087Y-54823689D01*
X138716443Y-54749000D01*
X138716443Y-52249000D01*
X138709087Y-52174311D01*
X138687301Y-52102492D01*
X138651922Y-52036304D01*
X138604311Y-51978289D01*
X138546296Y-51930678D01*
X138480108Y-51895299D01*
X138408289Y-51873513D01*
X138333600Y-51866157D01*
X137983600Y-51866157D01*
X137908911Y-51873513D01*
X137837092Y-51895299D01*
X137808600Y-51910529D01*
X137780108Y-51895299D01*
X137708289Y-51873513D01*
X137633600Y-51866157D01*
X137283600Y-51866157D01*
X137264600Y-51868028D01*
X137264600Y-50700991D01*
X139890220Y-48075372D01*
X139909527Y-48059527D01*
X139972759Y-47982479D01*
X140019745Y-47894575D01*
X140048678Y-47799193D01*
X140056000Y-47724854D01*
X140058448Y-47700000D01*
X140056000Y-47675146D01*
X140056000Y-43440830D01*
X140055998Y-42124854D01*
X140058446Y-42099998D01*
X140048677Y-42000806D01*
X140019744Y-41905424D01*
X139972757Y-41817520D01*
X139931000Y-41766638D01*
X139931000Y-41623078D01*
X139900987Y-41472191D01*
X139842113Y-41330058D01*
X139756642Y-41202141D01*
X139647859Y-41093358D01*
X139519942Y-41007887D01*
X139377809Y-40949013D01*
X139226922Y-40919000D01*
X139073078Y-40919000D01*
X138922191Y-40949013D01*
X138780058Y-41007887D01*
X138652141Y-41093358D01*
X138543358Y-41202141D01*
X138530999Y-41220638D01*
X138530999Y-37980189D01*
X138677809Y-37950987D01*
X138819942Y-37892113D01*
X138947859Y-37806642D01*
X139056642Y-37697859D01*
X139142113Y-37569942D01*
X139200987Y-37427809D01*
X139231000Y-37276922D01*
X139231000Y-37123078D01*
X139200987Y-36972191D01*
X139142113Y-36830058D01*
X139056642Y-36702141D01*
X138947859Y-36593358D01*
X138819942Y-36507887D01*
X138677809Y-36449013D01*
X138526922Y-36419000D01*
X138373078Y-36419000D01*
X138222191Y-36449013D01*
X138080058Y-36507887D01*
X137952141Y-36593358D01*
X137851499Y-36694000D01*
X136130989Y-36694000D01*
X136118701Y-36653492D01*
X136083322Y-36587304D01*
X136035711Y-36529289D01*
X135977696Y-36481678D01*
X135911508Y-36446299D01*
X135839689Y-36424513D01*
X135765000Y-36417157D01*
X135302272Y-36417157D01*
X135246185Y-36348815D01*
X135149494Y-36269463D01*
X135039180Y-36210498D01*
X134919482Y-36174188D01*
X134795000Y-36161928D01*
X134720750Y-36165000D01*
X134562000Y-36323750D01*
X134562000Y-36973000D01*
X134582000Y-36973000D01*
X134582000Y-37227000D01*
X134562000Y-37227000D01*
X134562000Y-37247000D01*
X134308000Y-37247000D01*
X134308000Y-37227000D01*
X134288000Y-37227000D01*
X134288000Y-36973000D01*
X134308000Y-36973000D01*
X134308000Y-36323750D01*
X134149250Y-36165000D01*
X134075000Y-36161928D01*
X133950518Y-36174188D01*
X133830820Y-36210498D01*
X133720506Y-36269463D01*
X133623815Y-36348815D01*
X133567728Y-36417157D01*
X133105000Y-36417157D01*
X133030311Y-36424513D01*
X132980000Y-36439775D01*
X132929689Y-36424513D01*
X132855000Y-36417157D01*
X132135000Y-36417157D01*
X132060311Y-36424513D01*
X131988492Y-36446299D01*
X131922304Y-36481678D01*
X131864289Y-36529289D01*
X131816678Y-36587304D01*
X131781299Y-36653492D01*
X131769011Y-36694000D01*
X129958403Y-36694000D01*
X129954824Y-36688643D01*
X129846041Y-36579860D01*
X129718124Y-36494389D01*
X129575991Y-36435515D01*
X129425104Y-36405502D01*
X129271260Y-36405502D01*
X129120373Y-36435515D01*
X128978240Y-36494389D01*
X128850323Y-36579860D01*
X128741540Y-36688643D01*
X128656069Y-36816560D01*
X128597195Y-36958693D01*
X128567182Y-37109580D01*
X128567182Y-37251911D01*
X128427148Y-37391945D01*
X128407836Y-37407794D01*
X128344604Y-37484842D01*
X128297618Y-37572747D01*
X128268685Y-37668129D01*
X128261363Y-37742468D01*
X128261363Y-37742475D01*
X128258916Y-37767321D01*
X127556000Y-37767321D01*
X127556000Y-35427000D01*
X140344000Y-35427000D01*
X140344001Y-70430050D01*
G37*
X140344001Y-70430050D02*
X140344000Y-70430060D01*
X140344000Y-72576278D01*
X140139221Y-72487051D01*
X140022588Y-72459414D01*
X139777000Y-72579416D01*
X139777000Y-74673000D01*
X140344001Y-74673000D01*
X140344001Y-74927000D01*
X139777000Y-74927000D01*
X139777000Y-74947000D01*
X139523000Y-74947000D01*
X139523000Y-74927000D01*
X138065000Y-74927000D01*
X138065000Y-75727000D01*
X138120232Y-76033778D01*
X138234252Y-76323886D01*
X138402678Y-76586175D01*
X138619038Y-76810566D01*
X138875017Y-76988436D01*
X139117290Y-77094000D01*
X128782710Y-77094000D01*
X129024983Y-76988436D01*
X129280962Y-76810566D01*
X129497322Y-76586175D01*
X129665748Y-76323886D01*
X129779768Y-76033778D01*
X129835000Y-75727000D01*
X129835000Y-74927000D01*
X128377000Y-74927000D01*
X128377000Y-74947000D01*
X128123000Y-74947000D01*
X128123000Y-74927000D01*
X127556000Y-74927000D01*
X127556000Y-74673000D01*
X128123000Y-74673000D01*
X128123000Y-72579416D01*
X128377000Y-72579416D01*
X128377000Y-74673000D01*
X129826748Y-74673000D01*
X129843358Y-74697859D01*
X129952141Y-74806642D01*
X130080058Y-74892113D01*
X130222191Y-74950987D01*
X130373078Y-74981000D01*
X130526922Y-74981000D01*
X130677809Y-74950987D01*
X130726761Y-74930710D01*
X130754778Y-75071563D01*
X130824958Y-75240994D01*
X130926845Y-75393478D01*
X131056522Y-75523155D01*
X131209006Y-75625042D01*
X131378437Y-75695222D01*
X131558304Y-75731000D01*
X131741696Y-75731000D01*
X131921563Y-75695222D01*
X132090994Y-75625042D01*
X132243478Y-75523155D01*
X132373155Y-75393478D01*
X132475042Y-75240994D01*
X132545222Y-75071563D01*
X132580852Y-74892442D01*
X132722191Y-74950987D01*
X132873078Y-74981000D01*
X133026922Y-74981000D01*
X133177809Y-74950987D01*
X133319942Y-74892113D01*
X133447859Y-74806642D01*
X133556642Y-74697859D01*
X133642113Y-74569942D01*
X133700987Y-74427809D01*
X133731000Y-74276922D01*
X133731000Y-74123078D01*
X133700987Y-73972191D01*
X133642113Y-73830058D01*
X133556642Y-73702141D01*
X133533996Y-73679495D01*
X133574689Y-73675487D01*
X133646508Y-73653701D01*
X133712696Y-73618322D01*
X133770711Y-73570711D01*
X133818322Y-73512696D01*
X133853701Y-73446508D01*
X133875487Y-73374689D01*
X133882843Y-73300000D01*
X133882843Y-70800000D01*
X134017157Y-70800000D01*
X134017157Y-73300000D01*
X134024513Y-73374689D01*
X134046299Y-73446508D01*
X134081678Y-73512696D01*
X134129289Y-73570711D01*
X134187304Y-73618322D01*
X134253492Y-73653701D01*
X134325311Y-73675487D01*
X134366004Y-73679495D01*
X134343358Y-73702141D01*
X134257887Y-73830058D01*
X134199013Y-73972191D01*
X134169000Y-74123078D01*
X134169000Y-74276922D01*
X134199013Y-74427809D01*
X134257887Y-74569942D01*
X134343358Y-74697859D01*
X134452141Y-74806642D01*
X134580058Y-74892113D01*
X134722191Y-74950987D01*
X134873078Y-74981000D01*
X135026922Y-74981000D01*
X135177809Y-74950987D01*
X135319148Y-74892442D01*
X135354778Y-75071563D01*
X135424958Y-75240994D01*
X135526845Y-75393478D01*
X135656522Y-75523155D01*
X135809006Y-75625042D01*
X135978437Y-75695222D01*
X136158304Y-75731000D01*
X136341696Y-75731000D01*
X136521563Y-75695222D01*
X136690994Y-75625042D01*
X136843478Y-75523155D01*
X136973155Y-75393478D01*
X137075042Y-75240994D01*
X137145222Y-75071563D01*
X137181000Y-74891696D01*
X137181000Y-74708304D01*
X137145222Y-74528437D01*
X137075042Y-74359006D01*
X136973155Y-74206522D01*
X136843478Y-74076845D01*
X136690994Y-73974958D01*
X136521563Y-73904778D01*
X136341696Y-73869000D01*
X136158304Y-73869000D01*
X135978437Y-73904778D01*
X135809006Y-73974958D01*
X135714145Y-74038342D01*
X135700987Y-73972191D01*
X135642113Y-73830058D01*
X135556642Y-73702141D01*
X135533996Y-73679495D01*
X135574689Y-73675487D01*
X135646508Y-73653701D01*
X135712696Y-73618322D01*
X135770711Y-73570711D01*
X135818322Y-73512696D01*
X135853701Y-73446508D01*
X135875487Y-73374689D01*
X135882843Y-73300000D01*
X136261928Y-73300000D01*
X136274188Y-73424482D01*
X136310498Y-73544180D01*
X136369463Y-73654494D01*
X136448815Y-73751185D01*
X136545506Y-73830537D01*
X136655820Y-73889502D01*
X136775518Y-73925812D01*
X136900000Y-73938072D01*
X137164250Y-73935000D01*
X137323000Y-73776250D01*
X137323000Y-72177000D01*
X137577000Y-72177000D01*
X137577000Y-73776250D01*
X137735750Y-73935000D01*
X138000000Y-73938072D01*
X138065000Y-73931670D01*
X138065000Y-74673000D01*
X139523000Y-74673000D01*
X139523000Y-72579416D01*
X139277412Y-72459414D01*
X139160779Y-72487051D01*
X138875017Y-72611564D01*
X138636407Y-72777365D01*
X138635000Y-72335750D01*
X138476250Y-72177000D01*
X137577000Y-72177000D01*
X137323000Y-72177000D01*
X136423750Y-72177000D01*
X136265000Y-72335750D01*
X136261928Y-73300000D01*
X135882843Y-73300000D01*
X135882843Y-70800000D01*
X136261928Y-70800000D01*
X136265000Y-71764250D01*
X136423750Y-71923000D01*
X137323000Y-71923000D01*
X137323000Y-70323750D01*
X137577000Y-70323750D01*
X137577000Y-71923000D01*
X138476250Y-71923000D01*
X138635000Y-71764250D01*
X138638072Y-70800000D01*
X138625812Y-70675518D01*
X138589502Y-70555820D01*
X138530537Y-70445506D01*
X138451185Y-70348815D01*
X138354494Y-70269463D01*
X138244180Y-70210498D01*
X138124482Y-70174188D01*
X138000000Y-70161928D01*
X137735750Y-70165000D01*
X137577000Y-70323750D01*
X137323000Y-70323750D01*
X137164250Y-70165000D01*
X136900000Y-70161928D01*
X136775518Y-70174188D01*
X136655820Y-70210498D01*
X136545506Y-70269463D01*
X136448815Y-70348815D01*
X136369463Y-70445506D01*
X136310498Y-70555820D01*
X136274188Y-70675518D01*
X136261928Y-70800000D01*
X135882843Y-70800000D01*
X135875487Y-70725311D01*
X135853701Y-70653492D01*
X135818322Y-70587304D01*
X135770711Y-70529289D01*
X135712696Y-70481678D01*
X135646508Y-70446299D01*
X135574689Y-70424513D01*
X135500000Y-70417157D01*
X134400000Y-70417157D01*
X134325311Y-70424513D01*
X134253492Y-70446299D01*
X134187304Y-70481678D01*
X134129289Y-70529289D01*
X134081678Y-70587304D01*
X134046299Y-70653492D01*
X134024513Y-70725311D01*
X134017157Y-70800000D01*
X133882843Y-70800000D01*
X133875487Y-70725311D01*
X133853701Y-70653492D01*
X133818322Y-70587304D01*
X133770711Y-70529289D01*
X133712696Y-70481678D01*
X133646508Y-70446299D01*
X133574689Y-70424513D01*
X133500000Y-70417157D01*
X132400000Y-70417157D01*
X132325311Y-70424513D01*
X132253492Y-70446299D01*
X132187304Y-70481678D01*
X132129289Y-70529289D01*
X132081678Y-70587304D01*
X132046299Y-70653492D01*
X132024513Y-70725311D01*
X132017157Y-70800000D01*
X132017157Y-73300000D01*
X132024513Y-73374689D01*
X132046299Y-73446508D01*
X132081678Y-73512696D01*
X132129289Y-73570711D01*
X132187304Y-73618322D01*
X132253492Y-73653701D01*
X132325311Y-73675487D01*
X132366004Y-73679495D01*
X132343358Y-73702141D01*
X132257887Y-73830058D01*
X132199013Y-73972191D01*
X132185855Y-74038342D01*
X132090994Y-73974958D01*
X131921563Y-73904778D01*
X131741696Y-73869000D01*
X131558304Y-73869000D01*
X131378437Y-73904778D01*
X131209006Y-73974958D01*
X131202414Y-73979363D01*
X131200987Y-73972191D01*
X131142113Y-73830058D01*
X131056642Y-73702141D01*
X131033996Y-73679495D01*
X131074689Y-73675487D01*
X131146508Y-73653701D01*
X131212696Y-73618322D01*
X131270711Y-73570711D01*
X131318322Y-73512696D01*
X131353701Y-73446508D01*
X131375487Y-73374689D01*
X131382843Y-73300000D01*
X131382843Y-70800000D01*
X131375487Y-70725311D01*
X131353701Y-70653492D01*
X131318322Y-70587304D01*
X131270711Y-70529289D01*
X131212696Y-70481678D01*
X131146508Y-70446299D01*
X131074689Y-70424513D01*
X131000000Y-70417157D01*
X129900000Y-70417157D01*
X129825311Y-70424513D01*
X129753492Y-70446299D01*
X129687304Y-70481678D01*
X129629289Y-70529289D01*
X129581678Y-70587304D01*
X129546299Y-70653492D01*
X129524513Y-70725311D01*
X129517157Y-70800000D01*
X129517157Y-73044714D01*
X129497322Y-73013825D01*
X129280962Y-72789434D01*
X129024983Y-72611564D01*
X128739221Y-72487051D01*
X128622588Y-72459414D01*
X128377000Y-72579416D01*
X128123000Y-72579416D01*
X127877412Y-72459414D01*
X127760779Y-72487051D01*
X127556000Y-72576278D01*
X127556000Y-54742538D01*
X128945561Y-54742538D01*
X128956560Y-54867138D01*
X128991656Y-54987197D01*
X129049500Y-55098103D01*
X129127869Y-55195593D01*
X129223752Y-55275920D01*
X129333463Y-55335999D01*
X129452787Y-55373519D01*
X129551850Y-55384000D01*
X129710600Y-55225250D01*
X129710600Y-53626000D01*
X129107350Y-53626000D01*
X128948600Y-53784750D01*
X128945561Y-54742538D01*
X127556000Y-54742538D01*
X127556000Y-37767321D01*
X128258916Y-37767321D01*
X128261363Y-37792167D01*
X128261364Y-41187491D01*
X128258916Y-41212347D01*
X128268685Y-41311539D01*
X128297618Y-41406921D01*
X128314314Y-41438156D01*
X128344605Y-41494826D01*
X128407837Y-41571874D01*
X128427144Y-41587719D01*
X128711363Y-41871938D01*
X128711363Y-42014269D01*
X128741376Y-42165156D01*
X128800250Y-42307289D01*
X128885721Y-42435206D01*
X128986363Y-42535848D01*
X128986364Y-50932781D01*
X128983916Y-50957637D01*
X128993685Y-51056829D01*
X129022618Y-51152211D01*
X129022619Y-51152212D01*
X129069605Y-51240116D01*
X129132837Y-51317164D01*
X129152143Y-51333008D01*
X129445810Y-51626675D01*
X129333463Y-51662001D01*
X129223752Y-51722080D01*
X129127869Y-51802407D01*
X129049500Y-51899897D01*
X128991656Y-52010803D01*
X128956560Y-52130862D01*
X128945561Y-52255462D01*
X128948600Y-53213250D01*
X129107350Y-53372000D01*
X129710600Y-53372000D01*
X129710600Y-53352000D01*
X129806600Y-53352000D01*
X129806600Y-53372000D01*
X129900757Y-53372000D01*
X129900757Y-53626000D01*
X129806600Y-53626000D01*
X129806600Y-55225250D01*
X129919379Y-55338029D01*
X129857887Y-55430058D01*
X129799013Y-55572191D01*
X129769000Y-55723078D01*
X129769000Y-55876922D01*
X129799013Y-56027809D01*
X129857887Y-56169942D01*
X129943358Y-56297859D01*
X130052141Y-56406642D01*
X130180058Y-56492113D01*
X130322191Y-56550987D01*
X130473078Y-56581000D01*
X130626922Y-56581000D01*
X130777809Y-56550987D01*
X130919942Y-56492113D01*
X131047859Y-56406642D01*
X131156642Y-56297859D01*
X131242113Y-56169942D01*
X131300987Y-56027809D01*
X131331000Y-55876922D01*
X131331000Y-55734592D01*
X131414479Y-55651113D01*
X131435841Y-55691079D01*
X131469000Y-55731483D01*
X131469000Y-55876922D01*
X131499013Y-56027809D01*
X131557887Y-56169942D01*
X131643358Y-56297859D01*
X131752141Y-56406642D01*
X131880058Y-56492113D01*
X132022191Y-56550987D01*
X132173078Y-56581000D01*
X132326922Y-56581000D01*
X132477809Y-56550987D01*
X132619942Y-56492113D01*
X132747859Y-56406642D01*
X132856642Y-56297859D01*
X132942113Y-56169942D01*
X133000987Y-56027809D01*
X133031000Y-55876922D01*
X133031000Y-55723078D01*
X133000987Y-55572191D01*
X132942113Y-55430058D01*
X132891448Y-55354232D01*
X132952787Y-55373519D01*
X133051850Y-55384000D01*
X133210600Y-55225250D01*
X133210600Y-53626000D01*
X133116443Y-53626000D01*
X133116443Y-53372000D01*
X133210600Y-53372000D01*
X133210600Y-51772750D01*
X133051850Y-51614000D01*
X132952787Y-51624481D01*
X132833463Y-51662001D01*
X132723752Y-51722080D01*
X132627869Y-51802407D01*
X132576622Y-51866157D01*
X132383600Y-51866157D01*
X132311676Y-51873241D01*
X132281359Y-51816521D01*
X132218127Y-51739473D01*
X132198815Y-51723624D01*
X132044976Y-51569785D01*
X132029127Y-51550473D01*
X131952079Y-51487241D01*
X131864175Y-51440255D01*
X131768793Y-51411322D01*
X131694454Y-51404000D01*
X131694446Y-51404000D01*
X131669600Y-51401553D01*
X131644754Y-51404000D01*
X130672445Y-51404000D01*
X130652337Y-51402020D01*
X129998363Y-50748046D01*
X129998363Y-42535848D01*
X130099005Y-42435206D01*
X130184476Y-42307289D01*
X130243350Y-42165156D01*
X130273363Y-42014269D01*
X130273363Y-41860425D01*
X130243350Y-41709538D01*
X130184476Y-41567405D01*
X130099005Y-41439488D01*
X129990222Y-41330705D01*
X129862305Y-41245234D01*
X129720172Y-41186360D01*
X129569285Y-41156347D01*
X129426954Y-41156347D01*
X129273363Y-41002756D01*
X129273363Y-40860314D01*
X129415442Y-40888575D01*
X129569286Y-40888575D01*
X129720173Y-40858562D01*
X129862306Y-40799688D01*
X129990223Y-40714217D01*
X130099006Y-40605434D01*
X130184477Y-40477517D01*
X130243351Y-40335384D01*
X130273364Y-40184497D01*
X130273364Y-40042166D01*
X131209531Y-39106000D01*
X131907289Y-39106000D01*
X131922304Y-39118322D01*
X131988492Y-39153701D01*
X132060311Y-39175487D01*
X132135000Y-39182843D01*
X132855000Y-39182843D01*
X132929689Y-39175487D01*
X132980000Y-39160225D01*
X133030311Y-39175487D01*
X133105000Y-39182843D01*
X133825000Y-39182843D01*
X133899689Y-39175487D01*
X133950000Y-39160225D01*
X134000311Y-39175487D01*
X134075000Y-39182843D01*
X134795000Y-39182843D01*
X134869689Y-39175487D01*
X134920000Y-39160225D01*
X134970311Y-39175487D01*
X135045000Y-39182843D01*
X135765000Y-39182843D01*
X135839689Y-39175487D01*
X135911508Y-39153701D01*
X135977696Y-39118322D01*
X136035711Y-39070711D01*
X136083322Y-39012696D01*
X136118701Y-38946508D01*
X136140487Y-38874689D01*
X136147843Y-38800000D01*
X136147843Y-38200000D01*
X136140487Y-38125311D01*
X136136605Y-38112515D01*
X136187030Y-38037049D01*
X136232712Y-37926764D01*
X136256000Y-37809686D01*
X136256000Y-37706000D01*
X137518999Y-37706000D01*
X137519000Y-44415408D01*
X136740409Y-45194000D01*
X133174846Y-45194000D01*
X133150000Y-45191553D01*
X133125154Y-45194000D01*
X133125146Y-45194000D01*
X133050807Y-45201322D01*
X132955425Y-45230255D01*
X132867521Y-45277241D01*
X132790473Y-45340473D01*
X132774629Y-45359779D01*
X131815409Y-46319000D01*
X131673078Y-46319000D01*
X131522191Y-46349013D01*
X131380058Y-46407887D01*
X131252141Y-46493358D01*
X131143358Y-46602141D01*
X131057887Y-46730058D01*
X130999013Y-46872191D01*
X130969000Y-47023078D01*
X130969000Y-47176922D01*
X130999013Y-47327809D01*
X131057887Y-47469942D01*
X131143358Y-47597859D01*
X131252141Y-47706642D01*
X131380058Y-47792113D01*
X131522191Y-47850987D01*
X131673078Y-47881000D01*
X131826922Y-47881000D01*
X131977809Y-47850987D01*
X132119942Y-47792113D01*
X132247859Y-47706642D01*
X132356642Y-47597859D01*
X132442113Y-47469942D01*
X132500987Y-47327809D01*
X132531000Y-47176922D01*
X132531000Y-47034591D01*
X133359592Y-46206000D01*
X136925154Y-46206000D01*
X136950000Y-46208447D01*
X136974846Y-46206000D01*
X136974854Y-46206000D01*
X137049193Y-46198678D01*
X137144575Y-46169745D01*
X137232479Y-46122759D01*
X137309527Y-46059527D01*
X137325376Y-46040215D01*
X138365219Y-45000373D01*
X138384526Y-44984528D01*
X138447758Y-44907480D01*
X138494744Y-44819576D01*
X138523677Y-44724194D01*
X138530999Y-44649855D01*
X138530999Y-44649848D01*
X138533446Y-44625002D01*
X138530999Y-44600156D01*
X138530999Y-42179362D01*
X138543358Y-42197859D01*
X138652141Y-42306642D01*
X138780058Y-42392113D01*
X138922191Y-42450987D01*
X139044000Y-42475216D01*
X139044001Y-43440823D01*
X139044000Y-43440832D01*
X139044001Y-46376431D01*
X138977809Y-46349013D01*
X138826922Y-46319000D01*
X138673078Y-46319000D01*
X138522191Y-46349013D01*
X138380058Y-46407887D01*
X138252141Y-46493358D01*
X138150000Y-46595499D01*
X138047859Y-46493358D01*
X137919942Y-46407887D01*
X137777809Y-46349013D01*
X137626922Y-46319000D01*
X137473078Y-46319000D01*
X137322191Y-46349013D01*
X137180058Y-46407887D01*
X137052141Y-46493358D01*
X136943358Y-46602141D01*
X136857887Y-46730058D01*
X136799013Y-46872191D01*
X136769000Y-47023078D01*
X136769000Y-47165408D01*
X135164600Y-48769809D01*
X135164600Y-48200991D01*
X135484592Y-47881000D01*
X135626922Y-47881000D01*
X135777809Y-47850987D01*
X135919942Y-47792113D01*
X136047859Y-47706642D01*
X136156642Y-47597859D01*
X136242113Y-47469942D01*
X136300987Y-47327809D01*
X136331000Y-47176922D01*
X136331000Y-47023078D01*
X136300987Y-46872191D01*
X136242113Y-46730058D01*
X136156642Y-46602141D01*
X136047859Y-46493358D01*
X135919942Y-46407887D01*
X135777809Y-46349013D01*
X135626922Y-46319000D01*
X135473078Y-46319000D01*
X135322191Y-46349013D01*
X135180058Y-46407887D01*
X135052141Y-46493358D01*
X134950000Y-46595499D01*
X134847859Y-46493358D01*
X134719942Y-46407887D01*
X134577809Y-46349013D01*
X134426922Y-46319000D01*
X134273078Y-46319000D01*
X134122191Y-46349013D01*
X133980058Y-46407887D01*
X133852141Y-46493358D01*
X133743358Y-46602141D01*
X133657887Y-46730058D01*
X133599013Y-46872191D01*
X133569000Y-47023078D01*
X133569000Y-47166641D01*
X133560563Y-47176922D01*
X133527242Y-47217524D01*
X133520437Y-47230255D01*
X133480256Y-47305427D01*
X133451323Y-47400809D01*
X133447441Y-47440222D01*
X133441554Y-47500002D01*
X133451323Y-47599195D01*
X133452600Y-47603405D01*
X133452601Y-51626749D01*
X133306600Y-51772750D01*
X133306600Y-53372000D01*
X133400757Y-53372000D01*
X133400757Y-53626000D01*
X133306600Y-53626000D01*
X133306600Y-55225250D01*
X133465350Y-55384000D01*
X133564413Y-55373519D01*
X133683737Y-55335999D01*
X133793448Y-55275920D01*
X133889331Y-55195593D01*
X133940578Y-55131843D01*
X134133600Y-55131843D01*
X134208289Y-55124487D01*
X134280108Y-55102701D01*
X134308600Y-55087471D01*
X134337092Y-55102701D01*
X134408911Y-55124487D01*
X134483600Y-55131843D01*
X134833600Y-55131843D01*
X134908289Y-55124487D01*
X134980108Y-55102701D01*
X135008600Y-55087471D01*
X135037092Y-55102701D01*
X135108911Y-55124487D01*
X135183600Y-55131843D01*
X135533600Y-55131843D01*
X135608289Y-55124487D01*
X135680108Y-55102701D01*
X135708600Y-55087471D01*
X135737092Y-55102701D01*
X135808911Y-55124487D01*
X135883600Y-55131843D01*
X136233600Y-55131843D01*
X136308289Y-55124487D01*
X136380108Y-55102701D01*
X136408600Y-55087471D01*
X136437092Y-55102701D01*
X136508911Y-55124487D01*
X136583600Y-55131843D01*
X136933600Y-55131843D01*
X137008289Y-55124487D01*
X137080108Y-55102701D01*
X137108600Y-55087471D01*
X137137092Y-55102701D01*
X137208911Y-55124487D01*
X137283600Y-55131843D01*
X137633600Y-55131843D01*
X137708289Y-55124487D01*
X137780108Y-55102701D01*
X137808600Y-55087471D01*
X137837092Y-55102701D01*
X137908911Y-55124487D01*
X137983600Y-55131843D01*
X138333600Y-55131843D01*
X138408289Y-55124487D01*
X138480108Y-55102701D01*
X138546296Y-55067322D01*
X138604311Y-55019711D01*
X138651922Y-54961696D01*
X138687301Y-54895508D01*
X138709087Y-54823689D01*
X138716443Y-54749000D01*
X138716443Y-52249000D01*
X138709087Y-52174311D01*
X138687301Y-52102492D01*
X138651922Y-52036304D01*
X138604311Y-51978289D01*
X138546296Y-51930678D01*
X138480108Y-51895299D01*
X138408289Y-51873513D01*
X138333600Y-51866157D01*
X137983600Y-51866157D01*
X137908911Y-51873513D01*
X137837092Y-51895299D01*
X137808600Y-51910529D01*
X137780108Y-51895299D01*
X137708289Y-51873513D01*
X137633600Y-51866157D01*
X137283600Y-51866157D01*
X137264600Y-51868028D01*
X137264600Y-50700991D01*
X139890220Y-48075372D01*
X139909527Y-48059527D01*
X139972759Y-47982479D01*
X140019745Y-47894575D01*
X140048678Y-47799193D01*
X140056000Y-47724854D01*
X140058448Y-47700000D01*
X140056000Y-47675146D01*
X140056000Y-43440830D01*
X140055998Y-42124854D01*
X140058446Y-42099998D01*
X140048677Y-42000806D01*
X140019744Y-41905424D01*
X139972757Y-41817520D01*
X139931000Y-41766638D01*
X139931000Y-41623078D01*
X139900987Y-41472191D01*
X139842113Y-41330058D01*
X139756642Y-41202141D01*
X139647859Y-41093358D01*
X139519942Y-41007887D01*
X139377809Y-40949013D01*
X139226922Y-40919000D01*
X139073078Y-40919000D01*
X138922191Y-40949013D01*
X138780058Y-41007887D01*
X138652141Y-41093358D01*
X138543358Y-41202141D01*
X138530999Y-41220638D01*
X138530999Y-37980189D01*
X138677809Y-37950987D01*
X138819942Y-37892113D01*
X138947859Y-37806642D01*
X139056642Y-37697859D01*
X139142113Y-37569942D01*
X139200987Y-37427809D01*
X139231000Y-37276922D01*
X139231000Y-37123078D01*
X139200987Y-36972191D01*
X139142113Y-36830058D01*
X139056642Y-36702141D01*
X138947859Y-36593358D01*
X138819942Y-36507887D01*
X138677809Y-36449013D01*
X138526922Y-36419000D01*
X138373078Y-36419000D01*
X138222191Y-36449013D01*
X138080058Y-36507887D01*
X137952141Y-36593358D01*
X137851499Y-36694000D01*
X136130989Y-36694000D01*
X136118701Y-36653492D01*
X136083322Y-36587304D01*
X136035711Y-36529289D01*
X135977696Y-36481678D01*
X135911508Y-36446299D01*
X135839689Y-36424513D01*
X135765000Y-36417157D01*
X135302272Y-36417157D01*
X135246185Y-36348815D01*
X135149494Y-36269463D01*
X135039180Y-36210498D01*
X134919482Y-36174188D01*
X134795000Y-36161928D01*
X134720750Y-36165000D01*
X134562000Y-36323750D01*
X134562000Y-36973000D01*
X134582000Y-36973000D01*
X134582000Y-37227000D01*
X134562000Y-37227000D01*
X134562000Y-37247000D01*
X134308000Y-37247000D01*
X134308000Y-37227000D01*
X134288000Y-37227000D01*
X134288000Y-36973000D01*
X134308000Y-36973000D01*
X134308000Y-36323750D01*
X134149250Y-36165000D01*
X134075000Y-36161928D01*
X133950518Y-36174188D01*
X133830820Y-36210498D01*
X133720506Y-36269463D01*
X133623815Y-36348815D01*
X133567728Y-36417157D01*
X133105000Y-36417157D01*
X133030311Y-36424513D01*
X132980000Y-36439775D01*
X132929689Y-36424513D01*
X132855000Y-36417157D01*
X132135000Y-36417157D01*
X132060311Y-36424513D01*
X131988492Y-36446299D01*
X131922304Y-36481678D01*
X131864289Y-36529289D01*
X131816678Y-36587304D01*
X131781299Y-36653492D01*
X131769011Y-36694000D01*
X129958403Y-36694000D01*
X129954824Y-36688643D01*
X129846041Y-36579860D01*
X129718124Y-36494389D01*
X129575991Y-36435515D01*
X129425104Y-36405502D01*
X129271260Y-36405502D01*
X129120373Y-36435515D01*
X128978240Y-36494389D01*
X128850323Y-36579860D01*
X128741540Y-36688643D01*
X128656069Y-36816560D01*
X128597195Y-36958693D01*
X128567182Y-37109580D01*
X128567182Y-37251911D01*
X128427148Y-37391945D01*
X128407836Y-37407794D01*
X128344604Y-37484842D01*
X128297618Y-37572747D01*
X128268685Y-37668129D01*
X128261363Y-37742468D01*
X128261363Y-37742475D01*
X128258916Y-37767321D01*
X127556000Y-37767321D01*
X127556000Y-35427000D01*
X140344000Y-35427000D01*
X140344001Y-70430050D01*
M02*
