G04 #@! TF.GenerationSoftware,KiCad,Pcbnew,5.1.5*
G04 #@! TF.CreationDate,2020-06-07T16:35:10+08:00*
G04 #@! TF.ProjectId,udisk,75646973-6b2e-46b6-9963-61645f706362,rev?*
G04 #@! TF.SameCoordinates,Original*
G04 #@! TF.FileFunction,Legend,Top*
G04 #@! TF.FilePolarity,Positive*
%FSLAX46Y46*%
G04 Gerber Fmt 4.6, Leading zero omitted, Abs format (unit mm)*
G04 Created by KiCad (PCBNEW 5.1.5) date 2020-06-07 16:35:10*
%MOMM*%
%LPD*%
G04 APERTURE LIST*
%ADD10C,0.200000*%
%ADD11C,0.010000*%
%ADD12C,0.120000*%
%ADD13C,0.100000*%
%ADD14C,0.150000*%
G04 APERTURE END LIST*
D10*
X129417380Y-71802380D02*
X129328095Y-71754761D01*
X129292380Y-71659523D01*
X129399523Y-70802380D01*
X129941190Y-71802380D02*
X129851904Y-71754761D01*
X129810238Y-71707142D01*
X129774523Y-71611904D01*
X129810238Y-71326190D01*
X129869761Y-71230952D01*
X129923333Y-71183333D01*
X130024523Y-71135714D01*
X130167380Y-71135714D01*
X130256666Y-71183333D01*
X130298333Y-71230952D01*
X130334047Y-71326190D01*
X130298333Y-71611904D01*
X130238809Y-71707142D01*
X130185238Y-71754761D01*
X130084047Y-71802380D01*
X129941190Y-71802380D01*
X130691190Y-71135714D02*
X130845952Y-71802380D01*
X131167380Y-71135714D01*
X131851904Y-71754761D02*
X131750714Y-71802380D01*
X131560238Y-71802380D01*
X131470952Y-71754761D01*
X131435238Y-71659523D01*
X131482857Y-71278571D01*
X131542380Y-71183333D01*
X131643571Y-71135714D01*
X131834047Y-71135714D01*
X131923333Y-71183333D01*
X131959047Y-71278571D01*
X131947142Y-71373809D01*
X131459047Y-71469047D01*
X133084047Y-71802380D02*
X133167380Y-71135714D01*
X133155476Y-71230952D02*
X133209047Y-71183333D01*
X133310238Y-71135714D01*
X133453095Y-71135714D01*
X133542380Y-71183333D01*
X133578095Y-71278571D01*
X133512619Y-71802380D01*
X133578095Y-71278571D02*
X133637619Y-71183333D01*
X133738809Y-71135714D01*
X133881666Y-71135714D01*
X133970952Y-71183333D01*
X134006666Y-71278571D01*
X133941190Y-71802380D01*
X134804285Y-71754761D02*
X134703095Y-71802380D01*
X134512619Y-71802380D01*
X134423333Y-71754761D01*
X134387619Y-71659523D01*
X134435238Y-71278571D01*
X134494761Y-71183333D01*
X134595952Y-71135714D01*
X134786428Y-71135714D01*
X134875714Y-71183333D01*
X134911428Y-71278571D01*
X134899523Y-71373809D01*
X134411428Y-71469047D01*
X135274523Y-71802380D02*
X135357857Y-71135714D01*
X135345952Y-71230952D02*
X135399523Y-71183333D01*
X135500714Y-71135714D01*
X135643571Y-71135714D01*
X135732857Y-71183333D01*
X135768571Y-71278571D01*
X135703095Y-71802380D01*
X135768571Y-71278571D02*
X135828095Y-71183333D01*
X135929285Y-71135714D01*
X136072142Y-71135714D01*
X136161428Y-71183333D01*
X136197142Y-71278571D01*
X136131666Y-71802380D01*
X136750714Y-71802380D02*
X136661428Y-71754761D01*
X136619761Y-71707142D01*
X136584047Y-71611904D01*
X136619761Y-71326190D01*
X136679285Y-71230952D01*
X136732857Y-71183333D01*
X136834047Y-71135714D01*
X136976904Y-71135714D01*
X137066190Y-71183333D01*
X137107857Y-71230952D01*
X137143571Y-71326190D01*
X137107857Y-71611904D01*
X137048333Y-71707142D01*
X136994761Y-71754761D01*
X136893571Y-71802380D01*
X136750714Y-71802380D01*
X137512619Y-71802380D02*
X137595952Y-71135714D01*
X137572142Y-71326190D02*
X137631666Y-71230952D01*
X137685238Y-71183333D01*
X137786428Y-71135714D01*
X137881666Y-71135714D01*
X138119761Y-71135714D02*
X138274523Y-71802380D01*
X138595952Y-71135714D02*
X138274523Y-71802380D01*
X138149523Y-72040476D01*
X138095952Y-72088095D01*
X137994761Y-72135714D01*
X132465000Y-72740476D02*
X132375714Y-72692857D01*
X132185238Y-72692857D01*
X132084047Y-72740476D01*
X131976904Y-72835714D01*
X131917380Y-72930952D01*
X131893571Y-73121428D01*
X131929285Y-73216666D01*
X132012619Y-73311904D01*
X132101904Y-73359523D01*
X132292380Y-73359523D01*
X132393571Y-73311904D01*
X132322142Y-72359523D02*
X132078095Y-72407142D01*
X131822142Y-72550000D01*
X131649523Y-72788095D01*
X131572142Y-73026190D01*
X131590000Y-73264285D01*
X131703095Y-73502380D01*
X131923333Y-73645238D01*
X132155476Y-73692857D01*
X132399523Y-73645238D01*
X132655476Y-73502380D01*
X132828095Y-73264285D01*
X132905476Y-73026190D01*
X132887619Y-72788095D01*
X132774523Y-72550000D01*
X132554285Y-72407142D01*
X132322142Y-72359523D01*
X134066190Y-72502380D02*
X134607857Y-73502380D01*
X134732857Y-72502380D02*
X133941190Y-73502380D01*
X136000714Y-73026190D02*
X135941190Y-73502380D01*
X135732857Y-72502380D02*
X136000714Y-73026190D01*
X136399523Y-72502380D01*
D11*
G36*
X134505814Y-58168931D02*
G01*
X134589635Y-58613555D01*
X134898920Y-58741053D01*
X135208206Y-58868551D01*
X135579246Y-58616246D01*
X135683157Y-58545996D01*
X135777087Y-58483272D01*
X135856652Y-58430938D01*
X135917470Y-58391857D01*
X135955157Y-58368893D01*
X135965421Y-58363942D01*
X135983910Y-58376676D01*
X136023420Y-58411882D01*
X136079522Y-58465062D01*
X136147787Y-58531718D01*
X136223786Y-58607354D01*
X136303092Y-58687472D01*
X136381275Y-58767574D01*
X136453907Y-58843164D01*
X136516559Y-58909745D01*
X136564803Y-58962818D01*
X136594210Y-58997887D01*
X136601241Y-59009623D01*
X136591123Y-59031260D01*
X136562759Y-59078662D01*
X136519129Y-59147193D01*
X136463218Y-59232215D01*
X136398006Y-59329093D01*
X136360219Y-59384350D01*
X136291343Y-59485248D01*
X136230140Y-59576299D01*
X136179578Y-59652970D01*
X136142628Y-59710728D01*
X136122258Y-59745043D01*
X136119197Y-59752254D01*
X136126136Y-59772748D01*
X136145051Y-59820513D01*
X136173087Y-59888832D01*
X136207391Y-59970989D01*
X136245109Y-60060270D01*
X136283387Y-60149958D01*
X136319370Y-60233338D01*
X136350206Y-60303694D01*
X136373039Y-60354310D01*
X136385017Y-60378471D01*
X136385724Y-60379422D01*
X136404531Y-60384036D01*
X136454618Y-60394328D01*
X136530793Y-60409287D01*
X136627865Y-60427901D01*
X136740643Y-60449159D01*
X136806442Y-60461418D01*
X136926950Y-60484362D01*
X137035797Y-60506195D01*
X137127476Y-60525722D01*
X137196481Y-60541748D01*
X137237304Y-60553079D01*
X137245511Y-60556674D01*
X137253548Y-60581006D01*
X137260033Y-60635959D01*
X137264970Y-60715108D01*
X137268364Y-60812026D01*
X137270218Y-60920287D01*
X137270538Y-61033465D01*
X137269327Y-61145135D01*
X137266590Y-61248868D01*
X137262331Y-61338241D01*
X137256555Y-61406826D01*
X137249267Y-61448197D01*
X137244895Y-61456810D01*
X137218764Y-61467133D01*
X137163393Y-61481892D01*
X137086107Y-61499352D01*
X136994230Y-61517780D01*
X136962158Y-61523741D01*
X136807524Y-61552066D01*
X136685375Y-61574876D01*
X136591673Y-61593080D01*
X136522384Y-61607583D01*
X136473471Y-61619292D01*
X136440897Y-61629115D01*
X136420628Y-61637956D01*
X136408626Y-61646724D01*
X136406947Y-61648457D01*
X136390184Y-61676371D01*
X136364614Y-61730695D01*
X136332788Y-61804777D01*
X136297260Y-61891965D01*
X136260583Y-61985608D01*
X136225311Y-62079052D01*
X136193996Y-62165647D01*
X136169193Y-62238740D01*
X136153454Y-62291678D01*
X136149332Y-62317811D01*
X136149676Y-62318726D01*
X136163641Y-62340086D01*
X136195322Y-62387084D01*
X136241391Y-62454827D01*
X136298518Y-62538423D01*
X136363373Y-62632982D01*
X136381843Y-62659854D01*
X136447699Y-62757275D01*
X136505650Y-62846163D01*
X136552538Y-62921412D01*
X136585207Y-62977920D01*
X136600500Y-63010581D01*
X136601241Y-63014593D01*
X136588392Y-63035684D01*
X136552888Y-63077464D01*
X136499293Y-63135445D01*
X136432171Y-63205135D01*
X136356087Y-63282045D01*
X136275604Y-63361683D01*
X136195287Y-63439561D01*
X136119699Y-63511186D01*
X136053405Y-63572070D01*
X136000969Y-63617721D01*
X135966955Y-63643650D01*
X135957545Y-63647883D01*
X135935643Y-63637912D01*
X135890800Y-63611020D01*
X135830321Y-63571736D01*
X135783789Y-63540117D01*
X135699475Y-63482098D01*
X135599626Y-63413784D01*
X135499473Y-63345579D01*
X135445627Y-63309075D01*
X135263371Y-63185800D01*
X135110381Y-63268520D01*
X135040682Y-63304759D01*
X134981414Y-63332926D01*
X134941311Y-63348991D01*
X134931103Y-63351226D01*
X134918829Y-63334722D01*
X134894613Y-63288082D01*
X134860263Y-63215609D01*
X134817588Y-63121606D01*
X134768394Y-63010374D01*
X134714490Y-62886215D01*
X134657684Y-62753432D01*
X134599782Y-62616327D01*
X134542593Y-62479202D01*
X134487924Y-62346358D01*
X134437584Y-62222098D01*
X134393380Y-62110725D01*
X134357119Y-62016539D01*
X134330609Y-61943844D01*
X134315658Y-61896941D01*
X134313254Y-61880833D01*
X134332311Y-61860286D01*
X134374036Y-61826933D01*
X134429706Y-61787702D01*
X134434378Y-61784599D01*
X134578264Y-61669423D01*
X134694283Y-61535053D01*
X134781430Y-61385784D01*
X134838699Y-61225913D01*
X134865086Y-61059737D01*
X134859585Y-60891552D01*
X134821190Y-60725655D01*
X134748895Y-60566342D01*
X134727626Y-60531487D01*
X134616996Y-60390737D01*
X134486302Y-60277714D01*
X134340064Y-60193003D01*
X134182808Y-60137194D01*
X134019057Y-60110874D01*
X133853333Y-60114630D01*
X133690162Y-60149050D01*
X133534065Y-60214723D01*
X133389567Y-60312235D01*
X133344869Y-60351813D01*
X133231112Y-60475703D01*
X133148218Y-60606124D01*
X133091356Y-60752315D01*
X133059687Y-60897088D01*
X133051869Y-61059860D01*
X133077938Y-61223440D01*
X133135245Y-61382298D01*
X133221144Y-61530906D01*
X133332986Y-61663735D01*
X133468123Y-61775256D01*
X133485883Y-61787011D01*
X133542150Y-61825508D01*
X133584923Y-61858863D01*
X133605372Y-61880160D01*
X133605669Y-61880833D01*
X133601279Y-61903871D01*
X133583876Y-61956157D01*
X133555268Y-62033390D01*
X133517265Y-62131268D01*
X133471674Y-62245491D01*
X133420303Y-62371758D01*
X133364962Y-62505767D01*
X133307458Y-62643218D01*
X133249601Y-62779808D01*
X133193198Y-62911237D01*
X133140058Y-63033205D01*
X133091990Y-63141409D01*
X133050801Y-63231549D01*
X133018301Y-63299323D01*
X132996297Y-63340430D01*
X132987436Y-63351226D01*
X132960360Y-63342819D01*
X132909697Y-63320272D01*
X132844183Y-63287613D01*
X132808159Y-63268520D01*
X132655168Y-63185800D01*
X132472912Y-63309075D01*
X132379875Y-63372228D01*
X132278015Y-63441727D01*
X132182562Y-63507165D01*
X132134750Y-63540117D01*
X132067505Y-63585273D01*
X132010564Y-63621057D01*
X131971354Y-63642938D01*
X131958619Y-63647563D01*
X131940083Y-63635085D01*
X131899059Y-63600252D01*
X131839525Y-63546678D01*
X131765458Y-63477983D01*
X131680835Y-63397781D01*
X131627315Y-63346286D01*
X131533681Y-63254286D01*
X131452759Y-63171999D01*
X131387823Y-63102945D01*
X131342142Y-63050644D01*
X131318989Y-63018616D01*
X131316768Y-63012116D01*
X131327076Y-62987394D01*
X131355561Y-62937405D01*
X131399063Y-62867212D01*
X131454423Y-62781875D01*
X131518480Y-62686456D01*
X131536697Y-62659854D01*
X131603073Y-62563167D01*
X131662622Y-62476117D01*
X131712016Y-62403595D01*
X131747925Y-62350493D01*
X131767019Y-62321703D01*
X131768864Y-62318726D01*
X131766105Y-62295782D01*
X131751462Y-62245336D01*
X131727487Y-62174041D01*
X131696734Y-62088547D01*
X131661756Y-61995507D01*
X131625107Y-61901574D01*
X131589339Y-61813399D01*
X131557006Y-61737634D01*
X131530662Y-61680931D01*
X131512858Y-61649943D01*
X131511593Y-61648457D01*
X131500706Y-61639601D01*
X131482318Y-61630843D01*
X131452394Y-61621277D01*
X131406897Y-61609996D01*
X131341791Y-61596093D01*
X131253039Y-61578663D01*
X131136607Y-61556798D01*
X130988458Y-61529591D01*
X130956382Y-61523741D01*
X130861314Y-61505374D01*
X130778435Y-61487405D01*
X130715070Y-61471569D01*
X130678542Y-61459600D01*
X130673644Y-61456810D01*
X130665573Y-61432072D01*
X130659013Y-61376790D01*
X130653967Y-61297389D01*
X130650441Y-61200296D01*
X130648439Y-61091938D01*
X130647964Y-60978740D01*
X130649023Y-60867128D01*
X130651618Y-60763529D01*
X130655754Y-60674368D01*
X130661437Y-60606072D01*
X130668669Y-60565066D01*
X130673029Y-60556674D01*
X130697302Y-60548208D01*
X130752574Y-60534435D01*
X130833338Y-60516550D01*
X130934088Y-60495748D01*
X131049317Y-60473223D01*
X131112098Y-60461418D01*
X131231213Y-60439151D01*
X131337435Y-60418979D01*
X131425573Y-60401915D01*
X131490434Y-60388969D01*
X131526826Y-60381155D01*
X131532816Y-60379422D01*
X131542939Y-60359890D01*
X131564338Y-60312843D01*
X131594161Y-60245003D01*
X131629555Y-60163091D01*
X131667668Y-60073828D01*
X131705647Y-59983935D01*
X131740640Y-59900135D01*
X131769794Y-59829147D01*
X131790257Y-59777694D01*
X131799177Y-59752497D01*
X131799343Y-59751396D01*
X131789231Y-59731519D01*
X131760883Y-59685777D01*
X131717277Y-59618717D01*
X131661394Y-59534884D01*
X131596213Y-59438826D01*
X131558321Y-59383650D01*
X131489275Y-59282481D01*
X131427950Y-59190630D01*
X131377337Y-59112744D01*
X131340429Y-59053469D01*
X131320218Y-59017451D01*
X131317299Y-59009377D01*
X131329847Y-58990584D01*
X131364537Y-58950457D01*
X131416937Y-58893493D01*
X131482616Y-58824185D01*
X131557144Y-58747031D01*
X131636087Y-58666525D01*
X131715017Y-58587163D01*
X131789500Y-58513440D01*
X131855106Y-58449852D01*
X131907404Y-58400894D01*
X131941961Y-58371061D01*
X131953522Y-58363942D01*
X131972346Y-58373953D01*
X132017369Y-58402078D01*
X132084213Y-58445454D01*
X132168501Y-58501218D01*
X132265856Y-58566506D01*
X132339293Y-58616246D01*
X132710333Y-58868551D01*
X133328905Y-58613555D01*
X133412725Y-58168931D01*
X133496546Y-57724307D01*
X134421994Y-57724307D01*
X134505814Y-58168931D01*
G37*
X134505814Y-58168931D02*
X134589635Y-58613555D01*
X134898920Y-58741053D01*
X135208206Y-58868551D01*
X135579246Y-58616246D01*
X135683157Y-58545996D01*
X135777087Y-58483272D01*
X135856652Y-58430938D01*
X135917470Y-58391857D01*
X135955157Y-58368893D01*
X135965421Y-58363942D01*
X135983910Y-58376676D01*
X136023420Y-58411882D01*
X136079522Y-58465062D01*
X136147787Y-58531718D01*
X136223786Y-58607354D01*
X136303092Y-58687472D01*
X136381275Y-58767574D01*
X136453907Y-58843164D01*
X136516559Y-58909745D01*
X136564803Y-58962818D01*
X136594210Y-58997887D01*
X136601241Y-59009623D01*
X136591123Y-59031260D01*
X136562759Y-59078662D01*
X136519129Y-59147193D01*
X136463218Y-59232215D01*
X136398006Y-59329093D01*
X136360219Y-59384350D01*
X136291343Y-59485248D01*
X136230140Y-59576299D01*
X136179578Y-59652970D01*
X136142628Y-59710728D01*
X136122258Y-59745043D01*
X136119197Y-59752254D01*
X136126136Y-59772748D01*
X136145051Y-59820513D01*
X136173087Y-59888832D01*
X136207391Y-59970989D01*
X136245109Y-60060270D01*
X136283387Y-60149958D01*
X136319370Y-60233338D01*
X136350206Y-60303694D01*
X136373039Y-60354310D01*
X136385017Y-60378471D01*
X136385724Y-60379422D01*
X136404531Y-60384036D01*
X136454618Y-60394328D01*
X136530793Y-60409287D01*
X136627865Y-60427901D01*
X136740643Y-60449159D01*
X136806442Y-60461418D01*
X136926950Y-60484362D01*
X137035797Y-60506195D01*
X137127476Y-60525722D01*
X137196481Y-60541748D01*
X137237304Y-60553079D01*
X137245511Y-60556674D01*
X137253548Y-60581006D01*
X137260033Y-60635959D01*
X137264970Y-60715108D01*
X137268364Y-60812026D01*
X137270218Y-60920287D01*
X137270538Y-61033465D01*
X137269327Y-61145135D01*
X137266590Y-61248868D01*
X137262331Y-61338241D01*
X137256555Y-61406826D01*
X137249267Y-61448197D01*
X137244895Y-61456810D01*
X137218764Y-61467133D01*
X137163393Y-61481892D01*
X137086107Y-61499352D01*
X136994230Y-61517780D01*
X136962158Y-61523741D01*
X136807524Y-61552066D01*
X136685375Y-61574876D01*
X136591673Y-61593080D01*
X136522384Y-61607583D01*
X136473471Y-61619292D01*
X136440897Y-61629115D01*
X136420628Y-61637956D01*
X136408626Y-61646724D01*
X136406947Y-61648457D01*
X136390184Y-61676371D01*
X136364614Y-61730695D01*
X136332788Y-61804777D01*
X136297260Y-61891965D01*
X136260583Y-61985608D01*
X136225311Y-62079052D01*
X136193996Y-62165647D01*
X136169193Y-62238740D01*
X136153454Y-62291678D01*
X136149332Y-62317811D01*
X136149676Y-62318726D01*
X136163641Y-62340086D01*
X136195322Y-62387084D01*
X136241391Y-62454827D01*
X136298518Y-62538423D01*
X136363373Y-62632982D01*
X136381843Y-62659854D01*
X136447699Y-62757275D01*
X136505650Y-62846163D01*
X136552538Y-62921412D01*
X136585207Y-62977920D01*
X136600500Y-63010581D01*
X136601241Y-63014593D01*
X136588392Y-63035684D01*
X136552888Y-63077464D01*
X136499293Y-63135445D01*
X136432171Y-63205135D01*
X136356087Y-63282045D01*
X136275604Y-63361683D01*
X136195287Y-63439561D01*
X136119699Y-63511186D01*
X136053405Y-63572070D01*
X136000969Y-63617721D01*
X135966955Y-63643650D01*
X135957545Y-63647883D01*
X135935643Y-63637912D01*
X135890800Y-63611020D01*
X135830321Y-63571736D01*
X135783789Y-63540117D01*
X135699475Y-63482098D01*
X135599626Y-63413784D01*
X135499473Y-63345579D01*
X135445627Y-63309075D01*
X135263371Y-63185800D01*
X135110381Y-63268520D01*
X135040682Y-63304759D01*
X134981414Y-63332926D01*
X134941311Y-63348991D01*
X134931103Y-63351226D01*
X134918829Y-63334722D01*
X134894613Y-63288082D01*
X134860263Y-63215609D01*
X134817588Y-63121606D01*
X134768394Y-63010374D01*
X134714490Y-62886215D01*
X134657684Y-62753432D01*
X134599782Y-62616327D01*
X134542593Y-62479202D01*
X134487924Y-62346358D01*
X134437584Y-62222098D01*
X134393380Y-62110725D01*
X134357119Y-62016539D01*
X134330609Y-61943844D01*
X134315658Y-61896941D01*
X134313254Y-61880833D01*
X134332311Y-61860286D01*
X134374036Y-61826933D01*
X134429706Y-61787702D01*
X134434378Y-61784599D01*
X134578264Y-61669423D01*
X134694283Y-61535053D01*
X134781430Y-61385784D01*
X134838699Y-61225913D01*
X134865086Y-61059737D01*
X134859585Y-60891552D01*
X134821190Y-60725655D01*
X134748895Y-60566342D01*
X134727626Y-60531487D01*
X134616996Y-60390737D01*
X134486302Y-60277714D01*
X134340064Y-60193003D01*
X134182808Y-60137194D01*
X134019057Y-60110874D01*
X133853333Y-60114630D01*
X133690162Y-60149050D01*
X133534065Y-60214723D01*
X133389567Y-60312235D01*
X133344869Y-60351813D01*
X133231112Y-60475703D01*
X133148218Y-60606124D01*
X133091356Y-60752315D01*
X133059687Y-60897088D01*
X133051869Y-61059860D01*
X133077938Y-61223440D01*
X133135245Y-61382298D01*
X133221144Y-61530906D01*
X133332986Y-61663735D01*
X133468123Y-61775256D01*
X133485883Y-61787011D01*
X133542150Y-61825508D01*
X133584923Y-61858863D01*
X133605372Y-61880160D01*
X133605669Y-61880833D01*
X133601279Y-61903871D01*
X133583876Y-61956157D01*
X133555268Y-62033390D01*
X133517265Y-62131268D01*
X133471674Y-62245491D01*
X133420303Y-62371758D01*
X133364962Y-62505767D01*
X133307458Y-62643218D01*
X133249601Y-62779808D01*
X133193198Y-62911237D01*
X133140058Y-63033205D01*
X133091990Y-63141409D01*
X133050801Y-63231549D01*
X133018301Y-63299323D01*
X132996297Y-63340430D01*
X132987436Y-63351226D01*
X132960360Y-63342819D01*
X132909697Y-63320272D01*
X132844183Y-63287613D01*
X132808159Y-63268520D01*
X132655168Y-63185800D01*
X132472912Y-63309075D01*
X132379875Y-63372228D01*
X132278015Y-63441727D01*
X132182562Y-63507165D01*
X132134750Y-63540117D01*
X132067505Y-63585273D01*
X132010564Y-63621057D01*
X131971354Y-63642938D01*
X131958619Y-63647563D01*
X131940083Y-63635085D01*
X131899059Y-63600252D01*
X131839525Y-63546678D01*
X131765458Y-63477983D01*
X131680835Y-63397781D01*
X131627315Y-63346286D01*
X131533681Y-63254286D01*
X131452759Y-63171999D01*
X131387823Y-63102945D01*
X131342142Y-63050644D01*
X131318989Y-63018616D01*
X131316768Y-63012116D01*
X131327076Y-62987394D01*
X131355561Y-62937405D01*
X131399063Y-62867212D01*
X131454423Y-62781875D01*
X131518480Y-62686456D01*
X131536697Y-62659854D01*
X131603073Y-62563167D01*
X131662622Y-62476117D01*
X131712016Y-62403595D01*
X131747925Y-62350493D01*
X131767019Y-62321703D01*
X131768864Y-62318726D01*
X131766105Y-62295782D01*
X131751462Y-62245336D01*
X131727487Y-62174041D01*
X131696734Y-62088547D01*
X131661756Y-61995507D01*
X131625107Y-61901574D01*
X131589339Y-61813399D01*
X131557006Y-61737634D01*
X131530662Y-61680931D01*
X131512858Y-61649943D01*
X131511593Y-61648457D01*
X131500706Y-61639601D01*
X131482318Y-61630843D01*
X131452394Y-61621277D01*
X131406897Y-61609996D01*
X131341791Y-61596093D01*
X131253039Y-61578663D01*
X131136607Y-61556798D01*
X130988458Y-61529591D01*
X130956382Y-61523741D01*
X130861314Y-61505374D01*
X130778435Y-61487405D01*
X130715070Y-61471569D01*
X130678542Y-61459600D01*
X130673644Y-61456810D01*
X130665573Y-61432072D01*
X130659013Y-61376790D01*
X130653967Y-61297389D01*
X130650441Y-61200296D01*
X130648439Y-61091938D01*
X130647964Y-60978740D01*
X130649023Y-60867128D01*
X130651618Y-60763529D01*
X130655754Y-60674368D01*
X130661437Y-60606072D01*
X130668669Y-60565066D01*
X130673029Y-60556674D01*
X130697302Y-60548208D01*
X130752574Y-60534435D01*
X130833338Y-60516550D01*
X130934088Y-60495748D01*
X131049317Y-60473223D01*
X131112098Y-60461418D01*
X131231213Y-60439151D01*
X131337435Y-60418979D01*
X131425573Y-60401915D01*
X131490434Y-60388969D01*
X131526826Y-60381155D01*
X131532816Y-60379422D01*
X131542939Y-60359890D01*
X131564338Y-60312843D01*
X131594161Y-60245003D01*
X131629555Y-60163091D01*
X131667668Y-60073828D01*
X131705647Y-59983935D01*
X131740640Y-59900135D01*
X131769794Y-59829147D01*
X131790257Y-59777694D01*
X131799177Y-59752497D01*
X131799343Y-59751396D01*
X131789231Y-59731519D01*
X131760883Y-59685777D01*
X131717277Y-59618717D01*
X131661394Y-59534884D01*
X131596213Y-59438826D01*
X131558321Y-59383650D01*
X131489275Y-59282481D01*
X131427950Y-59190630D01*
X131377337Y-59112744D01*
X131340429Y-59053469D01*
X131320218Y-59017451D01*
X131317299Y-59009377D01*
X131329847Y-58990584D01*
X131364537Y-58950457D01*
X131416937Y-58893493D01*
X131482616Y-58824185D01*
X131557144Y-58747031D01*
X131636087Y-58666525D01*
X131715017Y-58587163D01*
X131789500Y-58513440D01*
X131855106Y-58449852D01*
X131907404Y-58400894D01*
X131941961Y-58371061D01*
X131953522Y-58363942D01*
X131972346Y-58373953D01*
X132017369Y-58402078D01*
X132084213Y-58445454D01*
X132168501Y-58501218D01*
X132265856Y-58566506D01*
X132339293Y-58616246D01*
X132710333Y-58868551D01*
X133328905Y-58613555D01*
X133412725Y-58168931D01*
X133496546Y-57724307D01*
X134421994Y-57724307D01*
X134505814Y-58168931D01*
D12*
X134650000Y-76200000D02*
G75*
G03X134650000Y-76200000I-700000J0D01*
G01*
D13*
X133690000Y-49240000D02*
X133940000Y-48800000D01*
X134190000Y-49240000D02*
X133690000Y-49240000D01*
X133940000Y-48800000D02*
X134190000Y-49240000D01*
D14*
X135050000Y-49630000D02*
X135050000Y-50430000D01*
X132850000Y-47730000D02*
X135050000Y-47730000D01*
X132850000Y-50430000D02*
X135050000Y-50430000D01*
D12*
X136987221Y-54610000D02*
X137312779Y-54610000D01*
X136987221Y-53590000D02*
X137312779Y-53590000D01*
X136987221Y-49010000D02*
X137312779Y-49010000D01*
X136987221Y-47990000D02*
X137312779Y-47990000D01*
X131510000Y-52880000D02*
X130050000Y-52880000D01*
X131510000Y-49720000D02*
X129350000Y-49720000D01*
X131510000Y-49720000D02*
X131510000Y-50650000D01*
X131510000Y-52880000D02*
X131510000Y-51950000D01*
X135540000Y-50400000D02*
X135540000Y-52850000D01*
X138760000Y-52200000D02*
X138760000Y-50400000D01*
X137560000Y-38965000D02*
X137560000Y-38490000D01*
X130340000Y-45710000D02*
X130815000Y-45710000D01*
X130340000Y-45235000D02*
X130340000Y-45710000D01*
X130340000Y-38490000D02*
X130815000Y-38490000D01*
X130340000Y-38965000D02*
X130340000Y-38490000D01*
X137560000Y-45710000D02*
X137085000Y-45710000D01*
X137560000Y-45235000D02*
X137560000Y-45710000D01*
X140250000Y-39000000D02*
G75*
G03X140250000Y-39000000I-700000J0D01*
G01*
X140250000Y-45200000D02*
G75*
G03X140250000Y-45200000I-700000J0D01*
G01*
X129050000Y-39000000D02*
G75*
G03X129050000Y-39000000I-700000J0D01*
G01*
X129050000Y-45200000D02*
G75*
G03X129050000Y-45200000I-700000J0D01*
G01*
X128450000Y-55400000D02*
X139450000Y-55400000D01*
X139450000Y-70400000D02*
X139450000Y-55400000D01*
X128450000Y-70400000D02*
X139450000Y-70400000D01*
X128450000Y-55400000D02*
X128450000Y-70400000D01*
X137460391Y-33988898D02*
G75*
G02X137460001Y-33990001I29609J-11102D01*
G01*
X137900000Y-32900000D02*
X130000000Y-32900000D01*
X137900000Y-35000000D02*
X130000000Y-35000000D01*
M02*
